%TF.GenerationSoftware,KiCad,Pcbnew,(5.99.0-10579-g11785b08fe)*%
%TF.CreationDate,2021-05-20T20:29:29+02:00*%
%TF.ProjectId,Mainboard,4d61696e-626f-4617-9264-2e6b69636164,1*%
%TF.SameCoordinates,Original*%
%TF.FileFunction,Legend,Bot*%
%TF.FilePolarity,Positive*%
%FSLAX46Y46*%
G04 Gerber Fmt 4.6, Leading zero omitted, Abs format (unit mm)*
G04 Created by KiCad (PCBNEW (5.99.0-10579-g11785b08fe)) date 2021-05-20 20:29:29*
%MOMM*%
%LPD*%
G01*
G04 APERTURE LIST*
%ADD10C,0.150000*%
%ADD11C,0.120000*%
G04 APERTURE END LIST*
D10*
X154742857Y-104073904D02*
X154742857Y-103273904D01*
X154476190Y-103845333D01*
X154209523Y-103273904D01*
X154209523Y-104073904D01*
X153828571Y-104073904D02*
X153828571Y-103540571D01*
X153828571Y-103273904D02*
X153866666Y-103312000D01*
X153828571Y-103350095D01*
X153790476Y-103312000D01*
X153828571Y-103273904D01*
X153828571Y-103350095D01*
X153523809Y-104073904D02*
X153104761Y-103540571D01*
X153523809Y-103540571D02*
X153104761Y-104073904D01*
X152495238Y-104035809D02*
X152571428Y-104073904D01*
X152723809Y-104073904D01*
X152800000Y-104035809D01*
X152838095Y-103959619D01*
X152838095Y-103654857D01*
X152800000Y-103578666D01*
X152723809Y-103540571D01*
X152571428Y-103540571D01*
X152495238Y-103578666D01*
X152457142Y-103654857D01*
X152457142Y-103731047D01*
X152838095Y-103807238D01*
X152114285Y-104073904D02*
X152114285Y-103540571D01*
X152114285Y-103692952D02*
X152076190Y-103616761D01*
X152038095Y-103578666D01*
X151961904Y-103540571D01*
X151885714Y-103540571D01*
X151009523Y-104073904D02*
X151009523Y-103273904D01*
X150742857Y-103845333D01*
X150476190Y-103273904D01*
X150476190Y-104073904D01*
X149752380Y-104073904D02*
X149752380Y-103654857D01*
X149790476Y-103578666D01*
X149866666Y-103540571D01*
X150019047Y-103540571D01*
X150095238Y-103578666D01*
X149752380Y-104035809D02*
X149828571Y-104073904D01*
X150019047Y-104073904D01*
X150095238Y-104035809D01*
X150133333Y-103959619D01*
X150133333Y-103883428D01*
X150095238Y-103807238D01*
X150019047Y-103769142D01*
X149828571Y-103769142D01*
X149752380Y-103731047D01*
X149371428Y-104073904D02*
X149371428Y-103540571D01*
X149371428Y-103273904D02*
X149409523Y-103312000D01*
X149371428Y-103350095D01*
X149333333Y-103312000D01*
X149371428Y-103273904D01*
X149371428Y-103350095D01*
X148990476Y-103540571D02*
X148990476Y-104073904D01*
X148990476Y-103616761D02*
X148952380Y-103578666D01*
X148876190Y-103540571D01*
X148761904Y-103540571D01*
X148685714Y-103578666D01*
X148647619Y-103654857D01*
X148647619Y-104073904D01*
X148266666Y-104073904D02*
X148266666Y-103273904D01*
X148266666Y-103578666D02*
X148190476Y-103540571D01*
X148038095Y-103540571D01*
X147961904Y-103578666D01*
X147923809Y-103616761D01*
X147885714Y-103692952D01*
X147885714Y-103921523D01*
X147923809Y-103997714D01*
X147961904Y-104035809D01*
X148038095Y-104073904D01*
X148190476Y-104073904D01*
X148266666Y-104035809D01*
X147428571Y-104073904D02*
X147504761Y-104035809D01*
X147542857Y-103997714D01*
X147580952Y-103921523D01*
X147580952Y-103692952D01*
X147542857Y-103616761D01*
X147504761Y-103578666D01*
X147428571Y-103540571D01*
X147314285Y-103540571D01*
X147238095Y-103578666D01*
X147200000Y-103616761D01*
X147161904Y-103692952D01*
X147161904Y-103921523D01*
X147200000Y-103997714D01*
X147238095Y-104035809D01*
X147314285Y-104073904D01*
X147428571Y-104073904D01*
X146476190Y-104073904D02*
X146476190Y-103654857D01*
X146514285Y-103578666D01*
X146590476Y-103540571D01*
X146742857Y-103540571D01*
X146819047Y-103578666D01*
X146476190Y-104035809D02*
X146552380Y-104073904D01*
X146742857Y-104073904D01*
X146819047Y-104035809D01*
X146857142Y-103959619D01*
X146857142Y-103883428D01*
X146819047Y-103807238D01*
X146742857Y-103769142D01*
X146552380Y-103769142D01*
X146476190Y-103731047D01*
X146095238Y-104073904D02*
X146095238Y-103540571D01*
X146095238Y-103692952D02*
X146057142Y-103616761D01*
X146019047Y-103578666D01*
X145942857Y-103540571D01*
X145866666Y-103540571D01*
X145257142Y-104073904D02*
X145257142Y-103273904D01*
X145257142Y-104035809D02*
X145333333Y-104073904D01*
X145485714Y-104073904D01*
X145561904Y-104035809D01*
X145600000Y-103997714D01*
X145638095Y-103921523D01*
X145638095Y-103692952D01*
X145600000Y-103616761D01*
X145561904Y-103578666D01*
X145485714Y-103540571D01*
X145333333Y-103540571D01*
X145257142Y-103578666D01*
X155809523Y-105361904D02*
X156076190Y-104980952D01*
X156266666Y-105361904D02*
X156266666Y-104561904D01*
X155961904Y-104561904D01*
X155885714Y-104600000D01*
X155847619Y-104638095D01*
X155809523Y-104714285D01*
X155809523Y-104828571D01*
X155847619Y-104904761D01*
X155885714Y-104942857D01*
X155961904Y-104980952D01*
X156266666Y-104980952D01*
X155161904Y-105323809D02*
X155238095Y-105361904D01*
X155390476Y-105361904D01*
X155466666Y-105323809D01*
X155504761Y-105247619D01*
X155504761Y-104942857D01*
X155466666Y-104866666D01*
X155390476Y-104828571D01*
X155238095Y-104828571D01*
X155161904Y-104866666D01*
X155123809Y-104942857D01*
X155123809Y-105019047D01*
X155504761Y-105095238D01*
X154857142Y-104828571D02*
X154666666Y-105361904D01*
X154476190Y-104828571D01*
X154171428Y-105285714D02*
X154133333Y-105323809D01*
X154171428Y-105361904D01*
X154209523Y-105323809D01*
X154171428Y-105285714D01*
X154171428Y-105361904D01*
X152761904Y-105361904D02*
X153219047Y-105361904D01*
X152990476Y-105361904D02*
X152990476Y-104561904D01*
X153066666Y-104676190D01*
X153142857Y-104752380D01*
X153219047Y-104790476D01*
X152380952Y-105323809D02*
X152380952Y-105361904D01*
X152419047Y-105438095D01*
X152457142Y-105476190D01*
X151466666Y-104638095D02*
X151428571Y-104600000D01*
X151352380Y-104561904D01*
X151161904Y-104561904D01*
X151085714Y-104600000D01*
X151047619Y-104638095D01*
X151009523Y-104714285D01*
X151009523Y-104790476D01*
X151047619Y-104904761D01*
X151504761Y-105361904D01*
X151009523Y-105361904D01*
X150514285Y-104561904D02*
X150438095Y-104561904D01*
X150361904Y-104600000D01*
X150323809Y-104638095D01*
X150285714Y-104714285D01*
X150247619Y-104866666D01*
X150247619Y-105057142D01*
X150285714Y-105209523D01*
X150323809Y-105285714D01*
X150361904Y-105323809D01*
X150438095Y-105361904D01*
X150514285Y-105361904D01*
X150590476Y-105323809D01*
X150628571Y-105285714D01*
X150666666Y-105209523D01*
X150704761Y-105057142D01*
X150704761Y-104866666D01*
X150666666Y-104714285D01*
X150628571Y-104638095D01*
X150590476Y-104600000D01*
X150514285Y-104561904D01*
X149942857Y-104638095D02*
X149904761Y-104600000D01*
X149828571Y-104561904D01*
X149638095Y-104561904D01*
X149561904Y-104600000D01*
X149523809Y-104638095D01*
X149485714Y-104714285D01*
X149485714Y-104790476D01*
X149523809Y-104904761D01*
X149980952Y-105361904D01*
X149485714Y-105361904D01*
X148723809Y-105361904D02*
X149180952Y-105361904D01*
X148952380Y-105361904D02*
X148952380Y-104561904D01*
X149028571Y-104676190D01*
X149104761Y-104752380D01*
X149180952Y-104790476D01*
X148380952Y-105057142D02*
X147771428Y-105057142D01*
X147238095Y-104561904D02*
X147161904Y-104561904D01*
X147085714Y-104600000D01*
X147047619Y-104638095D01*
X147009523Y-104714285D01*
X146971428Y-104866666D01*
X146971428Y-105057142D01*
X147009523Y-105209523D01*
X147047619Y-105285714D01*
X147085714Y-105323809D01*
X147161904Y-105361904D01*
X147238095Y-105361904D01*
X147314285Y-105323809D01*
X147352380Y-105285714D01*
X147390476Y-105209523D01*
X147428571Y-105057142D01*
X147428571Y-104866666D01*
X147390476Y-104714285D01*
X147352380Y-104638095D01*
X147314285Y-104600000D01*
X147238095Y-104561904D01*
X146247619Y-104561904D02*
X146628571Y-104561904D01*
X146666666Y-104942857D01*
X146628571Y-104904761D01*
X146552380Y-104866666D01*
X146361904Y-104866666D01*
X146285714Y-104904761D01*
X146247619Y-104942857D01*
X146209523Y-105019047D01*
X146209523Y-105209523D01*
X146247619Y-105285714D01*
X146285714Y-105323809D01*
X146361904Y-105361904D01*
X146552380Y-105361904D01*
X146628571Y-105323809D01*
X146666666Y-105285714D01*
X145866666Y-105057142D02*
X145257142Y-105057142D01*
X144457142Y-105361904D02*
X144914285Y-105361904D01*
X144685714Y-105361904D02*
X144685714Y-104561904D01*
X144761904Y-104676190D01*
X144838095Y-104752380D01*
X144914285Y-104790476D01*
X144076190Y-105361904D02*
X143923809Y-105361904D01*
X143847619Y-105323809D01*
X143809523Y-105285714D01*
X143733333Y-105171428D01*
X143695238Y-105019047D01*
X143695238Y-104714285D01*
X143733333Y-104638095D01*
X143771428Y-104600000D01*
X143847619Y-104561904D01*
X144000000Y-104561904D01*
X144076190Y-104600000D01*
X144114285Y-104638095D01*
X144152380Y-104714285D01*
X144152380Y-104904761D01*
X144114285Y-104980952D01*
X144076190Y-105019047D01*
X144000000Y-105057142D01*
X143847619Y-105057142D01*
X143771428Y-105019047D01*
X143733333Y-104980952D01*
X143695238Y-104904761D01*
X157333333Y-105849904D02*
X156876190Y-105849904D01*
X157104761Y-106649904D02*
X157104761Y-105849904D01*
X156495238Y-106649904D02*
X156571428Y-106611809D01*
X156609523Y-106573714D01*
X156647619Y-106497523D01*
X156647619Y-106268952D01*
X156609523Y-106192761D01*
X156571428Y-106154666D01*
X156495238Y-106116571D01*
X156380952Y-106116571D01*
X156304761Y-106154666D01*
X156266666Y-106192761D01*
X156228571Y-106268952D01*
X156228571Y-106497523D01*
X156266666Y-106573714D01*
X156304761Y-106611809D01*
X156380952Y-106649904D01*
X156495238Y-106649904D01*
X155885714Y-106649904D02*
X155885714Y-105849904D01*
X155885714Y-106154666D02*
X155809523Y-106116571D01*
X155657142Y-106116571D01*
X155580952Y-106154666D01*
X155542857Y-106192761D01*
X155504761Y-106268952D01*
X155504761Y-106497523D01*
X155542857Y-106573714D01*
X155580952Y-106611809D01*
X155657142Y-106649904D01*
X155809523Y-106649904D01*
X155885714Y-106611809D01*
X155161904Y-106649904D02*
X155161904Y-106116571D01*
X155161904Y-105849904D02*
X155200000Y-105888000D01*
X155161904Y-105926095D01*
X155123809Y-105888000D01*
X155161904Y-105849904D01*
X155161904Y-105926095D01*
X154438095Y-106649904D02*
X154438095Y-106230857D01*
X154476190Y-106154666D01*
X154552380Y-106116571D01*
X154704761Y-106116571D01*
X154780952Y-106154666D01*
X154438095Y-106611809D02*
X154514285Y-106649904D01*
X154704761Y-106649904D01*
X154780952Y-106611809D01*
X154819047Y-106535619D01*
X154819047Y-106459428D01*
X154780952Y-106383238D01*
X154704761Y-106345142D01*
X154514285Y-106345142D01*
X154438095Y-106307047D01*
X154095238Y-106611809D02*
X154019047Y-106649904D01*
X153866666Y-106649904D01*
X153790476Y-106611809D01*
X153752380Y-106535619D01*
X153752380Y-106497523D01*
X153790476Y-106421333D01*
X153866666Y-106383238D01*
X153980952Y-106383238D01*
X154057142Y-106345142D01*
X154095238Y-106268952D01*
X154095238Y-106230857D01*
X154057142Y-106154666D01*
X153980952Y-106116571D01*
X153866666Y-106116571D01*
X153790476Y-106154666D01*
X152800000Y-106649904D02*
X152800000Y-105849904D01*
X152533333Y-106421333D01*
X152266666Y-105849904D01*
X152266666Y-106649904D01*
X151542857Y-106116571D02*
X151542857Y-106649904D01*
X151885714Y-106116571D02*
X151885714Y-106535619D01*
X151847619Y-106611809D01*
X151771428Y-106649904D01*
X151657142Y-106649904D01*
X151580952Y-106611809D01*
X151542857Y-106573714D01*
X151847619Y-105849904D02*
X151809523Y-105888000D01*
X151847619Y-105926095D01*
X151885714Y-105888000D01*
X151847619Y-105849904D01*
X151847619Y-105926095D01*
X151542857Y-105849904D02*
X151504761Y-105888000D01*
X151542857Y-105926095D01*
X151580952Y-105888000D01*
X151542857Y-105849904D01*
X151542857Y-105926095D01*
X151047619Y-106649904D02*
X151123809Y-106611809D01*
X151161904Y-106535619D01*
X151161904Y-105849904D01*
X150628571Y-106649904D02*
X150704761Y-106611809D01*
X150742857Y-106535619D01*
X150742857Y-105849904D01*
X150019047Y-106611809D02*
X150095238Y-106649904D01*
X150247619Y-106649904D01*
X150323809Y-106611809D01*
X150361904Y-106535619D01*
X150361904Y-106230857D01*
X150323809Y-106154666D01*
X150247619Y-106116571D01*
X150095238Y-106116571D01*
X150019047Y-106154666D01*
X149980952Y-106230857D01*
X149980952Y-106307047D01*
X150361904Y-106383238D01*
X149638095Y-106649904D02*
X149638095Y-106116571D01*
X149638095Y-106268952D02*
X149600000Y-106192761D01*
X149561904Y-106154666D01*
X149485714Y-106116571D01*
X149409523Y-106116571D01*
X149104761Y-106611809D02*
X149104761Y-106649904D01*
X149142857Y-106726095D01*
X149180952Y-106764190D01*
X148266666Y-106116571D02*
X147961904Y-106116571D01*
X148152380Y-105849904D02*
X148152380Y-106535619D01*
X148114285Y-106611809D01*
X148038095Y-106649904D01*
X147961904Y-106649904D01*
X147771428Y-106116571D02*
X147619047Y-106649904D01*
X147466666Y-106268952D01*
X147314285Y-106649904D01*
X147161904Y-106116571D01*
X146514285Y-106649904D02*
X146514285Y-106230857D01*
X146552380Y-106154666D01*
X146628571Y-106116571D01*
X146780952Y-106116571D01*
X146857142Y-106154666D01*
X146514285Y-106611809D02*
X146590476Y-106649904D01*
X146780952Y-106649904D01*
X146857142Y-106611809D01*
X146895238Y-106535619D01*
X146895238Y-106459428D01*
X146857142Y-106383238D01*
X146780952Y-106345142D01*
X146590476Y-106345142D01*
X146514285Y-106307047D01*
X146133333Y-106649904D02*
X146133333Y-106116571D01*
X146133333Y-106192761D02*
X146095238Y-106154666D01*
X146019047Y-106116571D01*
X145904761Y-106116571D01*
X145828571Y-106154666D01*
X145790476Y-106230857D01*
X145790476Y-106649904D01*
X145790476Y-106230857D02*
X145752380Y-106154666D01*
X145676190Y-106116571D01*
X145561904Y-106116571D01*
X145485714Y-106154666D01*
X145447619Y-106230857D01*
X145447619Y-106649904D01*
X145066666Y-106573714D02*
X145028571Y-106611809D01*
X145066666Y-106649904D01*
X145104761Y-106611809D01*
X145066666Y-106573714D01*
X145066666Y-106649904D01*
X144685714Y-106649904D02*
X144685714Y-106116571D01*
X144685714Y-105849904D02*
X144723809Y-105888000D01*
X144685714Y-105926095D01*
X144647619Y-105888000D01*
X144685714Y-105849904D01*
X144685714Y-105926095D01*
X144304761Y-106116571D02*
X144304761Y-106649904D01*
X144304761Y-106192761D02*
X144266666Y-106154666D01*
X144190476Y-106116571D01*
X144076190Y-106116571D01*
X144000000Y-106154666D01*
X143961904Y-106230857D01*
X143961904Y-106649904D01*
X143695238Y-106116571D02*
X143390476Y-106116571D01*
X143580952Y-106649904D02*
X143580952Y-105964190D01*
X143542857Y-105888000D01*
X143466666Y-105849904D01*
X143390476Y-105849904D01*
X143009523Y-106649904D02*
X143085714Y-106611809D01*
X143123809Y-106573714D01*
X143161904Y-106497523D01*
X143161904Y-106268952D01*
X143123809Y-106192761D01*
X143085714Y-106154666D01*
X143009523Y-106116571D01*
X142895238Y-106116571D01*
X142819047Y-106154666D01*
X142780952Y-106192761D01*
X142742857Y-106268952D01*
X142742857Y-106497523D01*
X142780952Y-106573714D01*
X142819047Y-106611809D01*
X142895238Y-106649904D01*
X143009523Y-106649904D01*
D11*
%TO.C,C38*%
X147860000Y-91907836D02*
X147860000Y-91692164D01*
X147140000Y-91907836D02*
X147140000Y-91692164D01*
%TO.C,C47*%
X150392164Y-94340000D02*
X150607836Y-94340000D01*
X150392164Y-95060000D02*
X150607836Y-95060000D01*
%TO.C,C32*%
X153360000Y-99092164D02*
X153360000Y-99307836D01*
X152640000Y-99092164D02*
X152640000Y-99307836D01*
%TO.C,C34*%
X156892164Y-92560000D02*
X157107836Y-92560000D01*
X156892164Y-91840000D02*
X157107836Y-91840000D01*
%TO.C,C39*%
X148140000Y-98992164D02*
X148140000Y-99207836D01*
X148860000Y-98992164D02*
X148860000Y-99207836D01*
%TO.C,C49*%
X152360000Y-96507836D02*
X152360000Y-96292164D01*
X151640000Y-96507836D02*
X151640000Y-96292164D01*
%TO.C,C36*%
X147860000Y-98992164D02*
X147860000Y-99207836D01*
X147140000Y-98992164D02*
X147140000Y-99207836D01*
%TO.C,C30*%
X151360000Y-99092164D02*
X151360000Y-99307836D01*
X150640000Y-99092164D02*
X150640000Y-99307836D01*
%TO.C,C26*%
X147907836Y-93340000D02*
X147692164Y-93340000D01*
X147907836Y-94060000D02*
X147692164Y-94060000D01*
%TO.C,C25*%
X147907836Y-94340000D02*
X147692164Y-94340000D01*
X147907836Y-95060000D02*
X147692164Y-95060000D01*
%TO.C,C44*%
X151640000Y-93492164D02*
X151640000Y-93707836D01*
X152360000Y-93492164D02*
X152360000Y-93707836D01*
%TO.C,C33*%
X152940000Y-91807836D02*
X152940000Y-91592164D01*
X153660000Y-91807836D02*
X153660000Y-91592164D01*
%TO.C,C21*%
X155892164Y-96740000D02*
X156107836Y-96740000D01*
X155892164Y-97460000D02*
X156107836Y-97460000D01*
%TO.C,C40*%
X156860000Y-98892164D02*
X156860000Y-99107836D01*
X156140000Y-98892164D02*
X156140000Y-99107836D01*
%TO.C,C23*%
X155892164Y-95060000D02*
X156107836Y-95060000D01*
X155892164Y-94340000D02*
X156107836Y-94340000D01*
%TO.C,C27*%
X147907836Y-96460000D02*
X147692164Y-96460000D01*
X147907836Y-95740000D02*
X147692164Y-95740000D01*
%TO.C,C46*%
X150392164Y-96060000D02*
X150607836Y-96060000D01*
X150392164Y-95340000D02*
X150607836Y-95340000D01*
%TO.C,C28*%
X147907836Y-96740000D02*
X147692164Y-96740000D01*
X147907836Y-97460000D02*
X147692164Y-97460000D01*
%TO.C,C35*%
X155140000Y-91807836D02*
X155140000Y-91592164D01*
X155860000Y-91807836D02*
X155860000Y-91592164D01*
%TO.C,C45*%
X153607836Y-94060000D02*
X153392164Y-94060000D01*
X153607836Y-93340000D02*
X153392164Y-93340000D01*
%TO.C,C48*%
X153607836Y-94340000D02*
X153392164Y-94340000D01*
X153607836Y-95060000D02*
X153392164Y-95060000D01*
%TO.C,C31*%
X152360000Y-99092164D02*
X152360000Y-99307836D01*
X151640000Y-99092164D02*
X151640000Y-99307836D01*
%TO.C,C43*%
X153607836Y-96060000D02*
X153392164Y-96060000D01*
X153607836Y-95340000D02*
X153392164Y-95340000D01*
%TO.C,C22*%
X155892164Y-96460000D02*
X156107836Y-96460000D01*
X155892164Y-95740000D02*
X156107836Y-95740000D01*
%TO.C,C37*%
X148860000Y-91907836D02*
X148860000Y-91692164D01*
X148140000Y-91907836D02*
X148140000Y-91692164D01*
%TO.C,C24*%
X155892164Y-93340000D02*
X156107836Y-93340000D01*
X155892164Y-94060000D02*
X156107836Y-94060000D01*
%TO.C,C29*%
X151940000Y-91807836D02*
X151940000Y-91592164D01*
X152660000Y-91807836D02*
X152660000Y-91592164D01*
%TO.C,C42*%
X150392164Y-93340000D02*
X150607836Y-93340000D01*
X150392164Y-94060000D02*
X150607836Y-94060000D01*
%TO.C,C41*%
X155140000Y-98892164D02*
X155140000Y-99107836D01*
X155860000Y-98892164D02*
X155860000Y-99107836D01*
%TD*%
M02*
