M48
; DRILL file {KiCad (5.99.0-10579-g11785b08fe)} date Thursday, May 20, 2021 at 08:29:33 PM
; FORMAT={-:-/ absolute / inch / decimal}
; #@! TF.CreationDate,2021-05-20T20:29:33+02:00
; #@! TF.GenerationSoftware,Kicad,Pcbnew,(5.99.0-10579-g11785b08fe)
; #@! TF.FileFunction,MixedPlating,1,4
FMAT,2
INCH
; #@! TA.AperFunction,Plated,PTH,ViaDrill
T1C0.0079
; #@! TA.AperFunction,Plated,PTH,ViaDrill
T2C0.0118
; #@! TA.AperFunction,Plated,PTH,ComponentDrill
T3C0.0236
; #@! TA.AperFunction,Plated,PTH,ComponentDrill
T4C0.0394
; #@! TA.AperFunction,Plated,PTH,ComponentDrill
T5C0.0669
; #@! TA.AperFunction,Plated,PTH,ComponentDrill
T6C0.1063
; #@! TA.AperFunction,NonPlated,NPTH,ComponentDrill
T7C0.0256
; #@! TA.AperFunction,NonPlated,NPTH,ComponentDrill
T8C0.0454
%
G90
G05
T1
X5.2913Y-4.9449
X5.2913Y-5.0472
X5.2951Y-3.1136
X5.345Y-2.9331
X5.5349Y-2.8663
X5.5349Y-2.9215
X5.5904Y-3.1136
X5.6378Y-4.9449
X5.6378Y-5.0472
X5.6727Y-2.8663
X5.6727Y-2.9215
X5.685Y-3.5039
X5.7165Y-3.4724
X5.7165Y-3.5039
X5.7165Y-3.5354
X5.7165Y-3.5669
X5.7165Y-3.5984
X5.7165Y-3.6299
X5.7165Y-3.8189
X5.7165Y-3.9764
X5.748Y-3.5354
X5.748Y-3.5669
X5.748Y-3.5984
X5.748Y-3.6299
X5.748Y-3.6614
X5.748Y-3.7559
X5.748Y-3.7874
X5.748Y-3.8189
X5.748Y-3.8504
X5.748Y-3.8819
X5.748Y-3.9134
X5.748Y-3.9449
X5.7677Y-2.8937
X5.7795Y-3.8504
X5.7795Y-3.8819
X5.7795Y-3.9134
X5.7795Y-3.9449
X5.811Y-3.4724
X5.811Y-3.5039
X5.811Y-3.6929
X5.8425Y-3.4724
X5.8425Y-3.5039
X5.8425Y-3.5354
X5.8425Y-3.5669
X5.8425Y-3.6299
X5.8425Y-3.6614
X5.8425Y-3.6929
X5.8425Y-3.7244
X5.8425Y-3.7559
X5.8425Y-3.7874
X5.8425Y-3.8189
X5.8425Y-3.8504
X5.8425Y-3.8819
X5.8661Y-3.2677
X5.874Y-3.5039
X5.874Y-3.5039
X5.874Y-3.5354
X5.874Y-3.5669
X5.874Y-3.5669
X5.874Y-3.6299
X5.874Y-3.6614
X5.874Y-3.6929
X5.874Y-3.7244
X5.874Y-3.7559
X5.874Y-3.7874
X5.874Y-3.8189
X5.874Y-3.8504
X5.874Y-3.8819
X5.874Y-4.0079
X5.9055Y-3.5039
X5.9055Y-3.5354
X5.9055Y-3.6299
X5.9055Y-3.6614
X5.9055Y-3.6929
X5.9055Y-3.7244
X5.9055Y-3.7559
X5.9055Y-3.7874
X5.9055Y-3.8189
X5.9055Y-3.8504
X5.9055Y-3.8819
X5.937Y-3.4724
X5.937Y-3.5039
X5.937Y-3.5354
X5.937Y-3.6299
X5.937Y-3.6614
X5.937Y-3.6929
X5.937Y-3.7244
X5.937Y-3.7559
X5.937Y-3.7874
X5.937Y-3.8189
X5.937Y-3.8504
X5.937Y-3.8819
X5.9498Y-2.997
X5.9685Y-3.5354
X5.9685Y-3.5669
X5.9685Y-3.6299
X5.9685Y-3.6614
X5.9685Y-3.6929
X5.9685Y-3.7244
X5.9685Y-3.7559
X5.9685Y-3.7874
X5.9685Y-3.8189
X5.9685Y-3.8504
X5.9685Y-3.8819
X5.9744Y-3.2677
X5.9921Y-4.9449
X5.9921Y-5.0472
X6.0Y-3.5354
X6.0Y-3.5669
X6.0Y-3.6299
X6.0Y-3.6614
X6.0Y-3.6929
X6.0Y-3.7244
X6.0Y-3.7559
X6.0Y-3.7874
X6.0Y-3.8189
X6.0Y-3.8504
X6.0Y-3.8819
X6.0Y-3.9764
X6.0073Y-2.8545
X6.0073Y-2.8939
X6.0089Y-2.9344
X6.0138Y-3.2677
X6.0315Y-3.5039
X6.0315Y-3.5354
X6.0315Y-3.6299
X6.0315Y-3.6614
X6.0315Y-3.6929
X6.0315Y-3.7244
X6.0315Y-3.7559
X6.0315Y-3.7874
X6.0315Y-3.8189
X6.0315Y-3.8504
X6.0315Y-3.8819
X6.0315Y-3.9764
X6.0482Y-4.2126
X6.0531Y-3.2677
X6.063Y-3.5039
X6.063Y-3.5354
X6.063Y-3.6299
X6.063Y-3.6614
X6.063Y-3.6929
X6.063Y-3.7244
X6.063Y-3.7559
X6.063Y-3.7874
X6.063Y-3.8189
X6.063Y-3.8504
X6.063Y-3.8819
X6.063Y-3.9449
X6.063Y-3.9764
X6.0717Y-4.2531
X6.0728Y-4.4537
X6.0925Y-3.2677
X6.0945Y-3.4724
X6.0945Y-3.4724
X6.0945Y-3.5039
X6.0945Y-3.5354
X6.0945Y-3.5669
X6.0945Y-3.6299
X6.0945Y-3.6614
X6.0945Y-3.6929
X6.0945Y-3.7244
X6.0945Y-3.7559
X6.0945Y-3.7874
X6.0945Y-3.8189
X6.0945Y-3.8504
X6.0945Y-3.8819
X6.0945Y-3.9449
X6.0945Y-3.9764
X6.0945Y-4.0079
X6.1024Y-2.8937
X6.122Y-4.3652
X6.122Y-4.4537
X6.126Y-3.4724
X6.126Y-3.5039
X6.126Y-3.5354
X6.126Y-3.5669
X6.126Y-3.6299
X6.126Y-3.6614
X6.126Y-3.6929
X6.126Y-3.7244
X6.126Y-3.7559
X6.126Y-3.7874
X6.126Y-3.8189
X6.126Y-3.8504
X6.126Y-3.8819
X6.126Y-3.9449
X6.126Y-3.9764
X6.1319Y-3.2677
X6.1575Y-3.5039
X6.1575Y-3.5354
X6.1575Y-3.5669
X6.1575Y-3.5984
X6.1575Y-3.9449
X6.1575Y-3.9764
X6.1713Y-3.2677
X6.1713Y-4.4537
X6.189Y-2.9685
X6.189Y-3.5039
X6.189Y-3.8189
X6.189Y-3.8504
X6.189Y-3.8819
X6.189Y-3.9449
X6.189Y-3.9764
X6.2156Y-2.9528
X6.2195Y-2.9843
X6.2205Y-3.4409
X6.2205Y-3.4724
X6.2205Y-3.5039
X6.2205Y-3.8189
X6.2205Y-3.8504
X6.2205Y-3.8819
X6.2205Y-3.9449
X6.2205Y-3.9764
X6.2205Y-4.4537
X6.2288Y-4.2325
X6.2516Y-3.1398
X6.252Y-3.0769
X6.252Y-3.2205
X6.252Y-3.4724
X6.252Y-3.6929
X6.252Y-3.7874
X6.252Y-3.8819
X6.2835Y-3.1102
X6.2835Y-3.4724
X6.3484Y-3.1693
X6.3484Y-3.2677
X6.3583Y-2.9823
X6.3583Y-3.0217
X6.3583Y-3.061
X6.3976Y-4.1772
X6.4272Y-3.1693
X6.4272Y-3.2677
X6.4813Y-3.44
X6.4862Y-3.1299
X6.4961Y-3.3661
X6.4961Y-3.4882
X6.4961Y-3.5197
X6.5059Y-2.9528
X6.5059Y-3.0315
X6.5133Y-3.4424
X6.5256Y-3.3858
X6.5395Y-2.9724
X6.565Y-2.9331
X6.5836Y-2.996
X6.5945Y-3.1988
X6.5945Y-3.2382
X6.5945Y-3.2776
X6.624Y-3.0906
X6.624Y-3.4449
X6.624Y-3.5236
X6.6289Y-2.9528
X6.6289Y-2.997
X6.6339Y-3.1988
X6.6339Y-3.2382
X6.6339Y-3.2776
X6.6535Y-3.6565
X6.673Y-2.9955
X6.6732Y-3.1988
X6.6732Y-3.2382
X6.6732Y-3.2776
X6.6732Y-3.8533
X6.6732Y-4.4438
X6.6831Y-3.6073
X6.7077Y-3.8484
X6.7077Y-3.9665
X6.7077Y-4.439
X6.7077Y-4.5571
X6.7224Y-2.9528
X6.7224Y-3.0315
X6.7287Y-4.311
X6.7815Y-3.0413
X6.7815Y-3.1102
X6.7815Y-3.1496
X6.7815Y-3.1988
X6.7815Y-3.3071
X6.7815Y-3.4449
X6.7815Y-3.5236
X6.7815Y-3.7746
X6.7815Y-4.3652
X6.7817Y-3.3848
X6.7864Y-2.9528
X6.8012Y-4.0207
X6.8012Y-4.6112
X6.811Y-3.6811
X6.8114Y-4.2717
X6.8209Y-3.7746
X6.8209Y-4.3652
X6.8258Y-3.5236
X6.8381Y-3.3292
X6.8406Y-3.1693
X6.8455Y-3.5728
X6.8573Y-3.6909
X6.8577Y-4.2815
X6.8602Y-3.7746
X6.8602Y-4.0207
X6.8602Y-4.3652
X6.8602Y-4.6112
X6.8799Y-3.5581
X6.8898Y-3.7697
X6.8898Y-4.3602
X6.9193Y-3.0906
X6.9193Y-3.1299
X6.9193Y-3.1693
X6.9193Y-3.2234
X6.9193Y-3.2923
X6.9193Y-3.3317
X6.9193Y-3.3711
X6.9242Y-3.6024
X6.9242Y-3.6467
X6.9439Y-3.3907
X6.9537Y-3.8484
X6.9537Y-4.439
X6.9968Y-3.9469
X6.9968Y-4.5374
X6.998Y-3.9075
X6.998Y-4.498
X7.0472Y-3.5827
X7.0472Y-4.1732
X7.0472Y-4.7638
X7.0817Y-3.0708
X7.1703Y-3.0708
X7.1703Y-3.1299
X7.2047Y-3.5827
X7.2047Y-4.1732
X7.2047Y-4.7638
T2
X4.8327Y-3.878
X4.8933Y-4.0454
X4.9016Y-3.6614
X4.9508Y-3.4498
X4.9557Y-3.6073
X4.9803Y-3.6614
X4.9803Y-3.9961
X5.0197Y-3.9961
X5.0591Y-3.6614
X5.064Y-3.6171
X5.128Y-4.0453
X5.1378Y-3.6614
X5.1476Y-3.4104
X5.1476Y-3.4449
X5.1821Y-3.4104
X5.1821Y-3.4449
X5.2165Y-3.6614
X5.2165Y-3.9961
X5.2559Y-3.9961
X5.2756Y-3.1791
X5.2756Y-3.2382
X5.2756Y-3.2972
X5.2756Y-3.6319
X5.2756Y-3.6909
X5.2805Y-3.3415
X5.3642Y-3.3366
X5.3642Y-3.7303
X5.3642Y-4.0453
X5.3986Y-3.3366
X5.3986Y-3.7303
X5.4134Y-3.0659
X5.4134Y-3.4596
X5.4331Y-3.3366
X5.4331Y-3.7303
X5.4724Y-3.1791
X5.4724Y-3.6614
X5.4764Y-3.0659
X5.4764Y-3.4596
X5.4921Y-3.9961
X5.5364Y-3.0659
X5.5364Y-3.4596
X5.5709Y-3.1791
X5.5709Y-3.2382
X5.5709Y-3.2972
X5.6594Y-3.3366
X5.6939Y-3.3366
X5.7087Y-3.0659
X5.7283Y-3.3366
X5.7677Y-3.1791
X5.7717Y-3.066
X5.8317Y-3.0659
X5.9449Y-3.2049
X6.1417Y-3.0549
X6.4469Y-4.0453
X6.4518Y-4.2569
X6.5757Y-3.8626
X6.5757Y-3.8626
X6.5757Y-4.4531
X6.5757Y-4.4531
X6.6043Y-3.7451
X6.6043Y-4.3356
X6.6388Y-3.8626
X6.6388Y-4.4531
X6.6486Y-4.1142
X6.6929Y-4.2126
X6.7283Y-3.7205
X6.751Y-4.0669
X6.751Y-4.1063
X6.7559Y-4.6575
X6.7559Y-4.6969
X6.7717Y-4.1634
X6.7717Y-4.7539
X6.7913Y-3.8583
X6.7913Y-3.8976
X6.7913Y-3.937
X6.7913Y-4.4488
X6.7913Y-4.4882
X6.7913Y-4.5276
X6.8248Y-4.0669
X6.8248Y-4.1063
X6.8297Y-4.6575
X6.8297Y-4.6969
X6.8307Y-3.8583
X6.8307Y-3.8976
X6.8307Y-3.937
X6.8307Y-4.4488
X6.8307Y-4.4882
X6.8307Y-4.5276
X6.8406Y-4.1634
X6.8406Y-4.7539
X6.8701Y-3.8583
X6.8701Y-3.8976
X6.8701Y-3.937
X6.8701Y-4.1437
X6.8701Y-4.4488
X6.8701Y-4.4882
X6.8701Y-4.5276
X6.8701Y-4.7343
X6.939Y-4.1437
X6.939Y-4.7343
X6.9587Y-3.8976
X6.9587Y-4.4882
X6.9931Y-3.2205
X6.9931Y-3.252
X6.9931Y-3.4409
X6.9931Y-3.4724
X6.9931Y-3.811
X6.9931Y-3.8425
X6.9931Y-4.0315
X6.9931Y-4.063
X6.9931Y-4.4016
X6.9931Y-4.4331
X6.9931Y-4.622
X6.9931Y-4.6535
X7.0128Y-2.9872
X7.2392Y-2.9872
T4
X4.6648Y-3.787
X4.6648Y-3.887
X4.6648Y-3.987
X4.6648Y-4.087
X4.6648Y-4.187
X4.6648Y-4.287
X4.6648Y-4.387
X4.6648Y-4.487
X4.6648Y-4.587
X4.6648Y-4.687
X4.6648Y-4.787
X4.665Y-3.087
X4.665Y-3.187
X4.665Y-3.287
X4.665Y-3.387
X4.665Y-3.487
X4.665Y-3.587
X4.7648Y-3.787
X4.7648Y-3.887
X4.7648Y-3.987
X4.7648Y-4.087
X4.7648Y-4.187
X4.7648Y-4.287
X4.7648Y-4.387
X4.7648Y-4.487
X4.7648Y-4.587
X4.7648Y-4.687
X4.7648Y-4.787
X4.765Y-3.087
X4.765Y-3.187
X4.765Y-3.287
X4.765Y-3.387
X4.765Y-3.487
X4.765Y-3.587
X5.065Y-4.387
X5.065Y-4.487
X5.065Y-4.587
X5.065Y-4.687
X5.065Y-4.787
X5.065Y-4.887
X5.065Y-4.987
X5.165Y-4.387
X5.165Y-4.487
X5.165Y-4.587
X5.165Y-4.687
X5.165Y-4.787
X5.165Y-4.887
X5.165Y-4.987
X5.415Y-4.387
X5.415Y-4.487
X5.415Y-4.587
X5.415Y-4.687
X5.415Y-4.787
X5.415Y-4.887
X5.415Y-4.987
X5.515Y-4.387
X5.515Y-4.487
X5.515Y-4.587
X5.515Y-4.687
X5.515Y-4.787
X5.515Y-4.887
X5.515Y-4.987
X5.7709Y-4.387
X5.7709Y-4.487
X5.7709Y-4.587
X5.7709Y-4.687
X5.7709Y-4.787
X5.7709Y-4.887
X5.7709Y-4.987
X5.8709Y-4.387
X5.8709Y-4.487
X5.8709Y-4.587
X5.8709Y-4.687
X5.8709Y-4.787
X5.8709Y-4.887
X5.8709Y-4.987
X6.1709Y-4.6854
X6.1709Y-4.7854
X6.1709Y-4.8854
X6.1709Y-4.9854
X6.2709Y-4.6854
X6.2709Y-4.7854
X6.2709Y-4.8854
X6.2709Y-4.9854
X6.378Y-2.8543
X6.478Y-2.8543
X6.5209Y-4.6854
X6.5209Y-4.7854
X6.5209Y-4.8854
X6.5209Y-4.9854
X6.578Y-2.8543
X6.6209Y-4.6854
X6.6209Y-4.7854
X6.6209Y-4.8854
X6.6209Y-4.9854
X6.678Y-2.8543
X6.778Y-2.8543
X6.878Y-2.8543
T5
X5.0807Y-2.8851
X5.0807Y-3.041
X5.0807Y-3.1969
X5.0807Y-3.3529
T6
X4.685Y-2.9134
X4.685Y-4.9606
X7.126Y-2.9134
X7.126Y-4.9606
T7
X7.0726Y-3.2327
X7.0726Y-3.4602
X7.0726Y-3.8232
X7.0726Y-4.0508
X7.0726Y-4.4138
X7.0726Y-4.6413
T8
X4.6063Y-3.686
X7.0079Y-2.8346
X7.0079Y-5.0394
T3
G00X7.0313Y-3.1764
M15
G01X7.0746Y-3.1764
M16
G05
G00X7.0313Y-3.5165
M15
G01X7.0746Y-3.5165
M16
G05
G00X7.0313Y-3.7669
M15
G01X7.0746Y-3.7669
M16
G05
G00X7.0313Y-4.1071
M15
G01X7.0746Y-4.1071
M16
G05
G00X7.0313Y-4.3575
M15
G01X7.0746Y-4.3575
M16
G05
G00X7.0313Y-4.6976
M15
G01X7.0746Y-4.6976
M16
G05
G00X7.2057Y-3.1764
M15
G01X7.2293Y-3.1764
M16
G05
G00X7.2057Y-3.5165
M15
G01X7.2293Y-3.5165
M16
G05
G00X7.2057Y-3.7669
M15
G01X7.2293Y-3.7669
M16
G05
G00X7.2057Y-4.1071
M15
G01X7.2293Y-4.1071
M16
G05
G00X7.2057Y-4.3575
M15
G01X7.2293Y-4.3575
M16
G05
G00X7.2057Y-4.6976
M15
G01X7.2293Y-4.6976
M16
G05
T0
M30
