%TF.GenerationSoftware,KiCad,Pcbnew,(5.99.0-10579-g11785b08fe)*%
%TF.CreationDate,2021-05-20T20:29:29+02:00*%
%TF.ProjectId,Mainboard,4d61696e-626f-4617-9264-2e6b69636164,1*%
%TF.SameCoordinates,Original*%
%TF.FileFunction,Copper,L4,Bot*%
%TF.FilePolarity,Positive*%
%FSLAX46Y46*%
G04 Gerber Fmt 4.6, Leading zero omitted, Abs format (unit mm)*
G04 Created by KiCad (PCBNEW (5.99.0-10579-g11785b08fe)) date 2021-05-20 20:29:29*
%MOMM*%
%LPD*%
G01*
G04 APERTURE LIST*
G04 Aperture macros list*
%AMRoundRect*
0 Rectangle with rounded corners*
0 $1 Rounding radius*
0 $2 $3 $4 $5 $6 $7 $8 $9 X,Y pos of 4 corners*
0 Add a 4 corners polygon primitive as box body*
4,1,4,$2,$3,$4,$5,$6,$7,$8,$9,$2,$3,0*
0 Add four circle primitives for the rounded corners*
1,1,$1+$1,$2,$3*
1,1,$1+$1,$4,$5*
1,1,$1+$1,$6,$7*
1,1,$1+$1,$8,$9*
0 Add four rect primitives between the rounded corners*
20,1,$1+$1,$2,$3,$4,$5,0*
20,1,$1+$1,$4,$5,$6,$7,0*
20,1,$1+$1,$6,$7,$8,$9,0*
20,1,$1+$1,$8,$9,$2,$3,0*%
G04 Aperture macros list end*
%TA.AperFunction,ComponentPad*%
%ADD10RoundRect,0.250001X-1.099999X1.099999X-1.099999X-1.099999X1.099999X-1.099999X1.099999X1.099999X0*%
%TD*%
%TA.AperFunction,ComponentPad*%
%ADD11C,2.700000*%
%TD*%
%TA.AperFunction,ComponentPad*%
%ADD12C,4.700000*%
%TD*%
%TA.AperFunction,ComponentPad*%
%ADD13O,1.600000X1.000000*%
%TD*%
%TA.AperFunction,ComponentPad*%
%ADD14O,2.100000X1.000000*%
%TD*%
%TA.AperFunction,ComponentPad*%
%ADD15R,1.700000X1.700000*%
%TD*%
%TA.AperFunction,ComponentPad*%
%ADD16O,1.700000X1.700000*%
%TD*%
%TA.AperFunction,SMDPad,CuDef*%
%ADD17RoundRect,0.140000X0.170000X-0.140000X0.170000X0.140000X-0.170000X0.140000X-0.170000X-0.140000X0*%
%TD*%
%TA.AperFunction,SMDPad,CuDef*%
%ADD18RoundRect,0.140000X-0.140000X-0.170000X0.140000X-0.170000X0.140000X0.170000X-0.140000X0.170000X0*%
%TD*%
%TA.AperFunction,SMDPad,CuDef*%
%ADD19RoundRect,0.140000X-0.170000X0.140000X-0.170000X-0.140000X0.170000X-0.140000X0.170000X0.140000X0*%
%TD*%
%TA.AperFunction,SMDPad,CuDef*%
%ADD20RoundRect,0.140000X0.140000X0.170000X-0.140000X0.170000X-0.140000X-0.170000X0.140000X-0.170000X0*%
%TD*%
%TA.AperFunction,ViaPad*%
%ADD21C,0.600000*%
%TD*%
%TA.AperFunction,ViaPad*%
%ADD22C,0.400000*%
%TD*%
%TA.AperFunction,Conductor*%
%ADD23C,0.400000*%
%TD*%
%TA.AperFunction,Conductor*%
%ADD24C,0.127000*%
%TD*%
%TA.AperFunction,Conductor*%
%ADD25C,0.300000*%
%TD*%
%TA.AperFunction,Conductor*%
%ADD26C,0.200000*%
%TD*%
%TA.AperFunction,Conductor*%
%ADD27C,0.175006*%
%TD*%
%TA.AperFunction,Conductor*%
%ADD28C,0.150000*%
%TD*%
G04 APERTURE END LIST*
D10*
%TO.P,J2,1,Pin_1*%
%TO.N,/Power/PWR_IN*%
X129050000Y-73282500D03*
D11*
%TO.P,J2,2,Pin_2*%
X129050000Y-77242500D03*
%TO.P,J2,3,Pin_3*%
%TO.N,GND*%
X129050000Y-81202500D03*
%TO.P,J2,4,Pin_4*%
X129050000Y-85162500D03*
%TD*%
D12*
%TO.P,H3,1,1*%
%TO.N,Earth*%
X181000000Y-74000000D03*
%TD*%
%TO.P,H4,1,1*%
%TO.N,Earth*%
X181000000Y-126000000D03*
%TD*%
%TO.P,H1,1,1*%
%TO.N,Earth*%
X119000000Y-74000000D03*
%TD*%
D13*
%TO.P,J101,S1,SHIELD*%
%TO.N,Earth*%
X183325000Y-95680000D03*
X183325000Y-104320000D03*
D14*
X179145000Y-104320000D03*
X179145000Y-95680000D03*
%TD*%
D13*
%TO.P,J201,S1,SHIELD*%
%TO.N,Earth*%
X183325000Y-119320000D03*
D14*
X179145000Y-110680000D03*
X179145000Y-119320000D03*
D13*
X183325000Y-110680000D03*
%TD*%
%TO.P,J501,S1,SHIELD*%
%TO.N,Earth*%
X183325000Y-80680000D03*
D14*
X179145000Y-80680000D03*
D13*
X183325000Y-89320000D03*
D14*
X179145000Y-89320000D03*
%TD*%
D12*
%TO.P,H2,1,1*%
%TO.N,Earth*%
X119000000Y-126000000D03*
%TD*%
D15*
%TO.P,J611,1,Pin_1*%
%TO.N,/Audio IO/I2S2.MCLK*%
X137540000Y-111430000D03*
D16*
%TO.P,J611,2,Pin_2*%
%TO.N,GND*%
X140080000Y-111430000D03*
%TO.P,J611,3,Pin_3*%
%TO.N,/Audio IO/I2S2.BCLK*%
X137540000Y-113970000D03*
%TO.P,J611,4,Pin_4*%
%TO.N,GND*%
X140080000Y-113970000D03*
%TO.P,J611,5,Pin_5*%
%TO.N,/Audio IO/I2S2.LRCLK*%
X137540000Y-116510000D03*
%TO.P,J611,6,Pin_6*%
%TO.N,GND*%
X140080000Y-116510000D03*
%TO.P,J611,7,Pin_7*%
%TO.N,/Audio IO/I2S2.SDIN*%
X137540000Y-119050000D03*
%TO.P,J611,8,Pin_8*%
%TO.N,GND*%
X140080000Y-119050000D03*
%TO.P,J611,9,Pin_9*%
X137540000Y-121590000D03*
%TO.P,J611,10,Pin_10*%
X140080000Y-121590000D03*
%TO.P,J611,11,Pin_11*%
%TO.N,/Audio IO/Mute2*%
X137540000Y-124130000D03*
%TO.P,J611,12,Pin_12*%
%TO.N,/Audio IO/I2C2.SDA*%
X140080000Y-124130000D03*
%TO.P,J611,13,Pin_13*%
%TO.N,/Audio IO/IRQ2*%
X137540000Y-126670000D03*
%TO.P,J611,14,Pin_14*%
%TO.N,/Audio IO/I2C2.SCL*%
X140080000Y-126670000D03*
%TD*%
D15*
%TO.P,J621,1,Pin_1*%
%TO.N,/Audio IO/I2S3.MCLK*%
X128650000Y-111430000D03*
D16*
%TO.P,J621,2,Pin_2*%
%TO.N,GND*%
X131190000Y-111430000D03*
%TO.P,J621,3,Pin_3*%
%TO.N,/Audio IO/I2S3.BCLK*%
X128650000Y-113970000D03*
%TO.P,J621,4,Pin_4*%
%TO.N,GND*%
X131190000Y-113970000D03*
%TO.P,J621,5,Pin_5*%
%TO.N,/Audio IO/I2S3.LRCLK*%
X128650000Y-116510000D03*
%TO.P,J621,6,Pin_6*%
%TO.N,GND*%
X131190000Y-116510000D03*
%TO.P,J621,7,Pin_7*%
%TO.N,/Audio IO/I2S3.SDIN*%
X128650000Y-119050000D03*
%TO.P,J621,8,Pin_8*%
%TO.N,GND*%
X131190000Y-119050000D03*
%TO.P,J621,9,Pin_9*%
X128650000Y-121590000D03*
%TO.P,J621,10,Pin_10*%
X131190000Y-121590000D03*
%TO.P,J621,11,Pin_11*%
%TO.N,/Audio IO/Mute3*%
X128650000Y-124130000D03*
%TO.P,J621,12,Pin_12*%
%TO.N,/Audio IO/I2C3.SDA*%
X131190000Y-124130000D03*
%TO.P,J621,13,Pin_13*%
%TO.N,/Audio IO/IRQ3*%
X128650000Y-126670000D03*
%TO.P,J621,14,Pin_14*%
%TO.N,/Audio IO/I2C3.SCL*%
X131190000Y-126670000D03*
%TD*%
D15*
%TO.P,J702,1,Pin_1*%
%TO.N,/Audio IO/I2S5.MCLK*%
X156740000Y-119010000D03*
D16*
%TO.P,J702,2,Pin_2*%
%TO.N,GND*%
X159280000Y-119010000D03*
%TO.P,J702,3,Pin_3*%
%TO.N,/Audio IO/I2S5.BCLK*%
X156740000Y-121550000D03*
%TO.P,J702,4,Pin_4*%
%TO.N,GND*%
X159280000Y-121550000D03*
%TO.P,J702,5,Pin_5*%
%TO.N,/Audio IO/I2S5.LRCLK*%
X156740000Y-124090000D03*
%TO.P,J702,6,Pin_6*%
%TO.N,GND*%
X159280000Y-124090000D03*
%TO.P,J702,7,Pin_7*%
%TO.N,/Audio IO/I2S5.SDOUT*%
X156740000Y-126630000D03*
%TO.P,J702,8,Pin_8*%
%TO.N,GND*%
X159280000Y-126630000D03*
%TD*%
D15*
%TO.P,J701,1,Pin_1*%
%TO.N,/Audio IO/I2S4.MCLK*%
X165630000Y-119010000D03*
D16*
%TO.P,J701,2,Pin_2*%
%TO.N,GND*%
X168170000Y-119010000D03*
%TO.P,J701,3,Pin_3*%
%TO.N,/Audio IO/I2S4.BCLK*%
X165630000Y-121550000D03*
%TO.P,J701,4,Pin_4*%
%TO.N,GND*%
X168170000Y-121550000D03*
%TO.P,J701,5,Pin_5*%
%TO.N,/Audio IO/I2S4.LRCLK*%
X165630000Y-124090000D03*
%TO.P,J701,6,Pin_6*%
%TO.N,GND*%
X168170000Y-124090000D03*
%TO.P,J701,7,Pin_7*%
%TO.N,/Audio IO/I2S4.SDOUT*%
X165630000Y-126630000D03*
%TO.P,J701,8,Pin_8*%
%TO.N,GND*%
X168170000Y-126630000D03*
%TD*%
D15*
%TO.P,J601,1,Pin_1*%
%TO.N,/Audio IO/I2S1.MCLK*%
X146580000Y-111430000D03*
D16*
%TO.P,J601,2,Pin_2*%
%TO.N,GND*%
X149120000Y-111430000D03*
%TO.P,J601,3,Pin_3*%
%TO.N,/Audio IO/I2S1.BCLK*%
X146580000Y-113970000D03*
%TO.P,J601,4,Pin_4*%
%TO.N,GND*%
X149120000Y-113970000D03*
%TO.P,J601,5,Pin_5*%
%TO.N,/Audio IO/I2S1.LRCLK*%
X146580000Y-116510000D03*
%TO.P,J601,6,Pin_6*%
%TO.N,GND*%
X149120000Y-116510000D03*
%TO.P,J601,7,Pin_7*%
%TO.N,/Audio IO/I2S1.SDIN*%
X146580000Y-119050000D03*
%TO.P,J601,8,Pin_8*%
%TO.N,GND*%
X149120000Y-119050000D03*
%TO.P,J601,9,Pin_9*%
X146580000Y-121590000D03*
%TO.P,J601,10,Pin_10*%
X149120000Y-121590000D03*
%TO.P,J601,11,Pin_11*%
%TO.N,/Audio IO/Mute1*%
X146580000Y-124130000D03*
%TO.P,J601,12,Pin_12*%
%TO.N,/Audio IO/I2C1.SDA*%
X149120000Y-124130000D03*
%TO.P,J601,13,Pin_13*%
%TO.N,/Audio IO/IRQ1*%
X146580000Y-126670000D03*
%TO.P,J601,14,Pin_14*%
%TO.N,/Audio IO/I2C1.SCL*%
X149120000Y-126670000D03*
%TD*%
D15*
%TO.P,J801,1,Pin_1*%
%TO.N,/FPGA IO Right/SW_SER_CP*%
X118485000Y-96190000D03*
D16*
%TO.P,J801,2,Pin_2*%
%TO.N,/FPGA IO Right/SW_SER_DATA*%
X121025000Y-96190000D03*
%TO.P,J801,3,Pin_3*%
%TO.N,/FPGA IO Right/~SW_SER_PL*%
X118485000Y-98730000D03*
%TO.P,J801,4,Pin_4*%
%TO.N,/FPGA IO Right/~SW_SER_CE*%
X121025000Y-98730000D03*
%TO.P,J801,5,Pin_5*%
%TO.N,/FPGA IO Right/~LED_OE*%
X118485000Y-101270000D03*
%TO.P,J801,6,Pin_6*%
%TO.N,/FPGA IO Right/LED_LE*%
X121025000Y-101270000D03*
%TO.P,J801,7,Pin_7*%
%TO.N,/FPGA IO Right/~LED_DISPLAY_OE*%
X118485000Y-103810000D03*
%TO.P,J801,8,Pin_8*%
%TO.N,/FPGA IO Right/LED_CLK*%
X121025000Y-103810000D03*
%TO.P,J801,9,Pin_9*%
%TO.N,/FPGA IO Right/~LED_SW_OE*%
X118485000Y-106350000D03*
%TO.P,J801,10,Pin_10*%
%TO.N,/FPGA IO Right/LED_DATA*%
X121025000Y-106350000D03*
%TO.P,J801,11,Pin_11*%
%TO.N,/FPGA IO Right/B*%
X118485000Y-108890000D03*
%TO.P,J801,12,Pin_12*%
%TO.N,GND*%
X121025000Y-108890000D03*
%TO.P,J801,13,Pin_13*%
%TO.N,/FPGA IO Right/A*%
X118485000Y-111430000D03*
%TO.P,J801,14,Pin_14*%
%TO.N,GND*%
X121025000Y-111430000D03*
%TO.P,J801,15,Pin_15*%
%TO.N,/FPGA IO Right/VPOT_A_{2}*%
X118485000Y-113970000D03*
%TO.P,J801,16,Pin_16*%
%TO.N,/FPGA IO Right/VPOT_A_{1}*%
X121025000Y-113970000D03*
%TO.P,J801,17,Pin_17*%
%TO.N,/FPGA IO Right/VPOT_A_{3}*%
X118485000Y-116510000D03*
%TO.P,J801,18,Pin_18*%
%TO.N,/FPGA IO Right/VPOT_A_{0}*%
X121025000Y-116510000D03*
%TO.P,J801,19,Pin_19*%
%TO.N,/FPGA IO Right/~POTI_CS*%
X118485000Y-119050000D03*
%TO.P,J801,20,Pin_20*%
%TO.N,/FPGA IO Right/POTI_SDO*%
X121025000Y-119050000D03*
%TO.P,J801,21,Pin_21*%
%TO.N,/FPGA IO Right/POTI_CLK*%
X118485000Y-121590000D03*
%TO.P,J801,22,Pin_22*%
%TO.N,GND*%
X121025000Y-121590000D03*
%TD*%
D15*
%TO.P,J4,1,Pin_1*%
%TO.N,/FPGA IO Right/EXP1*%
X121030000Y-91110000D03*
D16*
%TO.P,J4,2,Pin_2*%
%TO.N,/FPGA IO Right/EXP5*%
X118490000Y-91110000D03*
%TO.P,J4,3,Pin_3*%
%TO.N,/FPGA IO Right/EXP2*%
X121030000Y-88570000D03*
%TO.P,J4,4,Pin_4*%
%TO.N,/FPGA IO Right/EXP6*%
X118490000Y-88570000D03*
%TO.P,J4,5,Pin_5*%
%TO.N,/FPGA IO Right/EXP3*%
X121030000Y-86030000D03*
%TO.P,J4,6,Pin_6*%
%TO.N,/FPGA IO Right/EXP7*%
X118490000Y-86030000D03*
%TO.P,J4,7,Pin_7*%
%TO.N,/FPGA IO Right/EXP4*%
X121030000Y-83490000D03*
%TO.P,J4,8,Pin_8*%
%TO.N,/FPGA IO Right/EXP8*%
X118490000Y-83490000D03*
%TO.P,J4,9,Pin_9*%
%TO.N,GND*%
X121030000Y-80950000D03*
%TO.P,J4,10,Pin_10*%
X118490000Y-80950000D03*
%TO.P,J4,11,Pin_11*%
%TO.N,/FPGA IO Right/3V3_EXP*%
X121030000Y-78410000D03*
%TO.P,J4,12,Pin_12*%
X118490000Y-78410000D03*
%TD*%
D15*
%TO.P,J1,1,Pin_1*%
%TO.N,/Debug/JTAG.TMS*%
X162000000Y-72500000D03*
D16*
%TO.P,J1,2,Pin_2*%
%TO.N,/Debug/JTAG.TDI*%
X164540000Y-72500000D03*
%TO.P,J1,3,Pin_3*%
%TO.N,/Debug/JTAG.TDO*%
X167080000Y-72500000D03*
%TO.P,J1,4,Pin_4*%
%TO.N,/Debug/JTAG.TCK*%
X169620000Y-72500000D03*
%TO.P,J1,5,Pin_5*%
%TO.N,GND*%
X172160000Y-72500000D03*
%TO.P,J1,6,Pin_6*%
%TO.N,+3V3*%
X174700000Y-72500000D03*
%TD*%
D17*
%TO.P,C38,1*%
%TO.N,+2V5*%
X147500000Y-92280000D03*
%TO.P,C38,2*%
%TO.N,GND*%
X147500000Y-91320000D03*
%TD*%
D18*
%TO.P,C47,1*%
%TO.N,+1V2*%
X150020000Y-94700000D03*
%TO.P,C47,2*%
%TO.N,GND*%
X150980000Y-94700000D03*
%TD*%
D19*
%TO.P,C32,1*%
%TO.N,+3V3*%
X153000000Y-98720000D03*
%TO.P,C32,2*%
%TO.N,GND*%
X153000000Y-99680000D03*
%TD*%
D18*
%TO.P,C34,1*%
%TO.N,+2V5*%
X156520000Y-92200000D03*
%TO.P,C34,2*%
%TO.N,GND*%
X157480000Y-92200000D03*
%TD*%
D19*
%TO.P,C39,1*%
%TO.N,+2V5*%
X148500000Y-98620000D03*
%TO.P,C39,2*%
%TO.N,GND*%
X148500000Y-99580000D03*
%TD*%
D17*
%TO.P,C49,1*%
%TO.N,+1V2*%
X152000000Y-96880000D03*
%TO.P,C49,2*%
%TO.N,GND*%
X152000000Y-95920000D03*
%TD*%
D19*
%TO.P,C36,1*%
%TO.N,+2V5*%
X147500000Y-98620000D03*
%TO.P,C36,2*%
%TO.N,GND*%
X147500000Y-99580000D03*
%TD*%
%TO.P,C30,1*%
%TO.N,+3V3*%
X151000000Y-98720000D03*
%TO.P,C30,2*%
%TO.N,GND*%
X151000000Y-99680000D03*
%TD*%
D20*
%TO.P,C26,1*%
%TO.N,+3V3*%
X148280000Y-93700000D03*
%TO.P,C26,2*%
%TO.N,GND*%
X147320000Y-93700000D03*
%TD*%
%TO.P,C25,1*%
%TO.N,+3V3*%
X148280000Y-94700000D03*
%TO.P,C25,2*%
%TO.N,GND*%
X147320000Y-94700000D03*
%TD*%
D19*
%TO.P,C44,1*%
%TO.N,+1V2*%
X152000000Y-93120000D03*
%TO.P,C44,2*%
%TO.N,GND*%
X152000000Y-94080000D03*
%TD*%
D17*
%TO.P,C33,1*%
%TO.N,+3V3*%
X153300000Y-92180000D03*
%TO.P,C33,2*%
%TO.N,GND*%
X153300000Y-91220000D03*
%TD*%
D18*
%TO.P,C21,1*%
%TO.N,+3V3*%
X155520000Y-97100000D03*
%TO.P,C21,2*%
%TO.N,GND*%
X156480000Y-97100000D03*
%TD*%
D19*
%TO.P,C40,1*%
%TO.N,+2V5*%
X156500000Y-98520000D03*
%TO.P,C40,2*%
%TO.N,GND*%
X156500000Y-99480000D03*
%TD*%
D18*
%TO.P,C23,1*%
%TO.N,+3V3*%
X155520000Y-94700000D03*
%TO.P,C23,2*%
%TO.N,GND*%
X156480000Y-94700000D03*
%TD*%
D20*
%TO.P,C27,1*%
%TO.N,+3V3*%
X148280000Y-96100000D03*
%TO.P,C27,2*%
%TO.N,GND*%
X147320000Y-96100000D03*
%TD*%
D18*
%TO.P,C46,1*%
%TO.N,+1V2*%
X150020000Y-95700000D03*
%TO.P,C46,2*%
%TO.N,GND*%
X150980000Y-95700000D03*
%TD*%
D20*
%TO.P,C28,1*%
%TO.N,+3V3*%
X148280000Y-97100000D03*
%TO.P,C28,2*%
%TO.N,GND*%
X147320000Y-97100000D03*
%TD*%
D17*
%TO.P,C35,1*%
%TO.N,+2V5*%
X155500000Y-92180000D03*
%TO.P,C35,2*%
%TO.N,GND*%
X155500000Y-91220000D03*
%TD*%
D20*
%TO.P,C45,1*%
%TO.N,+1V2*%
X153980000Y-93700000D03*
%TO.P,C45,2*%
%TO.N,GND*%
X153020000Y-93700000D03*
%TD*%
%TO.P,C48,1*%
%TO.N,+1V2*%
X153980000Y-94700000D03*
%TO.P,C48,2*%
%TO.N,GND*%
X153020000Y-94700000D03*
%TD*%
D19*
%TO.P,C31,1*%
%TO.N,+3V3*%
X152000000Y-98720000D03*
%TO.P,C31,2*%
%TO.N,GND*%
X152000000Y-99680000D03*
%TD*%
D20*
%TO.P,C43,1*%
%TO.N,+1V2*%
X153980000Y-95700000D03*
%TO.P,C43,2*%
%TO.N,GND*%
X153020000Y-95700000D03*
%TD*%
D18*
%TO.P,C22,1*%
%TO.N,+3V3*%
X155520000Y-96100000D03*
%TO.P,C22,2*%
%TO.N,GND*%
X156480000Y-96100000D03*
%TD*%
D17*
%TO.P,C37,1*%
%TO.N,+2V5*%
X148500000Y-92280000D03*
%TO.P,C37,2*%
%TO.N,GND*%
X148500000Y-91320000D03*
%TD*%
D18*
%TO.P,C24,1*%
%TO.N,+3V3*%
X155520000Y-93700000D03*
%TO.P,C24,2*%
%TO.N,GND*%
X156480000Y-93700000D03*
%TD*%
D17*
%TO.P,C29,1*%
%TO.N,+3V3*%
X152300000Y-92180000D03*
%TO.P,C29,2*%
%TO.N,GND*%
X152300000Y-91220000D03*
%TD*%
D18*
%TO.P,C42,1*%
%TO.N,+1V2*%
X150020000Y-93700000D03*
%TO.P,C42,2*%
%TO.N,GND*%
X150980000Y-93700000D03*
%TD*%
D19*
%TO.P,C41,1*%
%TO.N,+2V5*%
X155500000Y-98520000D03*
%TO.P,C41,2*%
%TO.N,GND*%
X155500000Y-99480000D03*
%TD*%
D21*
%TO.N,GND*%
X128625000Y-91875000D03*
%TO.N,+5V*%
X130750000Y-86625000D03*
X131625000Y-86625000D03*
X131625000Y-87500000D03*
X130750000Y-87500000D03*
D22*
%TO.N,GND*%
X170908082Y-109500000D03*
X174185020Y-108750000D03*
X173010020Y-108500000D03*
X174175000Y-93750000D03*
D21*
X170898500Y-94499562D03*
D22*
X175750000Y-81875000D03*
D21*
X173350000Y-103300000D03*
D22*
X182125000Y-77998500D03*
X145200000Y-91400000D03*
X151600000Y-89800000D03*
D21*
X139000000Y-80750000D03*
D22*
X154800000Y-98600000D03*
D21*
X130500000Y-93000000D03*
D22*
X179875000Y-77998500D03*
X170750000Y-75000000D03*
X153625000Y-107000000D03*
X168250000Y-78500000D03*
D21*
X177625000Y-96800000D03*
X174500000Y-113000000D03*
X134125000Y-84875000D03*
X177625000Y-111800000D03*
D22*
X150000000Y-92200000D03*
X149200000Y-89800000D03*
X167500000Y-83250000D03*
D21*
X125750000Y-87625000D03*
D22*
X151600000Y-97800000D03*
D21*
X167750000Y-110125000D03*
D22*
X154800000Y-92200000D03*
X146500000Y-73500000D03*
X151600000Y-93800000D03*
X175750000Y-80500000D03*
D21*
X128500000Y-93000000D03*
X170000000Y-107000000D03*
X174500000Y-105250000D03*
D22*
X150800000Y-89000000D03*
X167500000Y-81250000D03*
D21*
X174500000Y-98000000D03*
X127500000Y-101500000D03*
D22*
X154800000Y-89800000D03*
X165000000Y-85500000D03*
X150800000Y-96200000D03*
X148400000Y-89000000D03*
D21*
X124290000Y-102752260D03*
D22*
X164750000Y-79500000D03*
D21*
X163750000Y-102750000D03*
D22*
X149200000Y-97800000D03*
D21*
X172500000Y-113000000D03*
X176250000Y-120250000D03*
D22*
X141995055Y-79086500D03*
X148400000Y-88200000D03*
X183000000Y-106000000D03*
X175750000Y-83625000D03*
X175750000Y-85625000D03*
X165001500Y-89400000D03*
X154000000Y-89000000D03*
X155600000Y-97800000D03*
X134495055Y-79086500D03*
D21*
X176250000Y-105250000D03*
X133500000Y-101500000D03*
D22*
X174750000Y-90375000D03*
X146800000Y-97800000D03*
D21*
X172500000Y-99000000D03*
D22*
X152400000Y-95400000D03*
X154800000Y-93800000D03*
X154800000Y-96200000D03*
X158000000Y-113125000D03*
X150800000Y-89800000D03*
X145200000Y-88200000D03*
X169750000Y-91625000D03*
D21*
X130250000Y-102750000D03*
D22*
X175750000Y-84625000D03*
D21*
X174500000Y-120250000D03*
D22*
X155600000Y-93000000D03*
X175750000Y-78500000D03*
X155500000Y-113125000D03*
X172250000Y-84000000D03*
X168500000Y-82250000D03*
X149200000Y-98600000D03*
X155600000Y-95400000D03*
X149200000Y-89000000D03*
X176375000Y-86125000D03*
D21*
X172500000Y-114000000D03*
D22*
X172250000Y-81250000D03*
X169500000Y-81250000D03*
D21*
X139000000Y-93000000D03*
X172500000Y-100000000D03*
D22*
X165250000Y-75000000D03*
X152400000Y-89800000D03*
X152400000Y-96200000D03*
D21*
X173350000Y-104300000D03*
X172500000Y-98000000D03*
D22*
X155000000Y-73500000D03*
X161250000Y-80500000D03*
X153200000Y-93800000D03*
X150800000Y-88200000D03*
X149200000Y-93800000D03*
D21*
X124500000Y-93000000D03*
D22*
X153200000Y-89000000D03*
D21*
X174500000Y-99000000D03*
D22*
X151750000Y-83000000D03*
X147600000Y-93800000D03*
X150800000Y-92200000D03*
D21*
X132500000Y-93000000D03*
D22*
X154800000Y-88200000D03*
X145200000Y-101000000D03*
X156750000Y-113125000D03*
D21*
X134000000Y-83750000D03*
D22*
X158800000Y-96200000D03*
X154800000Y-88200000D03*
D21*
X174500000Y-115000000D03*
X173500000Y-100000000D03*
D22*
X147600000Y-89000000D03*
X154800000Y-101800000D03*
X172250000Y-79000000D03*
X150800000Y-94600000D03*
X145200000Y-89000000D03*
D21*
X172500000Y-115000000D03*
D22*
X147600000Y-88200000D03*
X153200000Y-89800000D03*
X179000000Y-121000000D03*
D21*
X151000000Y-81405000D03*
X177625000Y-103200000D03*
X137500000Y-77875000D03*
D22*
X168500000Y-81250000D03*
X155500000Y-110875000D03*
X149200000Y-96200000D03*
D21*
X136250000Y-102750000D03*
D22*
X152626500Y-74533812D03*
X165750000Y-86000000D03*
X135762500Y-74500000D03*
X148400000Y-93000000D03*
X150000000Y-89800000D03*
D21*
X137500000Y-87875000D03*
X177625000Y-81800000D03*
D22*
X154000000Y-89800000D03*
X148400000Y-95400000D03*
D21*
X141500000Y-80750000D03*
X134000000Y-80750000D03*
X173500000Y-98000000D03*
D22*
X150000000Y-97800000D03*
X149200000Y-93000000D03*
X151600000Y-95400000D03*
X172250000Y-80000000D03*
D21*
X174500000Y-100000000D03*
D22*
X183000000Y-91000000D03*
X183000000Y-121000000D03*
X167500000Y-82250000D03*
X145200000Y-97000000D03*
X157200000Y-100200000D03*
D21*
X134000000Y-93750000D03*
D22*
X152400000Y-97800000D03*
D21*
X173500000Y-99000000D03*
D22*
X154800000Y-89000000D03*
D21*
X141500000Y-83750000D03*
D22*
X150000000Y-98600000D03*
X172375000Y-75000000D03*
X153200000Y-96200000D03*
D21*
X177625000Y-118200000D03*
X173500000Y-113000000D03*
X134000000Y-82250000D03*
D22*
X152400000Y-93800000D03*
X153200000Y-94600000D03*
X172253942Y-85973500D03*
X154800000Y-93000000D03*
X154800000Y-95400000D03*
X151600000Y-94600000D03*
D21*
X177625000Y-88200000D03*
X173475000Y-118300000D03*
X126500000Y-93000000D03*
X173475000Y-119300000D03*
D22*
X156400000Y-89000000D03*
D21*
X146500000Y-80750000D03*
D22*
X150000000Y-89000000D03*
X155600000Y-89000000D03*
D21*
X167750000Y-95125000D03*
X139500000Y-101500000D03*
D22*
X168250000Y-89500000D03*
D21*
X145000000Y-77875000D03*
D22*
X144400000Y-89000000D03*
X179000000Y-106000000D03*
X173375000Y-89500000D03*
X173000000Y-93500000D03*
X153750000Y-83000000D03*
D21*
X168625000Y-98110000D03*
D22*
X148400000Y-97800000D03*
X154800000Y-97800000D03*
X172250000Y-89500000D03*
X168500000Y-83250000D03*
X154000000Y-97800000D03*
X149200000Y-95400000D03*
X158800000Y-93800000D03*
X150800000Y-93800000D03*
X150800000Y-95400000D03*
X169500000Y-82250000D03*
D21*
X173500000Y-115000000D03*
D22*
X154250000Y-113125000D03*
X179000000Y-91000000D03*
X153200000Y-95400000D03*
D21*
X168625000Y-113110000D03*
D22*
X161500000Y-77750000D03*
D21*
X174500000Y-114000000D03*
D22*
X161250000Y-83000000D03*
X150800000Y-97800000D03*
X169500000Y-83250000D03*
X165000000Y-88600000D03*
X154000000Y-98600000D03*
D21*
X168875000Y-104500000D03*
D22*
X155600000Y-88200000D03*
D21*
X134000000Y-92250000D03*
X141500000Y-82250000D03*
D22*
X152400000Y-94600000D03*
D21*
X173500000Y-114000000D03*
D22*
X154000000Y-92200000D03*
X151600000Y-92200000D03*
X157200000Y-97800000D03*
X149200000Y-89000000D03*
X155750000Y-83000000D03*
X151600000Y-96200000D03*
X149200000Y-101800000D03*
X149200000Y-92200000D03*
X153200000Y-97800000D03*
D21*
%TO.N,+5V*%
X146601500Y-77875438D03*
X139101500Y-87873698D03*
X139101500Y-77873698D03*
X140625000Y-77875000D03*
X148125000Y-77875000D03*
X140625000Y-87875000D03*
D22*
%TO.N,/FPGA Config/~PROGRAM*%
X157875000Y-75000000D03*
X158000000Y-88200000D03*
%TO.N,+3V3*%
X154220000Y-108030000D03*
X148400000Y-93800000D03*
X175875000Y-91500000D03*
X163250000Y-83000000D03*
X143200000Y-128200000D03*
D21*
X126500000Y-101500000D03*
D22*
X154800000Y-97000000D03*
X148400000Y-97000000D03*
X156750000Y-83000000D03*
X154750000Y-83000000D03*
X175750000Y-79500000D03*
X169495055Y-76086500D03*
X144086500Y-74204945D03*
X134400000Y-128200000D03*
X161500000Y-75750000D03*
X153200000Y-98600000D03*
X134400000Y-125600000D03*
X152400000Y-98600000D03*
X158211500Y-107504945D03*
X152400000Y-92200000D03*
X149000000Y-83000000D03*
D21*
X183875000Y-75875000D03*
D22*
X140586500Y-74204945D03*
D21*
X132500000Y-101500000D03*
D22*
X158800000Y-78153500D03*
D21*
X172000000Y-105750000D03*
D22*
X151125000Y-76125000D03*
X168375000Y-76125000D03*
D21*
X163875000Y-108125000D03*
X125875000Y-91625000D03*
X138000000Y-94750000D03*
D22*
X155600000Y-93800000D03*
X152586500Y-72504945D03*
X149200000Y-97000000D03*
X148400000Y-96200000D03*
X152750000Y-83000000D03*
X149200000Y-94600000D03*
X175875000Y-92625000D03*
D21*
X172000000Y-120750000D03*
D22*
X165437500Y-87437500D03*
X148400000Y-94600000D03*
X152200000Y-125600000D03*
X170750000Y-77000000D03*
D21*
X137125000Y-94750000D03*
X173750000Y-105750000D03*
D22*
X168250000Y-87500000D03*
X144086500Y-72804945D03*
X155600000Y-94600000D03*
D21*
X178125000Y-75875000D03*
D22*
X155600000Y-96200000D03*
D21*
X122750000Y-98500000D03*
D22*
X143200000Y-125600000D03*
X158790000Y-79750000D03*
X155600000Y-97000000D03*
D21*
X173750000Y-120750000D03*
D22*
X173875000Y-90750000D03*
X153200000Y-92200000D03*
X151600000Y-98600000D03*
D21*
X136250000Y-94750000D03*
D22*
X150800000Y-98600000D03*
X169000000Y-92875000D03*
D21*
X156000000Y-77595000D03*
D22*
X167224228Y-76099228D03*
X152200000Y-128200000D03*
X161500000Y-76750000D03*
X152586500Y-73504945D03*
X154800000Y-94600000D03*
X165250000Y-77000000D03*
X140586500Y-72804945D03*
D21*
%TO.N,/USB2/VBUS*%
X177625000Y-117400000D03*
X177625000Y-112600000D03*
D22*
%TO.N,/USB2/D+*%
X177750000Y-114250000D03*
X177717499Y-115250000D03*
D21*
%TO.N,/USB1/VBUS*%
X177625000Y-102400000D03*
X177625000Y-97600000D03*
D22*
%TO.N,/USB1/D+*%
X177750000Y-99250000D03*
X177717499Y-100250000D03*
D21*
%TO.N,/USB1/3V3_USB*%
X167023500Y-98110000D03*
X171475000Y-103300000D03*
X171475000Y-104300000D03*
X176750000Y-99000000D03*
D22*
X174250000Y-102125000D03*
D21*
X167023500Y-98110000D03*
D22*
X172750000Y-102125000D03*
X169500000Y-97873500D03*
X170375000Y-100750000D03*
X176625000Y-97750000D03*
%TO.N,/USB2/3V3_USB*%
X170375000Y-115750000D03*
D21*
X176750000Y-114000000D03*
D22*
X176625000Y-112750000D03*
X169500000Y-112873500D03*
D21*
X171600000Y-118300000D03*
D22*
X172750000Y-117125000D03*
D21*
X167023500Y-113110000D03*
D22*
X174250000Y-117125000D03*
D21*
X167023500Y-113110000D03*
X171600000Y-119300000D03*
%TO.N,/Debug/VBUS*%
X177625000Y-82600000D03*
X177625000Y-87400000D03*
D22*
%TO.N,/Debug/VPHY*%
X182125000Y-79500000D03*
X173687500Y-84562500D03*
%TO.N,/Debug/VCORE*%
X164625000Y-87375000D03*
X173750000Y-80500000D03*
X163250000Y-80500000D03*
X172250000Y-87500000D03*
%TO.N,/FPGA Config/~INIT*%
X157200000Y-75400000D03*
X158000000Y-89000000D03*
%TO.N,/Audio IO/I2S4.LRCLK*%
X154800000Y-100200000D03*
%TO.N,/Audio IO/I2S4.SDOUT*%
X154800000Y-101000000D03*
%TO.N,/Audio IO/I2S4.BCLK*%
X155600000Y-101000000D03*
%TO.N,/Audio IO/I2S4.MCLK*%
X155600000Y-100200000D03*
%TO.N,/Audio IO/I2S5.LRCLK*%
X153200000Y-101000000D03*
%TO.N,/Audio IO/I2S5.SDOUT*%
X152400000Y-101000000D03*
%TO.N,/Audio IO/I2S5.BCLK*%
X154000000Y-100200000D03*
%TO.N,/Audio IO/I2S5.MCLK*%
X154000000Y-101000000D03*
%TO.N,/FPGA Config/DONE*%
X158000000Y-87400000D03*
X157974934Y-75800000D03*
%TO.N,/FPGA IO Left/FPGA_CLK*%
X162500000Y-106100000D03*
X158800000Y-98600000D03*
%TO.N,/Debug/JTAG.TCK*%
X156400000Y-90600000D03*
%TO.N,/Debug/JTAG.TDO*%
X166102960Y-75500000D03*
X157200000Y-89000000D03*
%TO.N,/Debug/JTAG.TDI*%
X172250000Y-77250000D03*
X168375000Y-75000000D03*
X156400000Y-91400000D03*
%TO.N,/Debug/JTAG.TMS*%
X166750000Y-74500000D03*
X156400000Y-89800000D03*
D21*
%TO.N,+2V5*%
X137125000Y-84750000D03*
X136250000Y-84750000D03*
D22*
X155600000Y-92200000D03*
X148400000Y-92200000D03*
X155600000Y-98600000D03*
D21*
X138000000Y-84750000D03*
D22*
X148400000Y-98600000D03*
%TO.N,/FPGA Config/CFG.IO3*%
X159600000Y-88200000D03*
X159600000Y-79000000D03*
%TO.N,/FPGA Config/CFG.IO0*%
X158800000Y-81800000D03*
X158800000Y-88200000D03*
%TO.N,/FPGA IO Left/ULPI1.NXT*%
X158000000Y-98600000D03*
X170375000Y-97750000D03*
%TO.N,/FPGA IO Left/ULPI1.CLK*%
X175000000Y-95750000D03*
X158000000Y-97800000D03*
%TO.N,/FPGA IO Left/ULPI1.RST*%
X157200000Y-98600000D03*
X174250000Y-95875000D03*
%TO.N,/FPGA IO Left/ULPI1.STP*%
X158000000Y-97000000D03*
X173250000Y-95875000D03*
%TO.N,/FPGA IO Left/ULPI1.DIR*%
X172250000Y-95875000D03*
X157200000Y-97000000D03*
%TO.N,/FPGA IO Left/ULPI2.NXT*%
X170375000Y-112750000D03*
X156400000Y-101000000D03*
%TO.N,/FPGA IO Left/ULPI2.CLK*%
X156400000Y-100200000D03*
X175000000Y-110750000D03*
%TO.N,/FPGA IO Left/ULPI2.RST*%
X157200000Y-101000000D03*
X174250000Y-110875000D03*
%TO.N,/FPGA IO Left/ULPI2.STP*%
X173250000Y-110875000D03*
X158000000Y-100200000D03*
%TO.N,/FPGA IO Left/ULPI2.DIR*%
X172250000Y-110875000D03*
X158000000Y-101000000D03*
%TO.N,+1V2*%
X152400000Y-97000000D03*
X152400000Y-93000000D03*
X150800000Y-97000000D03*
X149200000Y-90600000D03*
X150000000Y-96200000D03*
X154000000Y-96200000D03*
X150800000Y-93000000D03*
X154800000Y-90600000D03*
X150000000Y-97000000D03*
X150000000Y-95400000D03*
X150000000Y-94600000D03*
D21*
X145500000Y-84750000D03*
D22*
X150000000Y-93800000D03*
X154000000Y-94600000D03*
X153200000Y-97000000D03*
D21*
X143750000Y-84750000D03*
X144625000Y-84750000D03*
D22*
X153200000Y-93000000D03*
X152400000Y-90600000D03*
X155600000Y-90600000D03*
X151600000Y-93000000D03*
X154000000Y-93800000D03*
X148400000Y-90600000D03*
X150000000Y-93000000D03*
X148400000Y-89800000D03*
X155600000Y-89800000D03*
X154000000Y-97000000D03*
X154000000Y-95400000D03*
X149200000Y-90600000D03*
X151600000Y-97000000D03*
X154000000Y-93000000D03*
X151600000Y-90600000D03*
%TO.N,/FPGA IO Right/EXP8*%
X145200000Y-89800000D03*
%TO.N,/FPGA IO Right/EXP4*%
X146000000Y-89800000D03*
%TO.N,/FPGA IO Right/EXP7*%
X145200000Y-90600000D03*
%TO.N,/FPGA IO Right/EXP3*%
X146000000Y-90600000D03*
%TO.N,/FPGA IO Right/EXP6*%
X146000000Y-92200000D03*
%TO.N,/FPGA IO Right/EXP2*%
X146000000Y-91400000D03*
%TO.N,/FPGA IO Right/EXP5*%
X146000000Y-93000000D03*
%TO.N,/FPGA IO Right/EXP1*%
X145200000Y-92200000D03*
%TO.N,/FPGA IO Right/SW_SER_CP*%
X146000000Y-95400000D03*
%TO.N,/FPGA IO Right/SW_SER_DATA*%
X146000000Y-96200000D03*
%TO.N,/FPGA IO Right/~SW_SER_PL*%
X146000000Y-97000000D03*
%TO.N,/FPGA IO Right/~SW_SER_CE*%
X146000000Y-97800000D03*
%TO.N,/FPGA IO Right/~LED_OE*%
X146000000Y-98600000D03*
%TO.N,/FPGA IO Right/LED_LE*%
X146800000Y-98600000D03*
%TO.N,/FPGA IO Right/~LED_DISPLAY_OE*%
X146000000Y-99400000D03*
%TO.N,/FPGA IO Right/LED_CLK*%
X146800000Y-99400000D03*
%TO.N,/FPGA IO Right/LED_DATA*%
X146800000Y-100200000D03*
%TO.N,/FPGA IO Right/~LED_SW_OE*%
X146000000Y-100200000D03*
%TD*%
D23*
%TO.N,GND*%
X154000000Y-99200000D02*
X153520000Y-99680000D01*
X147420000Y-95380000D02*
X147440000Y-95400000D01*
X147440000Y-95400000D02*
X148400000Y-95400000D01*
X148500000Y-91320000D02*
X148920000Y-91320000D01*
X154000000Y-91400000D02*
X154000000Y-92200000D01*
X157200000Y-93000000D02*
X156400000Y-93000000D01*
X149200000Y-99400000D02*
X149200000Y-98600000D01*
X148920000Y-91320000D02*
X149200000Y-91600000D01*
X148500000Y-99580000D02*
X149020000Y-99580000D01*
X156480000Y-94700000D02*
X156480000Y-93700000D01*
X150980000Y-93700000D02*
X150980000Y-95700000D01*
X147500000Y-91320000D02*
X148500000Y-91320000D01*
X156480000Y-97520000D02*
X156200000Y-97800000D01*
X156400000Y-93000000D02*
X156200000Y-93000000D01*
X156480000Y-96100000D02*
X156480000Y-95320000D01*
X154800000Y-91400000D02*
X154800000Y-92200000D01*
X156200000Y-97800000D02*
X155600000Y-97800000D01*
X155080000Y-99480000D02*
X154800000Y-99200000D01*
X152300000Y-91220000D02*
X153300000Y-91220000D01*
X153820000Y-91220000D02*
X154000000Y-91400000D01*
X147710000Y-93000000D02*
X147320000Y-93390000D01*
X147320000Y-97410000D02*
X147320000Y-97100000D01*
X156480000Y-95320000D02*
X156480000Y-94700000D01*
X154000000Y-98600000D02*
X154000000Y-99200000D01*
X156480000Y-97100000D02*
X156480000Y-96100000D01*
X156480000Y-93080000D02*
X156400000Y-93000000D01*
X147500000Y-99580000D02*
X148500000Y-99580000D01*
X154800000Y-99200000D02*
X154800000Y-98600000D01*
X156480000Y-93700000D02*
X156480000Y-93280000D01*
X147710000Y-97800000D02*
X147320000Y-97410000D01*
X151000000Y-99680000D02*
X153000000Y-99680000D01*
X149200000Y-91600000D02*
X149200000Y-92200000D01*
X155500000Y-91220000D02*
X154980000Y-91220000D01*
X156400000Y-95400000D02*
X156480000Y-95320000D01*
X155600000Y-95400000D02*
X156400000Y-95400000D01*
X147320000Y-93390000D02*
X147320000Y-93700000D01*
X150000000Y-98600000D02*
X150000000Y-99200000D01*
X155500000Y-99480000D02*
X155080000Y-99480000D01*
X149020000Y-99580000D02*
X149200000Y-99400000D01*
X150000000Y-99200000D02*
X150480000Y-99680000D01*
X151600000Y-91400000D02*
X151600000Y-92200000D01*
X153300000Y-91220000D02*
X153820000Y-91220000D01*
X157480000Y-92720000D02*
X157200000Y-93000000D01*
X157480000Y-92200000D02*
X157480000Y-92720000D01*
X147710000Y-93000000D02*
X148400000Y-93000000D01*
X153020000Y-93700000D02*
X153020000Y-95700000D01*
X154980000Y-91220000D02*
X154800000Y-91400000D01*
D24*
X152533812Y-74533812D02*
X152500000Y-74500000D01*
D23*
X150480000Y-99680000D02*
X151000000Y-99680000D01*
D24*
X152626500Y-74533812D02*
X152533812Y-74533812D01*
D23*
X147320000Y-93700000D02*
X147320000Y-97100000D01*
X156200000Y-93000000D02*
X155600000Y-93000000D01*
X156480000Y-93700000D02*
X156480000Y-93080000D01*
X153520000Y-99680000D02*
X153000000Y-99680000D01*
X152300000Y-91220000D02*
X151780000Y-91220000D01*
X151780000Y-91220000D02*
X151600000Y-91400000D01*
X156480000Y-97100000D02*
X156480000Y-97520000D01*
X155500000Y-99480000D02*
X156500000Y-99480000D01*
X148400000Y-97800000D02*
X147710000Y-97800000D01*
D24*
%TO.N,/FPGA Config/~PROGRAM*%
X158400000Y-75525000D02*
X157875000Y-75000000D01*
X158400000Y-87800000D02*
X158400000Y-86600000D01*
X158000000Y-88200000D02*
X158400000Y-87800000D01*
X158400000Y-81200000D02*
X158400000Y-75525000D01*
X158400000Y-82400000D02*
X158400000Y-81200000D01*
X158400000Y-81200000D02*
X158400000Y-80000000D01*
X158400000Y-81200000D02*
X158400000Y-81000000D01*
X158400000Y-86600000D02*
X158400000Y-82400000D01*
D23*
%TO.N,+3V3*%
X148280000Y-94700000D02*
X148280000Y-93700000D01*
X148280000Y-97100000D02*
X148280000Y-96100000D01*
X151000000Y-98720000D02*
X153000000Y-98720000D01*
X155520000Y-93700000D02*
X155520000Y-94700000D01*
X155520000Y-96100000D02*
X155520000Y-97100000D01*
%TO.N,Earth*%
X179145000Y-89320000D02*
X183325000Y-89320000D01*
X179145000Y-80680000D02*
X183325000Y-80680000D01*
X179145000Y-119320000D02*
X183325000Y-119320000D01*
X179145000Y-95680000D02*
X183325000Y-95680000D01*
X179145000Y-110680000D02*
X183325000Y-110680000D01*
X179145000Y-104320000D02*
X183325000Y-104320000D01*
D25*
%TO.N,/USB2/VBUS*%
X178350000Y-117400000D02*
X178500000Y-117250000D01*
X178350000Y-112600000D02*
X178500000Y-112750000D01*
D26*
X178500000Y-117250000D02*
X178500000Y-117000000D01*
D25*
X177625000Y-117400000D02*
X178350000Y-117400000D01*
X177625000Y-112600000D02*
X178350000Y-112600000D01*
X178500000Y-112750000D02*
X178500000Y-117250000D01*
D27*
%TO.N,/USB2/D+*%
X177717499Y-114282501D02*
X177750000Y-114250000D01*
X177717499Y-115250000D02*
X177717499Y-114282501D01*
D26*
%TO.N,/USB1/VBUS*%
X178500000Y-102250000D02*
X178500000Y-102000000D01*
D25*
X178500000Y-97750000D02*
X178500000Y-102250000D01*
X177625000Y-97600000D02*
X178350000Y-97600000D01*
X177625000Y-102400000D02*
X178350000Y-102400000D01*
X178350000Y-97600000D02*
X178500000Y-97750000D01*
X178350000Y-102400000D02*
X178500000Y-102250000D01*
D27*
%TO.N,/USB1/D+*%
X177717499Y-99282501D02*
X177750000Y-99250000D01*
X177717499Y-100250000D02*
X177717499Y-99282501D01*
D26*
%TO.N,/Debug/VBUS*%
X177625000Y-82600000D02*
X177625000Y-87400000D01*
%TO.N,/Debug/VPHY*%
X182125000Y-79500000D02*
X177493763Y-79500000D01*
X173750000Y-83243763D02*
X173750000Y-83375000D01*
X177493763Y-79500000D02*
X173750000Y-83243763D01*
X173750000Y-83243763D02*
X173750000Y-84500000D01*
X173750000Y-84500000D02*
X173687500Y-84562500D01*
D24*
%TO.N,/FPGA Config/~INIT*%
X157600000Y-88600000D02*
X157600000Y-76200000D01*
X157200000Y-75800000D02*
X157600000Y-76200000D01*
X158000000Y-89000000D02*
X157600000Y-88600000D01*
X157200000Y-75400000D02*
X157200000Y-75800000D01*
%TO.N,/Audio IO/I2S4.LRCLK*%
X164000000Y-122460000D02*
X165630000Y-124090000D01*
X154800000Y-100200000D02*
X155200000Y-100600000D01*
X155200000Y-100600000D02*
X155200000Y-103000000D01*
X164000000Y-111800000D02*
X164000000Y-121600000D01*
X164000000Y-121600000D02*
X164000000Y-122460000D01*
X155200000Y-103000000D02*
X164000000Y-111800000D01*
%TO.N,/Audio IO/I2S4.SDOUT*%
X163600000Y-124600000D02*
X165630000Y-126630000D01*
X154400000Y-102600000D02*
X163600000Y-111800000D01*
X154400000Y-101400000D02*
X154400000Y-101800000D01*
X154400000Y-101800000D02*
X154400000Y-102600000D01*
X154800000Y-101000000D02*
X154400000Y-101400000D01*
X163600000Y-111800000D02*
X163600000Y-123000000D01*
X163600000Y-123000000D02*
X163600000Y-124600000D01*
%TO.N,/Audio IO/I2S4.BCLK*%
X164400000Y-120320000D02*
X165630000Y-121550000D01*
X164400000Y-112000000D02*
X164400000Y-112400000D01*
X155600000Y-103000000D02*
X164400000Y-111800000D01*
X164400000Y-112400000D02*
X164400000Y-118600000D01*
X155600000Y-101000000D02*
X155600000Y-103000000D01*
X164400000Y-112000000D02*
X164400000Y-120320000D01*
X164400000Y-111800000D02*
X164400000Y-112400000D01*
%TO.N,/Audio IO/I2S4.MCLK*%
X165630000Y-112630000D02*
X165630000Y-119010000D01*
X156000000Y-100600000D02*
X156000000Y-103000000D01*
X155600000Y-100200000D02*
X156000000Y-100600000D01*
X156000000Y-103000000D02*
X165630000Y-112630000D01*
%TO.N,/Audio IO/I2S5.LRCLK*%
X153200000Y-102600000D02*
X154800000Y-104200000D01*
X154800000Y-104200000D02*
X155000000Y-104400000D01*
X155000000Y-104400000D02*
X155000000Y-122350000D01*
X153200000Y-101000000D02*
X153200000Y-102600000D01*
X155000000Y-122350000D02*
X156740000Y-124090000D01*
%TO.N,/Audio IO/I2S5.SDOUT*%
X156740000Y-126630000D02*
X154640011Y-124530011D01*
X154400000Y-104200000D02*
X154600000Y-104400000D01*
X154640011Y-106159989D02*
X154640011Y-104440011D01*
X154640011Y-124530011D02*
X154640011Y-104440011D01*
X152400000Y-101000000D02*
X152400000Y-102200000D01*
X152400000Y-102200000D02*
X154400000Y-104200000D01*
X154640011Y-104440011D02*
X154400000Y-104200000D01*
%TO.N,/Audio IO/I2S5.BCLK*%
X154000000Y-100200000D02*
X153600000Y-100600000D01*
X153600000Y-102600000D02*
X156000000Y-105000000D01*
X156000000Y-117400000D02*
X155400000Y-118000000D01*
X155400000Y-118800000D02*
X155400000Y-120210000D01*
X155400000Y-118000000D02*
X155400000Y-118800000D01*
X153600000Y-100600000D02*
X153600000Y-102600000D01*
X156000000Y-105000000D02*
X156000000Y-117400000D01*
X155400000Y-120210000D02*
X156740000Y-121550000D01*
%TO.N,/Audio IO/I2S5.MCLK*%
X156740000Y-117740000D02*
X156359989Y-117359989D01*
X154000000Y-102600000D02*
X154000000Y-101000000D01*
X156740000Y-117740000D02*
X156400000Y-117400000D01*
X156359989Y-117359989D02*
X156359989Y-104959989D01*
X156359989Y-104959989D02*
X156200000Y-104800000D01*
X156359989Y-104959989D02*
X154000000Y-102600000D01*
X156740000Y-119010000D02*
X156740000Y-117740000D01*
%TO.N,/FPGA Config/DONE*%
X158000000Y-87400000D02*
X158000000Y-76200000D01*
X158000000Y-76200000D02*
X158000000Y-76000000D01*
X158000000Y-75825066D02*
X157974934Y-75800000D01*
X158000000Y-76200000D02*
X158000000Y-75825066D01*
%TO.N,/FPGA IO Left/FPGA_CLK*%
X158800000Y-102400000D02*
X162500000Y-106100000D01*
X158800000Y-98600000D02*
X158800000Y-102400000D01*
%TO.N,/Debug/JTAG.TCK*%
X156400000Y-90600000D02*
X158650000Y-90600000D01*
X159225000Y-90025000D02*
X164250000Y-85000000D01*
X166746480Y-75373520D02*
X166746480Y-75503520D01*
X166746480Y-75373520D02*
X166746480Y-82503520D01*
X158650000Y-90600000D02*
X164250000Y-85000000D01*
X169620000Y-72500000D02*
X166746480Y-75373520D01*
X166746480Y-82503520D02*
X164250000Y-85000000D01*
X164250000Y-85000000D02*
X164257040Y-84992960D01*
%TO.N,/Debug/JTAG.TDO*%
X166102960Y-75500000D02*
X166228880Y-75500000D01*
X166239440Y-73340560D02*
X167080000Y-72500000D01*
X166239440Y-75239440D02*
X166239440Y-74989440D01*
X157200000Y-89000000D02*
X157600000Y-89400000D01*
X158977217Y-89400000D02*
X159377217Y-89000000D01*
X166239440Y-75239440D02*
X166239440Y-73340560D01*
X157600000Y-89400000D02*
X158977217Y-89400000D01*
X166239440Y-75489440D02*
X166239440Y-75239440D01*
X166228880Y-75500000D02*
X166239440Y-75489440D01*
X158977217Y-89400000D02*
X166239440Y-82137777D01*
X166239440Y-82137777D02*
X166239440Y-75489440D01*
%TO.N,/Debug/JTAG.TDI*%
X158350000Y-91400000D02*
X167000000Y-82750000D01*
X170500000Y-71250000D02*
X170750000Y-71500000D01*
X158775000Y-90975000D02*
X167000000Y-82750000D01*
X167000000Y-82750000D02*
X167000000Y-77375000D01*
X170750000Y-71500000D02*
X170750000Y-73125000D01*
X165790000Y-71250000D02*
X170500000Y-71250000D01*
X167000000Y-77375000D02*
X167000000Y-76875000D01*
X170750000Y-73125000D02*
X168375000Y-75500000D01*
X168375000Y-75500000D02*
X167000000Y-76875000D01*
X168375000Y-75500000D02*
X168375000Y-75000000D01*
X156400000Y-91400000D02*
X158350000Y-91400000D01*
X165790000Y-71250000D02*
X166250000Y-71250000D01*
X172250000Y-77250000D02*
X172109989Y-77390011D01*
X172109989Y-77390011D02*
X167015011Y-77390011D01*
X165250000Y-72500000D02*
X164540000Y-72500000D01*
X164540000Y-72500000D02*
X165790000Y-71250000D01*
X167015011Y-77390011D02*
X167000000Y-77375000D01*
%TO.N,/Debug/JTAG.TMS*%
X158950000Y-89800000D02*
X159075000Y-89675000D01*
X166492960Y-74757040D02*
X166750000Y-74500000D01*
X166492960Y-82257040D02*
X166492960Y-79257040D01*
X158950000Y-89800000D02*
X166492960Y-82257040D01*
X156400000Y-89800000D02*
X158950000Y-89800000D01*
X166492960Y-74992960D02*
X166492960Y-74757040D01*
X166492960Y-79257040D02*
X166492960Y-79007040D01*
X159075000Y-89675000D02*
X159350000Y-89400000D01*
X166492960Y-79257040D02*
X166492960Y-74992960D01*
D23*
%TO.N,+2V5*%
X147500000Y-92280000D02*
X148500000Y-92280000D01*
X156520000Y-92200000D02*
X155600000Y-92200000D01*
X155500000Y-98520000D02*
X156500000Y-98520000D01*
X147500000Y-98620000D02*
X148500000Y-98620000D01*
D24*
%TO.N,/FPGA Config/CFG.IO3*%
X159600000Y-88200000D02*
X159600000Y-80670000D01*
X159600000Y-80670000D02*
X159600000Y-79000000D01*
%TO.N,/FPGA Config/CFG.IO0*%
X158800000Y-88200000D02*
X158800000Y-82410000D01*
X158800000Y-82410000D02*
X158800000Y-81800000D01*
%TO.N,/FPGA IO Left/ULPI1.NXT*%
X166400000Y-98200000D02*
X166800000Y-98600000D01*
X158000000Y-98600000D02*
X158400000Y-98200000D01*
X166800000Y-98600000D02*
X169525000Y-98600000D01*
X158400000Y-98200000D02*
X166400000Y-98200000D01*
X169525000Y-98600000D02*
X170375000Y-97750000D01*
%TO.N,/FPGA IO Left/ULPI1.CLK*%
X166575000Y-97800000D02*
X166787500Y-97587500D01*
X167125000Y-97250000D02*
X174750000Y-97250000D01*
X166787500Y-97587500D02*
X167125000Y-97250000D01*
X174750000Y-97250000D02*
X175000000Y-97000000D01*
X175000000Y-97000000D02*
X175000000Y-95750000D01*
X158000000Y-97800000D02*
X166575000Y-97800000D01*
%TO.N,/FPGA IO Left/ULPI1.RST*%
X166796480Y-97196480D02*
X166996480Y-96996480D01*
X166996480Y-96996480D02*
X174003520Y-96996480D01*
X157609989Y-98190011D02*
X157400000Y-98400000D01*
X162800000Y-97400000D02*
X163000000Y-97400000D01*
X162800000Y-97400000D02*
X166592960Y-97400000D01*
X157822783Y-97400000D02*
X162800000Y-97400000D01*
X157400000Y-98400000D02*
X157200000Y-98600000D01*
X174003520Y-96996480D02*
X174250000Y-96750000D01*
X166592960Y-97400000D02*
X166796480Y-97196480D01*
X157609989Y-97612794D02*
X157822783Y-97400000D01*
X174250000Y-96750000D02*
X174250000Y-95875000D01*
X157609989Y-98190011D02*
X157609989Y-97612794D01*
%TO.N,/FPGA IO Left/ULPI1.STP*%
X164125000Y-97000000D02*
X166000000Y-97000000D01*
X166867960Y-96742960D02*
X173007040Y-96742960D01*
X166610920Y-97000000D02*
X166867960Y-96742960D01*
X164125000Y-97000000D02*
X163750000Y-97000000D01*
X158000000Y-97000000D02*
X163750000Y-97000000D01*
X173250000Y-96500000D02*
X173250000Y-95875000D01*
X173007040Y-96742960D02*
X173250000Y-96500000D01*
X166000000Y-97000000D02*
X166228880Y-97000000D01*
X166000000Y-97000000D02*
X166610920Y-97000000D01*
X163750000Y-97000000D02*
X164375000Y-97000000D01*
X164125000Y-97000000D02*
X164250000Y-97000000D01*
%TO.N,/FPGA IO Left/ULPI1.DIR*%
X172010560Y-96489440D02*
X172247119Y-96252881D01*
X166638869Y-96590011D02*
X166739440Y-96489440D01*
X157609989Y-96590011D02*
X166638869Y-96590011D01*
X166739440Y-96489440D02*
X172010560Y-96489440D01*
X172247119Y-96252881D02*
X172250000Y-95875000D01*
X157200000Y-97000000D02*
X157609989Y-96590011D01*
%TO.N,/FPGA IO Left/ULPI2.NXT*%
X165775000Y-112375000D02*
X156400000Y-103000000D01*
X170000000Y-112375000D02*
X165775000Y-112375000D01*
X156400000Y-101000000D02*
X156400000Y-103000000D01*
X170375000Y-112750000D02*
X170000000Y-112375000D01*
%TO.N,/FPGA IO Left/ULPI2.CLK*%
X175000000Y-110750000D02*
X175000000Y-111625000D01*
X156800000Y-100600000D02*
X156800000Y-103000000D01*
X156400000Y-100200000D02*
X156800000Y-100600000D01*
X175000000Y-111625000D02*
X174625000Y-112000000D01*
X156800000Y-103000000D02*
X156800000Y-102600000D01*
X165800000Y-112000000D02*
X156800000Y-103000000D01*
X174625000Y-112000000D02*
X165800000Y-112000000D01*
%TO.N,/FPGA IO Left/ULPI2.RST*%
X165825000Y-111625000D02*
X157200000Y-103000000D01*
X157200000Y-103000000D02*
X157200000Y-101000000D01*
X174250000Y-110875000D02*
X174250000Y-111250000D01*
X173875000Y-111625000D02*
X165825000Y-111625000D01*
X174250000Y-111250000D02*
X173875000Y-111625000D01*
%TO.N,/FPGA IO Left/ULPI2.STP*%
X173250000Y-110875000D02*
X172859989Y-111265011D01*
X172859989Y-111265011D02*
X165865011Y-111265011D01*
X157600000Y-100600000D02*
X158000000Y-100200000D01*
X165865011Y-111265011D02*
X157600000Y-103000000D01*
X157600000Y-103000000D02*
X157600000Y-100600000D01*
%TO.N,/FPGA IO Left/ULPI2.DIR*%
X158000000Y-101000000D02*
X158000000Y-103000000D01*
X172250000Y-110875000D02*
X165875000Y-110875000D01*
X165875000Y-110875000D02*
X158000000Y-103000000D01*
D23*
%TO.N,+1V2*%
X150020000Y-95700000D02*
X150020000Y-93700000D01*
X153980000Y-95700000D02*
X153980000Y-93700000D01*
D24*
%TO.N,/FPGA IO Right/EXP8*%
X123000000Y-88625000D02*
X123000000Y-84875000D01*
X122875000Y-84750000D02*
X119750000Y-84750000D01*
X143425000Y-89800000D02*
X142375000Y-88750000D01*
X123125000Y-88750000D02*
X123000000Y-88625000D01*
X123000000Y-84875000D02*
X122875000Y-84750000D01*
X119750000Y-84750000D02*
X118490000Y-83490000D01*
X142375000Y-88750000D02*
X123125000Y-88750000D01*
X145200000Y-89800000D02*
X143425000Y-89800000D01*
%TO.N,/FPGA IO Right/EXP4*%
X143525000Y-89400000D02*
X142500000Y-88375000D01*
X123500000Y-88375000D02*
X123375000Y-88250000D01*
X145600000Y-89400000D02*
X143525000Y-89400000D01*
X123115000Y-83490000D02*
X121030000Y-83490000D01*
X142500000Y-88375000D02*
X123500000Y-88375000D01*
X146000000Y-89800000D02*
X145600000Y-89400000D01*
X123375000Y-83750000D02*
X123115000Y-83490000D01*
X123375000Y-88250000D02*
X123375000Y-83750000D01*
%TO.N,/FPGA IO Right/EXP7*%
X119710000Y-87250000D02*
X118490000Y-86030000D01*
X143225000Y-90600000D02*
X142125000Y-89500000D01*
X127750000Y-89500000D02*
X127625000Y-89500000D01*
X145200000Y-90600000D02*
X143225000Y-90600000D01*
X122375000Y-89500000D02*
X122250000Y-89375000D01*
X122250000Y-89375000D02*
X122250000Y-88875000D01*
X122000000Y-87250000D02*
X119710000Y-87250000D01*
X127750000Y-89500000D02*
X122375000Y-89500000D01*
X122250000Y-87500000D02*
X122000000Y-87250000D01*
X142125000Y-89500000D02*
X127750000Y-89500000D01*
X122250000Y-89375000D02*
X122250000Y-87500000D01*
%TO.N,/FPGA IO Right/EXP3*%
X122625000Y-86375000D02*
X122280000Y-86030000D01*
X122750000Y-89125000D02*
X122625000Y-89000000D01*
X143325000Y-90200000D02*
X142250000Y-89125000D01*
X122625000Y-89000000D02*
X122625000Y-86375000D01*
X145600000Y-90200000D02*
X143325000Y-90200000D01*
X146000000Y-90600000D02*
X145600000Y-90200000D01*
X142250000Y-89125000D02*
X122750000Y-89125000D01*
X122280000Y-86030000D02*
X121030000Y-86030000D01*
%TO.N,/FPGA IO Right/EXP6*%
X122212020Y-90250000D02*
X121837020Y-89875000D01*
X141875000Y-90250000D02*
X122212020Y-90250000D01*
X121837020Y-89875000D02*
X119795000Y-89875000D01*
X145600000Y-91800000D02*
X143425000Y-91800000D01*
X146000000Y-92200000D02*
X145600000Y-91800000D01*
X119795000Y-89875000D02*
X118490000Y-88570000D01*
X143425000Y-91800000D02*
X141875000Y-90250000D01*
%TO.N,/FPGA IO Right/EXP2*%
X140750000Y-89875000D02*
X134250000Y-89875000D01*
X143125000Y-91000000D02*
X142000000Y-89875000D01*
X146000000Y-91400000D02*
X145600000Y-91000000D01*
X122335000Y-89875000D02*
X121030000Y-88570000D01*
X134250000Y-89875000D02*
X134125000Y-89875000D01*
X142000000Y-89875000D02*
X140750000Y-89875000D01*
X134250000Y-89875000D02*
X122335000Y-89875000D01*
X140750000Y-89875000D02*
X140625000Y-89875000D01*
X145600000Y-91000000D02*
X143125000Y-91000000D01*
%TO.N,/FPGA IO Right/EXP5*%
X141625000Y-91000000D02*
X123250000Y-91000000D01*
X121875000Y-92375000D02*
X119750000Y-92375000D01*
X146000000Y-93000000D02*
X145600000Y-92600000D01*
X119750000Y-92375000D02*
X119750000Y-92370000D01*
X119750000Y-92370000D02*
X118490000Y-91110000D01*
X123250000Y-91000000D02*
X121875000Y-92375000D01*
X143225000Y-92600000D02*
X141625000Y-91000000D01*
X145600000Y-92600000D02*
X143225000Y-92600000D01*
%TO.N,/FPGA IO Right/EXP1*%
X134750000Y-90625000D02*
X121515000Y-90625000D01*
X145200000Y-92200000D02*
X144075000Y-92200000D01*
X134750000Y-90625000D02*
X134625000Y-90625000D01*
X141750000Y-90625000D02*
X134750000Y-90625000D01*
X144075000Y-92200000D02*
X143325000Y-92200000D01*
X143325000Y-92200000D02*
X141750000Y-90625000D01*
X121515000Y-90625000D02*
X121030000Y-91110000D01*
X144075000Y-92200000D02*
X144000000Y-92200000D01*
%TO.N,/FPGA IO Right/SW_SER_CP*%
X146000000Y-95400000D02*
X143400000Y-95400000D01*
X121800000Y-95000000D02*
X118600000Y-95000000D01*
X143400000Y-95400000D02*
X143000000Y-95400000D01*
X122200000Y-95400000D02*
X121800000Y-95000000D01*
X118485000Y-96190000D02*
X118485000Y-95115000D01*
X118485000Y-95115000D02*
X118600000Y-95000000D01*
X143400000Y-95400000D02*
X122200000Y-95400000D01*
%TO.N,/FPGA IO Right/SW_SER_DATA*%
X143400000Y-96200000D02*
X143390000Y-96190000D01*
X146000000Y-96200000D02*
X143400000Y-96200000D01*
X143390000Y-96190000D02*
X121025000Y-96190000D01*
%TO.N,/FPGA IO Right/~SW_SER_PL*%
X144200000Y-97400000D02*
X144000000Y-97400000D01*
X144200000Y-97400000D02*
X119815000Y-97400000D01*
X119815000Y-97400000D02*
X118485000Y-98730000D01*
X146000000Y-97000000D02*
X145600000Y-97400000D01*
X145600000Y-97400000D02*
X144200000Y-97400000D01*
D28*
%TO.N,/FPGA IO Right/~SW_SER_CE*%
X146000000Y-97800000D02*
X121955000Y-97800000D01*
X121955000Y-97800000D02*
X121025000Y-98730000D01*
D24*
%TO.N,/FPGA IO Right/~LED_OE*%
X123400000Y-98600000D02*
X122000000Y-100000000D01*
X122000000Y-100000000D02*
X119755000Y-100000000D01*
X146000000Y-98600000D02*
X123400000Y-98600000D01*
X119755000Y-100000000D02*
X118485000Y-101270000D01*
%TO.N,/FPGA IO Right/LED_LE*%
X146800000Y-98600000D02*
X146400000Y-99000000D01*
X121530000Y-101270000D02*
X121025000Y-101270000D01*
X123800000Y-99000000D02*
X121530000Y-101270000D01*
X146400000Y-99000000D02*
X123800000Y-99000000D01*
%TO.N,/FPGA IO Right/~LED_DISPLAY_OE*%
X146000000Y-99400000D02*
X124200000Y-99400000D01*
X122600000Y-102200000D02*
X122400000Y-102400000D01*
X119895000Y-102400000D02*
X118485000Y-103810000D01*
X124200000Y-99400000D02*
X122600000Y-101000000D01*
X122600000Y-101000000D02*
X122600000Y-102200000D01*
X122400000Y-102400000D02*
X119895000Y-102400000D01*
%TO.N,/FPGA IO Right/LED_CLK*%
X124400000Y-99800000D02*
X146400000Y-99800000D01*
X122590000Y-103810000D02*
X123000000Y-103400000D01*
X123000000Y-103400000D02*
X123000000Y-101200000D01*
X146400000Y-99800000D02*
X146800000Y-99400000D01*
X122590000Y-103810000D02*
X122800000Y-103600000D01*
X121025000Y-103810000D02*
X122590000Y-103810000D01*
X123000000Y-101200000D02*
X124400000Y-99800000D01*
%TO.N,/FPGA IO Right/LED_DATA*%
X124800000Y-100600000D02*
X123800000Y-101600000D01*
X123800000Y-106000000D02*
X123450000Y-106350000D01*
X146800000Y-100200000D02*
X146400000Y-100600000D01*
X123800000Y-101600000D02*
X123800000Y-106000000D01*
X123450000Y-106350000D02*
X121025000Y-106350000D01*
X146400000Y-100600000D02*
X124800000Y-100600000D01*
%TO.N,/FPGA IO Right/~LED_SW_OE*%
X123400000Y-101400000D02*
X123400000Y-104800000D01*
X124600000Y-100200000D02*
X123400000Y-101400000D01*
X119835000Y-105000000D02*
X118485000Y-106350000D01*
X146000000Y-100200000D02*
X124600000Y-100200000D01*
X123200000Y-105000000D02*
X119835000Y-105000000D01*
X123400000Y-104800000D02*
X123200000Y-105000000D01*
%TD*%
%TA.AperFunction,Conductor*%
%TO.N,Earth*%
G36*
X180967049Y-70193153D02*
G01*
X180970415Y-70193969D01*
X180970417Y-70193969D01*
X180975597Y-70195225D01*
X181126486Y-70197008D01*
X181129926Y-70197113D01*
X181226740Y-70201869D01*
X181231305Y-70202205D01*
X181439588Y-70222719D01*
X181514025Y-70230051D01*
X181518616Y-70230617D01*
X181543888Y-70234365D01*
X181597916Y-70242380D01*
X181602442Y-70243165D01*
X181881104Y-70298595D01*
X181885605Y-70299606D01*
X181908459Y-70305331D01*
X181963322Y-70319074D01*
X181967779Y-70320307D01*
X182239656Y-70402780D01*
X182244048Y-70404231D01*
X182291159Y-70421087D01*
X182319486Y-70431223D01*
X182323776Y-70432877D01*
X182586274Y-70541607D01*
X182590481Y-70543472D01*
X182621622Y-70558201D01*
X182662933Y-70577740D01*
X182667064Y-70579820D01*
X182917601Y-70713734D01*
X182921626Y-70716014D01*
X182990374Y-70757220D01*
X182994257Y-70759679D01*
X183230479Y-70917517D01*
X183234250Y-70920173D01*
X183298644Y-70967931D01*
X183302290Y-70970777D01*
X183452902Y-71094380D01*
X183521862Y-71150974D01*
X183525366Y-71153996D01*
X183584759Y-71207827D01*
X183588109Y-71211016D01*
X183788984Y-71411891D01*
X183792173Y-71415241D01*
X183839184Y-71467109D01*
X183845994Y-71474623D01*
X183849010Y-71478119D01*
X184029244Y-71697736D01*
X184032060Y-71701344D01*
X184079827Y-71765750D01*
X184082469Y-71769501D01*
X184240320Y-72005741D01*
X184242773Y-72009614D01*
X184280058Y-72071821D01*
X184283980Y-72078364D01*
X184286260Y-72082389D01*
X184420184Y-72332944D01*
X184422264Y-72337075D01*
X184456517Y-72409495D01*
X184458392Y-72413724D01*
X184567115Y-72676204D01*
X184567117Y-72676209D01*
X184568782Y-72680526D01*
X184595770Y-72755954D01*
X184597221Y-72760346D01*
X184679688Y-73032202D01*
X184680921Y-73036660D01*
X184700399Y-73114421D01*
X184701413Y-73118934D01*
X184703281Y-73128327D01*
X184756838Y-73397573D01*
X184757618Y-73402070D01*
X184757623Y-73402100D01*
X184769383Y-73481385D01*
X184769949Y-73485975D01*
X184797792Y-73768667D01*
X184798132Y-73773280D01*
X184802887Y-73870069D01*
X184802992Y-73873521D01*
X184804773Y-74024228D01*
X184806009Y-74029368D01*
X184806010Y-74029372D01*
X184806885Y-74033010D01*
X184809500Y-74055056D01*
X184809500Y-125944844D01*
X184806847Y-125967049D01*
X184804775Y-125975597D01*
X184802992Y-126126486D01*
X184802887Y-126129926D01*
X184798131Y-126226740D01*
X184797795Y-126231306D01*
X184795172Y-126257937D01*
X184769949Y-126514025D01*
X184769383Y-126518616D01*
X184757622Y-126597906D01*
X184756832Y-126602457D01*
X184749855Y-126637537D01*
X184701409Y-126881086D01*
X184700395Y-126885600D01*
X184680924Y-126963330D01*
X184679691Y-126967788D01*
X184597222Y-127239650D01*
X184595771Y-127244041D01*
X184568779Y-127319481D01*
X184567118Y-127323788D01*
X184549495Y-127366333D01*
X184458397Y-127586263D01*
X184456522Y-127590493D01*
X184422254Y-127662945D01*
X184420174Y-127667076D01*
X184378140Y-127745717D01*
X184286265Y-127917605D01*
X184284016Y-127921576D01*
X184242761Y-127990406D01*
X184240312Y-127994273D01*
X184097955Y-128207324D01*
X184082481Y-128230482D01*
X184079817Y-128234264D01*
X184032068Y-128298645D01*
X184029222Y-128302291D01*
X183927568Y-128426157D01*
X183857718Y-128511271D01*
X183849034Y-128521852D01*
X183846012Y-128525356D01*
X183792162Y-128584770D01*
X183788973Y-128588120D01*
X183588118Y-128788976D01*
X183584767Y-128792166D01*
X183525375Y-128845995D01*
X183521873Y-128849016D01*
X183412077Y-128939123D01*
X183302267Y-129029242D01*
X183298653Y-129032063D01*
X183234264Y-129079817D01*
X183234249Y-129079828D01*
X183230467Y-129082491D01*
X182994277Y-129240308D01*
X182990369Y-129242783D01*
X182921627Y-129283985D01*
X182917602Y-129286265D01*
X182667058Y-129420183D01*
X182662927Y-129422263D01*
X182636425Y-129434798D01*
X182590489Y-129456524D01*
X182586276Y-129458392D01*
X182323775Y-129567123D01*
X182319489Y-129568776D01*
X182253575Y-129592361D01*
X182244046Y-129595770D01*
X182239654Y-129597221D01*
X181967798Y-129679688D01*
X181963340Y-129680921D01*
X181885575Y-129700400D01*
X181881061Y-129701414D01*
X181602468Y-129756830D01*
X181597910Y-129757621D01*
X181518614Y-129769383D01*
X181514023Y-129769949D01*
X181381900Y-129782962D01*
X181231306Y-129797795D01*
X181226740Y-129798131D01*
X181129926Y-129802887D01*
X181126484Y-129802992D01*
X180975772Y-129804773D01*
X180970632Y-129806009D01*
X180970628Y-129806010D01*
X180966990Y-129806885D01*
X180944944Y-129809500D01*
X119055156Y-129809500D01*
X119032951Y-129806847D01*
X119029585Y-129806031D01*
X119029583Y-129806031D01*
X119024403Y-129804775D01*
X118873514Y-129802992D01*
X118870074Y-129802887D01*
X118773260Y-129798131D01*
X118768694Y-129797795D01*
X118601742Y-129781351D01*
X118485975Y-129769949D01*
X118481384Y-129769383D01*
X118450516Y-129764804D01*
X118402082Y-129757620D01*
X118397543Y-129756832D01*
X118118906Y-129701407D01*
X118114407Y-129700396D01*
X118091941Y-129694769D01*
X118036670Y-129680924D01*
X118032212Y-129679691D01*
X117760350Y-129597222D01*
X117755959Y-129595771D01*
X117680519Y-129568779D01*
X117676210Y-129567117D01*
X117413737Y-129458397D01*
X117409507Y-129456522D01*
X117337055Y-129422254D01*
X117332924Y-129420174D01*
X117188852Y-129343167D01*
X117082395Y-129286265D01*
X117078424Y-129284016D01*
X117009594Y-129242761D01*
X117005727Y-129240312D01*
X116769511Y-129082476D01*
X116765736Y-129079817D01*
X116701355Y-129032068D01*
X116697709Y-129029222D01*
X116478148Y-128849034D01*
X116474644Y-128846012D01*
X116415230Y-128792162D01*
X116411880Y-128788973D01*
X116211024Y-128588118D01*
X116207834Y-128584767D01*
X116154005Y-128525375D01*
X116150984Y-128521873D01*
X116060876Y-128412077D01*
X115970758Y-128302267D01*
X115967937Y-128298653D01*
X115920171Y-128234247D01*
X115917509Y-128230467D01*
X115761580Y-127997103D01*
X115759689Y-127994272D01*
X115757217Y-127990369D01*
X115716015Y-127921627D01*
X115713735Y-127917602D01*
X115579817Y-127667058D01*
X115577737Y-127662927D01*
X115543483Y-127590505D01*
X115541608Y-127586275D01*
X115527894Y-127553167D01*
X115432877Y-127323775D01*
X115431218Y-127319474D01*
X115418389Y-127283617D01*
X115404228Y-127244041D01*
X115402779Y-127239654D01*
X115320312Y-126967798D01*
X115319079Y-126963340D01*
X115299600Y-126885575D01*
X115298586Y-126881061D01*
X115243170Y-126602468D01*
X115242379Y-126597910D01*
X115230617Y-126518614D01*
X115230051Y-126514023D01*
X115204828Y-126257937D01*
X115202205Y-126231306D01*
X115201869Y-126226740D01*
X115197113Y-126129926D01*
X115197008Y-126126484D01*
X115195227Y-125975772D01*
X115193991Y-125970632D01*
X115193990Y-125970628D01*
X115193115Y-125966990D01*
X115190500Y-125944944D01*
X115190500Y-93703786D01*
X116274767Y-93703786D01*
X116275984Y-93709119D01*
X116275984Y-93709123D01*
X116311125Y-93863174D01*
X116312343Y-93868512D01*
X116386807Y-94020176D01*
X116390286Y-94024404D01*
X116390288Y-94024407D01*
X116490684Y-94146415D01*
X116490688Y-94146418D01*
X116494163Y-94150642D01*
X116553812Y-94196000D01*
X116624291Y-94249594D01*
X116624295Y-94249596D01*
X116628654Y-94252911D01*
X116633658Y-94255134D01*
X116633662Y-94255136D01*
X116734085Y-94299742D01*
X116783065Y-94321498D01*
X116923171Y-94347845D01*
X116974286Y-94375772D01*
X116999226Y-94428412D01*
X117000000Y-94440470D01*
X117000000Y-123000000D01*
X121000000Y-128000000D01*
X133925324Y-128000000D01*
X133980723Y-128018000D01*
X134014961Y-128065125D01*
X134018414Y-128108994D01*
X134004000Y-128200000D01*
X134023382Y-128322371D01*
X134026747Y-128328976D01*
X134026748Y-128328978D01*
X134062633Y-128399407D01*
X134079629Y-128432763D01*
X134167237Y-128520371D01*
X134173843Y-128523737D01*
X134271022Y-128573252D01*
X134271024Y-128573253D01*
X134277629Y-128576618D01*
X134284953Y-128577778D01*
X134384854Y-128593601D01*
X134400000Y-128596000D01*
X134415147Y-128593601D01*
X134515047Y-128577778D01*
X134522371Y-128576618D01*
X134528976Y-128573253D01*
X134528978Y-128573252D01*
X134626157Y-128523737D01*
X134632763Y-128520371D01*
X134720371Y-128432763D01*
X134737367Y-128399407D01*
X134773252Y-128328978D01*
X134773253Y-128328976D01*
X134776618Y-128322371D01*
X134796000Y-128200000D01*
X134781586Y-128108994D01*
X134790699Y-128051461D01*
X134831887Y-128010273D01*
X134874676Y-128000000D01*
X142725324Y-128000000D01*
X142780723Y-128018000D01*
X142814961Y-128065125D01*
X142818414Y-128108994D01*
X142804000Y-128200000D01*
X142823382Y-128322371D01*
X142826747Y-128328976D01*
X142826748Y-128328978D01*
X142862633Y-128399407D01*
X142879629Y-128432763D01*
X142967237Y-128520371D01*
X142973843Y-128523737D01*
X143071022Y-128573252D01*
X143071024Y-128573253D01*
X143077629Y-128576618D01*
X143084953Y-128577778D01*
X143184854Y-128593601D01*
X143200000Y-128596000D01*
X143215147Y-128593601D01*
X143315047Y-128577778D01*
X143322371Y-128576618D01*
X143328976Y-128573253D01*
X143328978Y-128573252D01*
X143426157Y-128523737D01*
X143432763Y-128520371D01*
X143520371Y-128432763D01*
X143537367Y-128399407D01*
X143573252Y-128328978D01*
X143573253Y-128328976D01*
X143576618Y-128322371D01*
X143596000Y-128200000D01*
X143581586Y-128108994D01*
X143590699Y-128051461D01*
X143631887Y-128010273D01*
X143674676Y-128000000D01*
X151725324Y-128000000D01*
X151780723Y-128018000D01*
X151814961Y-128065125D01*
X151818414Y-128108994D01*
X151804000Y-128200000D01*
X151823382Y-128322371D01*
X151826747Y-128328976D01*
X151826748Y-128328978D01*
X151862633Y-128399407D01*
X151879629Y-128432763D01*
X151967237Y-128520371D01*
X151973843Y-128523737D01*
X152071022Y-128573252D01*
X152071024Y-128573253D01*
X152077629Y-128576618D01*
X152084953Y-128577778D01*
X152184854Y-128593601D01*
X152200000Y-128596000D01*
X152215147Y-128593601D01*
X152315047Y-128577778D01*
X152322371Y-128576618D01*
X152328976Y-128573253D01*
X152328978Y-128573252D01*
X152426157Y-128523737D01*
X152432763Y-128520371D01*
X152520371Y-128432763D01*
X152537367Y-128399407D01*
X152573252Y-128328978D01*
X152573253Y-128328976D01*
X152576618Y-128322371D01*
X152596000Y-128200000D01*
X152581586Y-128108994D01*
X152590699Y-128051461D01*
X152631887Y-128010273D01*
X152674676Y-128000000D01*
X177000000Y-128000000D01*
X177133053Y-127866947D01*
X177179098Y-127850641D01*
X177234949Y-127867185D01*
X177270410Y-127913397D01*
X177275813Y-127945599D01*
X177274767Y-128078786D01*
X177275984Y-128084119D01*
X177275984Y-128084123D01*
X177310233Y-128234264D01*
X177312343Y-128243512D01*
X177386807Y-128395176D01*
X177390286Y-128399404D01*
X177390288Y-128399407D01*
X177490684Y-128521415D01*
X177490688Y-128521418D01*
X177494163Y-128525642D01*
X177534699Y-128556466D01*
X177624291Y-128624594D01*
X177624295Y-128624596D01*
X177628654Y-128627911D01*
X177633658Y-128630134D01*
X177633662Y-128630136D01*
X177734630Y-128674984D01*
X177783065Y-128696498D01*
X177788447Y-128697510D01*
X177788450Y-128697511D01*
X177943731Y-128726711D01*
X177949113Y-128727723D01*
X177954581Y-128727470D01*
X177954583Y-128727470D01*
X178011882Y-128724818D01*
X178117890Y-128719911D01*
X178280343Y-128673482D01*
X178418697Y-128596000D01*
X178422981Y-128593601D01*
X178422982Y-128593600D01*
X178427759Y-128590925D01*
X178552228Y-128476670D01*
X178647074Y-128336846D01*
X178707210Y-128178952D01*
X178729410Y-128011458D01*
X178729500Y-128000000D01*
X178709934Y-127832179D01*
X178652286Y-127673360D01*
X178648155Y-127667058D01*
X178596659Y-127588515D01*
X178559647Y-127532062D01*
X178539701Y-127513167D01*
X178440962Y-127419630D01*
X178440959Y-127419628D01*
X178436988Y-127415866D01*
X178290887Y-127331005D01*
X178285645Y-127329417D01*
X178285642Y-127329416D01*
X178134426Y-127283617D01*
X178129183Y-127282029D01*
X177960550Y-127271567D01*
X177958903Y-127271850D01*
X177903988Y-127257236D01*
X177867253Y-127212029D01*
X177864106Y-127153865D01*
X177888541Y-127111459D01*
X183000000Y-122000000D01*
X183000000Y-121476497D01*
X183018000Y-121421098D01*
X183065125Y-121386860D01*
X183079503Y-121383408D01*
X183122371Y-121376618D01*
X183128976Y-121373253D01*
X183128978Y-121373252D01*
X183226157Y-121323737D01*
X183232763Y-121320371D01*
X183320371Y-121232763D01*
X183334412Y-121205206D01*
X183373252Y-121128978D01*
X183373253Y-121128976D01*
X183376618Y-121122371D01*
X183396000Y-121000000D01*
X183376618Y-120877629D01*
X183320371Y-120767237D01*
X183232763Y-120679629D01*
X183198937Y-120662394D01*
X183128978Y-120626748D01*
X183128976Y-120626747D01*
X183122371Y-120623382D01*
X183079505Y-120616593D01*
X183027605Y-120590148D01*
X183001160Y-120538247D01*
X183000000Y-120523503D01*
X183000000Y-106476497D01*
X183018000Y-106421098D01*
X183065125Y-106386860D01*
X183079503Y-106383408D01*
X183122371Y-106376618D01*
X183128976Y-106373253D01*
X183128978Y-106373252D01*
X183226157Y-106323737D01*
X183232763Y-106320371D01*
X183320371Y-106232763D01*
X183338220Y-106197733D01*
X183373252Y-106128978D01*
X183373253Y-106128976D01*
X183376618Y-106122371D01*
X183396000Y-106000000D01*
X183376618Y-105877629D01*
X183320371Y-105767237D01*
X183232763Y-105679629D01*
X183198937Y-105662394D01*
X183128978Y-105626748D01*
X183128976Y-105626747D01*
X183122371Y-105623382D01*
X183079505Y-105616593D01*
X183027605Y-105590148D01*
X183001160Y-105538247D01*
X183000000Y-105523503D01*
X183000000Y-91476497D01*
X183018000Y-91421098D01*
X183065125Y-91386860D01*
X183079503Y-91383408D01*
X183122371Y-91376618D01*
X183128976Y-91373253D01*
X183128978Y-91373252D01*
X183226157Y-91323737D01*
X183232763Y-91320371D01*
X183320371Y-91232763D01*
X183364579Y-91146000D01*
X183373252Y-91128978D01*
X183373253Y-91128976D01*
X183376618Y-91122371D01*
X183396000Y-91000000D01*
X183376618Y-90877629D01*
X183364834Y-90854500D01*
X183323737Y-90773843D01*
X183320371Y-90767237D01*
X183232763Y-90679629D01*
X183226157Y-90676263D01*
X183128978Y-90626748D01*
X183128976Y-90626747D01*
X183122371Y-90623382D01*
X183079505Y-90616593D01*
X183027605Y-90590148D01*
X183001160Y-90538247D01*
X183000000Y-90523503D01*
X183000000Y-77000000D01*
X181868940Y-75868940D01*
X183379037Y-75868940D01*
X183397271Y-76008384D01*
X183399973Y-76014525D01*
X183399974Y-76014528D01*
X183424546Y-76070371D01*
X183453910Y-76137105D01*
X183544400Y-76244756D01*
X183661466Y-76322682D01*
X183667874Y-76324684D01*
X183789290Y-76362618D01*
X183789292Y-76362618D01*
X183795699Y-76364620D01*
X183906778Y-76366656D01*
X183929594Y-76367074D01*
X183936306Y-76367197D01*
X184071985Y-76330206D01*
X184077710Y-76326691D01*
X184077712Y-76326690D01*
X184131907Y-76293414D01*
X184191829Y-76256622D01*
X184286203Y-76152360D01*
X184347520Y-76025800D01*
X184370852Y-75887118D01*
X184371000Y-75875000D01*
X184351063Y-75735789D01*
X184292856Y-75607770D01*
X184201058Y-75501233D01*
X184083048Y-75424742D01*
X183986941Y-75396000D01*
X183954751Y-75386373D01*
X183954749Y-75386373D01*
X183948313Y-75384448D01*
X183828271Y-75383715D01*
X183814398Y-75383630D01*
X183807685Y-75383589D01*
X183801233Y-75385433D01*
X183678923Y-75420389D01*
X183678922Y-75420389D01*
X183672468Y-75422234D01*
X183666790Y-75425816D01*
X183666789Y-75425817D01*
X183638096Y-75443921D01*
X183553533Y-75497277D01*
X183460440Y-75602685D01*
X183432505Y-75662184D01*
X183403527Y-75723904D01*
X183403526Y-75723907D01*
X183400673Y-75729984D01*
X183379037Y-75868940D01*
X181868940Y-75868940D01*
X178576774Y-72576774D01*
X178550329Y-72524873D01*
X178559442Y-72467340D01*
X178565421Y-72457220D01*
X178598168Y-72408945D01*
X178616056Y-72382574D01*
X178644001Y-72341377D01*
X178644003Y-72341374D01*
X178647074Y-72336846D01*
X178707210Y-72178952D01*
X178729410Y-72011458D01*
X178729500Y-72000000D01*
X178709934Y-71832179D01*
X178687195Y-71769532D01*
X178676779Y-71740839D01*
X178652286Y-71673360D01*
X178633337Y-71644457D01*
X178607556Y-71605136D01*
X178559647Y-71532062D01*
X178552332Y-71525132D01*
X178440962Y-71419630D01*
X178440959Y-71419628D01*
X178436988Y-71415866D01*
X178290887Y-71331005D01*
X178285645Y-71329417D01*
X178285642Y-71329416D01*
X178134426Y-71283617D01*
X178129183Y-71282029D01*
X177960550Y-71271567D01*
X177901638Y-71281690D01*
X177799425Y-71299253D01*
X177799422Y-71299254D01*
X177794032Y-71300180D01*
X177638563Y-71366333D01*
X177502482Y-71466477D01*
X177393089Y-71595241D01*
X177316253Y-71745717D01*
X177314952Y-71751035D01*
X177314951Y-71751037D01*
X177293765Y-71837619D01*
X177276094Y-71909833D01*
X177276051Y-71915306D01*
X177275790Y-71917401D01*
X177251080Y-71970149D01*
X177200084Y-71998300D01*
X177182263Y-72000000D01*
X175669792Y-72000000D01*
X175614393Y-71982000D01*
X175586575Y-71949998D01*
X175573405Y-71925229D01*
X175573399Y-71925220D01*
X175571236Y-71921152D01*
X175442211Y-71762953D01*
X175405175Y-71732314D01*
X175288467Y-71635764D01*
X175288463Y-71635761D01*
X175284916Y-71632827D01*
X175279157Y-71629713D01*
X175109396Y-71537923D01*
X175109392Y-71537921D01*
X175105341Y-71535731D01*
X174910328Y-71475364D01*
X174905744Y-71474882D01*
X174905743Y-71474882D01*
X174794900Y-71463232D01*
X174707302Y-71454025D01*
X174702709Y-71454443D01*
X174508587Y-71472110D01*
X174508583Y-71472111D01*
X174503999Y-71472528D01*
X174499580Y-71473829D01*
X174499578Y-71473829D01*
X174441593Y-71490895D01*
X174308162Y-71530166D01*
X174127249Y-71624745D01*
X173968152Y-71752662D01*
X173836931Y-71909045D01*
X173816313Y-71946550D01*
X173813781Y-71951155D01*
X173771319Y-71991030D01*
X173731189Y-72000000D01*
X173129792Y-72000000D01*
X173074393Y-71982000D01*
X173046575Y-71949998D01*
X173033405Y-71925229D01*
X173033399Y-71925220D01*
X173031236Y-71921152D01*
X172902211Y-71762953D01*
X172865175Y-71732314D01*
X172748467Y-71635764D01*
X172748463Y-71635761D01*
X172744916Y-71632827D01*
X172739157Y-71629713D01*
X172569396Y-71537923D01*
X172569392Y-71537921D01*
X172565341Y-71535731D01*
X172370328Y-71475364D01*
X172365744Y-71474882D01*
X172365743Y-71474882D01*
X172254900Y-71463232D01*
X172167302Y-71454025D01*
X172162709Y-71454443D01*
X171968587Y-71472110D01*
X171968583Y-71472111D01*
X171963999Y-71472528D01*
X171959580Y-71473829D01*
X171959578Y-71473829D01*
X171901593Y-71490895D01*
X171768162Y-71530166D01*
X171587249Y-71624745D01*
X171428152Y-71752662D01*
X171296931Y-71909045D01*
X171276313Y-71946550D01*
X171273781Y-71951155D01*
X171231319Y-71991030D01*
X171191189Y-72000000D01*
X171098750Y-72000000D01*
X171043351Y-71982000D01*
X171009113Y-71934875D01*
X171004500Y-71905750D01*
X171004500Y-71534414D01*
X171006311Y-71516027D01*
X171007688Y-71509104D01*
X171009499Y-71500000D01*
X171004500Y-71474868D01*
X171004500Y-71474863D01*
X170989747Y-71400694D01*
X170933494Y-71316506D01*
X170919902Y-71307424D01*
X170905620Y-71295703D01*
X170704297Y-71094380D01*
X170692576Y-71080098D01*
X170688651Y-71074224D01*
X170683494Y-71066506D01*
X170639418Y-71037055D01*
X170599307Y-71010253D01*
X170590204Y-71008442D01*
X170590203Y-71008442D01*
X170509105Y-70992311D01*
X170500000Y-70990500D01*
X170483968Y-70993689D01*
X170465581Y-70995500D01*
X165824419Y-70995500D01*
X165806032Y-70993689D01*
X165790000Y-70990500D01*
X165690693Y-71010253D01*
X165682975Y-71015410D01*
X165682973Y-71015411D01*
X165650582Y-71037055D01*
X165614226Y-71061347D01*
X165614224Y-71061349D01*
X165606506Y-71066506D01*
X165601349Y-71074224D01*
X165601348Y-71074225D01*
X165597424Y-71080098D01*
X165585703Y-71094380D01*
X165124186Y-71555897D01*
X165072285Y-71582342D01*
X165012713Y-71572159D01*
X164949396Y-71537923D01*
X164949391Y-71537921D01*
X164945341Y-71535731D01*
X164750328Y-71475364D01*
X164745744Y-71474882D01*
X164745743Y-71474882D01*
X164634900Y-71463232D01*
X164547302Y-71454025D01*
X164542709Y-71454443D01*
X164348587Y-71472110D01*
X164348583Y-71472111D01*
X164343999Y-71472528D01*
X164339580Y-71473829D01*
X164339578Y-71473829D01*
X164281593Y-71490895D01*
X164148162Y-71530166D01*
X163967249Y-71624745D01*
X163808152Y-71752662D01*
X163676931Y-71909045D01*
X163656313Y-71946550D01*
X163653781Y-71951155D01*
X163611319Y-71991030D01*
X163571189Y-72000000D01*
X163140250Y-72000000D01*
X163084851Y-71982000D01*
X163050613Y-71934875D01*
X163046000Y-71905750D01*
X163046000Y-71650000D01*
X163037132Y-71605417D01*
X163032891Y-71584097D01*
X163032891Y-71584096D01*
X163031080Y-71574994D01*
X162988593Y-71511407D01*
X162925006Y-71468920D01*
X162915904Y-71467109D01*
X162915903Y-71467109D01*
X162873492Y-71458673D01*
X162850000Y-71454000D01*
X161150000Y-71454000D01*
X161126508Y-71458673D01*
X161084097Y-71467109D01*
X161084096Y-71467109D01*
X161074994Y-71468920D01*
X161011407Y-71511407D01*
X160968920Y-71574994D01*
X160967109Y-71584096D01*
X160967109Y-71584097D01*
X160962868Y-71605417D01*
X160954000Y-71650000D01*
X160954000Y-71905750D01*
X160936000Y-71961149D01*
X160888875Y-71995387D01*
X160859750Y-72000000D01*
X130610917Y-72000000D01*
X130555518Y-71982000D01*
X130525956Y-71946550D01*
X130521928Y-71938163D01*
X130518878Y-71931811D01*
X130467865Y-71876625D01*
X130433643Y-71839604D01*
X130433642Y-71839603D01*
X130428858Y-71834428D01*
X130314183Y-71767820D01*
X130200631Y-71741500D01*
X127916743Y-71741500D01*
X127913274Y-71742022D01*
X127913268Y-71742022D01*
X127861728Y-71749771D01*
X127818859Y-71756216D01*
X127812508Y-71759266D01*
X127812507Y-71759266D01*
X127705662Y-71810572D01*
X127705660Y-71810573D01*
X127699311Y-71813622D01*
X127601928Y-71903642D01*
X127573206Y-71953090D01*
X127529819Y-71991951D01*
X127491709Y-72000000D01*
X122000000Y-72000000D01*
X117000000Y-77000000D01*
X117000000Y-92810352D01*
X116982000Y-92865751D01*
X116934875Y-92899989D01*
X116921714Y-92903240D01*
X116868089Y-92912455D01*
X116799425Y-92924253D01*
X116799422Y-92924254D01*
X116794032Y-92925180D01*
X116638563Y-92991333D01*
X116502482Y-93091477D01*
X116393089Y-93220241D01*
X116316253Y-93370717D01*
X116314952Y-93376035D01*
X116314951Y-93376037D01*
X116310066Y-93396000D01*
X116276094Y-93534833D01*
X116274767Y-93703786D01*
X115190500Y-93703786D01*
X115190500Y-74055156D01*
X115193153Y-74032951D01*
X115193969Y-74029585D01*
X115193969Y-74029583D01*
X115195225Y-74024403D01*
X115197008Y-73873514D01*
X115197113Y-73870074D01*
X115201869Y-73773260D01*
X115202205Y-73768695D01*
X115226542Y-73521599D01*
X115230051Y-73485975D01*
X115230617Y-73481384D01*
X115242377Y-73402100D01*
X115242378Y-73402098D01*
X115242380Y-73402084D01*
X115243168Y-73397541D01*
X115245865Y-73383987D01*
X115298595Y-73118896D01*
X115299608Y-73114388D01*
X115319074Y-73036678D01*
X115320307Y-73032221D01*
X115402780Y-72760344D01*
X115404231Y-72755952D01*
X115431220Y-72680521D01*
X115432877Y-72676224D01*
X115541608Y-72413725D01*
X115543477Y-72409508D01*
X115577740Y-72337067D01*
X115579820Y-72332936D01*
X115713734Y-72082399D01*
X115716014Y-72078374D01*
X115723614Y-72065695D01*
X115757224Y-72009620D01*
X115759679Y-72005743D01*
X115917518Y-71769520D01*
X115920173Y-71765750D01*
X115967931Y-71701356D01*
X115970777Y-71697710D01*
X116014480Y-71644457D01*
X116150984Y-71478126D01*
X116153996Y-71474634D01*
X116160817Y-71467109D01*
X116207827Y-71415241D01*
X116211016Y-71411891D01*
X116411891Y-71211016D01*
X116415241Y-71207827D01*
X116474623Y-71154006D01*
X116478126Y-71150984D01*
X116697736Y-70970756D01*
X116701344Y-70967940D01*
X116765757Y-70920167D01*
X116769501Y-70917531D01*
X117005741Y-70759680D01*
X117009626Y-70757220D01*
X117078364Y-70716020D01*
X117082389Y-70713740D01*
X117332944Y-70579816D01*
X117337075Y-70577736D01*
X117360038Y-70566875D01*
X117409511Y-70543476D01*
X117413725Y-70541608D01*
X117676225Y-70432877D01*
X117680511Y-70431224D01*
X117755954Y-70404230D01*
X117760346Y-70402779D01*
X118032202Y-70320312D01*
X118036660Y-70319079D01*
X118114421Y-70299601D01*
X118118934Y-70298587D01*
X118143211Y-70293758D01*
X118397573Y-70243162D01*
X118402070Y-70242382D01*
X118455623Y-70234438D01*
X118481385Y-70230617D01*
X118485975Y-70230051D01*
X118768667Y-70202208D01*
X118773280Y-70201868D01*
X118793708Y-70200864D01*
X118870069Y-70197113D01*
X118873521Y-70197008D01*
X119024228Y-70195227D01*
X119029368Y-70193991D01*
X119029372Y-70193990D01*
X119033010Y-70193115D01*
X119055056Y-70190500D01*
X180944844Y-70190500D01*
X180967049Y-70193153D01*
G37*
%TD.AperFunction*%
%TD*%
%TA.AperFunction,Conductor*%
%TO.N,+5V*%
G36*
X148246064Y-77250535D02*
G01*
X148365319Y-77266236D01*
X148381078Y-77270458D01*
X148488400Y-77314911D01*
X148502523Y-77323065D01*
X148594690Y-77393787D01*
X148606213Y-77405310D01*
X148676935Y-77497477D01*
X148685089Y-77511600D01*
X148729542Y-77618922D01*
X148733764Y-77634681D01*
X148749465Y-77753936D01*
X148750000Y-77762094D01*
X148750000Y-77987906D01*
X148749465Y-77996064D01*
X148733764Y-78115319D01*
X148729542Y-78131078D01*
X148685089Y-78238400D01*
X148676935Y-78252523D01*
X148606213Y-78344690D01*
X148594690Y-78356213D01*
X148502523Y-78426935D01*
X148488400Y-78435089D01*
X148381078Y-78479542D01*
X148365319Y-78483764D01*
X148246064Y-78499465D01*
X148237906Y-78500000D01*
X133500000Y-78500000D01*
X133500000Y-87000000D01*
X140737906Y-87000000D01*
X140746064Y-87000535D01*
X140865319Y-87016236D01*
X140881078Y-87020458D01*
X140988400Y-87064911D01*
X141002523Y-87073065D01*
X141094690Y-87143787D01*
X141106213Y-87155310D01*
X141176935Y-87247477D01*
X141185089Y-87261600D01*
X141229542Y-87368922D01*
X141233764Y-87384681D01*
X141249465Y-87503936D01*
X141250000Y-87512094D01*
X141250000Y-87737906D01*
X141249465Y-87746064D01*
X141233764Y-87865319D01*
X141229542Y-87881078D01*
X141185089Y-87988400D01*
X141176935Y-88002523D01*
X141106213Y-88094690D01*
X141094690Y-88106213D01*
X141010147Y-88171086D01*
X140972101Y-88184000D01*
X137924812Y-88184000D01*
X137880618Y-88165694D01*
X137862312Y-88121500D01*
X137868903Y-88093564D01*
X137884159Y-88063032D01*
X137911332Y-88008650D01*
X137932447Y-87881793D01*
X137932500Y-87875000D01*
X137931045Y-87865319D01*
X137914075Y-87752449D01*
X137914075Y-87752447D01*
X137913380Y-87747828D01*
X137857712Y-87631899D01*
X137770417Y-87537464D01*
X137659214Y-87472872D01*
X137573120Y-87452916D01*
X137538482Y-87444887D01*
X137538481Y-87444887D01*
X137533934Y-87443833D01*
X137405653Y-87452916D01*
X137401295Y-87454602D01*
X137315210Y-87487906D01*
X137285714Y-87499317D01*
X137282047Y-87502208D01*
X137282045Y-87502209D01*
X137188393Y-87576038D01*
X137184721Y-87578933D01*
X137182065Y-87582776D01*
X137182063Y-87582778D01*
X137148681Y-87631078D01*
X137111603Y-87684726D01*
X137072825Y-87807342D01*
X137071815Y-87935940D01*
X137073153Y-87940413D01*
X137073153Y-87940415D01*
X137087504Y-87988400D01*
X137108662Y-88059150D01*
X137111256Y-88063032D01*
X137127122Y-88086777D01*
X137136454Y-88133693D01*
X137109878Y-88173467D01*
X137075155Y-88184000D01*
X132348444Y-88184000D01*
X132310301Y-88171011D01*
X132250577Y-88125000D01*
X132126154Y-88000000D01*
X130762094Y-88000000D01*
X130753936Y-87999465D01*
X130634681Y-87983764D01*
X130618922Y-87979542D01*
X130511600Y-87935089D01*
X130497477Y-87926935D01*
X130405310Y-87856213D01*
X130393787Y-87844690D01*
X130323065Y-87752523D01*
X130314911Y-87738400D01*
X130270458Y-87631078D01*
X130266236Y-87615319D01*
X130250535Y-87496064D01*
X130250000Y-87487906D01*
X130250000Y-86637094D01*
X130250535Y-86628936D01*
X130266236Y-86509681D01*
X130270458Y-86493922D01*
X130314911Y-86386600D01*
X130323065Y-86372477D01*
X130393787Y-86280310D01*
X130405310Y-86268787D01*
X130497477Y-86198065D01*
X130511600Y-86189911D01*
X130618922Y-86145458D01*
X130634681Y-86141236D01*
X130753936Y-86125535D01*
X130762094Y-86125000D01*
X132125000Y-86125000D01*
X132125000Y-77935940D01*
X137071815Y-77935940D01*
X137108662Y-78059150D01*
X137180110Y-78166078D01*
X137279840Y-78247271D01*
X137399035Y-78295550D01*
X137403686Y-78295953D01*
X137403687Y-78295953D01*
X137522501Y-78306244D01*
X137522503Y-78306244D01*
X137527157Y-78306647D01*
X137652878Y-78279580D01*
X137765082Y-78216742D01*
X137853850Y-78123690D01*
X137911332Y-78008650D01*
X137923434Y-77935940D01*
X144571815Y-77935940D01*
X144608662Y-78059150D01*
X144680110Y-78166078D01*
X144779840Y-78247271D01*
X144899035Y-78295550D01*
X144903686Y-78295953D01*
X144903687Y-78295953D01*
X145022501Y-78306244D01*
X145022503Y-78306244D01*
X145027157Y-78306647D01*
X145152878Y-78279580D01*
X145265082Y-78216742D01*
X145353850Y-78123690D01*
X145411332Y-78008650D01*
X145432447Y-77881793D01*
X145432500Y-77875000D01*
X145414299Y-77753936D01*
X145414075Y-77752449D01*
X145414075Y-77752447D01*
X145413380Y-77747828D01*
X145357712Y-77631899D01*
X145345717Y-77618922D01*
X145273588Y-77540894D01*
X145273587Y-77540893D01*
X145270417Y-77537464D01*
X145159214Y-77472872D01*
X145073120Y-77452916D01*
X145038482Y-77444887D01*
X145038481Y-77444887D01*
X145033934Y-77443833D01*
X144905653Y-77452916D01*
X144785714Y-77499317D01*
X144782047Y-77502208D01*
X144782045Y-77502209D01*
X144714079Y-77555789D01*
X144684721Y-77578933D01*
X144682065Y-77582776D01*
X144682063Y-77582778D01*
X144648114Y-77631899D01*
X144611603Y-77684726D01*
X144572825Y-77807342D01*
X144571815Y-77935940D01*
X137923434Y-77935940D01*
X137932447Y-77881793D01*
X137932500Y-77875000D01*
X137914299Y-77753936D01*
X137914075Y-77752449D01*
X137914075Y-77752447D01*
X137913380Y-77747828D01*
X137857712Y-77631899D01*
X137845717Y-77618922D01*
X137773588Y-77540894D01*
X137773587Y-77540893D01*
X137770417Y-77537464D01*
X137659214Y-77472872D01*
X137573120Y-77452916D01*
X137538482Y-77444887D01*
X137538481Y-77444887D01*
X137533934Y-77443833D01*
X137405653Y-77452916D01*
X137285714Y-77499317D01*
X137282047Y-77502208D01*
X137282045Y-77502209D01*
X137214079Y-77555789D01*
X137184721Y-77578933D01*
X137182065Y-77582776D01*
X137182063Y-77582778D01*
X137148114Y-77631899D01*
X137111603Y-77684726D01*
X137072825Y-77807342D01*
X137071815Y-77935940D01*
X132125000Y-77935940D01*
X132125000Y-77762094D01*
X132125535Y-77753936D01*
X132141236Y-77634681D01*
X132145458Y-77618922D01*
X132189911Y-77511600D01*
X132198065Y-77497477D01*
X132268787Y-77405310D01*
X132280310Y-77393787D01*
X132372477Y-77323065D01*
X132386600Y-77314911D01*
X132493922Y-77270458D01*
X132509681Y-77266236D01*
X132628936Y-77250535D01*
X132637094Y-77250000D01*
X148237906Y-77250000D01*
X148246064Y-77250535D01*
G37*
%TD.AperFunction*%
%TD*%
%TA.AperFunction,Conductor*%
%TO.N,+2V5*%
G36*
X142593644Y-84200535D02*
G01*
X142712899Y-84216236D01*
X142728658Y-84220458D01*
X142835980Y-84264911D01*
X142850109Y-84273069D01*
X142933932Y-84337389D01*
X142945541Y-84346297D01*
X142951687Y-84351687D01*
X143304000Y-84704000D01*
X143322304Y-84748685D01*
X143321815Y-84810940D01*
X143358662Y-84934150D01*
X143430110Y-85041078D01*
X143529840Y-85122271D01*
X143649035Y-85170550D01*
X143653686Y-85170953D01*
X143653687Y-85170953D01*
X143683364Y-85173523D01*
X143759380Y-85180107D01*
X143798180Y-85198180D01*
X147326379Y-88726379D01*
X147344685Y-88770573D01*
X147336312Y-88801823D01*
X147287552Y-88886278D01*
X147267500Y-89000000D01*
X147287552Y-89113722D01*
X147345290Y-89213727D01*
X147362220Y-89227933D01*
X147415837Y-89272922D01*
X147433750Y-89287953D01*
X147542262Y-89327449D01*
X147657738Y-89327449D01*
X147766250Y-89287953D01*
X147784164Y-89272922D01*
X147788554Y-89269238D01*
X147834176Y-89254854D01*
X147872922Y-89272922D01*
X148126379Y-89526379D01*
X148144685Y-89570573D01*
X148136312Y-89601823D01*
X148092339Y-89677987D01*
X148087552Y-89686278D01*
X148067500Y-89800000D01*
X148087552Y-89913722D01*
X148145290Y-90013727D01*
X148233750Y-90087953D01*
X148342262Y-90127449D01*
X148457738Y-90127449D01*
X148566250Y-90087953D01*
X148654710Y-90013727D01*
X148712448Y-89913722D01*
X148723393Y-89851646D01*
X148749095Y-89811303D01*
X148784944Y-89800000D01*
X148815056Y-89800000D01*
X148859250Y-89818306D01*
X148876606Y-89851646D01*
X148887552Y-89913722D01*
X148945290Y-90013727D01*
X149033750Y-90087953D01*
X149142262Y-90127449D01*
X149257738Y-90127449D01*
X149366250Y-90087953D01*
X149454710Y-90013727D01*
X149512448Y-89913722D01*
X149523393Y-89851646D01*
X149549095Y-89811303D01*
X149584944Y-89800000D01*
X149615056Y-89800000D01*
X149659250Y-89818306D01*
X149676606Y-89851646D01*
X149687552Y-89913722D01*
X149745290Y-90013727D01*
X149833750Y-90087953D01*
X149942262Y-90127449D01*
X150057738Y-90127449D01*
X150166250Y-90087953D01*
X150254710Y-90013727D01*
X150312448Y-89913722D01*
X150323393Y-89851646D01*
X150349095Y-89811303D01*
X150384944Y-89800000D01*
X150415056Y-89800000D01*
X150459250Y-89818306D01*
X150476606Y-89851646D01*
X150487552Y-89913722D01*
X150545290Y-90013727D01*
X150633750Y-90087953D01*
X150742262Y-90127449D01*
X150857738Y-90127449D01*
X150966250Y-90087953D01*
X151054710Y-90013727D01*
X151112448Y-89913722D01*
X151123393Y-89851646D01*
X151149095Y-89811303D01*
X151184944Y-89800000D01*
X151215056Y-89800000D01*
X151259250Y-89818306D01*
X151276606Y-89851646D01*
X151287552Y-89913722D01*
X151345290Y-90013727D01*
X151433750Y-90087953D01*
X151542262Y-90127449D01*
X151657738Y-90127449D01*
X151766250Y-90087953D01*
X151854710Y-90013727D01*
X151912448Y-89913722D01*
X151923393Y-89851646D01*
X151949095Y-89811303D01*
X151984944Y-89800000D01*
X152015056Y-89800000D01*
X152059250Y-89818306D01*
X152076606Y-89851646D01*
X152087552Y-89913722D01*
X152145290Y-90013727D01*
X152233750Y-90087953D01*
X152342262Y-90127449D01*
X152457738Y-90127449D01*
X152566250Y-90087953D01*
X152654710Y-90013727D01*
X152712448Y-89913722D01*
X152723393Y-89851646D01*
X152749095Y-89811303D01*
X152784944Y-89800000D01*
X152815056Y-89800000D01*
X152859250Y-89818306D01*
X152876606Y-89851646D01*
X152887552Y-89913722D01*
X152945290Y-90013727D01*
X153033750Y-90087953D01*
X153142262Y-90127449D01*
X153257738Y-90127449D01*
X153366250Y-90087953D01*
X153454710Y-90013727D01*
X153512448Y-89913722D01*
X153523393Y-89851646D01*
X153549095Y-89811303D01*
X153584944Y-89800000D01*
X153615056Y-89800000D01*
X153659250Y-89818306D01*
X153676606Y-89851646D01*
X153687552Y-89913722D01*
X153745290Y-90013727D01*
X153833750Y-90087953D01*
X153942262Y-90127449D01*
X154057738Y-90127449D01*
X154166250Y-90087953D01*
X154254710Y-90013727D01*
X154312448Y-89913722D01*
X154323393Y-89851646D01*
X154349095Y-89811303D01*
X154384944Y-89800000D01*
X154415056Y-89800000D01*
X154459250Y-89818306D01*
X154476606Y-89851646D01*
X154487552Y-89913722D01*
X154545290Y-90013727D01*
X154633750Y-90087953D01*
X154742262Y-90127449D01*
X154857738Y-90127449D01*
X154966250Y-90087953D01*
X155054710Y-90013727D01*
X155112448Y-89913722D01*
X155123393Y-89851646D01*
X155149095Y-89811303D01*
X155184944Y-89800000D01*
X155215056Y-89800000D01*
X155259250Y-89818306D01*
X155276606Y-89851646D01*
X155287552Y-89913722D01*
X155345290Y-90013727D01*
X155433750Y-90087953D01*
X155542262Y-90127449D01*
X155657738Y-90127449D01*
X155766250Y-90087953D01*
X155854710Y-90013727D01*
X155912448Y-89913722D01*
X155923393Y-89851646D01*
X155949095Y-89811303D01*
X155984944Y-89800000D01*
X156015056Y-89800000D01*
X156059250Y-89818306D01*
X156076606Y-89851646D01*
X156087552Y-89913722D01*
X156145290Y-90013727D01*
X156233750Y-90087953D01*
X156342262Y-90127449D01*
X156457738Y-90127449D01*
X156566250Y-90087953D01*
X156654710Y-90013727D01*
X156655429Y-90012481D01*
X156696238Y-89991238D01*
X156701685Y-89991000D01*
X156852778Y-89991000D01*
X156896972Y-90009306D01*
X156902362Y-90015452D01*
X156926930Y-90047469D01*
X156935089Y-90061600D01*
X156979542Y-90168922D01*
X156983764Y-90184681D01*
X156999465Y-90303936D01*
X157000000Y-90312094D01*
X157000000Y-90346500D01*
X156981694Y-90390694D01*
X156937500Y-90409000D01*
X156701685Y-90409000D01*
X156657491Y-90390694D01*
X156656873Y-90390020D01*
X156654710Y-90386273D01*
X156566250Y-90312047D01*
X156457738Y-90272551D01*
X156342262Y-90272551D01*
X156233750Y-90312047D01*
X156145290Y-90386273D01*
X156087552Y-90486278D01*
X156067500Y-90600000D01*
X156087552Y-90713722D01*
X156090285Y-90718456D01*
X156090286Y-90718458D01*
X156123861Y-90776611D01*
X156145290Y-90813727D01*
X156233750Y-90887953D01*
X156301191Y-90912500D01*
X156335957Y-90925154D01*
X156342262Y-90927449D01*
X156457738Y-90927449D01*
X156464044Y-90925154D01*
X156498809Y-90912500D01*
X156566250Y-90887953D01*
X156654710Y-90813727D01*
X156655429Y-90812481D01*
X156696238Y-90791238D01*
X156701685Y-90791000D01*
X156937500Y-90791000D01*
X156981694Y-90809306D01*
X157000000Y-90853500D01*
X157000000Y-91146500D01*
X156981694Y-91190694D01*
X156937500Y-91209000D01*
X156701685Y-91209000D01*
X156657491Y-91190694D01*
X156656873Y-91190020D01*
X156654710Y-91186273D01*
X156566250Y-91112047D01*
X156485886Y-91082796D01*
X156462876Y-91074421D01*
X156462875Y-91074421D01*
X156457738Y-91072551D01*
X156342262Y-91072551D01*
X156337125Y-91074421D01*
X156337124Y-91074421D01*
X156314114Y-91082796D01*
X156233750Y-91112047D01*
X156145290Y-91186273D01*
X156142557Y-91191007D01*
X156105609Y-91255003D01*
X156087552Y-91286278D01*
X156067500Y-91400000D01*
X156087552Y-91513722D01*
X156090285Y-91518456D01*
X156090286Y-91518458D01*
X156096406Y-91529058D01*
X156145290Y-91613727D01*
X156233750Y-91687953D01*
X156342262Y-91727449D01*
X156457738Y-91727449D01*
X156566250Y-91687953D01*
X156654710Y-91613727D01*
X156655429Y-91612481D01*
X156696238Y-91591238D01*
X156701685Y-91591000D01*
X156937500Y-91591000D01*
X156981694Y-91609306D01*
X157000000Y-91653500D01*
X157000000Y-92610000D01*
X156981694Y-92654194D01*
X156937500Y-92672500D01*
X156451145Y-92672500D01*
X156434969Y-92670370D01*
X156434905Y-92670353D01*
X156428979Y-92668765D01*
X156390311Y-92672148D01*
X156389011Y-92672262D01*
X156383563Y-92672500D01*
X155571643Y-92672500D01*
X155571451Y-92672534D01*
X155571060Y-92672551D01*
X155542262Y-92672551D01*
X155521772Y-92680009D01*
X155520069Y-92680629D01*
X155509544Y-92683450D01*
X155491664Y-92686602D01*
X155491662Y-92686603D01*
X155486278Y-92687552D01*
X155465812Y-92699368D01*
X155455954Y-92703965D01*
X155433750Y-92712047D01*
X155429561Y-92715562D01*
X155415657Y-92727229D01*
X155406732Y-92733478D01*
X155386273Y-92745290D01*
X155382757Y-92749480D01*
X155371088Y-92763386D01*
X155363386Y-92771088D01*
X155345290Y-92786273D01*
X155342555Y-92791009D01*
X155342555Y-92791010D01*
X155333479Y-92806731D01*
X155327229Y-92815657D01*
X155312047Y-92833750D01*
X155303965Y-92855954D01*
X155299368Y-92865812D01*
X155287552Y-92886278D01*
X155286603Y-92891662D01*
X155286602Y-92891664D01*
X155283450Y-92909544D01*
X155280629Y-92920069D01*
X155272551Y-92942262D01*
X155272551Y-92965883D01*
X155271602Y-92976736D01*
X155267500Y-93000000D01*
X155268449Y-93005382D01*
X155271602Y-93023264D01*
X155272551Y-93034117D01*
X155272551Y-93057738D01*
X155274422Y-93062878D01*
X155280629Y-93079931D01*
X155283450Y-93090456D01*
X155286602Y-93108336D01*
X155286603Y-93108338D01*
X155287552Y-93113722D01*
X155299368Y-93134188D01*
X155303965Y-93144046D01*
X155312047Y-93166250D01*
X155315561Y-93170437D01*
X155315561Y-93170438D01*
X155319520Y-93175156D01*
X155333904Y-93220777D01*
X155311816Y-93263208D01*
X155283835Y-93276629D01*
X155275719Y-93278243D01*
X155187313Y-93337313D01*
X155128243Y-93425719D01*
X155112500Y-93504864D01*
X155112500Y-93507314D01*
X155090026Y-93549361D01*
X155044251Y-93563248D01*
X155010202Y-93548927D01*
X154999260Y-93539745D01*
X154966250Y-93512047D01*
X154857738Y-93472551D01*
X154742262Y-93472551D01*
X154633750Y-93512047D01*
X154545290Y-93586273D01*
X154542557Y-93591007D01*
X154504127Y-93657569D01*
X154466176Y-93686689D01*
X154418750Y-93680446D01*
X154389630Y-93642495D01*
X154387500Y-93626319D01*
X154387500Y-93504864D01*
X154382567Y-93480061D01*
X154374564Y-93439832D01*
X154371757Y-93425719D01*
X154312687Y-93337313D01*
X154266266Y-93306296D01*
X154239690Y-93266523D01*
X154249022Y-93219606D01*
X154251262Y-93216620D01*
X154254710Y-93213727D01*
X154297902Y-93138917D01*
X154309714Y-93118458D01*
X154309715Y-93118456D01*
X154312448Y-93113722D01*
X154332500Y-93000000D01*
X154467500Y-93000000D01*
X154487552Y-93113722D01*
X154490285Y-93118456D01*
X154490286Y-93118458D01*
X154502098Y-93138917D01*
X154545290Y-93213727D01*
X154553692Y-93220777D01*
X154614737Y-93271999D01*
X154633750Y-93287953D01*
X154742262Y-93327449D01*
X154857738Y-93327449D01*
X154966250Y-93287953D01*
X154985264Y-93271999D01*
X155046308Y-93220777D01*
X155054710Y-93213727D01*
X155097902Y-93138917D01*
X155109714Y-93118458D01*
X155109715Y-93118456D01*
X155112448Y-93113722D01*
X155132500Y-93000000D01*
X155112448Y-92886278D01*
X155100636Y-92865818D01*
X155057443Y-92791007D01*
X155054710Y-92786273D01*
X154991792Y-92733479D01*
X154970438Y-92715561D01*
X154966250Y-92712047D01*
X154868346Y-92676412D01*
X154862876Y-92674421D01*
X154862875Y-92674421D01*
X154857738Y-92672551D01*
X154742262Y-92672551D01*
X154737125Y-92674421D01*
X154737124Y-92674421D01*
X154731654Y-92676412D01*
X154633750Y-92712047D01*
X154629562Y-92715561D01*
X154608208Y-92733479D01*
X154545290Y-92786273D01*
X154542557Y-92791007D01*
X154499365Y-92865818D01*
X154487552Y-92886278D01*
X154467500Y-93000000D01*
X154332500Y-93000000D01*
X154312448Y-92886278D01*
X154300636Y-92865818D01*
X154257443Y-92791007D01*
X154254710Y-92786273D01*
X154191792Y-92733479D01*
X154170438Y-92715561D01*
X154166250Y-92712047D01*
X154068346Y-92676412D01*
X154062876Y-92674421D01*
X154062875Y-92674421D01*
X154057738Y-92672551D01*
X153942262Y-92672551D01*
X153937125Y-92674421D01*
X153937124Y-92674421D01*
X153931654Y-92676412D01*
X153833750Y-92712047D01*
X153829562Y-92715561D01*
X153808208Y-92733479D01*
X153745290Y-92786273D01*
X153742557Y-92791007D01*
X153699365Y-92865818D01*
X153687552Y-92886278D01*
X153667500Y-93000000D01*
X153687552Y-93113722D01*
X153690285Y-93118456D01*
X153690286Y-93118458D01*
X153740236Y-93204973D01*
X153746479Y-93252399D01*
X153720832Y-93288190D01*
X153716510Y-93291078D01*
X153647313Y-93337313D01*
X153588243Y-93425719D01*
X153585436Y-93439832D01*
X153577434Y-93480061D01*
X153572500Y-93504864D01*
X153572500Y-93557037D01*
X153554194Y-93601231D01*
X153510000Y-93619537D01*
X153465806Y-93601231D01*
X153461092Y-93595088D01*
X153460960Y-93595198D01*
X153457443Y-93591007D01*
X153454710Y-93586273D01*
X153449827Y-93582175D01*
X153449491Y-93581530D01*
X153447007Y-93578570D01*
X153447663Y-93578019D01*
X153427738Y-93539745D01*
X153427500Y-93534297D01*
X153427500Y-93504864D01*
X153422567Y-93480061D01*
X153414564Y-93439832D01*
X153411757Y-93425719D01*
X153367554Y-93359563D01*
X153358222Y-93312648D01*
X153379347Y-93276964D01*
X153454710Y-93213727D01*
X153497902Y-93138917D01*
X153509714Y-93118458D01*
X153509715Y-93118456D01*
X153512448Y-93113722D01*
X153532500Y-93000000D01*
X153512448Y-92886278D01*
X153500636Y-92865818D01*
X153457443Y-92791007D01*
X153454710Y-92786273D01*
X153391792Y-92733479D01*
X153370438Y-92715561D01*
X153366250Y-92712047D01*
X153361113Y-92710177D01*
X153361111Y-92710176D01*
X153357139Y-92708730D01*
X153321872Y-92676412D01*
X153319787Y-92628622D01*
X153352105Y-92593355D01*
X153378517Y-92587500D01*
X153495136Y-92587500D01*
X153498146Y-92586901D01*
X153498149Y-92586901D01*
X153538670Y-92578841D01*
X153574281Y-92571757D01*
X153662687Y-92512687D01*
X153678662Y-92488778D01*
X153695997Y-92462835D01*
X153735771Y-92436259D01*
X153782687Y-92445591D01*
X153788134Y-92449677D01*
X153833750Y-92487953D01*
X153942262Y-92527449D01*
X154057738Y-92527449D01*
X154166250Y-92487953D01*
X154254710Y-92413727D01*
X154312448Y-92313722D01*
X154327500Y-92228357D01*
X154332500Y-92200000D01*
X154328449Y-92177025D01*
X154327500Y-92166172D01*
X154327500Y-91416437D01*
X154327738Y-91410990D01*
X154330208Y-91382759D01*
X154331235Y-91371020D01*
X154327942Y-91358729D01*
X154320699Y-91331701D01*
X154319518Y-91326376D01*
X154313397Y-91291662D01*
X154312448Y-91286278D01*
X154309246Y-91280732D01*
X154303003Y-91265659D01*
X154302762Y-91264761D01*
X154301347Y-91259479D01*
X154277990Y-91226121D01*
X154275067Y-91221532D01*
X154254710Y-91186273D01*
X154223972Y-91160481D01*
X154219952Y-91156797D01*
X154063203Y-91000048D01*
X154059519Y-90996028D01*
X154049337Y-90983894D01*
X154033727Y-90965290D01*
X154013626Y-90953684D01*
X153998467Y-90944932D01*
X153993870Y-90942003D01*
X153979104Y-90931664D01*
X153960521Y-90918652D01*
X153955243Y-90917238D01*
X153955241Y-90917237D01*
X153954333Y-90916994D01*
X153939265Y-90910752D01*
X153938463Y-90910289D01*
X153938461Y-90910288D01*
X153933722Y-90907552D01*
X153928336Y-90906602D01*
X153928335Y-90906602D01*
X153893620Y-90900481D01*
X153888297Y-90899300D01*
X153886834Y-90898908D01*
X153848979Y-90888765D01*
X153810311Y-90892148D01*
X153809011Y-90892262D01*
X153803563Y-90892500D01*
X153689409Y-90892500D01*
X153654686Y-90881967D01*
X153617656Y-90857225D01*
X153574281Y-90828243D01*
X153537934Y-90821013D01*
X153498149Y-90813099D01*
X153498146Y-90813099D01*
X153495136Y-90812500D01*
X153104864Y-90812500D01*
X153101854Y-90813099D01*
X153101851Y-90813099D01*
X153062066Y-90821013D01*
X153025719Y-90828243D01*
X152982344Y-90857225D01*
X152945314Y-90881967D01*
X152910591Y-90892500D01*
X152717484Y-90892500D01*
X152673290Y-90874194D01*
X152654984Y-90830000D01*
X152663357Y-90798750D01*
X152709714Y-90718458D01*
X152709715Y-90718456D01*
X152712448Y-90713722D01*
X152732500Y-90600000D01*
X154467500Y-90600000D01*
X154487552Y-90713722D01*
X154490285Y-90718456D01*
X154490286Y-90718458D01*
X154523861Y-90776611D01*
X154545290Y-90813727D01*
X154633750Y-90887953D01*
X154699293Y-90911809D01*
X154734561Y-90944126D01*
X154736648Y-90991916D01*
X154722111Y-91014734D01*
X154580048Y-91156797D01*
X154576028Y-91160481D01*
X154545290Y-91186273D01*
X154542557Y-91191007D01*
X154542556Y-91191008D01*
X154524932Y-91221533D01*
X154522003Y-91226129D01*
X154498652Y-91259479D01*
X154497238Y-91264757D01*
X154497237Y-91264759D01*
X154496994Y-91265667D01*
X154490752Y-91280735D01*
X154490289Y-91281537D01*
X154487552Y-91286278D01*
X154486602Y-91291664D01*
X154486602Y-91291665D01*
X154480481Y-91326380D01*
X154479300Y-91331703D01*
X154468765Y-91371021D01*
X154470264Y-91388149D01*
X154472262Y-91410989D01*
X154472500Y-91416437D01*
X154472500Y-92166172D01*
X154471551Y-92177025D01*
X154467500Y-92200000D01*
X154487552Y-92313722D01*
X154545290Y-92413727D01*
X154633750Y-92487953D01*
X154742262Y-92527449D01*
X154857738Y-92527449D01*
X154966250Y-92487953D01*
X155054710Y-92413727D01*
X155112448Y-92313722D01*
X155132500Y-92200000D01*
X155128449Y-92177025D01*
X155127500Y-92166172D01*
X155127500Y-91663059D01*
X155145806Y-91618865D01*
X155190000Y-91600559D01*
X155214129Y-91607874D01*
X155214913Y-91605981D01*
X155220599Y-91608336D01*
X155225719Y-91611757D01*
X155249247Y-91616437D01*
X155301851Y-91626901D01*
X155301854Y-91626901D01*
X155304864Y-91627500D01*
X155695136Y-91627500D01*
X155698146Y-91626901D01*
X155698149Y-91626901D01*
X155750753Y-91616437D01*
X155774281Y-91611757D01*
X155862687Y-91552687D01*
X155921757Y-91464281D01*
X155931274Y-91416437D01*
X155936901Y-91388149D01*
X155936901Y-91388146D01*
X155937500Y-91385136D01*
X155937500Y-91054864D01*
X155935525Y-91044932D01*
X155925081Y-90992430D01*
X155921757Y-90975719D01*
X155862687Y-90887313D01*
X155862635Y-90887279D01*
X155845518Y-90845954D01*
X155856800Y-90814934D01*
X155854710Y-90813727D01*
X155909714Y-90718458D01*
X155909715Y-90718456D01*
X155912448Y-90713722D01*
X155932500Y-90600000D01*
X155912448Y-90486278D01*
X155854710Y-90386273D01*
X155766250Y-90312047D01*
X155657738Y-90272551D01*
X155542262Y-90272551D01*
X155433750Y-90312047D01*
X155345290Y-90386273D01*
X155287552Y-90486278D01*
X155267500Y-90600000D01*
X155287552Y-90713722D01*
X155290286Y-90718458D01*
X155290287Y-90718460D01*
X155296881Y-90729880D01*
X155303125Y-90777306D01*
X155274005Y-90815256D01*
X155254948Y-90822429D01*
X155225719Y-90828243D01*
X155156536Y-90874469D01*
X155109619Y-90883801D01*
X155069846Y-90857225D01*
X155060514Y-90810308D01*
X155067686Y-90791252D01*
X155109714Y-90718458D01*
X155109715Y-90718456D01*
X155112448Y-90713722D01*
X155132500Y-90600000D01*
X155112448Y-90486278D01*
X155054710Y-90386273D01*
X154966250Y-90312047D01*
X154857738Y-90272551D01*
X154742262Y-90272551D01*
X154633750Y-90312047D01*
X154545290Y-90386273D01*
X154487552Y-90486278D01*
X154467500Y-90600000D01*
X152732500Y-90600000D01*
X152712448Y-90486278D01*
X152654710Y-90386273D01*
X152566250Y-90312047D01*
X152457738Y-90272551D01*
X152342262Y-90272551D01*
X152233750Y-90312047D01*
X152145290Y-90386273D01*
X152087552Y-90486278D01*
X152067500Y-90600000D01*
X152087552Y-90713722D01*
X152090286Y-90718458D01*
X152090287Y-90718460D01*
X152096881Y-90729880D01*
X152103125Y-90777306D01*
X152074005Y-90815256D01*
X152054948Y-90822429D01*
X152025719Y-90828243D01*
X151956536Y-90874469D01*
X151909619Y-90883801D01*
X151869846Y-90857225D01*
X151860514Y-90810308D01*
X151867686Y-90791252D01*
X151909714Y-90718458D01*
X151909715Y-90718456D01*
X151912448Y-90713722D01*
X151932500Y-90600000D01*
X151912448Y-90486278D01*
X151854710Y-90386273D01*
X151766250Y-90312047D01*
X151657738Y-90272551D01*
X151542262Y-90272551D01*
X151433750Y-90312047D01*
X151345290Y-90386273D01*
X151287552Y-90486278D01*
X151267500Y-90600000D01*
X151287552Y-90713722D01*
X151290285Y-90718456D01*
X151290286Y-90718458D01*
X151323861Y-90776611D01*
X151345290Y-90813727D01*
X151433750Y-90887953D01*
X151499293Y-90911809D01*
X151534561Y-90944126D01*
X151536648Y-90991916D01*
X151522111Y-91014734D01*
X151380048Y-91156797D01*
X151376028Y-91160481D01*
X151345290Y-91186273D01*
X151342557Y-91191007D01*
X151342556Y-91191008D01*
X151324932Y-91221533D01*
X151322003Y-91226129D01*
X151298652Y-91259479D01*
X151297238Y-91264757D01*
X151297237Y-91264759D01*
X151296994Y-91265667D01*
X151290752Y-91280735D01*
X151290289Y-91281537D01*
X151287552Y-91286278D01*
X151286602Y-91291664D01*
X151286602Y-91291665D01*
X151280481Y-91326380D01*
X151279300Y-91331703D01*
X151268765Y-91371021D01*
X151270264Y-91388149D01*
X151272262Y-91410989D01*
X151272500Y-91416437D01*
X151272500Y-92166172D01*
X151271551Y-92177025D01*
X151267500Y-92200000D01*
X151272500Y-92228357D01*
X151287552Y-92313722D01*
X151345290Y-92413727D01*
X151433750Y-92487953D01*
X151542262Y-92527449D01*
X151657738Y-92527449D01*
X151766250Y-92487953D01*
X151811863Y-92449680D01*
X151857483Y-92435296D01*
X151899914Y-92457384D01*
X151904003Y-92462835D01*
X151921338Y-92488778D01*
X151937313Y-92512687D01*
X152025719Y-92571757D01*
X152061330Y-92578841D01*
X152101851Y-92586901D01*
X152101854Y-92586901D01*
X152104864Y-92587500D01*
X152107934Y-92587500D01*
X152110991Y-92587801D01*
X152151372Y-92609386D01*
X152155487Y-92601687D01*
X152195136Y-92587500D01*
X152221483Y-92587500D01*
X152265677Y-92605806D01*
X152283983Y-92650000D01*
X152265677Y-92694194D01*
X152242860Y-92708731D01*
X152235725Y-92711328D01*
X152202156Y-92713896D01*
X152200010Y-92713470D01*
X152195136Y-92712500D01*
X152192063Y-92712500D01*
X152189009Y-92712199D01*
X152148628Y-92690614D01*
X152144513Y-92698313D01*
X152104864Y-92712500D01*
X151804864Y-92712500D01*
X151799990Y-92713470D01*
X151797844Y-92713896D01*
X151764275Y-92711328D01*
X151662877Y-92674421D01*
X151662874Y-92674421D01*
X151657738Y-92672551D01*
X151542262Y-92672551D01*
X151537125Y-92674421D01*
X151537124Y-92674421D01*
X151531654Y-92676412D01*
X151433750Y-92712047D01*
X151429562Y-92715561D01*
X151408208Y-92733479D01*
X151345290Y-92786273D01*
X151342557Y-92791007D01*
X151299365Y-92865818D01*
X151287552Y-92886278D01*
X151267500Y-93000000D01*
X151287552Y-93113722D01*
X151290285Y-93118456D01*
X151290286Y-93118458D01*
X151337365Y-93200000D01*
X151345041Y-93213295D01*
X151345290Y-93213727D01*
X151345194Y-93213782D01*
X151358748Y-93256764D01*
X151352208Y-93269329D01*
X151390494Y-93261714D01*
X151418474Y-93275135D01*
X151433750Y-93287953D01*
X151504164Y-93313582D01*
X151542262Y-93327449D01*
X151541117Y-93330594D01*
X151572102Y-93350252D01*
X151577352Y-93359801D01*
X151578243Y-93364281D01*
X151581665Y-93369402D01*
X151586531Y-93376685D01*
X151595863Y-93423601D01*
X151569287Y-93463375D01*
X151546431Y-93472551D01*
X151542262Y-93472551D01*
X151460416Y-93502341D01*
X151412627Y-93500254D01*
X151380309Y-93464987D01*
X151377741Y-93455803D01*
X151377121Y-93452687D01*
X151371757Y-93425719D01*
X151326333Y-93357736D01*
X151317001Y-93310819D01*
X151321592Y-93303949D01*
X151291042Y-93313582D01*
X151261764Y-93303287D01*
X151229403Y-93281665D01*
X151229402Y-93281664D01*
X151224281Y-93278243D01*
X151179101Y-93269256D01*
X151148149Y-93263099D01*
X151148146Y-93263099D01*
X151145136Y-93262500D01*
X151134805Y-93262500D01*
X151090611Y-93244194D01*
X151072305Y-93200000D01*
X151080678Y-93168750D01*
X151109714Y-93118458D01*
X151109715Y-93118456D01*
X151112448Y-93113722D01*
X151132500Y-93000000D01*
X151112448Y-92886278D01*
X151100636Y-92865818D01*
X151057443Y-92791007D01*
X151054710Y-92786273D01*
X150991792Y-92733479D01*
X150970438Y-92715561D01*
X150966250Y-92712047D01*
X150868346Y-92676412D01*
X150862876Y-92674421D01*
X150862875Y-92674421D01*
X150857738Y-92672551D01*
X150742262Y-92672551D01*
X150737125Y-92674421D01*
X150737124Y-92674421D01*
X150731654Y-92676412D01*
X150633750Y-92712047D01*
X150629562Y-92715561D01*
X150608208Y-92733479D01*
X150545290Y-92786273D01*
X150542557Y-92791007D01*
X150499365Y-92865818D01*
X150487552Y-92886278D01*
X150467500Y-93000000D01*
X150487552Y-93113722D01*
X150490285Y-93118456D01*
X150490286Y-93118458D01*
X150502098Y-93138917D01*
X150545290Y-93213727D01*
X150620653Y-93276964D01*
X150642741Y-93319393D01*
X150632446Y-93359563D01*
X150588243Y-93425719D01*
X150585436Y-93439832D01*
X150577434Y-93480061D01*
X150572500Y-93504864D01*
X150572500Y-93534297D01*
X150554194Y-93578491D01*
X150550177Y-93582172D01*
X150545290Y-93586273D01*
X150542557Y-93591007D01*
X150539040Y-93595198D01*
X150537168Y-93593627D01*
X150506171Y-93617409D01*
X150458746Y-93611161D01*
X150429628Y-93573208D01*
X150427500Y-93557037D01*
X150427500Y-93504864D01*
X150422567Y-93480061D01*
X150414564Y-93439832D01*
X150411757Y-93425719D01*
X150352687Y-93337313D01*
X150283490Y-93291078D01*
X150279168Y-93288190D01*
X150252592Y-93248417D01*
X150259764Y-93204973D01*
X150309714Y-93118458D01*
X150309715Y-93118456D01*
X150312448Y-93113722D01*
X150332500Y-93000000D01*
X150312448Y-92886278D01*
X150300636Y-92865818D01*
X150257443Y-92791007D01*
X150254710Y-92786273D01*
X150191792Y-92733479D01*
X150170438Y-92715561D01*
X150166250Y-92712047D01*
X150068346Y-92676412D01*
X150062876Y-92674421D01*
X150062875Y-92674421D01*
X150057738Y-92672551D01*
X149942262Y-92672551D01*
X149937125Y-92674421D01*
X149937124Y-92674421D01*
X149931654Y-92676412D01*
X149833750Y-92712047D01*
X149829562Y-92715561D01*
X149808208Y-92733479D01*
X149745290Y-92786273D01*
X149742557Y-92791007D01*
X149699365Y-92865818D01*
X149687552Y-92886278D01*
X149667500Y-93000000D01*
X149687552Y-93113722D01*
X149690285Y-93118456D01*
X149690286Y-93118458D01*
X149702098Y-93138917D01*
X149745290Y-93213727D01*
X149747279Y-93215396D01*
X149761273Y-93259773D01*
X149739187Y-93302205D01*
X149733734Y-93306296D01*
X149687313Y-93337313D01*
X149628243Y-93425719D01*
X149625436Y-93439832D01*
X149617434Y-93480061D01*
X149612500Y-93504864D01*
X149612500Y-93626319D01*
X149594194Y-93670513D01*
X149550000Y-93688819D01*
X149505806Y-93670513D01*
X149495873Y-93657569D01*
X149457443Y-93591007D01*
X149454710Y-93586273D01*
X149366250Y-93512047D01*
X149257738Y-93472551D01*
X149142262Y-93472551D01*
X149033750Y-93512047D01*
X148945290Y-93586273D01*
X148942557Y-93591007D01*
X148895507Y-93672500D01*
X148887552Y-93686278D01*
X148867500Y-93800000D01*
X148887552Y-93913722D01*
X148890285Y-93918456D01*
X148890286Y-93918458D01*
X148904420Y-93942939D01*
X148945290Y-94013727D01*
X148949478Y-94017241D01*
X149007770Y-94066153D01*
X149033750Y-94087953D01*
X149142262Y-94127449D01*
X149257738Y-94127449D01*
X149366250Y-94087953D01*
X149392231Y-94066153D01*
X149450522Y-94017241D01*
X149454710Y-94013727D01*
X149457444Y-94008991D01*
X149457446Y-94008989D01*
X149506584Y-93923881D01*
X149544534Y-93894761D01*
X149591960Y-93901005D01*
X149622009Y-93942938D01*
X149628243Y-93974281D01*
X149671436Y-94038925D01*
X149681967Y-94054686D01*
X149692500Y-94089409D01*
X149692500Y-94310591D01*
X149681967Y-94345314D01*
X149628243Y-94425719D01*
X149622327Y-94455464D01*
X149622009Y-94457061D01*
X149595434Y-94496835D01*
X149548518Y-94506168D01*
X149506584Y-94476119D01*
X149457446Y-94391011D01*
X149457443Y-94391007D01*
X149454710Y-94386273D01*
X149396361Y-94337313D01*
X149370438Y-94315561D01*
X149366250Y-94312047D01*
X149257738Y-94272551D01*
X149142262Y-94272551D01*
X149033750Y-94312047D01*
X149029562Y-94315561D01*
X149003639Y-94337313D01*
X148945290Y-94386273D01*
X148942557Y-94391007D01*
X148903825Y-94458093D01*
X148887552Y-94486278D01*
X148867500Y-94600000D01*
X148887552Y-94713722D01*
X148945290Y-94813727D01*
X149033750Y-94887953D01*
X149142262Y-94927449D01*
X149257738Y-94927449D01*
X149366250Y-94887953D01*
X149454710Y-94813727D01*
X149495873Y-94742431D01*
X149533824Y-94713311D01*
X149581250Y-94719554D01*
X149610370Y-94757505D01*
X149612500Y-94773681D01*
X149612500Y-94895136D01*
X149613099Y-94898146D01*
X149613099Y-94898149D01*
X149620260Y-94934150D01*
X149628243Y-94974281D01*
X149660271Y-95022215D01*
X149681967Y-95054686D01*
X149692500Y-95089409D01*
X149692500Y-95264439D01*
X149689131Y-95283543D01*
X149687552Y-95286278D01*
X149679165Y-95333847D01*
X149677695Y-95342182D01*
X149668112Y-95366050D01*
X149662692Y-95374163D01*
X149642565Y-95404285D01*
X149602792Y-95430861D01*
X149555875Y-95421529D01*
X149529048Y-95380415D01*
X149513399Y-95291668D01*
X149513398Y-95291664D01*
X149512448Y-95286278D01*
X149500636Y-95265818D01*
X149457443Y-95191007D01*
X149454710Y-95186273D01*
X149396584Y-95137500D01*
X149370438Y-95115561D01*
X149366250Y-95112047D01*
X149257738Y-95072551D01*
X149142262Y-95072551D01*
X149033750Y-95112047D01*
X149029562Y-95115561D01*
X149003416Y-95137500D01*
X148945290Y-95186273D01*
X148942557Y-95191007D01*
X148899365Y-95265818D01*
X148887552Y-95286278D01*
X148867500Y-95400000D01*
X148887552Y-95513722D01*
X148890285Y-95518456D01*
X148890286Y-95518458D01*
X148902098Y-95538917D01*
X148945290Y-95613727D01*
X148963387Y-95628912D01*
X149011468Y-95669256D01*
X149033750Y-95687953D01*
X149142262Y-95727449D01*
X149257738Y-95727449D01*
X149366250Y-95687953D01*
X149388533Y-95669256D01*
X149436613Y-95628912D01*
X149454710Y-95613727D01*
X149495873Y-95542431D01*
X149533824Y-95513311D01*
X149581250Y-95519554D01*
X149610370Y-95557505D01*
X149612500Y-95573681D01*
X149612500Y-95895136D01*
X149613099Y-95898146D01*
X149613099Y-95898149D01*
X149615864Y-95912047D01*
X149628243Y-95974281D01*
X149651441Y-96009000D01*
X149676852Y-96047031D01*
X149686436Y-96092607D01*
X149667500Y-96200000D01*
X149687552Y-96313722D01*
X149690285Y-96318456D01*
X149690286Y-96318458D01*
X149706076Y-96345806D01*
X149745290Y-96413727D01*
X149749478Y-96417241D01*
X149807770Y-96466153D01*
X149833750Y-96487953D01*
X149942262Y-96527449D01*
X150057738Y-96527449D01*
X150166250Y-96487953D01*
X150192231Y-96466153D01*
X150250522Y-96417241D01*
X150254710Y-96413727D01*
X150293924Y-96345806D01*
X150309714Y-96318458D01*
X150309715Y-96318456D01*
X150312448Y-96313722D01*
X150332500Y-96200000D01*
X150331551Y-96194617D01*
X150320050Y-96129388D01*
X150330404Y-96082687D01*
X150346874Y-96066571D01*
X150347570Y-96066106D01*
X150352687Y-96062687D01*
X150365797Y-96043067D01*
X150384336Y-96015320D01*
X150412516Y-95996491D01*
X150411784Y-95974146D01*
X150426901Y-95898149D01*
X150426901Y-95898146D01*
X150427500Y-95895136D01*
X150427500Y-95642963D01*
X150445806Y-95598769D01*
X150490000Y-95580463D01*
X150534194Y-95598769D01*
X150538908Y-95604912D01*
X150539040Y-95604802D01*
X150542557Y-95608993D01*
X150545290Y-95613727D01*
X150549481Y-95617243D01*
X150550173Y-95617824D01*
X150550509Y-95618470D01*
X150552993Y-95621430D01*
X150552337Y-95621981D01*
X150572262Y-95660255D01*
X150572500Y-95665703D01*
X150572500Y-95895136D01*
X150573099Y-95898146D01*
X150573099Y-95898149D01*
X150576925Y-95917383D01*
X150567593Y-95964300D01*
X150555801Y-95977453D01*
X150545290Y-95986273D01*
X150534470Y-96005015D01*
X150527210Y-96017589D01*
X150497137Y-96040665D01*
X150491289Y-96076089D01*
X150492156Y-96076405D01*
X150490474Y-96081027D01*
X150490430Y-96081292D01*
X150490287Y-96081539D01*
X150490286Y-96081542D01*
X150487552Y-96086278D01*
X150467500Y-96200000D01*
X150487552Y-96313722D01*
X150490285Y-96318456D01*
X150490286Y-96318458D01*
X150506076Y-96345806D01*
X150545290Y-96413727D01*
X150549478Y-96417241D01*
X150607770Y-96466153D01*
X150633750Y-96487953D01*
X150742262Y-96527449D01*
X150857738Y-96527449D01*
X150966250Y-96487953D01*
X150992231Y-96466153D01*
X151050522Y-96417241D01*
X151054710Y-96413727D01*
X151093924Y-96345806D01*
X151109714Y-96318458D01*
X151109715Y-96318456D01*
X151112448Y-96313722D01*
X151132500Y-96200000D01*
X151131551Y-96194617D01*
X151131551Y-96191495D01*
X151149857Y-96147301D01*
X151181855Y-96130196D01*
X151193759Y-96127828D01*
X151240674Y-96137159D01*
X151267252Y-96176931D01*
X151267246Y-96189147D01*
X151268449Y-96189147D01*
X151268449Y-96194617D01*
X151267500Y-96200000D01*
X151287552Y-96313722D01*
X151290285Y-96318456D01*
X151290286Y-96318458D01*
X151306076Y-96345806D01*
X151345290Y-96413727D01*
X151349478Y-96417241D01*
X151407770Y-96466153D01*
X151433750Y-96487953D01*
X151542262Y-96527449D01*
X151546056Y-96527449D01*
X151585761Y-96552744D01*
X151596114Y-96599445D01*
X151586531Y-96623315D01*
X151578243Y-96635719D01*
X151577629Y-96638806D01*
X151544891Y-96671546D01*
X151542183Y-96672333D01*
X151542262Y-96672551D01*
X151433750Y-96712047D01*
X151429562Y-96715561D01*
X151403639Y-96737313D01*
X151345290Y-96786273D01*
X151287552Y-96886278D01*
X151267500Y-97000000D01*
X151287552Y-97113722D01*
X151345290Y-97213727D01*
X151433750Y-97287953D01*
X151542262Y-97327449D01*
X151657738Y-97327449D01*
X151662874Y-97325579D01*
X151662877Y-97325579D01*
X151764275Y-97288672D01*
X151797844Y-97286104D01*
X151799990Y-97286530D01*
X151804864Y-97287500D01*
X152195136Y-97287500D01*
X152200010Y-97286530D01*
X152202156Y-97286104D01*
X152235725Y-97288672D01*
X152337123Y-97325579D01*
X152337126Y-97325579D01*
X152342262Y-97327449D01*
X152457738Y-97327449D01*
X152566250Y-97287953D01*
X152654710Y-97213727D01*
X152712448Y-97113722D01*
X152732500Y-97000000D01*
X152867500Y-97000000D01*
X152887552Y-97113722D01*
X152945290Y-97213727D01*
X153033750Y-97287953D01*
X153142262Y-97327449D01*
X153257738Y-97327449D01*
X153366250Y-97287953D01*
X153454710Y-97213727D01*
X153512448Y-97113722D01*
X153532500Y-97000000D01*
X153667500Y-97000000D01*
X153687552Y-97113722D01*
X153745290Y-97213727D01*
X153833750Y-97287953D01*
X153942262Y-97327449D01*
X154057738Y-97327449D01*
X154166250Y-97287953D01*
X154254710Y-97213727D01*
X154312448Y-97113722D01*
X154332500Y-97000000D01*
X154312448Y-96886278D01*
X154254710Y-96786273D01*
X154196361Y-96737313D01*
X154170438Y-96715561D01*
X154166250Y-96712047D01*
X154057738Y-96672551D01*
X153942262Y-96672551D01*
X153833750Y-96712047D01*
X153829562Y-96715561D01*
X153803639Y-96737313D01*
X153745290Y-96786273D01*
X153687552Y-96886278D01*
X153667500Y-97000000D01*
X153532500Y-97000000D01*
X153512448Y-96886278D01*
X153454710Y-96786273D01*
X153396361Y-96737313D01*
X153370438Y-96715561D01*
X153366250Y-96712047D01*
X153257738Y-96672551D01*
X153142262Y-96672551D01*
X153033750Y-96712047D01*
X153029562Y-96715561D01*
X153003639Y-96737313D01*
X152945290Y-96786273D01*
X152887552Y-96886278D01*
X152867500Y-97000000D01*
X152732500Y-97000000D01*
X152712448Y-96886278D01*
X152654710Y-96786273D01*
X152596361Y-96737313D01*
X152570438Y-96715561D01*
X152566250Y-96712047D01*
X152457738Y-96672551D01*
X152458883Y-96669406D01*
X152427898Y-96649748D01*
X152422648Y-96640199D01*
X152421757Y-96635719D01*
X152413469Y-96623315D01*
X152404137Y-96576399D01*
X152430713Y-96536625D01*
X152453569Y-96527449D01*
X152457738Y-96527449D01*
X152566250Y-96487953D01*
X152592231Y-96466153D01*
X152650522Y-96417241D01*
X152654710Y-96413727D01*
X152693924Y-96345806D01*
X152709714Y-96318458D01*
X152709715Y-96318456D01*
X152712448Y-96313722D01*
X152732500Y-96200000D01*
X152731551Y-96194617D01*
X152731551Y-96189147D01*
X152735182Y-96189147D01*
X152742044Y-96154458D01*
X152781790Y-96127841D01*
X152806240Y-96127828D01*
X152818145Y-96130196D01*
X152857917Y-96156774D01*
X152868449Y-96191495D01*
X152868449Y-96194617D01*
X152867500Y-96200000D01*
X152887552Y-96313722D01*
X152890285Y-96318456D01*
X152890286Y-96318458D01*
X152906076Y-96345806D01*
X152945290Y-96413727D01*
X152949478Y-96417241D01*
X153007770Y-96466153D01*
X153033750Y-96487953D01*
X153142262Y-96527449D01*
X153257738Y-96527449D01*
X153366250Y-96487953D01*
X153392231Y-96466153D01*
X153450522Y-96417241D01*
X153454710Y-96413727D01*
X153493924Y-96345806D01*
X153509714Y-96318458D01*
X153509715Y-96318456D01*
X153512448Y-96313722D01*
X153532500Y-96200000D01*
X153512448Y-96086278D01*
X153509714Y-96081542D01*
X153509713Y-96081539D01*
X153509570Y-96081292D01*
X153509540Y-96081065D01*
X153507844Y-96076405D01*
X153508877Y-96076029D01*
X153504227Y-96040699D01*
X153492194Y-96038306D01*
X153472790Y-96017589D01*
X153465531Y-96005015D01*
X153454710Y-95986273D01*
X153444199Y-95977453D01*
X153422112Y-95935022D01*
X153423075Y-95917383D01*
X153426901Y-95898149D01*
X153426901Y-95898146D01*
X153427500Y-95895136D01*
X153427500Y-95665703D01*
X153445806Y-95621509D01*
X153449827Y-95617824D01*
X153450520Y-95617243D01*
X153454710Y-95613727D01*
X153457443Y-95608993D01*
X153460960Y-95604802D01*
X153462832Y-95606373D01*
X153493829Y-95582591D01*
X153541254Y-95588839D01*
X153570372Y-95626792D01*
X153572500Y-95642963D01*
X153572500Y-95895136D01*
X153573099Y-95898146D01*
X153573099Y-95898149D01*
X153588216Y-95974146D01*
X153584472Y-95992968D01*
X153615664Y-96015320D01*
X153634204Y-96043067D01*
X153647313Y-96062687D01*
X153652430Y-96066106D01*
X153653126Y-96066571D01*
X153653591Y-96067267D01*
X153656784Y-96070460D01*
X153656149Y-96071095D01*
X153679699Y-96106347D01*
X153679950Y-96129388D01*
X153668449Y-96194617D01*
X153667500Y-96200000D01*
X153687552Y-96313722D01*
X153690285Y-96318456D01*
X153690286Y-96318458D01*
X153706076Y-96345806D01*
X153745290Y-96413727D01*
X153749478Y-96417241D01*
X153807770Y-96466153D01*
X153833750Y-96487953D01*
X153942262Y-96527449D01*
X154057738Y-96527449D01*
X154166250Y-96487953D01*
X154192231Y-96466153D01*
X154250522Y-96417241D01*
X154254710Y-96413727D01*
X154293924Y-96345806D01*
X154309714Y-96318458D01*
X154309715Y-96318456D01*
X154312448Y-96313722D01*
X154332500Y-96200000D01*
X154313564Y-96092607D01*
X154323148Y-96047031D01*
X154348559Y-96009000D01*
X154371757Y-95974281D01*
X154384136Y-95912047D01*
X154386901Y-95898149D01*
X154386901Y-95898146D01*
X154387500Y-95895136D01*
X154387500Y-95573681D01*
X154405806Y-95529487D01*
X154450000Y-95511181D01*
X154494194Y-95529487D01*
X154504127Y-95542431D01*
X154545290Y-95613727D01*
X154563387Y-95628912D01*
X154611468Y-95669256D01*
X154633750Y-95687953D01*
X154742262Y-95727449D01*
X154857738Y-95727449D01*
X154966250Y-95687953D01*
X154988533Y-95669256D01*
X155036613Y-95628912D01*
X155054710Y-95613727D01*
X155097902Y-95538917D01*
X155109714Y-95518458D01*
X155109715Y-95518456D01*
X155112448Y-95513722D01*
X155132500Y-95400000D01*
X155112448Y-95286278D01*
X155100636Y-95265818D01*
X155057443Y-95191007D01*
X155054710Y-95186273D01*
X154996584Y-95137500D01*
X154970438Y-95115561D01*
X154966250Y-95112047D01*
X154857738Y-95072551D01*
X154742262Y-95072551D01*
X154633750Y-95112047D01*
X154629562Y-95115561D01*
X154603416Y-95137500D01*
X154545290Y-95186273D01*
X154542557Y-95191007D01*
X154499365Y-95265818D01*
X154487552Y-95286278D01*
X154486602Y-95291664D01*
X154486601Y-95291668D01*
X154470952Y-95380415D01*
X154445250Y-95420759D01*
X154398549Y-95431112D01*
X154357435Y-95404285D01*
X154337309Y-95374163D01*
X154331888Y-95366050D01*
X154322305Y-95342182D01*
X154320836Y-95333847D01*
X154312448Y-95286278D01*
X154310869Y-95283543D01*
X154307500Y-95264439D01*
X154307500Y-95089409D01*
X154318033Y-95054686D01*
X154339729Y-95022215D01*
X154371757Y-94974281D01*
X154379740Y-94934150D01*
X154386901Y-94898149D01*
X154386901Y-94898146D01*
X154387500Y-94895136D01*
X154387500Y-94773681D01*
X154405806Y-94729487D01*
X154450000Y-94711181D01*
X154494194Y-94729487D01*
X154504127Y-94742431D01*
X154545290Y-94813727D01*
X154633750Y-94887953D01*
X154742262Y-94927449D01*
X154857738Y-94927449D01*
X154966250Y-94887953D01*
X155010203Y-94851073D01*
X155055823Y-94836689D01*
X155098254Y-94858777D01*
X155112500Y-94892648D01*
X155112500Y-94895136D01*
X155128243Y-94974281D01*
X155187313Y-95062687D01*
X155275719Y-95121757D01*
X155283834Y-95123371D01*
X155285594Y-95124547D01*
X155287443Y-95125313D01*
X155287291Y-95125681D01*
X155323607Y-95149945D01*
X155332942Y-95196860D01*
X155319520Y-95224844D01*
X155312047Y-95233750D01*
X155303965Y-95255954D01*
X155299368Y-95265812D01*
X155287552Y-95286278D01*
X155286603Y-95291660D01*
X155286602Y-95291664D01*
X155283450Y-95309544D01*
X155280629Y-95320069D01*
X155272551Y-95342262D01*
X155272551Y-95365883D01*
X155271602Y-95376736D01*
X155267500Y-95400000D01*
X155268449Y-95405382D01*
X155271602Y-95423264D01*
X155272551Y-95434117D01*
X155272551Y-95457738D01*
X155274422Y-95462878D01*
X155280629Y-95479931D01*
X155283450Y-95490456D01*
X155286602Y-95508336D01*
X155286603Y-95508338D01*
X155287552Y-95513722D01*
X155299368Y-95534188D01*
X155303965Y-95544046D01*
X155312047Y-95566250D01*
X155315561Y-95570437D01*
X155315561Y-95570438D01*
X155319520Y-95575156D01*
X155333904Y-95620777D01*
X155311816Y-95663208D01*
X155283835Y-95676629D01*
X155275719Y-95678243D01*
X155187313Y-95737313D01*
X155128243Y-95825719D01*
X155112500Y-95904864D01*
X155112500Y-95907314D01*
X155090026Y-95949361D01*
X155044251Y-95963248D01*
X155010202Y-95948927D01*
X154970438Y-95915561D01*
X154966250Y-95912047D01*
X154857738Y-95872551D01*
X154742262Y-95872551D01*
X154633750Y-95912047D01*
X154545290Y-95986273D01*
X154542557Y-95991007D01*
X154490431Y-96081292D01*
X154487552Y-96086278D01*
X154467500Y-96200000D01*
X154487552Y-96313722D01*
X154490285Y-96318456D01*
X154490286Y-96318458D01*
X154506076Y-96345806D01*
X154545290Y-96413727D01*
X154549478Y-96417241D01*
X154607770Y-96466153D01*
X154633750Y-96487953D01*
X154742262Y-96527449D01*
X154857738Y-96527449D01*
X154966250Y-96487953D01*
X154992231Y-96466153D01*
X155050522Y-96417241D01*
X155054710Y-96413727D01*
X155056762Y-96410173D01*
X155098645Y-96388371D01*
X155144266Y-96402756D01*
X155156058Y-96415910D01*
X155181967Y-96454686D01*
X155192500Y-96489409D01*
X155192500Y-96710591D01*
X155181967Y-96745314D01*
X155156058Y-96784090D01*
X155116284Y-96810666D01*
X155069368Y-96801334D01*
X155057009Y-96790254D01*
X155054710Y-96786273D01*
X154996361Y-96737313D01*
X154970438Y-96715561D01*
X154966250Y-96712047D01*
X154857738Y-96672551D01*
X154742262Y-96672551D01*
X154633750Y-96712047D01*
X154629562Y-96715561D01*
X154603639Y-96737313D01*
X154545290Y-96786273D01*
X154487552Y-96886278D01*
X154467500Y-97000000D01*
X154487552Y-97113722D01*
X154545290Y-97213727D01*
X154633750Y-97287953D01*
X154742262Y-97327449D01*
X154857738Y-97327449D01*
X154966250Y-97287953D01*
X155010203Y-97251073D01*
X155055823Y-97236689D01*
X155098254Y-97258777D01*
X155112500Y-97292648D01*
X155112500Y-97295136D01*
X155128243Y-97374281D01*
X155187313Y-97462687D01*
X155275719Y-97521757D01*
X155283834Y-97523371D01*
X155285594Y-97524547D01*
X155287443Y-97525313D01*
X155287291Y-97525681D01*
X155323607Y-97549945D01*
X155332942Y-97596860D01*
X155319520Y-97624844D01*
X155312047Y-97633750D01*
X155303965Y-97655954D01*
X155299368Y-97665812D01*
X155287552Y-97686278D01*
X155286603Y-97691662D01*
X155286602Y-97691664D01*
X155283450Y-97709544D01*
X155280629Y-97720069D01*
X155272551Y-97742262D01*
X155272551Y-97765883D01*
X155271602Y-97776736D01*
X155267500Y-97800000D01*
X155268449Y-97805382D01*
X155271602Y-97823264D01*
X155272551Y-97834117D01*
X155272551Y-97857738D01*
X155274422Y-97862878D01*
X155280629Y-97879931D01*
X155283450Y-97890456D01*
X155286602Y-97908336D01*
X155286603Y-97908338D01*
X155287552Y-97913722D01*
X155299368Y-97934188D01*
X155303965Y-97944046D01*
X155312047Y-97966250D01*
X155315562Y-97970439D01*
X155327229Y-97984343D01*
X155333478Y-97993268D01*
X155345290Y-98013727D01*
X155349478Y-98017241D01*
X155349480Y-98017243D01*
X155363386Y-98028912D01*
X155371088Y-98036614D01*
X155386273Y-98054710D01*
X155391009Y-98057444D01*
X155391010Y-98057445D01*
X155406731Y-98066521D01*
X155415657Y-98072771D01*
X155433750Y-98087953D01*
X155455954Y-98096035D01*
X155465812Y-98100632D01*
X155486278Y-98112448D01*
X155491662Y-98113397D01*
X155491664Y-98113398D01*
X155509544Y-98116550D01*
X155520069Y-98119371D01*
X155542262Y-98127449D01*
X155571060Y-98127449D01*
X155571451Y-98127466D01*
X155571643Y-98127500D01*
X156183563Y-98127500D01*
X156189011Y-98127738D01*
X156228979Y-98131235D01*
X156268297Y-98120700D01*
X156273620Y-98119519D01*
X156308335Y-98113398D01*
X156308336Y-98113398D01*
X156313722Y-98112448D01*
X156318461Y-98109712D01*
X156318463Y-98109711D01*
X156319265Y-98109248D01*
X156334333Y-98103006D01*
X156335241Y-98102763D01*
X156335243Y-98102762D01*
X156340521Y-98101348D01*
X156373873Y-98077995D01*
X156378467Y-98075068D01*
X156408992Y-98057444D01*
X156408993Y-98057443D01*
X156413727Y-98054710D01*
X156439519Y-98023972D01*
X156443203Y-98019952D01*
X156699952Y-97763203D01*
X156703972Y-97759519D01*
X156730522Y-97737241D01*
X156734710Y-97733727D01*
X156737444Y-97728991D01*
X156737446Y-97728989D01*
X156755068Y-97698468D01*
X156757997Y-97693870D01*
X156767666Y-97680061D01*
X156808009Y-97654359D01*
X156825994Y-97658346D01*
X156800021Y-97624497D01*
X156798841Y-97597463D01*
X156798948Y-97596860D01*
X156799520Y-97593614D01*
X156800700Y-97588296D01*
X156807251Y-97563846D01*
X156811235Y-97548979D01*
X156807738Y-97509011D01*
X156807500Y-97503563D01*
X156807500Y-97489409D01*
X156818033Y-97454686D01*
X156840229Y-97421467D01*
X156871757Y-97374281D01*
X156876201Y-97351940D01*
X156902777Y-97312166D01*
X156949693Y-97302834D01*
X156989467Y-97329410D01*
X157000000Y-97364133D01*
X157000000Y-97511222D01*
X156981694Y-97555416D01*
X156977676Y-97559098D01*
X156945290Y-97586273D01*
X156942557Y-97591007D01*
X156942554Y-97591011D01*
X156914517Y-97639571D01*
X156876567Y-97668691D01*
X156855477Y-97665914D01*
X156880413Y-97705055D01*
X156880413Y-97726762D01*
X156868449Y-97794612D01*
X156868449Y-97794618D01*
X156867500Y-97800000D01*
X156887552Y-97913722D01*
X156890285Y-97918456D01*
X156890286Y-97918458D01*
X156902098Y-97938917D01*
X156945290Y-98013727D01*
X156949478Y-98017241D01*
X156977674Y-98040900D01*
X156999762Y-98083330D01*
X157000000Y-98088778D01*
X157000000Y-98311222D01*
X156981694Y-98355416D01*
X156977676Y-98359098D01*
X156945290Y-98386273D01*
X156887552Y-98486278D01*
X156867500Y-98600000D01*
X156887552Y-98713722D01*
X156945290Y-98813727D01*
X156949478Y-98817241D01*
X156977674Y-98840900D01*
X156999762Y-98883330D01*
X157000000Y-98888778D01*
X157000000Y-99146782D01*
X156981694Y-99190976D01*
X156937500Y-99209282D01*
X156893306Y-99190976D01*
X156885533Y-99181505D01*
X156866106Y-99152430D01*
X156862687Y-99147313D01*
X156774281Y-99088243D01*
X156738670Y-99081159D01*
X156698149Y-99073099D01*
X156698146Y-99073099D01*
X156695136Y-99072500D01*
X156304864Y-99072500D01*
X156301854Y-99073099D01*
X156301851Y-99073099D01*
X156261330Y-99081159D01*
X156225719Y-99088243D01*
X156166966Y-99127500D01*
X156145314Y-99141967D01*
X156110591Y-99152500D01*
X155889409Y-99152500D01*
X155854686Y-99141967D01*
X155833034Y-99127500D01*
X155774281Y-99088243D01*
X155738670Y-99081159D01*
X155698149Y-99073099D01*
X155698146Y-99073099D01*
X155695136Y-99072500D01*
X155304864Y-99072500D01*
X155301854Y-99073099D01*
X155301851Y-99073099D01*
X155261330Y-99081159D01*
X155225719Y-99088243D01*
X155220600Y-99091664D01*
X155214913Y-99094019D01*
X155213703Y-99091097D01*
X155177828Y-99098245D01*
X155138045Y-99071683D01*
X155127500Y-99036942D01*
X155127500Y-98633828D01*
X155128449Y-98622975D01*
X155131551Y-98605382D01*
X155132500Y-98600000D01*
X155112448Y-98486278D01*
X155054710Y-98386273D01*
X154966250Y-98312047D01*
X154857738Y-98272551D01*
X154742262Y-98272551D01*
X154633750Y-98312047D01*
X154545290Y-98386273D01*
X154487552Y-98486278D01*
X154467500Y-98600000D01*
X154468449Y-98605382D01*
X154471551Y-98622975D01*
X154472500Y-98633828D01*
X154472500Y-99183563D01*
X154472262Y-99189011D01*
X154468765Y-99228979D01*
X154478908Y-99266834D01*
X154479300Y-99268297D01*
X154480481Y-99273619D01*
X154487552Y-99313722D01*
X154490288Y-99318461D01*
X154490289Y-99318463D01*
X154490752Y-99319265D01*
X154496994Y-99334333D01*
X154498652Y-99340521D01*
X154501790Y-99345002D01*
X154522003Y-99373870D01*
X154524932Y-99378467D01*
X154545290Y-99413727D01*
X154549478Y-99417241D01*
X154576028Y-99439519D01*
X154580048Y-99443203D01*
X154836797Y-99699952D01*
X154840481Y-99703972D01*
X154866273Y-99734710D01*
X154871009Y-99737444D01*
X154871011Y-99737446D01*
X154901532Y-99755068D01*
X154906126Y-99757994D01*
X154911984Y-99762095D01*
X154937689Y-99802436D01*
X154927340Y-99849139D01*
X154886999Y-99874844D01*
X154865289Y-99874846D01*
X154862873Y-99874420D01*
X154857738Y-99872551D01*
X154742262Y-99872551D01*
X154737125Y-99874421D01*
X154737124Y-99874421D01*
X154726709Y-99878212D01*
X154633750Y-99912047D01*
X154629562Y-99915561D01*
X154621873Y-99922013D01*
X154545290Y-99986273D01*
X154537642Y-99999520D01*
X154493894Y-100075294D01*
X154487552Y-100086278D01*
X154467500Y-100200000D01*
X154487552Y-100313722D01*
X154489401Y-100316924D01*
X154487351Y-100363911D01*
X154452085Y-100396230D01*
X154430706Y-100400000D01*
X154369294Y-100400000D01*
X154325100Y-100381694D01*
X154306794Y-100337500D01*
X154310345Y-100317365D01*
X154312448Y-100313722D01*
X154332500Y-100200000D01*
X154312448Y-100086278D01*
X154306107Y-100075294D01*
X154262358Y-99999520D01*
X154254710Y-99986273D01*
X154178127Y-99922013D01*
X154170438Y-99915561D01*
X154166250Y-99912047D01*
X154073291Y-99878212D01*
X154062876Y-99874421D01*
X154062875Y-99874421D01*
X154057738Y-99872551D01*
X153942262Y-99872551D01*
X153942262Y-99869566D01*
X153905486Y-99861418D01*
X153879778Y-99821078D01*
X153890125Y-99774375D01*
X153897133Y-99766022D01*
X154219952Y-99443203D01*
X154223972Y-99439519D01*
X154250522Y-99417241D01*
X154254710Y-99413727D01*
X154257444Y-99408991D01*
X154257446Y-99408989D01*
X154275068Y-99378468D01*
X154277997Y-99373870D01*
X154298210Y-99345002D01*
X154298211Y-99345001D01*
X154301348Y-99340520D01*
X154303006Y-99334333D01*
X154309246Y-99319269D01*
X154309712Y-99318462D01*
X154309713Y-99318459D01*
X154312448Y-99313722D01*
X154319519Y-99273619D01*
X154320700Y-99268296D01*
X154320774Y-99268021D01*
X154331235Y-99228979D01*
X154327738Y-99189011D01*
X154327500Y-99183563D01*
X154327500Y-98633828D01*
X154328449Y-98622975D01*
X154331551Y-98605382D01*
X154332500Y-98600000D01*
X154312448Y-98486278D01*
X154254710Y-98386273D01*
X154166250Y-98312047D01*
X154057738Y-98272551D01*
X153942262Y-98272551D01*
X153833750Y-98312047D01*
X153745290Y-98386273D01*
X153687552Y-98486278D01*
X153667500Y-98600000D01*
X153668449Y-98605382D01*
X153671551Y-98622975D01*
X153672500Y-98633828D01*
X153672500Y-99038457D01*
X153654194Y-99082651D01*
X153415049Y-99321796D01*
X153370855Y-99340102D01*
X153336133Y-99329569D01*
X153279403Y-99291665D01*
X153279402Y-99291664D01*
X153274281Y-99288243D01*
X153221379Y-99277720D01*
X153198149Y-99273099D01*
X153198146Y-99273099D01*
X153195136Y-99272500D01*
X152804864Y-99272500D01*
X152801854Y-99273099D01*
X152801851Y-99273099D01*
X152778621Y-99277720D01*
X152725719Y-99288243D01*
X152680491Y-99318463D01*
X152645314Y-99341967D01*
X152610591Y-99352500D01*
X152389409Y-99352500D01*
X152354686Y-99341967D01*
X152319509Y-99318463D01*
X152274281Y-99288243D01*
X152221379Y-99277720D01*
X152198149Y-99273099D01*
X152198146Y-99273099D01*
X152195136Y-99272500D01*
X151804864Y-99272500D01*
X151801854Y-99273099D01*
X151801851Y-99273099D01*
X151778621Y-99277720D01*
X151725719Y-99288243D01*
X151680491Y-99318463D01*
X151645314Y-99341967D01*
X151610591Y-99352500D01*
X151389409Y-99352500D01*
X151354686Y-99341967D01*
X151319509Y-99318463D01*
X151274281Y-99288243D01*
X151221379Y-99277720D01*
X151198149Y-99273099D01*
X151198146Y-99273099D01*
X151195136Y-99272500D01*
X150804864Y-99272500D01*
X150801854Y-99273099D01*
X150801851Y-99273099D01*
X150778621Y-99277720D01*
X150725719Y-99288243D01*
X150720598Y-99291664D01*
X150720597Y-99291665D01*
X150663867Y-99329569D01*
X150616951Y-99338901D01*
X150584951Y-99321796D01*
X150345806Y-99082651D01*
X150327500Y-99038457D01*
X150327500Y-98633828D01*
X150328449Y-98622975D01*
X150331551Y-98605382D01*
X150332500Y-98600000D01*
X150467500Y-98600000D01*
X150487552Y-98713722D01*
X150545290Y-98813727D01*
X150548173Y-98816146D01*
X150562500Y-98855508D01*
X150562500Y-98885136D01*
X150578243Y-98964281D01*
X150637313Y-99052687D01*
X150725719Y-99111757D01*
X150757165Y-99118012D01*
X150801851Y-99126901D01*
X150801854Y-99126901D01*
X150804864Y-99127500D01*
X151195136Y-99127500D01*
X151198146Y-99126901D01*
X151198149Y-99126901D01*
X151242835Y-99118012D01*
X151274281Y-99111757D01*
X151354686Y-99058033D01*
X151389409Y-99047500D01*
X151610591Y-99047500D01*
X151645314Y-99058033D01*
X151725719Y-99111757D01*
X151757165Y-99118012D01*
X151801851Y-99126901D01*
X151801854Y-99126901D01*
X151804864Y-99127500D01*
X152195136Y-99127500D01*
X152198146Y-99126901D01*
X152198149Y-99126901D01*
X152242835Y-99118012D01*
X152274281Y-99111757D01*
X152354686Y-99058033D01*
X152389409Y-99047500D01*
X152610591Y-99047500D01*
X152645314Y-99058033D01*
X152725719Y-99111757D01*
X152757165Y-99118012D01*
X152801851Y-99126901D01*
X152801854Y-99126901D01*
X152804864Y-99127500D01*
X153195136Y-99127500D01*
X153198146Y-99126901D01*
X153198149Y-99126901D01*
X153242835Y-99118012D01*
X153274281Y-99111757D01*
X153362687Y-99052687D01*
X153421757Y-98964281D01*
X153437500Y-98885136D01*
X153437500Y-98855508D01*
X153451827Y-98816146D01*
X153454710Y-98813727D01*
X153512448Y-98713722D01*
X153532500Y-98600000D01*
X153512448Y-98486278D01*
X153454710Y-98386273D01*
X153366250Y-98312047D01*
X153257738Y-98272551D01*
X153142262Y-98272551D01*
X153137126Y-98274421D01*
X153137123Y-98274421D01*
X153042860Y-98308731D01*
X153021483Y-98312500D01*
X152804864Y-98312500D01*
X152801854Y-98313099D01*
X152801851Y-98313099D01*
X152761330Y-98321159D01*
X152725719Y-98328243D01*
X152720598Y-98331664D01*
X152720597Y-98331665D01*
X152686669Y-98354334D01*
X152639753Y-98363666D01*
X152611773Y-98350245D01*
X152570438Y-98315561D01*
X152566250Y-98312047D01*
X152457738Y-98272551D01*
X152342262Y-98272551D01*
X152337126Y-98274421D01*
X152337123Y-98274421D01*
X152235725Y-98311328D01*
X152202156Y-98313896D01*
X152200010Y-98313470D01*
X152195136Y-98312500D01*
X151804864Y-98312500D01*
X151799990Y-98313470D01*
X151797844Y-98313896D01*
X151764275Y-98311328D01*
X151662877Y-98274421D01*
X151662874Y-98274421D01*
X151657738Y-98272551D01*
X151542262Y-98272551D01*
X151433750Y-98312047D01*
X151429562Y-98315561D01*
X151388227Y-98350245D01*
X151342605Y-98364629D01*
X151313331Y-98354334D01*
X151279403Y-98331665D01*
X151279402Y-98331664D01*
X151274281Y-98328243D01*
X151238670Y-98321159D01*
X151198149Y-98313099D01*
X151198146Y-98313099D01*
X151195136Y-98312500D01*
X150978517Y-98312500D01*
X150957140Y-98308731D01*
X150862877Y-98274421D01*
X150862874Y-98274421D01*
X150857738Y-98272551D01*
X150742262Y-98272551D01*
X150633750Y-98312047D01*
X150545290Y-98386273D01*
X150487552Y-98486278D01*
X150467500Y-98600000D01*
X150332500Y-98600000D01*
X150312448Y-98486278D01*
X150254710Y-98386273D01*
X150166250Y-98312047D01*
X150057738Y-98272551D01*
X149942262Y-98272551D01*
X149833750Y-98312047D01*
X149745290Y-98386273D01*
X149687552Y-98486278D01*
X149667500Y-98600000D01*
X149668449Y-98605382D01*
X149671551Y-98622975D01*
X149672500Y-98633828D01*
X149672500Y-99183563D01*
X149672262Y-99189011D01*
X149668765Y-99228979D01*
X149678908Y-99266834D01*
X149679300Y-99268297D01*
X149680481Y-99273619D01*
X149687552Y-99313722D01*
X149690288Y-99318461D01*
X149690289Y-99318463D01*
X149690752Y-99319265D01*
X149696994Y-99334333D01*
X149698652Y-99340521D01*
X149701790Y-99345002D01*
X149722003Y-99373870D01*
X149724932Y-99378467D01*
X149745290Y-99413727D01*
X149749478Y-99417241D01*
X149776028Y-99439519D01*
X149780048Y-99443203D01*
X150236797Y-99899952D01*
X150240481Y-99903972D01*
X150266273Y-99934710D01*
X150271009Y-99937444D01*
X150271011Y-99937446D01*
X150301532Y-99955068D01*
X150306130Y-99957997D01*
X150334998Y-99978210D01*
X150339480Y-99981348D01*
X150344763Y-99982764D01*
X150344764Y-99982764D01*
X150345667Y-99983006D01*
X150360731Y-99989246D01*
X150361538Y-99989712D01*
X150361541Y-99989713D01*
X150366278Y-99992448D01*
X150405645Y-99999389D01*
X150406381Y-99999519D01*
X150411704Y-100000700D01*
X150451021Y-100011235D01*
X150490989Y-100007738D01*
X150496437Y-100007500D01*
X150610591Y-100007500D01*
X150645314Y-100018033D01*
X150725719Y-100071757D01*
X150755697Y-100077720D01*
X150801851Y-100086901D01*
X150801854Y-100086901D01*
X150804864Y-100087500D01*
X151195136Y-100087500D01*
X151198146Y-100086901D01*
X151198149Y-100086901D01*
X151244303Y-100077720D01*
X151274281Y-100071757D01*
X151354686Y-100018033D01*
X151389409Y-100007500D01*
X151610591Y-100007500D01*
X151645314Y-100018033D01*
X151725719Y-100071757D01*
X151755697Y-100077720D01*
X151801851Y-100086901D01*
X151801854Y-100086901D01*
X151804864Y-100087500D01*
X152195136Y-100087500D01*
X152198146Y-100086901D01*
X152198149Y-100086901D01*
X152244303Y-100077720D01*
X152274281Y-100071757D01*
X152354686Y-100018033D01*
X152389409Y-100007500D01*
X152610591Y-100007500D01*
X152645314Y-100018033D01*
X152725719Y-100071757D01*
X152755697Y-100077720D01*
X152801851Y-100086901D01*
X152801854Y-100086901D01*
X152804864Y-100087500D01*
X153195136Y-100087500D01*
X153198146Y-100086901D01*
X153198149Y-100086901D01*
X153244303Y-100077720D01*
X153274281Y-100071757D01*
X153354686Y-100018033D01*
X153389409Y-100007500D01*
X153503563Y-100007500D01*
X153509011Y-100007738D01*
X153548979Y-100011235D01*
X153588297Y-100000700D01*
X153593620Y-99999520D01*
X153622208Y-99994479D01*
X153668909Y-100004832D01*
X153694611Y-100045176D01*
X153691791Y-100077406D01*
X153690284Y-100081546D01*
X153687552Y-100086278D01*
X153667500Y-100200000D01*
X153668449Y-100205382D01*
X153668449Y-100205386D01*
X153671201Y-100220993D01*
X153660848Y-100267695D01*
X153653850Y-100276036D01*
X153548192Y-100381694D01*
X153503998Y-100400000D01*
X147169294Y-100400000D01*
X147125100Y-100381694D01*
X147106794Y-100337500D01*
X147110345Y-100317365D01*
X147112448Y-100313722D01*
X147132500Y-100200000D01*
X147112448Y-100086278D01*
X147106107Y-100075294D01*
X147067686Y-100008748D01*
X147062191Y-99967006D01*
X147047270Y-99969974D01*
X147019292Y-99956554D01*
X146966250Y-99912047D01*
X146873291Y-99878212D01*
X146862876Y-99874421D01*
X146862875Y-99874421D01*
X146857738Y-99872551D01*
X146748452Y-99872551D01*
X146704258Y-99854245D01*
X146685952Y-99810051D01*
X146704258Y-99765857D01*
X146724360Y-99745755D01*
X146768554Y-99727449D01*
X146857738Y-99727449D01*
X146966250Y-99687953D01*
X146969374Y-99685332D01*
X147016175Y-99679169D01*
X147054126Y-99708289D01*
X147062500Y-99739540D01*
X147062500Y-99745136D01*
X147063099Y-99748146D01*
X147063099Y-99748149D01*
X147069703Y-99781348D01*
X147078243Y-99824281D01*
X147081664Y-99829402D01*
X147081665Y-99829403D01*
X147111431Y-99873953D01*
X147120477Y-99919433D01*
X147137989Y-99917128D01*
X147156535Y-99925531D01*
X147225719Y-99971757D01*
X147249373Y-99976462D01*
X147301851Y-99986901D01*
X147301854Y-99986901D01*
X147304864Y-99987500D01*
X147695136Y-99987500D01*
X147698146Y-99986901D01*
X147698149Y-99986901D01*
X147750627Y-99976462D01*
X147774281Y-99971757D01*
X147854686Y-99918033D01*
X147889409Y-99907500D01*
X148110591Y-99907500D01*
X148145314Y-99918033D01*
X148225719Y-99971757D01*
X148249373Y-99976462D01*
X148301851Y-99986901D01*
X148301854Y-99986901D01*
X148304864Y-99987500D01*
X148695136Y-99987500D01*
X148698146Y-99986901D01*
X148698149Y-99986901D01*
X148750627Y-99976462D01*
X148774281Y-99971757D01*
X148854686Y-99918033D01*
X148889409Y-99907500D01*
X149003563Y-99907500D01*
X149009011Y-99907738D01*
X149048979Y-99911235D01*
X149088297Y-99900700D01*
X149093620Y-99899519D01*
X149128335Y-99893398D01*
X149128336Y-99893398D01*
X149133722Y-99892448D01*
X149138461Y-99889712D01*
X149138463Y-99889711D01*
X149139265Y-99889248D01*
X149154333Y-99883006D01*
X149155241Y-99882763D01*
X149155243Y-99882762D01*
X149160521Y-99881348D01*
X149193871Y-99857997D01*
X149198467Y-99855068D01*
X149228992Y-99837444D01*
X149228993Y-99837443D01*
X149233727Y-99834710D01*
X149259519Y-99803972D01*
X149263203Y-99799952D01*
X149419952Y-99643203D01*
X149423972Y-99639519D01*
X149450520Y-99617243D01*
X149450521Y-99617242D01*
X149454710Y-99613727D01*
X149475068Y-99578466D01*
X149477990Y-99573879D01*
X149501347Y-99540521D01*
X149503003Y-99534341D01*
X149509246Y-99519268D01*
X149509715Y-99518456D01*
X149509715Y-99518455D01*
X149512448Y-99513722D01*
X149519518Y-99473624D01*
X149520699Y-99468299D01*
X149529820Y-99434262D01*
X149529820Y-99434260D01*
X149531235Y-99428980D01*
X149527738Y-99389010D01*
X149527500Y-99383563D01*
X149527500Y-98633828D01*
X149528449Y-98622975D01*
X149531551Y-98605382D01*
X149532500Y-98600000D01*
X149512448Y-98486278D01*
X149454710Y-98386273D01*
X149366250Y-98312047D01*
X149257738Y-98272551D01*
X149142262Y-98272551D01*
X149033750Y-98312047D01*
X148945290Y-98386273D01*
X148887552Y-98486278D01*
X148867500Y-98600000D01*
X148868449Y-98605382D01*
X148871551Y-98622975D01*
X148872500Y-98633828D01*
X148872500Y-99136941D01*
X148854194Y-99181135D01*
X148810000Y-99199441D01*
X148785871Y-99192126D01*
X148785087Y-99194019D01*
X148779401Y-99191664D01*
X148774281Y-99188243D01*
X148728407Y-99179118D01*
X148698149Y-99173099D01*
X148698146Y-99173099D01*
X148695136Y-99172500D01*
X148304864Y-99172500D01*
X148301854Y-99173099D01*
X148301851Y-99173099D01*
X148271593Y-99179118D01*
X148225719Y-99188243D01*
X148172906Y-99223531D01*
X148145314Y-99241967D01*
X148110591Y-99252500D01*
X147889409Y-99252500D01*
X147854686Y-99241967D01*
X147827094Y-99223531D01*
X147774281Y-99188243D01*
X147728407Y-99179118D01*
X147698149Y-99173099D01*
X147698146Y-99173099D01*
X147695136Y-99172500D01*
X147304864Y-99172500D01*
X147301854Y-99173099D01*
X147301851Y-99173099D01*
X147271593Y-99179118D01*
X147225719Y-99188243D01*
X147158621Y-99233076D01*
X147111705Y-99242408D01*
X147069772Y-99212359D01*
X147057446Y-99191011D01*
X147057444Y-99191009D01*
X147054710Y-99186273D01*
X146984666Y-99127500D01*
X146970438Y-99115561D01*
X146966250Y-99112047D01*
X146857738Y-99072551D01*
X146748452Y-99072551D01*
X146704258Y-99054245D01*
X146685952Y-99010051D01*
X146704258Y-98965857D01*
X146724360Y-98945755D01*
X146768554Y-98927449D01*
X146857738Y-98927449D01*
X146966250Y-98887953D01*
X147054710Y-98813727D01*
X147112448Y-98713722D01*
X147132500Y-98600000D01*
X147112448Y-98486278D01*
X147054710Y-98386273D01*
X146966250Y-98312047D01*
X146857738Y-98272551D01*
X146742262Y-98272551D01*
X146633750Y-98312047D01*
X146545290Y-98386273D01*
X146487552Y-98486278D01*
X146467500Y-98600000D01*
X146468449Y-98605382D01*
X146468449Y-98605386D01*
X146471201Y-98620993D01*
X146460848Y-98667695D01*
X146453848Y-98676037D01*
X146430410Y-98699475D01*
X146386216Y-98717780D01*
X146342022Y-98699473D01*
X146323717Y-98655279D01*
X146324667Y-98644427D01*
X146331551Y-98605387D01*
X146331551Y-98605382D01*
X146332500Y-98600000D01*
X146312448Y-98486278D01*
X146254710Y-98386273D01*
X146222326Y-98359100D01*
X146200238Y-98316670D01*
X146200000Y-98311222D01*
X146200000Y-98088778D01*
X146218306Y-98044584D01*
X146222326Y-98040900D01*
X146250522Y-98017241D01*
X146254710Y-98013727D01*
X146297902Y-97938917D01*
X146309714Y-97918458D01*
X146309715Y-97918456D01*
X146312448Y-97913722D01*
X146332500Y-97800000D01*
X146467500Y-97800000D01*
X146487552Y-97913722D01*
X146490285Y-97918456D01*
X146490286Y-97918458D01*
X146502098Y-97938917D01*
X146545290Y-98013727D01*
X146549478Y-98017241D01*
X146611468Y-98069256D01*
X146633750Y-98087953D01*
X146701048Y-98112448D01*
X146737122Y-98125578D01*
X146742262Y-98127449D01*
X146857738Y-98127449D01*
X146862879Y-98125578D01*
X146898952Y-98112448D01*
X146966250Y-98087953D01*
X146988533Y-98069256D01*
X147050522Y-98017241D01*
X147054710Y-98013727D01*
X147097902Y-97938917D01*
X147109714Y-97918458D01*
X147109715Y-97918456D01*
X147112448Y-97913722D01*
X147128792Y-97821031D01*
X147154493Y-97780688D01*
X147201195Y-97770334D01*
X147234536Y-97787691D01*
X147466797Y-98019952D01*
X147470481Y-98023972D01*
X147496273Y-98054710D01*
X147516730Y-98066521D01*
X147531532Y-98075067D01*
X147536121Y-98077990D01*
X147569479Y-98101347D01*
X147575634Y-98102996D01*
X147575659Y-98103003D01*
X147590732Y-98109246D01*
X147596278Y-98112448D01*
X147630615Y-98118502D01*
X147636376Y-98119518D01*
X147641701Y-98120699D01*
X147675738Y-98129820D01*
X147675740Y-98129820D01*
X147681020Y-98131235D01*
X147712735Y-98128460D01*
X147720990Y-98127738D01*
X147726437Y-98127500D01*
X148428357Y-98127500D01*
X148428549Y-98127466D01*
X148428940Y-98127449D01*
X148457738Y-98127449D01*
X148479931Y-98119371D01*
X148490456Y-98116550D01*
X148508336Y-98113398D01*
X148508338Y-98113397D01*
X148513722Y-98112448D01*
X148534188Y-98100632D01*
X148544046Y-98096035D01*
X148566250Y-98087953D01*
X148584343Y-98072771D01*
X148593269Y-98066521D01*
X148608990Y-98057445D01*
X148608991Y-98057444D01*
X148613727Y-98054710D01*
X148628912Y-98036614D01*
X148636614Y-98028912D01*
X148650520Y-98017243D01*
X148650522Y-98017241D01*
X148654710Y-98013727D01*
X148666522Y-97993268D01*
X148672771Y-97984343D01*
X148684438Y-97970439D01*
X148687953Y-97966250D01*
X148696035Y-97944046D01*
X148700632Y-97934188D01*
X148712448Y-97913722D01*
X148713397Y-97908338D01*
X148713398Y-97908336D01*
X148716550Y-97890456D01*
X148719371Y-97879931D01*
X148725578Y-97862878D01*
X148727449Y-97857738D01*
X148727449Y-97834117D01*
X148728398Y-97823264D01*
X148731551Y-97805382D01*
X148732500Y-97800000D01*
X148867500Y-97800000D01*
X148887552Y-97913722D01*
X148890285Y-97918456D01*
X148890286Y-97918458D01*
X148902098Y-97938917D01*
X148945290Y-98013727D01*
X148949478Y-98017241D01*
X149011468Y-98069256D01*
X149033750Y-98087953D01*
X149101048Y-98112448D01*
X149137122Y-98125578D01*
X149142262Y-98127449D01*
X149257738Y-98127449D01*
X149262879Y-98125578D01*
X149298952Y-98112448D01*
X149366250Y-98087953D01*
X149388533Y-98069256D01*
X149450522Y-98017241D01*
X149454710Y-98013727D01*
X149497902Y-97938917D01*
X149509714Y-97918458D01*
X149509715Y-97918456D01*
X149512448Y-97913722D01*
X149532500Y-97800000D01*
X149667500Y-97800000D01*
X149687552Y-97913722D01*
X149690285Y-97918456D01*
X149690286Y-97918458D01*
X149702098Y-97938917D01*
X149745290Y-98013727D01*
X149749478Y-98017241D01*
X149811468Y-98069256D01*
X149833750Y-98087953D01*
X149901048Y-98112448D01*
X149937122Y-98125578D01*
X149942262Y-98127449D01*
X150057738Y-98127449D01*
X150062879Y-98125578D01*
X150098952Y-98112448D01*
X150166250Y-98087953D01*
X150188533Y-98069256D01*
X150250522Y-98017241D01*
X150254710Y-98013727D01*
X150297902Y-97938917D01*
X150309714Y-97918458D01*
X150309715Y-97918456D01*
X150312448Y-97913722D01*
X150332500Y-97800000D01*
X150467500Y-97800000D01*
X150487552Y-97913722D01*
X150490285Y-97918456D01*
X150490286Y-97918458D01*
X150502098Y-97938917D01*
X150545290Y-98013727D01*
X150549478Y-98017241D01*
X150611468Y-98069256D01*
X150633750Y-98087953D01*
X150701048Y-98112448D01*
X150737122Y-98125578D01*
X150742262Y-98127449D01*
X150857738Y-98127449D01*
X150862879Y-98125578D01*
X150898952Y-98112448D01*
X150966250Y-98087953D01*
X150988533Y-98069256D01*
X151050522Y-98017241D01*
X151054710Y-98013727D01*
X151097902Y-97938917D01*
X151109714Y-97918458D01*
X151109715Y-97918456D01*
X151112448Y-97913722D01*
X151132500Y-97800000D01*
X151267500Y-97800000D01*
X151287552Y-97913722D01*
X151290285Y-97918456D01*
X151290286Y-97918458D01*
X151302098Y-97938917D01*
X151345290Y-98013727D01*
X151349478Y-98017241D01*
X151411468Y-98069256D01*
X151433750Y-98087953D01*
X151501048Y-98112448D01*
X151537122Y-98125578D01*
X151542262Y-98127449D01*
X151657738Y-98127449D01*
X151662879Y-98125578D01*
X151698952Y-98112448D01*
X151766250Y-98087953D01*
X151788533Y-98069256D01*
X151850522Y-98017241D01*
X151854710Y-98013727D01*
X151897902Y-97938917D01*
X151909714Y-97918458D01*
X151909715Y-97918456D01*
X151912448Y-97913722D01*
X151932500Y-97800000D01*
X152067500Y-97800000D01*
X152087552Y-97913722D01*
X152090285Y-97918456D01*
X152090286Y-97918458D01*
X152102098Y-97938917D01*
X152145290Y-98013727D01*
X152149478Y-98017241D01*
X152211468Y-98069256D01*
X152233750Y-98087953D01*
X152301048Y-98112448D01*
X152337122Y-98125578D01*
X152342262Y-98127449D01*
X152457738Y-98127449D01*
X152462879Y-98125578D01*
X152498952Y-98112448D01*
X152566250Y-98087953D01*
X152588533Y-98069256D01*
X152650522Y-98017241D01*
X152654710Y-98013727D01*
X152697902Y-97938917D01*
X152709714Y-97918458D01*
X152709715Y-97918456D01*
X152712448Y-97913722D01*
X152732500Y-97800000D01*
X152867500Y-97800000D01*
X152887552Y-97913722D01*
X152890285Y-97918456D01*
X152890286Y-97918458D01*
X152902098Y-97938917D01*
X152945290Y-98013727D01*
X152949478Y-98017241D01*
X153011468Y-98069256D01*
X153033750Y-98087953D01*
X153101048Y-98112448D01*
X153137122Y-98125578D01*
X153142262Y-98127449D01*
X153257738Y-98127449D01*
X153262879Y-98125578D01*
X153298952Y-98112448D01*
X153366250Y-98087953D01*
X153388533Y-98069256D01*
X153450522Y-98017241D01*
X153454710Y-98013727D01*
X153497902Y-97938917D01*
X153509714Y-97918458D01*
X153509715Y-97918456D01*
X153512448Y-97913722D01*
X153532500Y-97800000D01*
X153667500Y-97800000D01*
X153687552Y-97913722D01*
X153690285Y-97918456D01*
X153690286Y-97918458D01*
X153702098Y-97938917D01*
X153745290Y-98013727D01*
X153749478Y-98017241D01*
X153811468Y-98069256D01*
X153833750Y-98087953D01*
X153901048Y-98112448D01*
X153937122Y-98125578D01*
X153942262Y-98127449D01*
X154057738Y-98127449D01*
X154062879Y-98125578D01*
X154098952Y-98112448D01*
X154166250Y-98087953D01*
X154188533Y-98069256D01*
X154250522Y-98017241D01*
X154254710Y-98013727D01*
X154297902Y-97938917D01*
X154309714Y-97918458D01*
X154309715Y-97918456D01*
X154312448Y-97913722D01*
X154332500Y-97800000D01*
X154467500Y-97800000D01*
X154487552Y-97913722D01*
X154490285Y-97918456D01*
X154490286Y-97918458D01*
X154502098Y-97938917D01*
X154545290Y-98013727D01*
X154549478Y-98017241D01*
X154611468Y-98069256D01*
X154633750Y-98087953D01*
X154701048Y-98112448D01*
X154737122Y-98125578D01*
X154742262Y-98127449D01*
X154857738Y-98127449D01*
X154862879Y-98125578D01*
X154898952Y-98112448D01*
X154966250Y-98087953D01*
X154988533Y-98069256D01*
X155050522Y-98017241D01*
X155054710Y-98013727D01*
X155097902Y-97938917D01*
X155109714Y-97918458D01*
X155109715Y-97918456D01*
X155112448Y-97913722D01*
X155132500Y-97800000D01*
X155112448Y-97686278D01*
X155100636Y-97665818D01*
X155061192Y-97597500D01*
X155054710Y-97586273D01*
X154995260Y-97536389D01*
X154970438Y-97515561D01*
X154966250Y-97512047D01*
X154865181Y-97475260D01*
X154862876Y-97474421D01*
X154862875Y-97474421D01*
X154857738Y-97472551D01*
X154742262Y-97472551D01*
X154737125Y-97474421D01*
X154737124Y-97474421D01*
X154734819Y-97475260D01*
X154633750Y-97512047D01*
X154629562Y-97515561D01*
X154604740Y-97536389D01*
X154545290Y-97586273D01*
X154538808Y-97597500D01*
X154499365Y-97665818D01*
X154487552Y-97686278D01*
X154467500Y-97800000D01*
X154332500Y-97800000D01*
X154312448Y-97686278D01*
X154300636Y-97665818D01*
X154261192Y-97597500D01*
X154254710Y-97586273D01*
X154195260Y-97536389D01*
X154170438Y-97515561D01*
X154166250Y-97512047D01*
X154065181Y-97475260D01*
X154062876Y-97474421D01*
X154062875Y-97474421D01*
X154057738Y-97472551D01*
X153942262Y-97472551D01*
X153937125Y-97474421D01*
X153937124Y-97474421D01*
X153934819Y-97475260D01*
X153833750Y-97512047D01*
X153829562Y-97515561D01*
X153804740Y-97536389D01*
X153745290Y-97586273D01*
X153738808Y-97597500D01*
X153699365Y-97665818D01*
X153687552Y-97686278D01*
X153667500Y-97800000D01*
X153532500Y-97800000D01*
X153512448Y-97686278D01*
X153500636Y-97665818D01*
X153461192Y-97597500D01*
X153454710Y-97586273D01*
X153395260Y-97536389D01*
X153370438Y-97515561D01*
X153366250Y-97512047D01*
X153265181Y-97475260D01*
X153262876Y-97474421D01*
X153262875Y-97474421D01*
X153257738Y-97472551D01*
X153142262Y-97472551D01*
X153137125Y-97474421D01*
X153137124Y-97474421D01*
X153134819Y-97475260D01*
X153033750Y-97512047D01*
X153029562Y-97515561D01*
X153004740Y-97536389D01*
X152945290Y-97586273D01*
X152938808Y-97597500D01*
X152899365Y-97665818D01*
X152887552Y-97686278D01*
X152867500Y-97800000D01*
X152732500Y-97800000D01*
X152712448Y-97686278D01*
X152700636Y-97665818D01*
X152661192Y-97597500D01*
X152654710Y-97586273D01*
X152595260Y-97536389D01*
X152570438Y-97515561D01*
X152566250Y-97512047D01*
X152465181Y-97475260D01*
X152462876Y-97474421D01*
X152462875Y-97474421D01*
X152457738Y-97472551D01*
X152342262Y-97472551D01*
X152337125Y-97474421D01*
X152337124Y-97474421D01*
X152334819Y-97475260D01*
X152233750Y-97512047D01*
X152229562Y-97515561D01*
X152204740Y-97536389D01*
X152145290Y-97586273D01*
X152138808Y-97597500D01*
X152099365Y-97665818D01*
X152087552Y-97686278D01*
X152067500Y-97800000D01*
X151932500Y-97800000D01*
X151912448Y-97686278D01*
X151900636Y-97665818D01*
X151861192Y-97597500D01*
X151854710Y-97586273D01*
X151795260Y-97536389D01*
X151770438Y-97515561D01*
X151766250Y-97512047D01*
X151665181Y-97475260D01*
X151662876Y-97474421D01*
X151662875Y-97474421D01*
X151657738Y-97472551D01*
X151542262Y-97472551D01*
X151537125Y-97474421D01*
X151537124Y-97474421D01*
X151534819Y-97475260D01*
X151433750Y-97512047D01*
X151429562Y-97515561D01*
X151404740Y-97536389D01*
X151345290Y-97586273D01*
X151338808Y-97597500D01*
X151299365Y-97665818D01*
X151287552Y-97686278D01*
X151267500Y-97800000D01*
X151132500Y-97800000D01*
X151112448Y-97686278D01*
X151100636Y-97665818D01*
X151061192Y-97597500D01*
X151054710Y-97586273D01*
X150995260Y-97536389D01*
X150970438Y-97515561D01*
X150966250Y-97512047D01*
X150865181Y-97475260D01*
X150862876Y-97474421D01*
X150862875Y-97474421D01*
X150857738Y-97472551D01*
X150742262Y-97472551D01*
X150737125Y-97474421D01*
X150737124Y-97474421D01*
X150734819Y-97475260D01*
X150633750Y-97512047D01*
X150629562Y-97515561D01*
X150604740Y-97536389D01*
X150545290Y-97586273D01*
X150538808Y-97597500D01*
X150499365Y-97665818D01*
X150487552Y-97686278D01*
X150467500Y-97800000D01*
X150332500Y-97800000D01*
X150312448Y-97686278D01*
X150300636Y-97665818D01*
X150261192Y-97597500D01*
X150254710Y-97586273D01*
X150195260Y-97536389D01*
X150170438Y-97515561D01*
X150166250Y-97512047D01*
X150065181Y-97475260D01*
X150062876Y-97474421D01*
X150062875Y-97474421D01*
X150057738Y-97472551D01*
X149942262Y-97472551D01*
X149937125Y-97474421D01*
X149937124Y-97474421D01*
X149934819Y-97475260D01*
X149833750Y-97512047D01*
X149829562Y-97515561D01*
X149804740Y-97536389D01*
X149745290Y-97586273D01*
X149738808Y-97597500D01*
X149699365Y-97665818D01*
X149687552Y-97686278D01*
X149667500Y-97800000D01*
X149532500Y-97800000D01*
X149512448Y-97686278D01*
X149500636Y-97665818D01*
X149461192Y-97597500D01*
X149454710Y-97586273D01*
X149395260Y-97536389D01*
X149370438Y-97515561D01*
X149366250Y-97512047D01*
X149265181Y-97475260D01*
X149262876Y-97474421D01*
X149262875Y-97474421D01*
X149257738Y-97472551D01*
X149142262Y-97472551D01*
X149137125Y-97474421D01*
X149137124Y-97474421D01*
X149134819Y-97475260D01*
X149033750Y-97512047D01*
X149029562Y-97515561D01*
X149004740Y-97536389D01*
X148945290Y-97586273D01*
X148938808Y-97597500D01*
X148899365Y-97665818D01*
X148887552Y-97686278D01*
X148867500Y-97800000D01*
X148732500Y-97800000D01*
X148728398Y-97776736D01*
X148727449Y-97765883D01*
X148727449Y-97742262D01*
X148719371Y-97720069D01*
X148716550Y-97709544D01*
X148713398Y-97691664D01*
X148713397Y-97691662D01*
X148712448Y-97686278D01*
X148700632Y-97665812D01*
X148696035Y-97655954D01*
X148687953Y-97633750D01*
X148672771Y-97615657D01*
X148666521Y-97606731D01*
X148657445Y-97591010D01*
X148657445Y-97591009D01*
X148654710Y-97586273D01*
X148636614Y-97571088D01*
X148628912Y-97563386D01*
X148613727Y-97545290D01*
X148615304Y-97543966D01*
X148596811Y-97508435D01*
X148610850Y-97463914D01*
X148612687Y-97462687D01*
X148671757Y-97374281D01*
X148678841Y-97338670D01*
X148686901Y-97298149D01*
X148686901Y-97298146D01*
X148687500Y-97295136D01*
X148687500Y-97173681D01*
X148695873Y-97142431D01*
X148709714Y-97118458D01*
X148709715Y-97118456D01*
X148712448Y-97113722D01*
X148732500Y-97000000D01*
X148867500Y-97000000D01*
X148887552Y-97113722D01*
X148945290Y-97213727D01*
X149033750Y-97287953D01*
X149142262Y-97327449D01*
X149257738Y-97327449D01*
X149366250Y-97287953D01*
X149454710Y-97213727D01*
X149512448Y-97113722D01*
X149532500Y-97000000D01*
X149667500Y-97000000D01*
X149687552Y-97113722D01*
X149745290Y-97213727D01*
X149833750Y-97287953D01*
X149942262Y-97327449D01*
X150057738Y-97327449D01*
X150166250Y-97287953D01*
X150254710Y-97213727D01*
X150312448Y-97113722D01*
X150332500Y-97000000D01*
X150467500Y-97000000D01*
X150487552Y-97113722D01*
X150545290Y-97213727D01*
X150633750Y-97287953D01*
X150742262Y-97327449D01*
X150857738Y-97327449D01*
X150966250Y-97287953D01*
X151054710Y-97213727D01*
X151112448Y-97113722D01*
X151132500Y-97000000D01*
X151112448Y-96886278D01*
X151054710Y-96786273D01*
X150996361Y-96737313D01*
X150970438Y-96715561D01*
X150966250Y-96712047D01*
X150857738Y-96672551D01*
X150742262Y-96672551D01*
X150633750Y-96712047D01*
X150629562Y-96715561D01*
X150603639Y-96737313D01*
X150545290Y-96786273D01*
X150487552Y-96886278D01*
X150467500Y-97000000D01*
X150332500Y-97000000D01*
X150312448Y-96886278D01*
X150254710Y-96786273D01*
X150196361Y-96737313D01*
X150170438Y-96715561D01*
X150166250Y-96712047D01*
X150057738Y-96672551D01*
X149942262Y-96672551D01*
X149833750Y-96712047D01*
X149829562Y-96715561D01*
X149803639Y-96737313D01*
X149745290Y-96786273D01*
X149687552Y-96886278D01*
X149667500Y-97000000D01*
X149532500Y-97000000D01*
X149512448Y-96886278D01*
X149454710Y-96786273D01*
X149396361Y-96737313D01*
X149370438Y-96715561D01*
X149366250Y-96712047D01*
X149257738Y-96672551D01*
X149142262Y-96672551D01*
X149033750Y-96712047D01*
X149029562Y-96715561D01*
X149003639Y-96737313D01*
X148945290Y-96786273D01*
X148887552Y-96886278D01*
X148867500Y-97000000D01*
X148732500Y-97000000D01*
X148712448Y-96886278D01*
X148654710Y-96786273D01*
X148640356Y-96774228D01*
X148628565Y-96761075D01*
X148618034Y-96745315D01*
X148607500Y-96710591D01*
X148607500Y-96489409D01*
X148618034Y-96454685D01*
X148628565Y-96438925D01*
X148640356Y-96425772D01*
X148650522Y-96417241D01*
X148654710Y-96413727D01*
X148693924Y-96345806D01*
X148709714Y-96318458D01*
X148709715Y-96318456D01*
X148712448Y-96313722D01*
X148732500Y-96200000D01*
X148867500Y-96200000D01*
X148887552Y-96313722D01*
X148890285Y-96318456D01*
X148890286Y-96318458D01*
X148906076Y-96345806D01*
X148945290Y-96413727D01*
X148949478Y-96417241D01*
X149007770Y-96466153D01*
X149033750Y-96487953D01*
X149142262Y-96527449D01*
X149257738Y-96527449D01*
X149366250Y-96487953D01*
X149392231Y-96466153D01*
X149450522Y-96417241D01*
X149454710Y-96413727D01*
X149493924Y-96345806D01*
X149509714Y-96318458D01*
X149509715Y-96318456D01*
X149512448Y-96313722D01*
X149532500Y-96200000D01*
X149512448Y-96086278D01*
X149509570Y-96081292D01*
X149457443Y-95991007D01*
X149454710Y-95986273D01*
X149366250Y-95912047D01*
X149257738Y-95872551D01*
X149142262Y-95872551D01*
X149033750Y-95912047D01*
X148945290Y-95986273D01*
X148942557Y-95991007D01*
X148890431Y-96081292D01*
X148887552Y-96086278D01*
X148867500Y-96200000D01*
X148732500Y-96200000D01*
X148712448Y-96086278D01*
X148709570Y-96081292D01*
X148695873Y-96057569D01*
X148687500Y-96026319D01*
X148687500Y-95904864D01*
X148686165Y-95898149D01*
X148674522Y-95839621D01*
X148671757Y-95825719D01*
X148612687Y-95737313D01*
X148613142Y-95737009D01*
X148596573Y-95697009D01*
X148613999Y-95654939D01*
X148613727Y-95654710D01*
X148614452Y-95653846D01*
X148628912Y-95636614D01*
X148636614Y-95628912D01*
X148650520Y-95617243D01*
X148650523Y-95617240D01*
X148654710Y-95613727D01*
X148666522Y-95593268D01*
X148672771Y-95584343D01*
X148684438Y-95570439D01*
X148684439Y-95570438D01*
X148687953Y-95566250D01*
X148696035Y-95544046D01*
X148700632Y-95534188D01*
X148712448Y-95513722D01*
X148713397Y-95508338D01*
X148713398Y-95508336D01*
X148716550Y-95490456D01*
X148719371Y-95479931D01*
X148725578Y-95462878D01*
X148727449Y-95457738D01*
X148727449Y-95434117D01*
X148728398Y-95423264D01*
X148731551Y-95405382D01*
X148732500Y-95400000D01*
X148728398Y-95376736D01*
X148727449Y-95365883D01*
X148727449Y-95342262D01*
X148719371Y-95320069D01*
X148716550Y-95309544D01*
X148713398Y-95291664D01*
X148713397Y-95291660D01*
X148712448Y-95286278D01*
X148700632Y-95265812D01*
X148696035Y-95255954D01*
X148687953Y-95233750D01*
X148672771Y-95215657D01*
X148666521Y-95206731D01*
X148657445Y-95191010D01*
X148657445Y-95191009D01*
X148654710Y-95186273D01*
X148636614Y-95171088D01*
X148628912Y-95163386D01*
X148613727Y-95145290D01*
X148615304Y-95143966D01*
X148596811Y-95108435D01*
X148610850Y-95063914D01*
X148612687Y-95062687D01*
X148671757Y-94974281D01*
X148679740Y-94934150D01*
X148686901Y-94898149D01*
X148686901Y-94898146D01*
X148687500Y-94895136D01*
X148687500Y-94773681D01*
X148695873Y-94742431D01*
X148709714Y-94718458D01*
X148709715Y-94718456D01*
X148712448Y-94713722D01*
X148732500Y-94600000D01*
X148712448Y-94486278D01*
X148696176Y-94458093D01*
X148657443Y-94391007D01*
X148654710Y-94386273D01*
X148640356Y-94374228D01*
X148628565Y-94361075D01*
X148618034Y-94345315D01*
X148607500Y-94310591D01*
X148607500Y-94089409D01*
X148618034Y-94054685D01*
X148628565Y-94038925D01*
X148640356Y-94025772D01*
X148650522Y-94017241D01*
X148654710Y-94013727D01*
X148695580Y-93942939D01*
X148709714Y-93918458D01*
X148709715Y-93918456D01*
X148712448Y-93913722D01*
X148732500Y-93800000D01*
X148712448Y-93686278D01*
X148704494Y-93672500D01*
X148695873Y-93657569D01*
X148687500Y-93626319D01*
X148687500Y-93504864D01*
X148682567Y-93480061D01*
X148674564Y-93439832D01*
X148671757Y-93425719D01*
X148612687Y-93337313D01*
X148613142Y-93337009D01*
X148596573Y-93297009D01*
X148613999Y-93254939D01*
X148613727Y-93254710D01*
X148614452Y-93253846D01*
X148628912Y-93236614D01*
X148636614Y-93228912D01*
X148650520Y-93217243D01*
X148650522Y-93217241D01*
X148654710Y-93213727D01*
X148666522Y-93193268D01*
X148672771Y-93184343D01*
X148684438Y-93170439D01*
X148684439Y-93170438D01*
X148687953Y-93166250D01*
X148696035Y-93144046D01*
X148700632Y-93134188D01*
X148712448Y-93113722D01*
X148713397Y-93108338D01*
X148713398Y-93108336D01*
X148716550Y-93090456D01*
X148719371Y-93079931D01*
X148725578Y-93062878D01*
X148727449Y-93057738D01*
X148727449Y-93034117D01*
X148728398Y-93023264D01*
X148731551Y-93005382D01*
X148732500Y-93000000D01*
X148867500Y-93000000D01*
X148887552Y-93113722D01*
X148890285Y-93118456D01*
X148890286Y-93118458D01*
X148902098Y-93138917D01*
X148945290Y-93213727D01*
X148953692Y-93220777D01*
X149014737Y-93271999D01*
X149033750Y-93287953D01*
X149142262Y-93327449D01*
X149257738Y-93327449D01*
X149366250Y-93287953D01*
X149385264Y-93271999D01*
X149446308Y-93220777D01*
X149454710Y-93213727D01*
X149497902Y-93138917D01*
X149509714Y-93118458D01*
X149509715Y-93118456D01*
X149512448Y-93113722D01*
X149532500Y-93000000D01*
X149512448Y-92886278D01*
X149500636Y-92865818D01*
X149457443Y-92791007D01*
X149454710Y-92786273D01*
X149391792Y-92733479D01*
X149370438Y-92715561D01*
X149366250Y-92712047D01*
X149268346Y-92676412D01*
X149262876Y-92674421D01*
X149262875Y-92674421D01*
X149257738Y-92672551D01*
X149142262Y-92672551D01*
X149137125Y-92674421D01*
X149137124Y-92674421D01*
X149131654Y-92676412D01*
X149033750Y-92712047D01*
X149029562Y-92715561D01*
X149008208Y-92733479D01*
X148945290Y-92786273D01*
X148942557Y-92791007D01*
X148899365Y-92865818D01*
X148887552Y-92886278D01*
X148867500Y-93000000D01*
X148732500Y-93000000D01*
X148728398Y-92976736D01*
X148727449Y-92965883D01*
X148727449Y-92942262D01*
X148719371Y-92920069D01*
X148716550Y-92909544D01*
X148713398Y-92891664D01*
X148713397Y-92891662D01*
X148712448Y-92886278D01*
X148700632Y-92865812D01*
X148696035Y-92855954D01*
X148687953Y-92833750D01*
X148672771Y-92815657D01*
X148666521Y-92806731D01*
X148657445Y-92791010D01*
X148657445Y-92791009D01*
X148654710Y-92786273D01*
X148636614Y-92771088D01*
X148628912Y-92763386D01*
X148617243Y-92749480D01*
X148613727Y-92745290D01*
X148593268Y-92733478D01*
X148584343Y-92727229D01*
X148570439Y-92715562D01*
X148566250Y-92712047D01*
X148544046Y-92703965D01*
X148534188Y-92699368D01*
X148513722Y-92687552D01*
X148508338Y-92686603D01*
X148508336Y-92686602D01*
X148490456Y-92683450D01*
X148479931Y-92680629D01*
X148478228Y-92680009D01*
X148457738Y-92672551D01*
X148428940Y-92672551D01*
X148428549Y-92672534D01*
X148428357Y-92672500D01*
X147726437Y-92672500D01*
X147720990Y-92672262D01*
X147712735Y-92671540D01*
X147681020Y-92668765D01*
X147675740Y-92670180D01*
X147675738Y-92670180D01*
X147641701Y-92679301D01*
X147636376Y-92680482D01*
X147630615Y-92681498D01*
X147596278Y-92687552D01*
X147591545Y-92690285D01*
X147591544Y-92690285D01*
X147590732Y-92690754D01*
X147575659Y-92696997D01*
X147569479Y-92698653D01*
X147536121Y-92722010D01*
X147531534Y-92724932D01*
X147496273Y-92745290D01*
X147492758Y-92749479D01*
X147492757Y-92749480D01*
X147470481Y-92776028D01*
X147466797Y-92780048D01*
X147100048Y-93146797D01*
X147096028Y-93150481D01*
X147065290Y-93176273D01*
X147062557Y-93181007D01*
X147062556Y-93181008D01*
X147044932Y-93211533D01*
X147042003Y-93216129D01*
X147018652Y-93249479D01*
X147017238Y-93254757D01*
X147017237Y-93254759D01*
X147016994Y-93255667D01*
X147010752Y-93270735D01*
X147010289Y-93271537D01*
X147007552Y-93276278D01*
X147006602Y-93281664D01*
X147006602Y-93281665D01*
X147001877Y-93308463D01*
X146986975Y-93337087D01*
X146987313Y-93337313D01*
X146928243Y-93425719D01*
X146925436Y-93439832D01*
X146917434Y-93480061D01*
X146912500Y-93504864D01*
X146912500Y-93895136D01*
X146913099Y-93898146D01*
X146913099Y-93898149D01*
X146921159Y-93938670D01*
X146928243Y-93974281D01*
X146971436Y-94038925D01*
X146981967Y-94054686D01*
X146992500Y-94089409D01*
X146992500Y-94310591D01*
X146981967Y-94345314D01*
X146928243Y-94425719D01*
X146923799Y-94448060D01*
X146914210Y-94496269D01*
X146912500Y-94504864D01*
X146912500Y-94895136D01*
X146913099Y-94898146D01*
X146913099Y-94898149D01*
X146920260Y-94934150D01*
X146928243Y-94974281D01*
X146960271Y-95022215D01*
X146981967Y-95054686D01*
X146992500Y-95089409D01*
X146992500Y-95710591D01*
X146981967Y-95745314D01*
X146928243Y-95825719D01*
X146925478Y-95839621D01*
X146913836Y-95898149D01*
X146912500Y-95904864D01*
X146912500Y-96295136D01*
X146913099Y-96298146D01*
X146913099Y-96298149D01*
X146919361Y-96329630D01*
X146928243Y-96374281D01*
X146961569Y-96424157D01*
X146981967Y-96454686D01*
X146992500Y-96489409D01*
X146992500Y-96710591D01*
X146981967Y-96745314D01*
X146928243Y-96825719D01*
X146927042Y-96831758D01*
X146914210Y-96896269D01*
X146912500Y-96904864D01*
X146912500Y-97295136D01*
X146913099Y-97298146D01*
X146913099Y-97298149D01*
X146921159Y-97338670D01*
X146928243Y-97374281D01*
X146931664Y-97379401D01*
X146934019Y-97385087D01*
X146932835Y-97385577D01*
X146940916Y-97426191D01*
X146914342Y-97465967D01*
X146868306Y-97475127D01*
X146868263Y-97475371D01*
X146867636Y-97475260D01*
X146867427Y-97475302D01*
X146866666Y-97475089D01*
X146862875Y-97474421D01*
X146857738Y-97472551D01*
X146742262Y-97472551D01*
X146737125Y-97474421D01*
X146737124Y-97474421D01*
X146734819Y-97475260D01*
X146633750Y-97512047D01*
X146629562Y-97515561D01*
X146604740Y-97536389D01*
X146545290Y-97586273D01*
X146538808Y-97597500D01*
X146499365Y-97665818D01*
X146487552Y-97686278D01*
X146467500Y-97800000D01*
X146332500Y-97800000D01*
X146312448Y-97686278D01*
X146300636Y-97665818D01*
X146261192Y-97597500D01*
X146254710Y-97586273D01*
X146222326Y-97559100D01*
X146200238Y-97516670D01*
X146200000Y-97511222D01*
X146200000Y-97288778D01*
X146218306Y-97244584D01*
X146222326Y-97240900D01*
X146250522Y-97217241D01*
X146254710Y-97213727D01*
X146312448Y-97113722D01*
X146332500Y-97000000D01*
X146312448Y-96886278D01*
X146254710Y-96786273D01*
X146222326Y-96759100D01*
X146200238Y-96716670D01*
X146200000Y-96711222D01*
X146200000Y-96488778D01*
X146218306Y-96444584D01*
X146222326Y-96440900D01*
X146250522Y-96417241D01*
X146254710Y-96413727D01*
X146293924Y-96345806D01*
X146309714Y-96318458D01*
X146309715Y-96318456D01*
X146312448Y-96313722D01*
X146332500Y-96200000D01*
X146312448Y-96086278D01*
X146309570Y-96081292D01*
X146257443Y-95991007D01*
X146254710Y-95986273D01*
X146222326Y-95959100D01*
X146200238Y-95916670D01*
X146200000Y-95911222D01*
X146200000Y-95688778D01*
X146218306Y-95644584D01*
X146222326Y-95640900D01*
X146227500Y-95636559D01*
X146254710Y-95613727D01*
X146297902Y-95538917D01*
X146309714Y-95518458D01*
X146309715Y-95518456D01*
X146312448Y-95513722D01*
X146332500Y-95400000D01*
X146312448Y-95286278D01*
X146300636Y-95265818D01*
X146257443Y-95191007D01*
X146254710Y-95186273D01*
X146222326Y-95159100D01*
X146200238Y-95116670D01*
X146200000Y-95111222D01*
X146200000Y-93288778D01*
X146218306Y-93244584D01*
X146222326Y-93240900D01*
X146247704Y-93219606D01*
X146254710Y-93213727D01*
X146297902Y-93138917D01*
X146309714Y-93118458D01*
X146309715Y-93118456D01*
X146312448Y-93113722D01*
X146332500Y-93000000D01*
X146312448Y-92886278D01*
X146300636Y-92865818D01*
X146257443Y-92791007D01*
X146254710Y-92786273D01*
X146222326Y-92759100D01*
X146200238Y-92716670D01*
X146200000Y-92711222D01*
X146200000Y-92488778D01*
X146218306Y-92444584D01*
X146222326Y-92440900D01*
X146243018Y-92423538D01*
X146254710Y-92413727D01*
X146312448Y-92313722D01*
X146332500Y-92200000D01*
X146312448Y-92086278D01*
X146294109Y-92054513D01*
X146267831Y-92009000D01*
X146254710Y-91986273D01*
X146222326Y-91959100D01*
X146200238Y-91916670D01*
X146200000Y-91911222D01*
X146200000Y-91688778D01*
X146218306Y-91644584D01*
X146222326Y-91640900D01*
X146243018Y-91623538D01*
X146254710Y-91613727D01*
X146303594Y-91529058D01*
X146309714Y-91518458D01*
X146309715Y-91518456D01*
X146312448Y-91513722D01*
X146332500Y-91400000D01*
X146312448Y-91286278D01*
X146294392Y-91255003D01*
X146257443Y-91191007D01*
X146254710Y-91186273D01*
X146222326Y-91159100D01*
X146220121Y-91154864D01*
X147062500Y-91154864D01*
X147062500Y-91485136D01*
X147078243Y-91564281D01*
X147137313Y-91652687D01*
X147225719Y-91711757D01*
X147261330Y-91718841D01*
X147301851Y-91726901D01*
X147301854Y-91726901D01*
X147304864Y-91727500D01*
X147695136Y-91727500D01*
X147698146Y-91726901D01*
X147698149Y-91726901D01*
X147738670Y-91718841D01*
X147774281Y-91711757D01*
X147854686Y-91658033D01*
X147889409Y-91647500D01*
X148110591Y-91647500D01*
X148145314Y-91658033D01*
X148225719Y-91711757D01*
X148261330Y-91718841D01*
X148301851Y-91726901D01*
X148301854Y-91726901D01*
X148304864Y-91727500D01*
X148695136Y-91727500D01*
X148698146Y-91726901D01*
X148698149Y-91726901D01*
X148738670Y-91718841D01*
X148774281Y-91711757D01*
X148779400Y-91708336D01*
X148785087Y-91705981D01*
X148786297Y-91708903D01*
X148822172Y-91701755D01*
X148861955Y-91728317D01*
X148872500Y-91763058D01*
X148872500Y-92166172D01*
X148871551Y-92177025D01*
X148867500Y-92200000D01*
X148887552Y-92313722D01*
X148945290Y-92413727D01*
X149033750Y-92487953D01*
X149142262Y-92527449D01*
X149257738Y-92527449D01*
X149366250Y-92487953D01*
X149454710Y-92413727D01*
X149512448Y-92313722D01*
X149532500Y-92200000D01*
X149667500Y-92200000D01*
X149687552Y-92313722D01*
X149745290Y-92413727D01*
X149833750Y-92487953D01*
X149942262Y-92527449D01*
X150057738Y-92527449D01*
X150166250Y-92487953D01*
X150254710Y-92413727D01*
X150312448Y-92313722D01*
X150332500Y-92200000D01*
X150467500Y-92200000D01*
X150487552Y-92313722D01*
X150545290Y-92413727D01*
X150633750Y-92487953D01*
X150742262Y-92527449D01*
X150857738Y-92527449D01*
X150966250Y-92487953D01*
X151054710Y-92413727D01*
X151112448Y-92313722D01*
X151132500Y-92200000D01*
X151112448Y-92086278D01*
X151094109Y-92054513D01*
X151067831Y-92009000D01*
X151054710Y-91986273D01*
X151001659Y-91941758D01*
X150970438Y-91915561D01*
X150966250Y-91912047D01*
X150857738Y-91872551D01*
X150742262Y-91872551D01*
X150633750Y-91912047D01*
X150629562Y-91915561D01*
X150598341Y-91941758D01*
X150545290Y-91986273D01*
X150532169Y-92009000D01*
X150505892Y-92054513D01*
X150487552Y-92086278D01*
X150467500Y-92200000D01*
X150332500Y-92200000D01*
X150312448Y-92086278D01*
X150294109Y-92054513D01*
X150267831Y-92009000D01*
X150254710Y-91986273D01*
X150201659Y-91941758D01*
X150170438Y-91915561D01*
X150166250Y-91912047D01*
X150057738Y-91872551D01*
X149942262Y-91872551D01*
X149833750Y-91912047D01*
X149829562Y-91915561D01*
X149798341Y-91941758D01*
X149745290Y-91986273D01*
X149732169Y-92009000D01*
X149705892Y-92054513D01*
X149687552Y-92086278D01*
X149667500Y-92200000D01*
X149532500Y-92200000D01*
X149528449Y-92177025D01*
X149527500Y-92166172D01*
X149527500Y-91616437D01*
X149527738Y-91610989D01*
X149528545Y-91601764D01*
X149531235Y-91571021D01*
X149520700Y-91531704D01*
X149519519Y-91526381D01*
X149513397Y-91491663D01*
X149512448Y-91486278D01*
X149509713Y-91481541D01*
X149509712Y-91481538D01*
X149509246Y-91480731D01*
X149503006Y-91465667D01*
X149502764Y-91464764D01*
X149502764Y-91464763D01*
X149501348Y-91459480D01*
X149490339Y-91443757D01*
X149477997Y-91426130D01*
X149475068Y-91421532D01*
X149457446Y-91391011D01*
X149457444Y-91391009D01*
X149454710Y-91386273D01*
X149423972Y-91360481D01*
X149419952Y-91356797D01*
X149163203Y-91100048D01*
X149159519Y-91096028D01*
X149139820Y-91072551D01*
X149133727Y-91065290D01*
X149098467Y-91044932D01*
X149093870Y-91042003D01*
X149088013Y-91037902D01*
X149062311Y-90997559D01*
X149072664Y-90950857D01*
X149113007Y-90925155D01*
X149134712Y-90925154D01*
X149137126Y-90925580D01*
X149142262Y-90927449D01*
X149257738Y-90927449D01*
X149264044Y-90925154D01*
X149298809Y-90912500D01*
X149366250Y-90887953D01*
X149454710Y-90813727D01*
X149476139Y-90776611D01*
X149509714Y-90718458D01*
X149509715Y-90718456D01*
X149512448Y-90713722D01*
X149532500Y-90600000D01*
X149512448Y-90486278D01*
X149454710Y-90386273D01*
X149366250Y-90312047D01*
X149257738Y-90272551D01*
X149142262Y-90272551D01*
X149033750Y-90312047D01*
X148945290Y-90386273D01*
X148887552Y-90486278D01*
X148867500Y-90600000D01*
X148887552Y-90713722D01*
X148890285Y-90718456D01*
X148890286Y-90718458D01*
X148923861Y-90776611D01*
X148945290Y-90813727D01*
X149017680Y-90874469D01*
X149033750Y-90887953D01*
X149031758Y-90890327D01*
X149054519Y-90919966D01*
X149048293Y-90967395D01*
X149010354Y-90996529D01*
X148977981Y-90996536D01*
X148948979Y-90988765D01*
X148912966Y-90991916D01*
X148909011Y-90992262D01*
X148903563Y-90992500D01*
X148889409Y-90992500D01*
X148854686Y-90981967D01*
X148837674Y-90970600D01*
X148774281Y-90928243D01*
X148707031Y-90914866D01*
X148698148Y-90913099D01*
X148698147Y-90913099D01*
X148695136Y-90912500D01*
X148695288Y-90911735D01*
X148655584Y-90890512D01*
X148641699Y-90844736D01*
X148654736Y-90813742D01*
X148654710Y-90813727D01*
X148654827Y-90813524D01*
X148667694Y-90791238D01*
X148709714Y-90718458D01*
X148709715Y-90718456D01*
X148712448Y-90713722D01*
X148732500Y-90600000D01*
X148712448Y-90486278D01*
X148654710Y-90386273D01*
X148566250Y-90312047D01*
X148457738Y-90272551D01*
X148342262Y-90272551D01*
X148233750Y-90312047D01*
X148145290Y-90386273D01*
X148087552Y-90486278D01*
X148067500Y-90600000D01*
X148087552Y-90713722D01*
X148090285Y-90718456D01*
X148090286Y-90718458D01*
X148123861Y-90776611D01*
X148145290Y-90813727D01*
X148161158Y-90827042D01*
X148193094Y-90853839D01*
X148215182Y-90896270D01*
X148200798Y-90941891D01*
X148187643Y-90953684D01*
X148145314Y-90981967D01*
X148110591Y-90992500D01*
X147889409Y-90992500D01*
X147854686Y-90981967D01*
X147837674Y-90970600D01*
X147774281Y-90928243D01*
X147732670Y-90919966D01*
X147698149Y-90913099D01*
X147698146Y-90913099D01*
X147695136Y-90912500D01*
X147304864Y-90912500D01*
X147301854Y-90913099D01*
X147301851Y-90913099D01*
X147267330Y-90919966D01*
X147225719Y-90928243D01*
X147137313Y-90987313D01*
X147078243Y-91075719D01*
X147077042Y-91081758D01*
X147064164Y-91146500D01*
X147062500Y-91154864D01*
X146220121Y-91154864D01*
X146200238Y-91116670D01*
X146200000Y-91111222D01*
X146200000Y-90888778D01*
X146218306Y-90844584D01*
X146222326Y-90840900D01*
X146238842Y-90827042D01*
X146254710Y-90813727D01*
X146276139Y-90776611D01*
X146309714Y-90718458D01*
X146309715Y-90718456D01*
X146312448Y-90713722D01*
X146332500Y-90600000D01*
X146312448Y-90486278D01*
X146254710Y-90386273D01*
X146166250Y-90312047D01*
X146161113Y-90310177D01*
X146161109Y-90310175D01*
X146088519Y-90283753D01*
X146070657Y-90270657D01*
X146031056Y-90231056D01*
X146012750Y-90186862D01*
X146031056Y-90142668D01*
X146058144Y-90128564D01*
X146057738Y-90127449D01*
X146166250Y-90087953D01*
X146254710Y-90013727D01*
X146312448Y-89913722D01*
X146332500Y-89800000D01*
X146312448Y-89686278D01*
X146254710Y-89586273D01*
X146166250Y-89512047D01*
X146057738Y-89472551D01*
X145968554Y-89472551D01*
X145924360Y-89454245D01*
X145765813Y-89295699D01*
X145761358Y-89289412D01*
X145760820Y-89289840D01*
X145756436Y-89284329D01*
X145753391Y-89277987D01*
X145747897Y-89273594D01*
X145747896Y-89273592D01*
X145729685Y-89259029D01*
X145724526Y-89254412D01*
X145719558Y-89249444D01*
X145713870Y-89245869D01*
X145708118Y-89241782D01*
X145685305Y-89223538D01*
X145678447Y-89221961D01*
X145674682Y-89220141D01*
X145670739Y-89218760D01*
X145664781Y-89215015D01*
X145635777Y-89211737D01*
X145628786Y-89210541D01*
X145625529Y-89209792D01*
X145625528Y-89209792D01*
X145622085Y-89209000D01*
X145615090Y-89209000D01*
X145608069Y-89208604D01*
X145585149Y-89206013D01*
X145578152Y-89205222D01*
X145572694Y-89207128D01*
X145527439Y-89194065D01*
X145504321Y-89152186D01*
X145510114Y-89124421D01*
X145507844Y-89123595D01*
X145509713Y-89118458D01*
X145512448Y-89113722D01*
X145532500Y-89000000D01*
X145512448Y-88886278D01*
X145454710Y-88786273D01*
X145366250Y-88712047D01*
X145257738Y-88672551D01*
X145142262Y-88672551D01*
X145033750Y-88712047D01*
X144945290Y-88786273D01*
X144887552Y-88886278D01*
X144886603Y-88891659D01*
X144886600Y-88891668D01*
X144878229Y-88939144D01*
X144852527Y-88979488D01*
X144805826Y-88989841D01*
X144772485Y-88972485D01*
X144731985Y-88931985D01*
X144714628Y-88898642D01*
X144713398Y-88891664D01*
X144713397Y-88891662D01*
X144712448Y-88886278D01*
X144654710Y-88786273D01*
X144566250Y-88712047D01*
X144524175Y-88696733D01*
X144494046Y-88685766D01*
X144471229Y-88671229D01*
X144000000Y-88200000D01*
X144867500Y-88200000D01*
X144887552Y-88313722D01*
X144945290Y-88413727D01*
X145033750Y-88487953D01*
X145142262Y-88527449D01*
X145257738Y-88527449D01*
X145366250Y-88487953D01*
X145454710Y-88413727D01*
X145512448Y-88313722D01*
X145532500Y-88200000D01*
X145512448Y-88086278D01*
X145454710Y-87986273D01*
X145366250Y-87912047D01*
X145283130Y-87881793D01*
X145262876Y-87874421D01*
X145262875Y-87874421D01*
X145257738Y-87872551D01*
X145142262Y-87872551D01*
X145137125Y-87874421D01*
X145137124Y-87874421D01*
X145116870Y-87881793D01*
X145033750Y-87912047D01*
X144945290Y-87986273D01*
X144887552Y-88086278D01*
X144867500Y-88200000D01*
X144000000Y-88200000D01*
X141200000Y-85400000D01*
X136312094Y-85400000D01*
X136303936Y-85399465D01*
X136184681Y-85383764D01*
X136168922Y-85379542D01*
X136061600Y-85335089D01*
X136047477Y-85326935D01*
X135955310Y-85256213D01*
X135943787Y-85244690D01*
X135873065Y-85152523D01*
X135864911Y-85138400D01*
X135820458Y-85031078D01*
X135816236Y-85015319D01*
X135800535Y-84896064D01*
X135800000Y-84887906D01*
X135800000Y-84712094D01*
X135800535Y-84703936D01*
X135816236Y-84584681D01*
X135820458Y-84568922D01*
X135864911Y-84461600D01*
X135873065Y-84447477D01*
X135943787Y-84355310D01*
X135955310Y-84343787D01*
X136047477Y-84273065D01*
X136061600Y-84264911D01*
X136168922Y-84220458D01*
X136184681Y-84216236D01*
X136303936Y-84200535D01*
X136312094Y-84200000D01*
X142585486Y-84200000D01*
X142593644Y-84200535D01*
G37*
%TD.AperFunction*%
%TD*%
M02*
