%TF.GenerationSoftware,KiCad,Pcbnew,(5.99.0-10579-g11785b08fe)*%
%TF.CreationDate,2021-05-20T20:29:29+02:00*%
%TF.ProjectId,Mainboard,4d61696e-626f-4617-9264-2e6b69636164,1*%
%TF.SameCoordinates,Original*%
%TF.FileFunction,Legend,Top*%
%TF.FilePolarity,Positive*%
%FSLAX46Y46*%
G04 Gerber Fmt 4.6, Leading zero omitted, Abs format (unit mm)*
G04 Created by KiCad (PCBNEW (5.99.0-10579-g11785b08fe)) date 2021-05-20 20:29:29*
%MOMM*%
%LPD*%
G01*
G04 APERTURE LIST*
%ADD10C,0.150000*%
%ADD11C,0.120000*%
G04 APERTURE END LIST*
D10*
X165040714Y-116794166D02*
X165516904Y-116794166D01*
X164945476Y-117079880D02*
X165278809Y-116079880D01*
X165612142Y-117079880D01*
X165945476Y-117079880D02*
X165945476Y-116079880D01*
X166183571Y-116079880D01*
X166326428Y-116127500D01*
X166421666Y-116222738D01*
X166469285Y-116317976D01*
X166516904Y-116508452D01*
X166516904Y-116651309D01*
X166469285Y-116841785D01*
X166421666Y-116937023D01*
X166326428Y-117032261D01*
X166183571Y-117079880D01*
X165945476Y-117079880D01*
X167516904Y-116984642D02*
X167469285Y-117032261D01*
X167326428Y-117079880D01*
X167231190Y-117079880D01*
X167088333Y-117032261D01*
X166993095Y-116937023D01*
X166945476Y-116841785D01*
X166897857Y-116651309D01*
X166897857Y-116508452D01*
X166945476Y-116317976D01*
X166993095Y-116222738D01*
X167088333Y-116127500D01*
X167231190Y-116079880D01*
X167326428Y-116079880D01*
X167469285Y-116127500D01*
X167516904Y-116175119D01*
X168469285Y-117079880D02*
X167897857Y-117079880D01*
X168183571Y-117079880D02*
X168183571Y-116079880D01*
X168088333Y-116222738D01*
X167993095Y-116317976D01*
X167897857Y-116365595D01*
X128258333Y-109459880D02*
X128258333Y-108459880D01*
X128496428Y-108459880D01*
X128639285Y-108507500D01*
X128734523Y-108602738D01*
X128782142Y-108697976D01*
X128829761Y-108888452D01*
X128829761Y-109031309D01*
X128782142Y-109221785D01*
X128734523Y-109317023D01*
X128639285Y-109412261D01*
X128496428Y-109459880D01*
X128258333Y-109459880D01*
X129210714Y-109174166D02*
X129686904Y-109174166D01*
X129115476Y-109459880D02*
X129448809Y-108459880D01*
X129782142Y-109459880D01*
X130686904Y-109364642D02*
X130639285Y-109412261D01*
X130496428Y-109459880D01*
X130401190Y-109459880D01*
X130258333Y-109412261D01*
X130163095Y-109317023D01*
X130115476Y-109221785D01*
X130067857Y-109031309D01*
X130067857Y-108888452D01*
X130115476Y-108697976D01*
X130163095Y-108602738D01*
X130258333Y-108507500D01*
X130401190Y-108459880D01*
X130496428Y-108459880D01*
X130639285Y-108507500D01*
X130686904Y-108555119D01*
X131020238Y-108459880D02*
X131639285Y-108459880D01*
X131305952Y-108840833D01*
X131448809Y-108840833D01*
X131544047Y-108888452D01*
X131591666Y-108936071D01*
X131639285Y-109031309D01*
X131639285Y-109269404D01*
X131591666Y-109364642D01*
X131544047Y-109412261D01*
X131448809Y-109459880D01*
X131163095Y-109459880D01*
X131067857Y-109412261D01*
X131020238Y-109364642D01*
X156150714Y-116794166D02*
X156626904Y-116794166D01*
X156055476Y-117079880D02*
X156388809Y-116079880D01*
X156722142Y-117079880D01*
X157055476Y-117079880D02*
X157055476Y-116079880D01*
X157293571Y-116079880D01*
X157436428Y-116127500D01*
X157531666Y-116222738D01*
X157579285Y-116317976D01*
X157626904Y-116508452D01*
X157626904Y-116651309D01*
X157579285Y-116841785D01*
X157531666Y-116937023D01*
X157436428Y-117032261D01*
X157293571Y-117079880D01*
X157055476Y-117079880D01*
X158626904Y-116984642D02*
X158579285Y-117032261D01*
X158436428Y-117079880D01*
X158341190Y-117079880D01*
X158198333Y-117032261D01*
X158103095Y-116937023D01*
X158055476Y-116841785D01*
X158007857Y-116651309D01*
X158007857Y-116508452D01*
X158055476Y-116317976D01*
X158103095Y-116222738D01*
X158198333Y-116127500D01*
X158341190Y-116079880D01*
X158436428Y-116079880D01*
X158579285Y-116127500D01*
X158626904Y-116175119D01*
X159007857Y-116175119D02*
X159055476Y-116127500D01*
X159150714Y-116079880D01*
X159388809Y-116079880D01*
X159484047Y-116127500D01*
X159531666Y-116175119D01*
X159579285Y-116270357D01*
X159579285Y-116365595D01*
X159531666Y-116508452D01*
X158960238Y-117079880D01*
X159579285Y-117079880D01*
X146038333Y-109459880D02*
X146038333Y-108459880D01*
X146276428Y-108459880D01*
X146419285Y-108507500D01*
X146514523Y-108602738D01*
X146562142Y-108697976D01*
X146609761Y-108888452D01*
X146609761Y-109031309D01*
X146562142Y-109221785D01*
X146514523Y-109317023D01*
X146419285Y-109412261D01*
X146276428Y-109459880D01*
X146038333Y-109459880D01*
X146990714Y-109174166D02*
X147466904Y-109174166D01*
X146895476Y-109459880D02*
X147228809Y-108459880D01*
X147562142Y-109459880D01*
X148466904Y-109364642D02*
X148419285Y-109412261D01*
X148276428Y-109459880D01*
X148181190Y-109459880D01*
X148038333Y-109412261D01*
X147943095Y-109317023D01*
X147895476Y-109221785D01*
X147847857Y-109031309D01*
X147847857Y-108888452D01*
X147895476Y-108697976D01*
X147943095Y-108602738D01*
X148038333Y-108507500D01*
X148181190Y-108459880D01*
X148276428Y-108459880D01*
X148419285Y-108507500D01*
X148466904Y-108555119D01*
X149419285Y-109459880D02*
X148847857Y-109459880D01*
X149133571Y-109459880D02*
X149133571Y-108459880D01*
X149038333Y-108602738D01*
X148943095Y-108697976D01*
X148847857Y-108745595D01*
X137148333Y-109459880D02*
X137148333Y-108459880D01*
X137386428Y-108459880D01*
X137529285Y-108507500D01*
X137624523Y-108602738D01*
X137672142Y-108697976D01*
X137719761Y-108888452D01*
X137719761Y-109031309D01*
X137672142Y-109221785D01*
X137624523Y-109317023D01*
X137529285Y-109412261D01*
X137386428Y-109459880D01*
X137148333Y-109459880D01*
X138100714Y-109174166D02*
X138576904Y-109174166D01*
X138005476Y-109459880D02*
X138338809Y-108459880D01*
X138672142Y-109459880D01*
X139576904Y-109364642D02*
X139529285Y-109412261D01*
X139386428Y-109459880D01*
X139291190Y-109459880D01*
X139148333Y-109412261D01*
X139053095Y-109317023D01*
X139005476Y-109221785D01*
X138957857Y-109031309D01*
X138957857Y-108888452D01*
X139005476Y-108697976D01*
X139053095Y-108602738D01*
X139148333Y-108507500D01*
X139291190Y-108459880D01*
X139386428Y-108459880D01*
X139529285Y-108507500D01*
X139576904Y-108555119D01*
X139957857Y-108555119D02*
X140005476Y-108507500D01*
X140100714Y-108459880D01*
X140338809Y-108459880D01*
X140434047Y-108507500D01*
X140481666Y-108555119D01*
X140529285Y-108650357D01*
X140529285Y-108745595D01*
X140481666Y-108888452D01*
X139910238Y-109459880D01*
X140529285Y-109459880D01*
X134804523Y-119411904D02*
X134804523Y-118611904D01*
X134995000Y-118611904D01*
X135109285Y-118650000D01*
X135185476Y-118726190D01*
X135223571Y-118802380D01*
X135261666Y-118954761D01*
X135261666Y-119069047D01*
X135223571Y-119221428D01*
X135185476Y-119297619D01*
X135109285Y-119373809D01*
X134995000Y-119411904D01*
X134804523Y-119411904D01*
X135604523Y-119411904D02*
X135604523Y-118611904D01*
X135452142Y-113912857D02*
X135566428Y-113950952D01*
X135604523Y-113989047D01*
X135642619Y-114065238D01*
X135642619Y-114179523D01*
X135604523Y-114255714D01*
X135566428Y-114293809D01*
X135490238Y-114331904D01*
X135185476Y-114331904D01*
X135185476Y-113531904D01*
X135452142Y-113531904D01*
X135528333Y-113570000D01*
X135566428Y-113608095D01*
X135604523Y-113684285D01*
X135604523Y-113760476D01*
X135566428Y-113836666D01*
X135528333Y-113874761D01*
X135452142Y-113912857D01*
X135185476Y-113912857D01*
X135071190Y-111791904D02*
X135071190Y-110991904D01*
X135337857Y-111563333D01*
X135604523Y-110991904D01*
X135604523Y-111791904D01*
X134918809Y-116871904D02*
X134537857Y-116871904D01*
X134537857Y-116071904D01*
X135642619Y-116871904D02*
X135375952Y-116490952D01*
X135185476Y-116871904D02*
X135185476Y-116071904D01*
X135490238Y-116071904D01*
X135566428Y-116110000D01*
X135604523Y-116148095D01*
X135642619Y-116224285D01*
X135642619Y-116338571D01*
X135604523Y-116414761D01*
X135566428Y-116452857D01*
X135490238Y-116490952D01*
X135185476Y-116490952D01*
X154271190Y-119371904D02*
X154271190Y-118571904D01*
X154537857Y-119143333D01*
X154804523Y-118571904D01*
X154804523Y-119371904D01*
X153547380Y-127031904D02*
X153547380Y-126231904D01*
X153737857Y-126231904D01*
X153852142Y-126270000D01*
X153928333Y-126346190D01*
X153966428Y-126422380D01*
X154004523Y-126574761D01*
X154004523Y-126689047D01*
X153966428Y-126841428D01*
X153928333Y-126917619D01*
X153852142Y-126993809D01*
X153737857Y-127031904D01*
X153547380Y-127031904D01*
X154499761Y-126231904D02*
X154652142Y-126231904D01*
X154728333Y-126270000D01*
X154804523Y-126346190D01*
X154842619Y-126498571D01*
X154842619Y-126765238D01*
X154804523Y-126917619D01*
X154728333Y-126993809D01*
X154652142Y-127031904D01*
X154499761Y-127031904D01*
X154423571Y-126993809D01*
X154347380Y-126917619D01*
X154309285Y-126765238D01*
X154309285Y-126498571D01*
X154347380Y-126346190D01*
X154423571Y-126270000D01*
X154499761Y-126231904D01*
X154652142Y-121532857D02*
X154766428Y-121570952D01*
X154804523Y-121609047D01*
X154842619Y-121685238D01*
X154842619Y-121799523D01*
X154804523Y-121875714D01*
X154766428Y-121913809D01*
X154690238Y-121951904D01*
X154385476Y-121951904D01*
X154385476Y-121151904D01*
X154652142Y-121151904D01*
X154728333Y-121190000D01*
X154766428Y-121228095D01*
X154804523Y-121304285D01*
X154804523Y-121380476D01*
X154766428Y-121456666D01*
X154728333Y-121494761D01*
X154652142Y-121532857D01*
X154385476Y-121532857D01*
X154118809Y-124481904D02*
X153737857Y-124481904D01*
X153737857Y-123681904D01*
X154842619Y-124481904D02*
X154575952Y-124100952D01*
X154385476Y-124481904D02*
X154385476Y-123681904D01*
X154690238Y-123681904D01*
X154766428Y-123720000D01*
X154804523Y-123758095D01*
X154842619Y-123834285D01*
X154842619Y-123948571D01*
X154804523Y-124024761D01*
X154766428Y-124062857D01*
X154690238Y-124100952D01*
X154385476Y-124100952D01*
X126028809Y-116871904D02*
X125647857Y-116871904D01*
X125647857Y-116071904D01*
X126752619Y-116871904D02*
X126485952Y-116490952D01*
X126295476Y-116871904D02*
X126295476Y-116071904D01*
X126600238Y-116071904D01*
X126676428Y-116110000D01*
X126714523Y-116148095D01*
X126752619Y-116224285D01*
X126752619Y-116338571D01*
X126714523Y-116414761D01*
X126676428Y-116452857D01*
X126600238Y-116490952D01*
X126295476Y-116490952D01*
X143958809Y-116871904D02*
X143577857Y-116871904D01*
X143577857Y-116071904D01*
X144682619Y-116871904D02*
X144415952Y-116490952D01*
X144225476Y-116871904D02*
X144225476Y-116071904D01*
X144530238Y-116071904D01*
X144606428Y-116110000D01*
X144644523Y-116148095D01*
X144682619Y-116224285D01*
X144682619Y-116338571D01*
X144644523Y-116414761D01*
X144606428Y-116452857D01*
X144530238Y-116490952D01*
X144225476Y-116490952D01*
X126181190Y-111791904D02*
X126181190Y-110991904D01*
X126447857Y-111563333D01*
X126714523Y-110991904D01*
X126714523Y-111791904D01*
X144111190Y-111791904D02*
X144111190Y-110991904D01*
X144377857Y-111563333D01*
X144644523Y-110991904D01*
X144644523Y-111791904D01*
X144492142Y-113912857D02*
X144606428Y-113950952D01*
X144644523Y-113989047D01*
X144682619Y-114065238D01*
X144682619Y-114179523D01*
X144644523Y-114255714D01*
X144606428Y-114293809D01*
X144530238Y-114331904D01*
X144225476Y-114331904D01*
X144225476Y-113531904D01*
X144492142Y-113531904D01*
X144568333Y-113570000D01*
X144606428Y-113608095D01*
X144644523Y-113684285D01*
X144644523Y-113760476D01*
X144606428Y-113836666D01*
X144568333Y-113874761D01*
X144492142Y-113912857D01*
X144225476Y-113912857D01*
X126562142Y-113912857D02*
X126676428Y-113950952D01*
X126714523Y-113989047D01*
X126752619Y-114065238D01*
X126752619Y-114179523D01*
X126714523Y-114255714D01*
X126676428Y-114293809D01*
X126600238Y-114331904D01*
X126295476Y-114331904D01*
X126295476Y-113531904D01*
X126562142Y-113531904D01*
X126638333Y-113570000D01*
X126676428Y-113608095D01*
X126714523Y-113684285D01*
X126714523Y-113760476D01*
X126676428Y-113836666D01*
X126638333Y-113874761D01*
X126562142Y-113912857D01*
X126295476Y-113912857D01*
X143844523Y-119411904D02*
X143844523Y-118611904D01*
X144035000Y-118611904D01*
X144149285Y-118650000D01*
X144225476Y-118726190D01*
X144263571Y-118802380D01*
X144301666Y-118954761D01*
X144301666Y-119069047D01*
X144263571Y-119221428D01*
X144225476Y-119297619D01*
X144149285Y-119373809D01*
X144035000Y-119411904D01*
X143844523Y-119411904D01*
X144644523Y-119411904D02*
X144644523Y-118611904D01*
X125914523Y-119411904D02*
X125914523Y-118611904D01*
X126105000Y-118611904D01*
X126219285Y-118650000D01*
X126295476Y-118726190D01*
X126333571Y-118802380D01*
X126371666Y-118954761D01*
X126371666Y-119069047D01*
X126333571Y-119221428D01*
X126295476Y-119297619D01*
X126219285Y-119373809D01*
X126105000Y-119411904D01*
X125914523Y-119411904D01*
X126714523Y-119411904D02*
X126714523Y-118611904D01*
X163008809Y-124481904D02*
X162627857Y-124481904D01*
X162627857Y-123681904D01*
X163732619Y-124481904D02*
X163465952Y-124100952D01*
X163275476Y-124481904D02*
X163275476Y-123681904D01*
X163580238Y-123681904D01*
X163656428Y-123720000D01*
X163694523Y-123758095D01*
X163732619Y-123834285D01*
X163732619Y-123948571D01*
X163694523Y-124024761D01*
X163656428Y-124062857D01*
X163580238Y-124100952D01*
X163275476Y-124100952D01*
X163452142Y-121532857D02*
X163566428Y-121570952D01*
X163604523Y-121609047D01*
X163642619Y-121685238D01*
X163642619Y-121799523D01*
X163604523Y-121875714D01*
X163566428Y-121913809D01*
X163490238Y-121951904D01*
X163185476Y-121951904D01*
X163185476Y-121151904D01*
X163452142Y-121151904D01*
X163528333Y-121190000D01*
X163566428Y-121228095D01*
X163604523Y-121304285D01*
X163604523Y-121380476D01*
X163566428Y-121456666D01*
X163528333Y-121494761D01*
X163452142Y-121532857D01*
X163185476Y-121532857D01*
X162347380Y-127031904D02*
X162347380Y-126231904D01*
X162537857Y-126231904D01*
X162652142Y-126270000D01*
X162728333Y-126346190D01*
X162766428Y-126422380D01*
X162804523Y-126574761D01*
X162804523Y-126689047D01*
X162766428Y-126841428D01*
X162728333Y-126917619D01*
X162652142Y-126993809D01*
X162537857Y-127031904D01*
X162347380Y-127031904D01*
X163299761Y-126231904D02*
X163452142Y-126231904D01*
X163528333Y-126270000D01*
X163604523Y-126346190D01*
X163642619Y-126498571D01*
X163642619Y-126765238D01*
X163604523Y-126917619D01*
X163528333Y-126993809D01*
X163452142Y-127031904D01*
X163299761Y-127031904D01*
X163223571Y-126993809D01*
X163147380Y-126917619D01*
X163109285Y-126765238D01*
X163109285Y-126498571D01*
X163147380Y-126346190D01*
X163223571Y-126270000D01*
X163299761Y-126231904D01*
X163161190Y-119371904D02*
X163161190Y-118571904D01*
X163427857Y-119143333D01*
X163694523Y-118571904D01*
X163694523Y-119371904D01*
X133736309Y-125101428D02*
X133774404Y-124987142D01*
X133774404Y-124796666D01*
X133736309Y-124720476D01*
X133698214Y-124682380D01*
X133622023Y-124644285D01*
X133545833Y-124644285D01*
X133469642Y-124682380D01*
X133431547Y-124720476D01*
X133393452Y-124796666D01*
X133355357Y-124949047D01*
X133317261Y-125025238D01*
X133279166Y-125063333D01*
X133202976Y-125101428D01*
X133126785Y-125101428D01*
X133050595Y-125063333D01*
X133012500Y-125025238D01*
X132974404Y-124949047D01*
X132974404Y-124758571D01*
X133012500Y-124644285D01*
X133774404Y-124301428D02*
X132974404Y-124301428D01*
X132974404Y-124110952D01*
X133012500Y-123996666D01*
X133088690Y-123920476D01*
X133164880Y-123882380D01*
X133317261Y-123844285D01*
X133431547Y-123844285D01*
X133583928Y-123882380D01*
X133660119Y-123920476D01*
X133736309Y-123996666D01*
X133774404Y-124110952D01*
X133774404Y-124301428D01*
X133545833Y-123539523D02*
X133545833Y-123158571D01*
X133774404Y-123615714D02*
X132974404Y-123349047D01*
X133774404Y-123082380D01*
X134955595Y-125850952D02*
X135755595Y-125850952D01*
X134955595Y-126689047D02*
X135336547Y-126422380D01*
X134955595Y-126231904D02*
X135755595Y-126231904D01*
X135755595Y-126536666D01*
X135717500Y-126612857D01*
X135679404Y-126650952D01*
X135603214Y-126689047D01*
X135488928Y-126689047D01*
X135412738Y-126650952D01*
X135374642Y-126612857D01*
X135336547Y-126536666D01*
X135336547Y-126231904D01*
X134879404Y-127565238D02*
X134917500Y-127489047D01*
X134993690Y-127412857D01*
X135107976Y-127298571D01*
X135146071Y-127222380D01*
X135146071Y-127146190D01*
X134955595Y-127184285D02*
X134993690Y-127108095D01*
X135069880Y-127031904D01*
X135222261Y-126993809D01*
X135488928Y-126993809D01*
X135641309Y-127031904D01*
X135717500Y-127108095D01*
X135755595Y-127184285D01*
X135755595Y-127336666D01*
X135717500Y-127412857D01*
X135641309Y-127489047D01*
X135488928Y-127527142D01*
X135222261Y-127527142D01*
X135069880Y-127489047D01*
X134993690Y-127412857D01*
X134955595Y-127336666D01*
X134955595Y-127184285D01*
X134955595Y-123272857D02*
X135755595Y-123272857D01*
X135184166Y-123539523D01*
X135755595Y-123806190D01*
X134955595Y-123806190D01*
X135488928Y-124530000D02*
X134955595Y-124530000D01*
X135488928Y-124187142D02*
X135069880Y-124187142D01*
X134993690Y-124225238D01*
X134955595Y-124301428D01*
X134955595Y-124415714D01*
X134993690Y-124491904D01*
X135031785Y-124530000D01*
X135488928Y-124796666D02*
X135488928Y-125101428D01*
X135755595Y-124910952D02*
X135069880Y-124910952D01*
X134993690Y-124949047D01*
X134955595Y-125025238D01*
X134955595Y-125101428D01*
X133736309Y-127622380D02*
X133774404Y-127508095D01*
X133774404Y-127317619D01*
X133736309Y-127241428D01*
X133698214Y-127203333D01*
X133622023Y-127165238D01*
X133545833Y-127165238D01*
X133469642Y-127203333D01*
X133431547Y-127241428D01*
X133393452Y-127317619D01*
X133355357Y-127470000D01*
X133317261Y-127546190D01*
X133279166Y-127584285D01*
X133202976Y-127622380D01*
X133126785Y-127622380D01*
X133050595Y-127584285D01*
X133012500Y-127546190D01*
X132974404Y-127470000D01*
X132974404Y-127279523D01*
X133012500Y-127165238D01*
X133698214Y-126365238D02*
X133736309Y-126403333D01*
X133774404Y-126517619D01*
X133774404Y-126593809D01*
X133736309Y-126708095D01*
X133660119Y-126784285D01*
X133583928Y-126822380D01*
X133431547Y-126860476D01*
X133317261Y-126860476D01*
X133164880Y-126822380D01*
X133088690Y-126784285D01*
X133012500Y-126708095D01*
X132974404Y-126593809D01*
X132974404Y-126517619D01*
X133012500Y-126403333D01*
X133050595Y-126365238D01*
X133774404Y-125641428D02*
X133774404Y-126022380D01*
X132974404Y-126022380D01*
X133100000Y-83734523D02*
X133061904Y-83810714D01*
X133061904Y-83925000D01*
X133100000Y-84039285D01*
X133176190Y-84115476D01*
X133252380Y-84153571D01*
X133404761Y-84191666D01*
X133519047Y-84191666D01*
X133671428Y-84153571D01*
X133747619Y-84115476D01*
X133823809Y-84039285D01*
X133861904Y-83925000D01*
X133861904Y-83848809D01*
X133823809Y-83734523D01*
X133785714Y-83696428D01*
X133519047Y-83696428D01*
X133519047Y-83848809D01*
X133861904Y-83353571D02*
X133061904Y-83353571D01*
X133861904Y-82896428D01*
X133061904Y-82896428D01*
X133861904Y-82515476D02*
X133061904Y-82515476D01*
X133061904Y-82325000D01*
X133100000Y-82210714D01*
X133176190Y-82134523D01*
X133252380Y-82096428D01*
X133404761Y-82058333D01*
X133519047Y-82058333D01*
X133671428Y-82096428D01*
X133747619Y-82134523D01*
X133823809Y-82210714D01*
X133861904Y-82325000D01*
X133861904Y-82515476D01*
X133557142Y-76653571D02*
X133557142Y-76044047D01*
X133861904Y-76348809D02*
X133252380Y-76348809D01*
X133061904Y-75282142D02*
X133061904Y-75663095D01*
X133442857Y-75701190D01*
X133404761Y-75663095D01*
X133366666Y-75586904D01*
X133366666Y-75396428D01*
X133404761Y-75320238D01*
X133442857Y-75282142D01*
X133519047Y-75244047D01*
X133709523Y-75244047D01*
X133785714Y-75282142D01*
X133823809Y-75320238D01*
X133861904Y-75396428D01*
X133861904Y-75586904D01*
X133823809Y-75663095D01*
X133785714Y-75701190D01*
X133061904Y-75015476D02*
X133861904Y-74748809D01*
X133061904Y-74482142D01*
X116653928Y-88131904D02*
X116501547Y-88131904D01*
X116425357Y-88170000D01*
X116387261Y-88208095D01*
X116311071Y-88322380D01*
X116272976Y-88474761D01*
X116272976Y-88779523D01*
X116311071Y-88855714D01*
X116349166Y-88893809D01*
X116425357Y-88931904D01*
X116577738Y-88931904D01*
X116653928Y-88893809D01*
X116692023Y-88855714D01*
X116730119Y-88779523D01*
X116730119Y-88589047D01*
X116692023Y-88512857D01*
X116653928Y-88474761D01*
X116577738Y-88436666D01*
X116425357Y-88436666D01*
X116349166Y-88474761D01*
X116311071Y-88512857D01*
X116272976Y-88589047D01*
X116692023Y-80550000D02*
X116615833Y-80511904D01*
X116501547Y-80511904D01*
X116387261Y-80550000D01*
X116311071Y-80626190D01*
X116272976Y-80702380D01*
X116234880Y-80854761D01*
X116234880Y-80969047D01*
X116272976Y-81121428D01*
X116311071Y-81197619D01*
X116387261Y-81273809D01*
X116501547Y-81311904D01*
X116577738Y-81311904D01*
X116692023Y-81273809D01*
X116730119Y-81235714D01*
X116730119Y-80969047D01*
X116577738Y-80969047D01*
X116425357Y-83394761D02*
X116349166Y-83356666D01*
X116311071Y-83318571D01*
X116272976Y-83242380D01*
X116272976Y-83204285D01*
X116311071Y-83128095D01*
X116349166Y-83090000D01*
X116425357Y-83051904D01*
X116577738Y-83051904D01*
X116653928Y-83090000D01*
X116692023Y-83128095D01*
X116730119Y-83204285D01*
X116730119Y-83242380D01*
X116692023Y-83318571D01*
X116653928Y-83356666D01*
X116577738Y-83394761D01*
X116425357Y-83394761D01*
X116349166Y-83432857D01*
X116311071Y-83470952D01*
X116272976Y-83547142D01*
X116272976Y-83699523D01*
X116311071Y-83775714D01*
X116349166Y-83813809D01*
X116425357Y-83851904D01*
X116577738Y-83851904D01*
X116653928Y-83813809D01*
X116692023Y-83775714D01*
X116730119Y-83699523D01*
X116730119Y-83547142D01*
X116692023Y-83470952D01*
X116653928Y-83432857D01*
X116577738Y-83394761D01*
X116692023Y-90671904D02*
X116311071Y-90671904D01*
X116272976Y-91052857D01*
X116311071Y-91014761D01*
X116387261Y-90976666D01*
X116577738Y-90976666D01*
X116653928Y-91014761D01*
X116692023Y-91052857D01*
X116730119Y-91129047D01*
X116730119Y-91319523D01*
X116692023Y-91395714D01*
X116653928Y-91433809D01*
X116577738Y-91471904D01*
X116387261Y-91471904D01*
X116311071Y-91433809D01*
X116272976Y-91395714D01*
X116234880Y-85591904D02*
X116768214Y-85591904D01*
X116425357Y-86391904D01*
X116272976Y-77971904D02*
X116539642Y-78771904D01*
X116806309Y-77971904D01*
X123084523Y-91471904D02*
X122627380Y-91471904D01*
X122855952Y-91471904D02*
X122855952Y-90671904D01*
X122779761Y-90786190D01*
X122703571Y-90862380D01*
X122627380Y-90900476D01*
X123084523Y-80550000D02*
X123008333Y-80511904D01*
X122894047Y-80511904D01*
X122779761Y-80550000D01*
X122703571Y-80626190D01*
X122665476Y-80702380D01*
X122627380Y-80854761D01*
X122627380Y-80969047D01*
X122665476Y-81121428D01*
X122703571Y-81197619D01*
X122779761Y-81273809D01*
X122894047Y-81311904D01*
X122970238Y-81311904D01*
X123084523Y-81273809D01*
X123122619Y-81235714D01*
X123122619Y-80969047D01*
X122970238Y-80969047D01*
X122589285Y-85921904D02*
X123084523Y-85921904D01*
X122817857Y-86226666D01*
X122932142Y-86226666D01*
X123008333Y-86264761D01*
X123046428Y-86302857D01*
X123084523Y-86379047D01*
X123084523Y-86569523D01*
X123046428Y-86645714D01*
X123008333Y-86683809D01*
X122932142Y-86721904D01*
X122703571Y-86721904D01*
X122627380Y-86683809D01*
X122589285Y-86645714D01*
X122627380Y-88538095D02*
X122665476Y-88500000D01*
X122741666Y-88461904D01*
X122932142Y-88461904D01*
X123008333Y-88500000D01*
X123046428Y-88538095D01*
X123084523Y-88614285D01*
X123084523Y-88690476D01*
X123046428Y-88804761D01*
X122589285Y-89261904D01*
X123084523Y-89261904D01*
X123008333Y-83288571D02*
X123008333Y-83821904D01*
X122817857Y-82983809D02*
X122627380Y-83555238D01*
X123122619Y-83555238D01*
X122551190Y-77971904D02*
X122817857Y-78771904D01*
X123084523Y-77971904D01*
X137819047Y-86061904D02*
X138314285Y-86061904D01*
X138047619Y-86366666D01*
X138161904Y-86366666D01*
X138238095Y-86404761D01*
X138276190Y-86442857D01*
X138314285Y-86519047D01*
X138314285Y-86709523D01*
X138276190Y-86785714D01*
X138238095Y-86823809D01*
X138161904Y-86861904D01*
X137933333Y-86861904D01*
X137857142Y-86823809D01*
X137819047Y-86785714D01*
X138657142Y-86785714D02*
X138695238Y-86823809D01*
X138657142Y-86861904D01*
X138619047Y-86823809D01*
X138657142Y-86785714D01*
X138657142Y-86861904D01*
X138961904Y-86061904D02*
X139457142Y-86061904D01*
X139190476Y-86366666D01*
X139304761Y-86366666D01*
X139380952Y-86404761D01*
X139419047Y-86442857D01*
X139457142Y-86519047D01*
X139457142Y-86709523D01*
X139419047Y-86785714D01*
X139380952Y-86823809D01*
X139304761Y-86861904D01*
X139076190Y-86861904D01*
X139000000Y-86823809D01*
X138961904Y-86785714D01*
X139685714Y-86061904D02*
X139952380Y-86861904D01*
X140219047Y-86061904D01*
X143845595Y-123272857D02*
X144645595Y-123272857D01*
X144074166Y-123539523D01*
X144645595Y-123806190D01*
X143845595Y-123806190D01*
X144378928Y-124530000D02*
X143845595Y-124530000D01*
X144378928Y-124187142D02*
X143959880Y-124187142D01*
X143883690Y-124225238D01*
X143845595Y-124301428D01*
X143845595Y-124415714D01*
X143883690Y-124491904D01*
X143921785Y-124530000D01*
X144378928Y-124796666D02*
X144378928Y-125101428D01*
X144645595Y-124910952D02*
X143959880Y-124910952D01*
X143883690Y-124949047D01*
X143845595Y-125025238D01*
X143845595Y-125101428D01*
X171550476Y-74100000D02*
X171474285Y-74061904D01*
X171360000Y-74061904D01*
X171245714Y-74100000D01*
X171169523Y-74176190D01*
X171131428Y-74252380D01*
X171093333Y-74404761D01*
X171093333Y-74519047D01*
X171131428Y-74671428D01*
X171169523Y-74747619D01*
X171245714Y-74823809D01*
X171360000Y-74861904D01*
X171436190Y-74861904D01*
X171550476Y-74823809D01*
X171588571Y-74785714D01*
X171588571Y-74519047D01*
X171436190Y-74519047D01*
X171931428Y-74861904D02*
X171931428Y-74061904D01*
X172388571Y-74861904D01*
X172388571Y-74061904D01*
X172769523Y-74861904D02*
X172769523Y-74061904D01*
X172960000Y-74061904D01*
X173074285Y-74100000D01*
X173150476Y-74176190D01*
X173188571Y-74252380D01*
X173226666Y-74404761D01*
X173226666Y-74519047D01*
X173188571Y-74671428D01*
X173150476Y-74747619D01*
X173074285Y-74823809D01*
X172960000Y-74861904D01*
X172769523Y-74861904D01*
X168591428Y-74061904D02*
X169048571Y-74061904D01*
X168820000Y-74861904D02*
X168820000Y-74061904D01*
X169772380Y-74785714D02*
X169734285Y-74823809D01*
X169620000Y-74861904D01*
X169543809Y-74861904D01*
X169429523Y-74823809D01*
X169353333Y-74747619D01*
X169315238Y-74671428D01*
X169277142Y-74519047D01*
X169277142Y-74404761D01*
X169315238Y-74252380D01*
X169353333Y-74176190D01*
X169429523Y-74100000D01*
X169543809Y-74061904D01*
X169620000Y-74061904D01*
X169734285Y-74100000D01*
X169772380Y-74138095D01*
X170115238Y-74861904D02*
X170115238Y-74061904D01*
X170572380Y-74861904D02*
X170229523Y-74404761D01*
X170572380Y-74061904D02*
X170115238Y-74519047D01*
X141385714Y-71611904D02*
X141385714Y-70811904D01*
X141766666Y-71611904D02*
X141766666Y-70811904D01*
X142223809Y-71611904D01*
X142223809Y-70811904D01*
X142604761Y-71611904D02*
X142604761Y-70811904D01*
X142871428Y-70811904D02*
X143328571Y-70811904D01*
X143100000Y-71611904D02*
X143100000Y-70811904D01*
X126065595Y-123272857D02*
X126865595Y-123272857D01*
X126294166Y-123539523D01*
X126865595Y-123806190D01*
X126065595Y-123806190D01*
X126598928Y-124530000D02*
X126065595Y-124530000D01*
X126598928Y-124187142D02*
X126179880Y-124187142D01*
X126103690Y-124225238D01*
X126065595Y-124301428D01*
X126065595Y-124415714D01*
X126103690Y-124491904D01*
X126141785Y-124530000D01*
X126598928Y-124796666D02*
X126598928Y-125101428D01*
X126865595Y-124910952D02*
X126179880Y-124910952D01*
X126103690Y-124949047D01*
X126065595Y-125025238D01*
X126065595Y-125101428D01*
X173709523Y-74061904D02*
X174204761Y-74061904D01*
X173938095Y-74366666D01*
X174052380Y-74366666D01*
X174128571Y-74404761D01*
X174166666Y-74442857D01*
X174204761Y-74519047D01*
X174204761Y-74709523D01*
X174166666Y-74785714D01*
X174128571Y-74823809D01*
X174052380Y-74861904D01*
X173823809Y-74861904D01*
X173747619Y-74823809D01*
X173709523Y-74785714D01*
X174433333Y-74061904D02*
X174700000Y-74861904D01*
X174966666Y-74061904D01*
X175157142Y-74061904D02*
X175652380Y-74061904D01*
X175385714Y-74366666D01*
X175500000Y-74366666D01*
X175576190Y-74404761D01*
X175614285Y-74442857D01*
X175652380Y-74519047D01*
X175652380Y-74709523D01*
X175614285Y-74785714D01*
X175576190Y-74823809D01*
X175500000Y-74861904D01*
X175271428Y-74861904D01*
X175195238Y-74823809D01*
X175157142Y-74785714D01*
X137452380Y-99172857D02*
X137566666Y-99210952D01*
X137604761Y-99249047D01*
X137642857Y-99325238D01*
X137642857Y-99439523D01*
X137604761Y-99515714D01*
X137566666Y-99553809D01*
X137490476Y-99591904D01*
X137185714Y-99591904D01*
X137185714Y-98791904D01*
X137452380Y-98791904D01*
X137528571Y-98830000D01*
X137566666Y-98868095D01*
X137604761Y-98944285D01*
X137604761Y-99020476D01*
X137566666Y-99096666D01*
X137528571Y-99134761D01*
X137452380Y-99172857D01*
X137185714Y-99172857D01*
X137871428Y-98791904D02*
X138328571Y-98791904D01*
X138100000Y-99591904D02*
X138100000Y-98791904D01*
X138595238Y-99591904D02*
X138595238Y-98791904D01*
X139052380Y-99591904D01*
X139052380Y-98791904D01*
X139357142Y-98791904D02*
X139852380Y-98791904D01*
X139585714Y-99096666D01*
X139700000Y-99096666D01*
X139776190Y-99134761D01*
X139814285Y-99172857D01*
X139852380Y-99249047D01*
X139852380Y-99439523D01*
X139814285Y-99515714D01*
X139776190Y-99553809D01*
X139700000Y-99591904D01*
X139471428Y-99591904D01*
X139395238Y-99553809D01*
X139357142Y-99515714D01*
X125452380Y-99172857D02*
X125566666Y-99210952D01*
X125604761Y-99249047D01*
X125642857Y-99325238D01*
X125642857Y-99439523D01*
X125604761Y-99515714D01*
X125566666Y-99553809D01*
X125490476Y-99591904D01*
X125185714Y-99591904D01*
X125185714Y-98791904D01*
X125452380Y-98791904D01*
X125528571Y-98830000D01*
X125566666Y-98868095D01*
X125604761Y-98944285D01*
X125604761Y-99020476D01*
X125566666Y-99096666D01*
X125528571Y-99134761D01*
X125452380Y-99172857D01*
X125185714Y-99172857D01*
X125871428Y-98791904D02*
X126328571Y-98791904D01*
X126100000Y-99591904D02*
X126100000Y-98791904D01*
X126595238Y-99591904D02*
X126595238Y-98791904D01*
X127052380Y-99591904D01*
X127052380Y-98791904D01*
X127852380Y-99591904D02*
X127395238Y-99591904D01*
X127623809Y-99591904D02*
X127623809Y-98791904D01*
X127547619Y-98906190D01*
X127471428Y-98982380D01*
X127395238Y-99020476D01*
X166032380Y-74061904D02*
X166489523Y-74061904D01*
X166260952Y-74861904D02*
X166260952Y-74061904D01*
X166756190Y-74861904D02*
X166756190Y-74061904D01*
X166946666Y-74061904D01*
X167060952Y-74100000D01*
X167137142Y-74176190D01*
X167175238Y-74252380D01*
X167213333Y-74404761D01*
X167213333Y-74519047D01*
X167175238Y-74671428D01*
X167137142Y-74747619D01*
X167060952Y-74823809D01*
X166946666Y-74861904D01*
X166756190Y-74861904D01*
X167708571Y-74061904D02*
X167860952Y-74061904D01*
X167937142Y-74100000D01*
X168013333Y-74176190D01*
X168051428Y-74328571D01*
X168051428Y-74595238D01*
X168013333Y-74747619D01*
X167937142Y-74823809D01*
X167860952Y-74861904D01*
X167708571Y-74861904D01*
X167632380Y-74823809D01*
X167556190Y-74747619D01*
X167518095Y-74595238D01*
X167518095Y-74328571D01*
X167556190Y-74176190D01*
X167632380Y-74100000D01*
X167708571Y-74061904D01*
X137290476Y-71611904D02*
X137290476Y-70811904D01*
X137480952Y-70811904D01*
X137595238Y-70850000D01*
X137671428Y-70926190D01*
X137709523Y-71002380D01*
X137747619Y-71154761D01*
X137747619Y-71269047D01*
X137709523Y-71421428D01*
X137671428Y-71497619D01*
X137595238Y-71573809D01*
X137480952Y-71611904D01*
X137290476Y-71611904D01*
X138242857Y-70811904D02*
X138395238Y-70811904D01*
X138471428Y-70850000D01*
X138547619Y-70926190D01*
X138585714Y-71078571D01*
X138585714Y-71345238D01*
X138547619Y-71497619D01*
X138471428Y-71573809D01*
X138395238Y-71611904D01*
X138242857Y-71611904D01*
X138166666Y-71573809D01*
X138090476Y-71497619D01*
X138052380Y-71345238D01*
X138052380Y-71078571D01*
X138090476Y-70926190D01*
X138166666Y-70850000D01*
X138242857Y-70811904D01*
X138928571Y-71611904D02*
X138928571Y-70811904D01*
X139385714Y-71611904D01*
X139385714Y-70811904D01*
X139766666Y-71192857D02*
X140033333Y-71192857D01*
X140147619Y-71611904D02*
X139766666Y-71611904D01*
X139766666Y-70811904D01*
X140147619Y-70811904D01*
X155838095Y-71611904D02*
X155571428Y-71230952D01*
X155380952Y-71611904D02*
X155380952Y-70811904D01*
X155685714Y-70811904D01*
X155761904Y-70850000D01*
X155800000Y-70888095D01*
X155838095Y-70964285D01*
X155838095Y-71078571D01*
X155800000Y-71154761D01*
X155761904Y-71192857D01*
X155685714Y-71230952D01*
X155380952Y-71230952D01*
X156180952Y-71192857D02*
X156447619Y-71192857D01*
X156561904Y-71611904D02*
X156180952Y-71611904D01*
X156180952Y-70811904D01*
X156561904Y-70811904D01*
X156866666Y-71573809D02*
X156980952Y-71611904D01*
X157171428Y-71611904D01*
X157247619Y-71573809D01*
X157285714Y-71535714D01*
X157323809Y-71459523D01*
X157323809Y-71383333D01*
X157285714Y-71307142D01*
X157247619Y-71269047D01*
X157171428Y-71230952D01*
X157019047Y-71192857D01*
X156942857Y-71154761D01*
X156904761Y-71116666D01*
X156866666Y-71040476D01*
X156866666Y-70964285D01*
X156904761Y-70888095D01*
X156942857Y-70850000D01*
X157019047Y-70811904D01*
X157209523Y-70811904D01*
X157323809Y-70850000D01*
X157666666Y-71192857D02*
X157933333Y-71192857D01*
X158047619Y-71611904D02*
X157666666Y-71611904D01*
X157666666Y-70811904D01*
X158047619Y-70811904D01*
X158276190Y-70811904D02*
X158733333Y-70811904D01*
X158504761Y-71611904D02*
X158504761Y-70811904D01*
X131452380Y-99172857D02*
X131566666Y-99210952D01*
X131604761Y-99249047D01*
X131642857Y-99325238D01*
X131642857Y-99439523D01*
X131604761Y-99515714D01*
X131566666Y-99553809D01*
X131490476Y-99591904D01*
X131185714Y-99591904D01*
X131185714Y-98791904D01*
X131452380Y-98791904D01*
X131528571Y-98830000D01*
X131566666Y-98868095D01*
X131604761Y-98944285D01*
X131604761Y-99020476D01*
X131566666Y-99096666D01*
X131528571Y-99134761D01*
X131452380Y-99172857D01*
X131185714Y-99172857D01*
X131871428Y-98791904D02*
X132328571Y-98791904D01*
X132100000Y-99591904D02*
X132100000Y-98791904D01*
X132595238Y-99591904D02*
X132595238Y-98791904D01*
X133052380Y-99591904D01*
X133052380Y-98791904D01*
X133395238Y-98868095D02*
X133433333Y-98830000D01*
X133509523Y-98791904D01*
X133700000Y-98791904D01*
X133776190Y-98830000D01*
X133814285Y-98868095D01*
X133852380Y-98944285D01*
X133852380Y-99020476D01*
X133814285Y-99134761D01*
X133357142Y-99591904D01*
X133852380Y-99591904D01*
X137857142Y-76138095D02*
X137895238Y-76100000D01*
X137971428Y-76061904D01*
X138161904Y-76061904D01*
X138238095Y-76100000D01*
X138276190Y-76138095D01*
X138314285Y-76214285D01*
X138314285Y-76290476D01*
X138276190Y-76404761D01*
X137819047Y-76861904D01*
X138314285Y-76861904D01*
X138657142Y-76785714D02*
X138695238Y-76823809D01*
X138657142Y-76861904D01*
X138619047Y-76823809D01*
X138657142Y-76785714D01*
X138657142Y-76861904D01*
X139419047Y-76061904D02*
X139038095Y-76061904D01*
X139000000Y-76442857D01*
X139038095Y-76404761D01*
X139114285Y-76366666D01*
X139304761Y-76366666D01*
X139380952Y-76404761D01*
X139419047Y-76442857D01*
X139457142Y-76519047D01*
X139457142Y-76709523D01*
X139419047Y-76785714D01*
X139380952Y-76823809D01*
X139304761Y-76861904D01*
X139114285Y-76861904D01*
X139038095Y-76823809D01*
X139000000Y-76785714D01*
X139685714Y-76061904D02*
X139952380Y-76861904D01*
X140219047Y-76061904D01*
X145814285Y-76861904D02*
X145357142Y-76861904D01*
X145585714Y-76861904D02*
X145585714Y-76061904D01*
X145509523Y-76176190D01*
X145433333Y-76252380D01*
X145357142Y-76290476D01*
X146157142Y-76785714D02*
X146195238Y-76823809D01*
X146157142Y-76861904D01*
X146119047Y-76823809D01*
X146157142Y-76785714D01*
X146157142Y-76861904D01*
X146500000Y-76138095D02*
X146538095Y-76100000D01*
X146614285Y-76061904D01*
X146804761Y-76061904D01*
X146880952Y-76100000D01*
X146919047Y-76138095D01*
X146957142Y-76214285D01*
X146957142Y-76290476D01*
X146919047Y-76404761D01*
X146461904Y-76861904D01*
X146957142Y-76861904D01*
X147185714Y-76061904D02*
X147452380Y-76861904D01*
X147719047Y-76061904D01*
X163720952Y-74061904D02*
X164178095Y-74061904D01*
X163949523Y-74861904D02*
X163949523Y-74061904D01*
X164444761Y-74861904D02*
X164444761Y-74061904D01*
X164635238Y-74061904D01*
X164749523Y-74100000D01*
X164825714Y-74176190D01*
X164863809Y-74252380D01*
X164901904Y-74404761D01*
X164901904Y-74519047D01*
X164863809Y-74671428D01*
X164825714Y-74747619D01*
X164749523Y-74823809D01*
X164635238Y-74861904D01*
X164444761Y-74861904D01*
X165244761Y-74861904D02*
X165244761Y-74061904D01*
X145871428Y-71611904D02*
X145871428Y-70811904D01*
X146176190Y-70811904D01*
X146252380Y-70850000D01*
X146290476Y-70888095D01*
X146328571Y-70964285D01*
X146328571Y-71078571D01*
X146290476Y-71154761D01*
X146252380Y-71192857D01*
X146176190Y-71230952D01*
X145871428Y-71230952D01*
X147128571Y-71611904D02*
X146861904Y-71230952D01*
X146671428Y-71611904D02*
X146671428Y-70811904D01*
X146976190Y-70811904D01*
X147052380Y-70850000D01*
X147090476Y-70888095D01*
X147128571Y-70964285D01*
X147128571Y-71078571D01*
X147090476Y-71154761D01*
X147052380Y-71192857D01*
X146976190Y-71230952D01*
X146671428Y-71230952D01*
X147623809Y-70811904D02*
X147776190Y-70811904D01*
X147852380Y-70850000D01*
X147928571Y-70926190D01*
X147966666Y-71078571D01*
X147966666Y-71345238D01*
X147928571Y-71497619D01*
X147852380Y-71573809D01*
X147776190Y-71611904D01*
X147623809Y-71611904D01*
X147547619Y-71573809D01*
X147471428Y-71497619D01*
X147433333Y-71345238D01*
X147433333Y-71078571D01*
X147471428Y-70926190D01*
X147547619Y-70850000D01*
X147623809Y-70811904D01*
X148728571Y-70850000D02*
X148652380Y-70811904D01*
X148538095Y-70811904D01*
X148423809Y-70850000D01*
X148347619Y-70926190D01*
X148309523Y-71002380D01*
X148271428Y-71154761D01*
X148271428Y-71269047D01*
X148309523Y-71421428D01*
X148347619Y-71497619D01*
X148423809Y-71573809D01*
X148538095Y-71611904D01*
X148614285Y-71611904D01*
X148728571Y-71573809D01*
X148766666Y-71535714D01*
X148766666Y-71269047D01*
X148614285Y-71269047D01*
X149566666Y-71611904D02*
X149300000Y-71230952D01*
X149109523Y-71611904D02*
X149109523Y-70811904D01*
X149414285Y-70811904D01*
X149490476Y-70850000D01*
X149528571Y-70888095D01*
X149566666Y-70964285D01*
X149566666Y-71078571D01*
X149528571Y-71154761D01*
X149490476Y-71192857D01*
X149414285Y-71230952D01*
X149109523Y-71230952D01*
X149871428Y-71383333D02*
X150252380Y-71383333D01*
X149795238Y-71611904D02*
X150061904Y-70811904D01*
X150328571Y-71611904D01*
X150595238Y-71611904D02*
X150595238Y-70811904D01*
X150861904Y-71383333D01*
X151128571Y-70811904D01*
X151128571Y-71611904D01*
X127597619Y-90686904D02*
X127216666Y-90686904D01*
X127178571Y-91067857D01*
X127216666Y-91029761D01*
X127292857Y-90991666D01*
X127483333Y-90991666D01*
X127559523Y-91029761D01*
X127597619Y-91067857D01*
X127635714Y-91144047D01*
X127635714Y-91334523D01*
X127597619Y-91410714D01*
X127559523Y-91448809D01*
X127483333Y-91486904D01*
X127292857Y-91486904D01*
X127216666Y-91448809D01*
X127178571Y-91410714D01*
X127864285Y-90686904D02*
X128130952Y-91486904D01*
X128397619Y-90686904D01*
X151641309Y-125101428D02*
X151679404Y-124987142D01*
X151679404Y-124796666D01*
X151641309Y-124720476D01*
X151603214Y-124682380D01*
X151527023Y-124644285D01*
X151450833Y-124644285D01*
X151374642Y-124682380D01*
X151336547Y-124720476D01*
X151298452Y-124796666D01*
X151260357Y-124949047D01*
X151222261Y-125025238D01*
X151184166Y-125063333D01*
X151107976Y-125101428D01*
X151031785Y-125101428D01*
X150955595Y-125063333D01*
X150917500Y-125025238D01*
X150879404Y-124949047D01*
X150879404Y-124758571D01*
X150917500Y-124644285D01*
X151679404Y-124301428D02*
X150879404Y-124301428D01*
X150879404Y-124110952D01*
X150917500Y-123996666D01*
X150993690Y-123920476D01*
X151069880Y-123882380D01*
X151222261Y-123844285D01*
X151336547Y-123844285D01*
X151488928Y-123882380D01*
X151565119Y-123920476D01*
X151641309Y-123996666D01*
X151679404Y-124110952D01*
X151679404Y-124301428D01*
X151450833Y-123539523D02*
X151450833Y-123158571D01*
X151679404Y-123615714D02*
X150879404Y-123349047D01*
X151679404Y-123082380D01*
X126065595Y-125850952D02*
X126865595Y-125850952D01*
X126065595Y-126689047D02*
X126446547Y-126422380D01*
X126065595Y-126231904D02*
X126865595Y-126231904D01*
X126865595Y-126536666D01*
X126827500Y-126612857D01*
X126789404Y-126650952D01*
X126713214Y-126689047D01*
X126598928Y-126689047D01*
X126522738Y-126650952D01*
X126484642Y-126612857D01*
X126446547Y-126536666D01*
X126446547Y-126231904D01*
X125989404Y-127565238D02*
X126027500Y-127489047D01*
X126103690Y-127412857D01*
X126217976Y-127298571D01*
X126256071Y-127222380D01*
X126256071Y-127146190D01*
X126065595Y-127184285D02*
X126103690Y-127108095D01*
X126179880Y-127031904D01*
X126332261Y-126993809D01*
X126598928Y-126993809D01*
X126751309Y-127031904D01*
X126827500Y-127108095D01*
X126865595Y-127184285D01*
X126865595Y-127336666D01*
X126827500Y-127412857D01*
X126751309Y-127489047D01*
X126598928Y-127527142D01*
X126332261Y-127527142D01*
X126179880Y-127489047D01*
X126103690Y-127412857D01*
X126065595Y-127336666D01*
X126065595Y-127184285D01*
X151641309Y-127622380D02*
X151679404Y-127508095D01*
X151679404Y-127317619D01*
X151641309Y-127241428D01*
X151603214Y-127203333D01*
X151527023Y-127165238D01*
X151450833Y-127165238D01*
X151374642Y-127203333D01*
X151336547Y-127241428D01*
X151298452Y-127317619D01*
X151260357Y-127470000D01*
X151222261Y-127546190D01*
X151184166Y-127584285D01*
X151107976Y-127622380D01*
X151031785Y-127622380D01*
X150955595Y-127584285D01*
X150917500Y-127546190D01*
X150879404Y-127470000D01*
X150879404Y-127279523D01*
X150917500Y-127165238D01*
X151603214Y-126365238D02*
X151641309Y-126403333D01*
X151679404Y-126517619D01*
X151679404Y-126593809D01*
X151641309Y-126708095D01*
X151565119Y-126784285D01*
X151488928Y-126822380D01*
X151336547Y-126860476D01*
X151222261Y-126860476D01*
X151069880Y-126822380D01*
X150993690Y-126784285D01*
X150917500Y-126708095D01*
X150879404Y-126593809D01*
X150879404Y-126517619D01*
X150917500Y-126403333D01*
X150955595Y-126365238D01*
X151679404Y-125641428D02*
X151679404Y-126022380D01*
X150879404Y-126022380D01*
X142626309Y-127622380D02*
X142664404Y-127508095D01*
X142664404Y-127317619D01*
X142626309Y-127241428D01*
X142588214Y-127203333D01*
X142512023Y-127165238D01*
X142435833Y-127165238D01*
X142359642Y-127203333D01*
X142321547Y-127241428D01*
X142283452Y-127317619D01*
X142245357Y-127470000D01*
X142207261Y-127546190D01*
X142169166Y-127584285D01*
X142092976Y-127622380D01*
X142016785Y-127622380D01*
X141940595Y-127584285D01*
X141902500Y-127546190D01*
X141864404Y-127470000D01*
X141864404Y-127279523D01*
X141902500Y-127165238D01*
X142588214Y-126365238D02*
X142626309Y-126403333D01*
X142664404Y-126517619D01*
X142664404Y-126593809D01*
X142626309Y-126708095D01*
X142550119Y-126784285D01*
X142473928Y-126822380D01*
X142321547Y-126860476D01*
X142207261Y-126860476D01*
X142054880Y-126822380D01*
X141978690Y-126784285D01*
X141902500Y-126708095D01*
X141864404Y-126593809D01*
X141864404Y-126517619D01*
X141902500Y-126403333D01*
X141940595Y-126365238D01*
X142664404Y-125641428D02*
X142664404Y-126022380D01*
X141864404Y-126022380D01*
X142626309Y-125101428D02*
X142664404Y-124987142D01*
X142664404Y-124796666D01*
X142626309Y-124720476D01*
X142588214Y-124682380D01*
X142512023Y-124644285D01*
X142435833Y-124644285D01*
X142359642Y-124682380D01*
X142321547Y-124720476D01*
X142283452Y-124796666D01*
X142245357Y-124949047D01*
X142207261Y-125025238D01*
X142169166Y-125063333D01*
X142092976Y-125101428D01*
X142016785Y-125101428D01*
X141940595Y-125063333D01*
X141902500Y-125025238D01*
X141864404Y-124949047D01*
X141864404Y-124758571D01*
X141902500Y-124644285D01*
X142664404Y-124301428D02*
X141864404Y-124301428D01*
X141864404Y-124110952D01*
X141902500Y-123996666D01*
X141978690Y-123920476D01*
X142054880Y-123882380D01*
X142207261Y-123844285D01*
X142321547Y-123844285D01*
X142473928Y-123882380D01*
X142550119Y-123920476D01*
X142626309Y-123996666D01*
X142664404Y-124110952D01*
X142664404Y-124301428D01*
X142435833Y-123539523D02*
X142435833Y-123158571D01*
X142664404Y-123615714D02*
X141864404Y-123349047D01*
X142664404Y-123082380D01*
X160933333Y-74061904D02*
X161390476Y-74061904D01*
X161161904Y-74861904D02*
X161161904Y-74061904D01*
X161657142Y-74861904D02*
X161657142Y-74061904D01*
X161923809Y-74633333D01*
X162190476Y-74061904D01*
X162190476Y-74861904D01*
X162533333Y-74823809D02*
X162647619Y-74861904D01*
X162838095Y-74861904D01*
X162914285Y-74823809D01*
X162952380Y-74785714D01*
X162990476Y-74709523D01*
X162990476Y-74633333D01*
X162952380Y-74557142D01*
X162914285Y-74519047D01*
X162838095Y-74480952D01*
X162685714Y-74442857D01*
X162609523Y-74404761D01*
X162571428Y-74366666D01*
X162533333Y-74290476D01*
X162533333Y-74214285D01*
X162571428Y-74138095D01*
X162609523Y-74100000D01*
X162685714Y-74061904D01*
X162876190Y-74061904D01*
X162990476Y-74100000D01*
X116133571Y-112279761D02*
X116133571Y-112613095D01*
X116657380Y-112613095D02*
X115657380Y-112613095D01*
X115657380Y-112136904D01*
X116657380Y-111755952D02*
X115990714Y-111755952D01*
X116181190Y-111755952D02*
X116085952Y-111708333D01*
X116038333Y-111660714D01*
X115990714Y-111565476D01*
X115990714Y-111470238D01*
X116657380Y-110994047D02*
X116609761Y-111089285D01*
X116562142Y-111136904D01*
X116466904Y-111184523D01*
X116181190Y-111184523D01*
X116085952Y-111136904D01*
X116038333Y-111089285D01*
X115990714Y-110994047D01*
X115990714Y-110851190D01*
X116038333Y-110755952D01*
X116085952Y-110708333D01*
X116181190Y-110660714D01*
X116466904Y-110660714D01*
X116562142Y-110708333D01*
X116609761Y-110755952D01*
X116657380Y-110851190D01*
X116657380Y-110994047D01*
X115990714Y-110232142D02*
X116657380Y-110232142D01*
X116085952Y-110232142D02*
X116038333Y-110184523D01*
X115990714Y-110089285D01*
X115990714Y-109946428D01*
X116038333Y-109851190D01*
X116133571Y-109803571D01*
X116657380Y-109803571D01*
X115990714Y-109470238D02*
X115990714Y-109089285D01*
X115657380Y-109327380D02*
X116514523Y-109327380D01*
X116609761Y-109279761D01*
X116657380Y-109184523D01*
X116657380Y-109089285D01*
X115990714Y-108755952D02*
X116990714Y-108755952D01*
X116038333Y-108755952D02*
X115990714Y-108660714D01*
X115990714Y-108470238D01*
X116038333Y-108375000D01*
X116085952Y-108327380D01*
X116181190Y-108279761D01*
X116466904Y-108279761D01*
X116562142Y-108327380D01*
X116609761Y-108375000D01*
X116657380Y-108470238D01*
X116657380Y-108660714D01*
X116609761Y-108755952D01*
X116657380Y-107422619D02*
X116133571Y-107422619D01*
X116038333Y-107470238D01*
X115990714Y-107565476D01*
X115990714Y-107755952D01*
X116038333Y-107851190D01*
X116609761Y-107422619D02*
X116657380Y-107517857D01*
X116657380Y-107755952D01*
X116609761Y-107851190D01*
X116514523Y-107898809D01*
X116419285Y-107898809D01*
X116324047Y-107851190D01*
X116276428Y-107755952D01*
X116276428Y-107517857D01*
X116228809Y-107422619D01*
X115990714Y-106946428D02*
X116657380Y-106946428D01*
X116085952Y-106946428D02*
X116038333Y-106898809D01*
X115990714Y-106803571D01*
X115990714Y-106660714D01*
X116038333Y-106565476D01*
X116133571Y-106517857D01*
X116657380Y-106517857D01*
X116609761Y-105660714D02*
X116657380Y-105755952D01*
X116657380Y-105946428D01*
X116609761Y-106041666D01*
X116514523Y-106089285D01*
X116133571Y-106089285D01*
X116038333Y-106041666D01*
X115990714Y-105946428D01*
X115990714Y-105755952D01*
X116038333Y-105660714D01*
X116133571Y-105613095D01*
X116228809Y-105613095D01*
X116324047Y-106089285D01*
X116657380Y-105041666D02*
X116609761Y-105136904D01*
X116514523Y-105184523D01*
X115657380Y-105184523D01*
X143845595Y-125850952D02*
X144645595Y-125850952D01*
X143845595Y-126689047D02*
X144226547Y-126422380D01*
X143845595Y-126231904D02*
X144645595Y-126231904D01*
X144645595Y-126536666D01*
X144607500Y-126612857D01*
X144569404Y-126650952D01*
X144493214Y-126689047D01*
X144378928Y-126689047D01*
X144302738Y-126650952D01*
X144264642Y-126612857D01*
X144226547Y-126536666D01*
X144226547Y-126231904D01*
X143769404Y-127565238D02*
X143807500Y-127489047D01*
X143883690Y-127412857D01*
X143997976Y-127298571D01*
X144036071Y-127222380D01*
X144036071Y-127146190D01*
X143845595Y-127184285D02*
X143883690Y-127108095D01*
X143959880Y-127031904D01*
X144112261Y-126993809D01*
X144378928Y-126993809D01*
X144531309Y-127031904D01*
X144607500Y-127108095D01*
X144645595Y-127184285D01*
X144645595Y-127336666D01*
X144607500Y-127412857D01*
X144531309Y-127489047D01*
X144378928Y-127527142D01*
X144112261Y-127527142D01*
X143959880Y-127489047D01*
X143883690Y-127412857D01*
X143845595Y-127336666D01*
X143845595Y-127184285D01*
%TO.C,U1*%
X151238095Y-103952380D02*
X151238095Y-104761904D01*
X151285714Y-104857142D01*
X151333333Y-104904761D01*
X151428571Y-104952380D01*
X151619047Y-104952380D01*
X151714285Y-104904761D01*
X151761904Y-104857142D01*
X151809523Y-104761904D01*
X151809523Y-103952380D01*
X152809523Y-104952380D02*
X152238095Y-104952380D01*
X152523809Y-104952380D02*
X152523809Y-103952380D01*
X152428571Y-104095238D01*
X152333333Y-104190476D01*
X152238095Y-104238095D01*
D11*
%TO.C,F2*%
X122240000Y-74921267D02*
X122240000Y-74578733D01*
X123260000Y-74921267D02*
X123260000Y-74578733D01*
%TO.C,R43*%
X132778641Y-90880000D02*
X132471359Y-90880000D01*
X132778641Y-90120000D02*
X132471359Y-90120000D01*
%TO.C,F1*%
X129953733Y-87990000D02*
X130296267Y-87990000D01*
X129953733Y-89010000D02*
X130296267Y-89010000D01*
%TO.C,D12*%
X129325000Y-90985000D02*
X131610000Y-90985000D01*
X131610000Y-90985000D02*
X131610000Y-89515000D01*
X131610000Y-89515000D02*
X129325000Y-89515000D01*
%TO.C,C203*%
X171140580Y-108990000D02*
X170859420Y-108990000D01*
X171140580Y-110010000D02*
X170859420Y-110010000D01*
%TO.C,C107*%
X172640000Y-94607836D02*
X172640000Y-94392164D01*
X173360000Y-94607836D02*
X173360000Y-94392164D01*
%TO.C,R205*%
X175237258Y-110022500D02*
X174762742Y-110022500D01*
X175237258Y-108977500D02*
X174762742Y-108977500D01*
%TO.C,R105*%
X175237258Y-95022500D02*
X174762742Y-95022500D01*
X175237258Y-93977500D02*
X174762742Y-93977500D01*
%TO.C,J2*%
X128750000Y-70422500D02*
X129350000Y-70422500D01*
X124140000Y-87222500D02*
X124140000Y-71222500D01*
X129350000Y-70422500D02*
X129050000Y-71022500D01*
X131160000Y-87222500D02*
X124140000Y-87222500D01*
X132860000Y-86022500D02*
X131160000Y-86022500D01*
X131160000Y-72422500D02*
X132860000Y-72422500D01*
X132860000Y-72422500D02*
X132860000Y-86022500D01*
X129050000Y-71022500D02*
X128750000Y-70422500D01*
X131160000Y-86022500D02*
X131160000Y-87222500D01*
X124140000Y-71222500D02*
X131160000Y-71222500D01*
X131160000Y-71222500D02*
X131160000Y-72422500D01*
%TO.C,C102*%
X166984420Y-97615000D02*
X167265580Y-97615000D01*
X166984420Y-98635000D02*
X167265580Y-98635000D01*
%TO.C,C103*%
X171140580Y-93990000D02*
X170859420Y-93990000D01*
X171140580Y-95010000D02*
X170859420Y-95010000D01*
%TO.C,C105*%
X169860000Y-97892164D02*
X169860000Y-98107836D01*
X169140000Y-97892164D02*
X169140000Y-98107836D01*
%TO.C,C106*%
X175010000Y-103609420D02*
X175010000Y-103890580D01*
X173990000Y-103609420D02*
X173990000Y-103890580D01*
%TO.C,C202*%
X166984420Y-113635000D02*
X167265580Y-113635000D01*
X166984420Y-112615000D02*
X167265580Y-112615000D01*
%TO.C,C204*%
X176760000Y-118609420D02*
X176760000Y-118890580D01*
X175740000Y-118609420D02*
X175740000Y-118890580D01*
%TO.C,C205*%
X169860000Y-112892164D02*
X169860000Y-113107836D01*
X169140000Y-112892164D02*
X169140000Y-113107836D01*
%TO.C,C206*%
X173990000Y-118609420D02*
X173990000Y-118890580D01*
X175010000Y-118609420D02*
X175010000Y-118890580D01*
%TO.C,C207*%
X172640000Y-109607836D02*
X172640000Y-109392164D01*
X173360000Y-109607836D02*
X173360000Y-109392164D01*
%TO.C,C201*%
X171463748Y-118065000D02*
X171986252Y-118065000D01*
X171463748Y-119535000D02*
X171986252Y-119535000D01*
%TO.C,J101*%
X186035000Y-95420000D02*
X186035000Y-104580000D01*
X184330000Y-95420000D02*
X186035000Y-95420000D01*
X186035000Y-104580000D02*
X184330000Y-104580000D01*
X180400000Y-104580000D02*
X182320000Y-104580000D01*
X182320000Y-95420000D02*
X180400000Y-95420000D01*
%TO.C,J201*%
X186035000Y-119580000D02*
X184330000Y-119580000D01*
X182320000Y-110420000D02*
X180400000Y-110420000D01*
X184330000Y-110420000D02*
X186035000Y-110420000D01*
X180400000Y-119580000D02*
X182320000Y-119580000D01*
X186035000Y-110420000D02*
X186035000Y-119580000D01*
%TO.C,L101*%
X172149622Y-106310000D02*
X171350378Y-106310000D01*
X172149622Y-105190000D02*
X171350378Y-105190000D01*
%TO.C,R102*%
X182153641Y-105620000D02*
X181846359Y-105620000D01*
X182153641Y-106380000D02*
X181846359Y-106380000D01*
%TO.C,R104*%
X176620000Y-94653641D02*
X176620000Y-94346359D01*
X177380000Y-94653641D02*
X177380000Y-94346359D01*
%TO.C,R201*%
X179846359Y-121380000D02*
X180153641Y-121380000D01*
X179846359Y-120620000D02*
X180153641Y-120620000D01*
%TO.C,R202*%
X182153641Y-121380000D02*
X181846359Y-121380000D01*
X182153641Y-120620000D02*
X181846359Y-120620000D01*
%TO.C,R204*%
X176620000Y-109653641D02*
X176620000Y-109346359D01*
X177380000Y-109653641D02*
X177380000Y-109346359D01*
%TO.C,U102*%
X169310000Y-95000000D02*
X169310000Y-95800000D01*
X166190000Y-95000000D02*
X166190000Y-96800000D01*
X169310000Y-95000000D02*
X169310000Y-94200000D01*
X166190000Y-95000000D02*
X166190000Y-94200000D01*
%TO.C,U101*%
X176110000Y-96390000D02*
X176110000Y-96865000D01*
X175635000Y-96390000D02*
X176110000Y-96390000D01*
X171365000Y-96390000D02*
X170890000Y-96390000D01*
X175635000Y-101610000D02*
X176110000Y-101610000D01*
X170890000Y-101610000D02*
X170890000Y-101135000D01*
X176110000Y-101610000D02*
X176110000Y-101135000D01*
X171365000Y-101610000D02*
X170890000Y-101610000D01*
%TO.C,U202*%
X169310000Y-110000000D02*
X169310000Y-109200000D01*
X169310000Y-110000000D02*
X169310000Y-110800000D01*
X166190000Y-110000000D02*
X166190000Y-109200000D01*
X166190000Y-110000000D02*
X166190000Y-111800000D01*
%TO.C,U201*%
X175635000Y-116610000D02*
X176110000Y-116610000D01*
X175635000Y-111390000D02*
X176110000Y-111390000D01*
X170890000Y-116610000D02*
X170890000Y-116135000D01*
X176110000Y-116610000D02*
X176110000Y-116135000D01*
X171365000Y-116610000D02*
X170890000Y-116610000D01*
X176110000Y-111390000D02*
X176110000Y-111865000D01*
X171365000Y-111390000D02*
X170890000Y-111390000D01*
%TO.C,R101*%
X179846359Y-106380000D02*
X180153641Y-106380000D01*
X179846359Y-105620000D02*
X180153641Y-105620000D01*
%TO.C,C104*%
X175740000Y-103609420D02*
X175740000Y-103890580D01*
X176760000Y-103609420D02*
X176760000Y-103890580D01*
%TO.C,C101*%
X171338748Y-103065000D02*
X171861252Y-103065000D01*
X171338748Y-104535000D02*
X171861252Y-104535000D01*
%TO.C,L201*%
X172274622Y-121310000D02*
X171475378Y-121310000D01*
X172274622Y-120190000D02*
X171475378Y-120190000D01*
%TO.C,J501*%
X182320000Y-80420000D02*
X180400000Y-80420000D01*
X186035000Y-80420000D02*
X186035000Y-89580000D01*
X184330000Y-80420000D02*
X186035000Y-80420000D01*
X186035000Y-89580000D02*
X184330000Y-89580000D01*
X180400000Y-89580000D02*
X182320000Y-89580000D01*
%TO.C,R501*%
X179846359Y-91380000D02*
X180153641Y-91380000D01*
X179846359Y-90620000D02*
X180153641Y-90620000D01*
%TO.C,R502*%
X182153641Y-90620000D02*
X181846359Y-90620000D01*
X182153641Y-91380000D02*
X181846359Y-91380000D01*
%TO.C,C501*%
X173015000Y-88392164D02*
X173015000Y-88607836D01*
X173735000Y-88392164D02*
X173735000Y-88607836D01*
%TO.C,C502*%
X174642164Y-85265000D02*
X174857836Y-85265000D01*
X174642164Y-85985000D02*
X174857836Y-85985000D01*
%TO.C,C506*%
X174642164Y-82235000D02*
X174857836Y-82235000D01*
X174642164Y-81515000D02*
X174857836Y-81515000D01*
%TO.C,C507*%
X162357836Y-80140000D02*
X162142164Y-80140000D01*
X162357836Y-80860000D02*
X162142164Y-80860000D01*
%TO.C,C509*%
X174642164Y-80140000D02*
X174857836Y-80140000D01*
X174642164Y-80860000D02*
X174857836Y-80860000D01*
%TO.C,C510*%
X162357836Y-83360000D02*
X162142164Y-83360000D01*
X162357836Y-82640000D02*
X162142164Y-82640000D01*
%TO.C,C511*%
X170390000Y-76107836D02*
X170390000Y-75892164D01*
X171110000Y-76107836D02*
X171110000Y-75892164D01*
%TO.C,C512*%
X165610000Y-76107836D02*
X165610000Y-75892164D01*
X164890000Y-76107836D02*
X164890000Y-75892164D01*
%TO.C,C514*%
X164392164Y-87640000D02*
X164607836Y-87640000D01*
X164392164Y-88360000D02*
X164607836Y-88360000D01*
%TO.C,C515*%
X164859420Y-88890000D02*
X165140580Y-88890000D01*
X164859420Y-89910000D02*
X165140580Y-89910000D01*
%TO.C,L1*%
X178685000Y-77475378D02*
X178685000Y-78274622D01*
X177565000Y-77475378D02*
X177565000Y-78274622D01*
%TO.C,L501*%
X183315000Y-77475378D02*
X183315000Y-78274622D01*
X184435000Y-77475378D02*
X184435000Y-78274622D01*
%TO.C,R508*%
X170120000Y-88653641D02*
X170120000Y-88346359D01*
X170880000Y-88653641D02*
X170880000Y-88346359D01*
%TO.C,Y501*%
X173975000Y-86250000D02*
X173975000Y-90250000D01*
X177275000Y-86250000D02*
X173975000Y-86250000D01*
%TO.C,C508*%
X171890000Y-88392164D02*
X171890000Y-88607836D01*
X172610000Y-88392164D02*
X172610000Y-88607836D01*
%TO.C,R601*%
X151820000Y-124753641D02*
X151820000Y-124446359D01*
X152580000Y-124753641D02*
X152580000Y-124446359D01*
%TO.C,R602*%
X152580000Y-127353641D02*
X152580000Y-127046359D01*
X151820000Y-127353641D02*
X151820000Y-127046359D01*
%TO.C,R611*%
X142820000Y-124753641D02*
X142820000Y-124446359D01*
X143580000Y-124753641D02*
X143580000Y-124446359D01*
%TO.C,R612*%
X143580000Y-127353641D02*
X143580000Y-127046359D01*
X142820000Y-127353641D02*
X142820000Y-127046359D01*
%TO.C,R621*%
X134020000Y-124753641D02*
X134020000Y-124446359D01*
X134780000Y-124753641D02*
X134780000Y-124446359D01*
%TO.C,R622*%
X134020000Y-127353641D02*
X134020000Y-127046359D01*
X134780000Y-127353641D02*
X134780000Y-127046359D01*
%TO.C,J611*%
X138810000Y-112700000D02*
X138810000Y-110100000D01*
X136210000Y-112700000D02*
X136210000Y-128000000D01*
X138810000Y-110100000D02*
X141410000Y-110100000D01*
X136210000Y-112700000D02*
X138810000Y-112700000D01*
X136210000Y-111430000D02*
X136210000Y-110100000D01*
X136210000Y-110100000D02*
X137540000Y-110100000D01*
X136210000Y-128000000D02*
X141410000Y-128000000D01*
X141410000Y-110100000D02*
X141410000Y-128000000D01*
%TO.C,J621*%
X132520000Y-110100000D02*
X132520000Y-128000000D01*
X127320000Y-128000000D02*
X132520000Y-128000000D01*
X129920000Y-112700000D02*
X129920000Y-110100000D01*
X127320000Y-112700000D02*
X127320000Y-128000000D01*
X127320000Y-110100000D02*
X128650000Y-110100000D01*
X127320000Y-112700000D02*
X129920000Y-112700000D01*
X127320000Y-111430000D02*
X127320000Y-110100000D01*
X129920000Y-110100000D02*
X132520000Y-110100000D01*
%TO.C,J702*%
X160610000Y-117680000D02*
X160610000Y-127960000D01*
X155410000Y-120280000D02*
X155410000Y-127960000D01*
X158010000Y-120280000D02*
X158010000Y-117680000D01*
X155410000Y-127960000D02*
X160610000Y-127960000D01*
X155410000Y-117680000D02*
X156740000Y-117680000D01*
X155410000Y-120280000D02*
X158010000Y-120280000D01*
X158010000Y-117680000D02*
X160610000Y-117680000D01*
X155410000Y-119010000D02*
X155410000Y-117680000D01*
%TO.C,J701*%
X164300000Y-120280000D02*
X166900000Y-120280000D01*
X164300000Y-127960000D02*
X169500000Y-127960000D01*
X164300000Y-117680000D02*
X165630000Y-117680000D01*
X166900000Y-120280000D02*
X166900000Y-117680000D01*
X164300000Y-120280000D02*
X164300000Y-127960000D01*
X164300000Y-119010000D02*
X164300000Y-117680000D01*
X169500000Y-117680000D02*
X169500000Y-127960000D01*
X166900000Y-117680000D02*
X169500000Y-117680000D01*
%TO.C,J601*%
X145250000Y-128000000D02*
X150450000Y-128000000D01*
X145250000Y-110100000D02*
X146580000Y-110100000D01*
X145250000Y-111430000D02*
X145250000Y-110100000D01*
X150450000Y-110100000D02*
X150450000Y-128000000D01*
X147850000Y-112700000D02*
X147850000Y-110100000D01*
X147850000Y-110100000D02*
X150450000Y-110100000D01*
X145250000Y-112700000D02*
X145250000Y-128000000D01*
X145250000Y-112700000D02*
X147850000Y-112700000D01*
%TO.C,J801*%
X119755000Y-94860000D02*
X122355000Y-94860000D01*
X117155000Y-122920000D02*
X122355000Y-122920000D01*
X117155000Y-97460000D02*
X119755000Y-97460000D01*
X122355000Y-94860000D02*
X122355000Y-122920000D01*
X119755000Y-97460000D02*
X119755000Y-94860000D01*
X117155000Y-94860000D02*
X118485000Y-94860000D01*
X117155000Y-96190000D02*
X117155000Y-94860000D01*
X117155000Y-97460000D02*
X117155000Y-122920000D01*
%TO.C,U501*%
X163890000Y-86860000D02*
X163890000Y-86385000D01*
X163890000Y-77640000D02*
X163890000Y-78115000D01*
X164365000Y-77640000D02*
X163890000Y-77640000D01*
X172635000Y-86860000D02*
X173110000Y-86860000D01*
X172635000Y-77640000D02*
X173110000Y-77640000D01*
X164365000Y-86860000D02*
X163890000Y-86860000D01*
X173110000Y-77640000D02*
X173110000Y-78115000D01*
%TO.C,D3*%
X127765000Y-93227500D02*
X127765000Y-95512500D01*
X129235000Y-95512500D02*
X129235000Y-93227500D01*
X129235000Y-93227500D02*
X127765000Y-93227500D01*
%TO.C,D4*%
X131235000Y-95550000D02*
X131235000Y-93265000D01*
X131235000Y-93265000D02*
X129765000Y-93265000D01*
X129765000Y-93265000D02*
X129765000Y-95550000D01*
%TO.C,D5*%
X125235000Y-95512500D02*
X125235000Y-93227500D01*
X123765000Y-93227500D02*
X123765000Y-95512500D01*
X125235000Y-93227500D02*
X123765000Y-93227500D01*
%TO.C,R3*%
X123120000Y-100096359D02*
X123120000Y-100403641D01*
X123880000Y-100096359D02*
X123880000Y-100403641D01*
%TO.C,R4*%
X129120000Y-100096359D02*
X129120000Y-100403641D01*
X129880000Y-100096359D02*
X129880000Y-100403641D01*
%TO.C,R5*%
X135880000Y-100096359D02*
X135880000Y-100403641D01*
X135120000Y-100096359D02*
X135120000Y-100403641D01*
%TO.C,J4*%
X119760000Y-89840000D02*
X119760000Y-92440000D01*
X122360000Y-77080000D02*
X117160000Y-77080000D01*
X122360000Y-91110000D02*
X122360000Y-92440000D01*
X119760000Y-92440000D02*
X117160000Y-92440000D01*
X122360000Y-92440000D02*
X121030000Y-92440000D01*
X122360000Y-89840000D02*
X122360000Y-77080000D01*
X117160000Y-92440000D02*
X117160000Y-77080000D01*
X122360000Y-89840000D02*
X119760000Y-89840000D01*
%TO.C,C3*%
X124488748Y-89485000D02*
X125011252Y-89485000D01*
X124488748Y-88015000D02*
X125011252Y-88015000D01*
%TO.C,L2*%
X125149622Y-90190000D02*
X124350378Y-90190000D01*
X125149622Y-91310000D02*
X124350378Y-91310000D01*
%TO.C,D2*%
X133390000Y-85015000D02*
X133390000Y-87300000D01*
X134860000Y-87300000D02*
X134860000Y-85015000D01*
X134860000Y-85015000D02*
X133390000Y-85015000D01*
%TO.C,L6*%
X163725378Y-108685000D02*
X164524622Y-108685000D01*
X163725378Y-107565000D02*
X164524622Y-107565000D01*
%TO.C,R36*%
X169880000Y-76153641D02*
X169880000Y-75846359D01*
X169120000Y-76153641D02*
X169120000Y-75846359D01*
%TO.C,SW4*%
X134150000Y-102580000D02*
X134150000Y-102880000D01*
X134150000Y-100380000D02*
X134150000Y-100080000D01*
X134150000Y-102880000D02*
X130850000Y-102880000D01*
X130850000Y-100080000D02*
X130850000Y-100380000D01*
X134150000Y-100080000D02*
X130850000Y-100080000D01*
X130850000Y-102880000D02*
X130850000Y-102580000D01*
%TO.C,R38*%
X155971359Y-107880000D02*
X156278641Y-107880000D01*
X155971359Y-107120000D02*
X156278641Y-107120000D01*
%TO.C,U4*%
X137440000Y-80750000D02*
X137440000Y-82550000D01*
X140560000Y-80750000D02*
X140560000Y-81550000D01*
X140560000Y-80750000D02*
X140560000Y-79950000D01*
X137440000Y-80750000D02*
X137440000Y-79950000D01*
%TO.C,J1*%
X160670000Y-73830000D02*
X160670000Y-72500000D01*
X163270000Y-73830000D02*
X163270000Y-71170000D01*
X163270000Y-71170000D02*
X176030000Y-71170000D01*
X176030000Y-73830000D02*
X176030000Y-71170000D01*
X163270000Y-73830000D02*
X176030000Y-73830000D01*
X162000000Y-73830000D02*
X160670000Y-73830000D01*
%TO.C,C14*%
X135640580Y-83240000D02*
X135359420Y-83240000D01*
X135640580Y-84260000D02*
X135359420Y-84260000D01*
%TO.C,C16*%
X135640580Y-91740000D02*
X135359420Y-91740000D01*
X135640580Y-92760000D02*
X135359420Y-92760000D01*
%TO.C,C516*%
X174642164Y-78140000D02*
X174857836Y-78140000D01*
X174642164Y-78860000D02*
X174857836Y-78860000D01*
%TO.C,TP5*%
X137200000Y-76750000D02*
G75*
G03*
X137200000Y-76750000I-950000J0D01*
G01*
%TO.C,R15*%
X153370000Y-84153641D02*
X153370000Y-83846359D01*
X154130000Y-84153641D02*
X154130000Y-83846359D01*
%TO.C,C52*%
X129140000Y-102122164D02*
X129140000Y-102337836D01*
X129860000Y-102122164D02*
X129860000Y-102337836D01*
%TO.C,R16*%
X152096359Y-75745000D02*
X152403641Y-75745000D01*
X152096359Y-76505000D02*
X152403641Y-76505000D01*
%TO.C,R11*%
X134880000Y-78846359D02*
X134880000Y-79153641D01*
X134120000Y-78846359D02*
X134120000Y-79153641D01*
%TO.C,R40*%
X124653641Y-96620000D02*
X124346359Y-96620000D01*
X124653641Y-97380000D02*
X124346359Y-97380000D01*
%TO.C,R503*%
X174903641Y-84005000D02*
X174596359Y-84005000D01*
X174903641Y-83245000D02*
X174596359Y-83245000D01*
%TO.C,C4*%
X138859420Y-87365000D02*
X139140580Y-87365000D01*
X138859420Y-88385000D02*
X139140580Y-88385000D01*
%TO.C,D10*%
X150015000Y-72700000D02*
X150015000Y-74985000D01*
X151485000Y-74985000D02*
X151485000Y-72700000D01*
X150015000Y-74985000D02*
X151485000Y-74985000D01*
%TO.C,R34*%
X167630000Y-76153641D02*
X167630000Y-75846359D01*
X166870000Y-76153641D02*
X166870000Y-75846359D01*
%TO.C,R505*%
X175028641Y-92245000D02*
X174721359Y-92245000D01*
X175028641Y-93005000D02*
X174721359Y-93005000D01*
%TO.C,C10*%
X135640580Y-91260000D02*
X135359420Y-91260000D01*
X135640580Y-90240000D02*
X135359420Y-90240000D01*
%TO.C,C9*%
X142640000Y-79107836D02*
X142640000Y-78892164D01*
X143360000Y-79107836D02*
X143360000Y-78892164D01*
%TO.C,U3*%
X137440000Y-90750000D02*
X137440000Y-89950000D01*
X137440000Y-90750000D02*
X137440000Y-92550000D01*
X140560000Y-90750000D02*
X140560000Y-89950000D01*
X140560000Y-90750000D02*
X140560000Y-91550000D01*
%TO.C,R13*%
X142380000Y-78846359D02*
X142380000Y-79153641D01*
X141620000Y-78846359D02*
X141620000Y-79153641D01*
%TO.C,R14*%
X154370000Y-83846359D02*
X154370000Y-84153641D01*
X155130000Y-83846359D02*
X155130000Y-84153641D01*
%TO.C,C503*%
X182635000Y-78265580D02*
X182635000Y-77984420D01*
X181615000Y-78265580D02*
X181615000Y-77984420D01*
%TO.C,C505*%
X180385000Y-78265580D02*
X180385000Y-77984420D01*
X179365000Y-78265580D02*
X179365000Y-77984420D01*
%TO.C,R17*%
X153130000Y-83846359D02*
X153130000Y-84153641D01*
X152370000Y-83846359D02*
X152370000Y-84153641D01*
%TO.C,C53*%
X135860000Y-102122164D02*
X135860000Y-102337836D01*
X135140000Y-102122164D02*
X135140000Y-102337836D01*
%TO.C,R9*%
X134880000Y-88846359D02*
X134880000Y-89153641D01*
X134120000Y-88846359D02*
X134120000Y-89153641D01*
%TO.C,C17*%
X135640580Y-81740000D02*
X135359420Y-81740000D01*
X135640580Y-82760000D02*
X135359420Y-82760000D01*
%TO.C,C513*%
X168610000Y-88392164D02*
X168610000Y-88607836D01*
X167890000Y-88392164D02*
X167890000Y-88607836D01*
%TO.C,C19*%
X169610000Y-104886252D02*
X169610000Y-104363748D01*
X168140000Y-104886252D02*
X168140000Y-104363748D01*
%TO.C,C18*%
X143140580Y-81740000D02*
X142859420Y-81740000D01*
X143140580Y-82760000D02*
X142859420Y-82760000D01*
%TO.C,R29*%
X152653641Y-72120000D02*
X152346359Y-72120000D01*
X152653641Y-72880000D02*
X152346359Y-72880000D01*
%TO.C,SW5*%
X136850000Y-102880000D02*
X136850000Y-102580000D01*
X136850000Y-100080000D02*
X136850000Y-100380000D01*
X140150000Y-100380000D02*
X140150000Y-100080000D01*
X140150000Y-102880000D02*
X136850000Y-102880000D01*
X140150000Y-100080000D02*
X136850000Y-100080000D01*
X140150000Y-102580000D02*
X140150000Y-102880000D01*
%TO.C,SW2*%
X145850000Y-72400000D02*
X145850000Y-72100000D01*
X145850000Y-74600000D02*
X145850000Y-74900000D01*
X145850000Y-72100000D02*
X149150000Y-72100000D01*
X149150000Y-72100000D02*
X149150000Y-72400000D01*
X145850000Y-74900000D02*
X149150000Y-74900000D01*
X149150000Y-74900000D02*
X149150000Y-74600000D01*
%TO.C,SW1*%
X154350000Y-72400000D02*
X154350000Y-72100000D01*
X154350000Y-72100000D02*
X157650000Y-72100000D01*
X154350000Y-74600000D02*
X154350000Y-74900000D01*
X154350000Y-74900000D02*
X157650000Y-74900000D01*
X157650000Y-72100000D02*
X157650000Y-72400000D01*
X157650000Y-74900000D02*
X157650000Y-74600000D01*
%TO.C,D7*%
X139485000Y-74985000D02*
X139485000Y-72700000D01*
X138015000Y-74985000D02*
X139485000Y-74985000D01*
X138015000Y-72700000D02*
X138015000Y-74985000D01*
%TO.C,R42*%
X132663641Y-97380000D02*
X132356359Y-97380000D01*
X132663641Y-96620000D02*
X132356359Y-96620000D01*
%TO.C,R1*%
X132778641Y-91880000D02*
X132471359Y-91880000D01*
X132778641Y-91120000D02*
X132471359Y-91120000D01*
%TO.C,R10*%
X136120000Y-79153641D02*
X136120000Y-78846359D01*
X136880000Y-79153641D02*
X136880000Y-78846359D01*
%TO.C,SW3*%
X128150000Y-100080000D02*
X124850000Y-100080000D01*
X124850000Y-102880000D02*
X124850000Y-102580000D01*
X128150000Y-100380000D02*
X128150000Y-100080000D01*
X128150000Y-102880000D02*
X124850000Y-102880000D01*
X128150000Y-102580000D02*
X128150000Y-102880000D01*
X124850000Y-100080000D02*
X124850000Y-100380000D01*
%TO.C,D8*%
X158515000Y-74985000D02*
X159985000Y-74985000D01*
X159985000Y-74985000D02*
X159985000Y-72700000D01*
X158515000Y-72700000D02*
X158515000Y-74985000D01*
%TO.C,R28*%
X150153641Y-76505000D02*
X149846359Y-76505000D01*
X150153641Y-75745000D02*
X149846359Y-75745000D01*
%TO.C,R7*%
X156130000Y-84153641D02*
X156130000Y-83846359D01*
X155370000Y-84153641D02*
X155370000Y-83846359D01*
%TO.C,R27*%
X144153641Y-74580000D02*
X143846359Y-74580000D01*
X144153641Y-73820000D02*
X143846359Y-73820000D01*
%TO.C,U6*%
X158685000Y-112000000D02*
X158685000Y-113950000D01*
X153565000Y-112000000D02*
X153565000Y-115450000D01*
X153565000Y-112000000D02*
X153565000Y-110050000D01*
X158685000Y-112000000D02*
X158685000Y-110050000D01*
%TO.C,D11*%
X133235000Y-93265000D02*
X131765000Y-93265000D01*
X133235000Y-95550000D02*
X133235000Y-93265000D01*
X131765000Y-93265000D02*
X131765000Y-95550000D01*
%TO.C,C51*%
X123140000Y-102142164D02*
X123140000Y-102357836D01*
X123860000Y-102142164D02*
X123860000Y-102357836D01*
%TO.C,R37*%
X158278641Y-107120000D02*
X157971359Y-107120000D01*
X158278641Y-107880000D02*
X157971359Y-107880000D01*
%TO.C,R41*%
X126663641Y-97360000D02*
X126356359Y-97360000D01*
X126663641Y-96600000D02*
X126356359Y-96600000D01*
%TO.C,C12*%
X143140580Y-80240000D02*
X142859420Y-80240000D01*
X143140580Y-81260000D02*
X142859420Y-81260000D01*
%TO.C,C8*%
X135860000Y-79107836D02*
X135860000Y-78892164D01*
X135140000Y-79107836D02*
X135140000Y-78892164D01*
%TO.C,R35*%
X168755000Y-76153641D02*
X168755000Y-75846359D01*
X167995000Y-76153641D02*
X167995000Y-75846359D01*
%TO.C,R31*%
X152653641Y-73120000D02*
X152346359Y-73120000D01*
X152653641Y-73880000D02*
X152346359Y-73880000D01*
%TO.C,C50*%
X154232836Y-107860000D02*
X154017164Y-107860000D01*
X154232836Y-107140000D02*
X154017164Y-107140000D01*
%TO.C,C11*%
X135640580Y-81260000D02*
X135359420Y-81260000D01*
X135640580Y-80240000D02*
X135359420Y-80240000D01*
%TO.C,U2*%
X153500000Y-76775000D02*
X156225000Y-76775000D01*
X156225000Y-82225000D02*
X156225000Y-81965000D01*
X150775000Y-77035000D02*
X149100000Y-77035000D01*
X153500000Y-82225000D02*
X150775000Y-82225000D01*
X150775000Y-82225000D02*
X150775000Y-81965000D01*
X156225000Y-76775000D02*
X156225000Y-77035000D01*
X153500000Y-82225000D02*
X156225000Y-82225000D01*
X150775000Y-76775000D02*
X150775000Y-77035000D01*
X153500000Y-76775000D02*
X150775000Y-76775000D01*
%TO.C,R2*%
X133880000Y-89153641D02*
X133880000Y-88846359D01*
X133120000Y-89153641D02*
X133120000Y-88846359D01*
%TO.C,C15*%
X143140580Y-83240000D02*
X142859420Y-83240000D01*
X143140580Y-84260000D02*
X142859420Y-84260000D01*
%TO.C,C7*%
X135140000Y-89107836D02*
X135140000Y-88892164D01*
X135860000Y-89107836D02*
X135860000Y-88892164D01*
%TO.C,R504*%
X175028641Y-91120000D02*
X174721359Y-91120000D01*
X175028641Y-91880000D02*
X174721359Y-91880000D01*
%TO.C,C20*%
X168767164Y-106640000D02*
X168982836Y-106640000D01*
X168767164Y-107360000D02*
X168982836Y-107360000D01*
%TO.C,R506*%
X168620000Y-92028641D02*
X168620000Y-91721359D01*
X169380000Y-92028641D02*
X169380000Y-91721359D01*
%TO.C,TP4*%
X137200000Y-86750000D02*
G75*
G03*
X137200000Y-86750000I-950000J0D01*
G01*
%TO.C,R30*%
X149846359Y-82620000D02*
X150153641Y-82620000D01*
X149846359Y-83380000D02*
X150153641Y-83380000D01*
%TO.C,R18*%
X151370000Y-84153641D02*
X151370000Y-83846359D01*
X152130000Y-84153641D02*
X152130000Y-83846359D01*
%TO.C,D6*%
X127235000Y-95550000D02*
X127235000Y-93265000D01*
X127235000Y-93265000D02*
X125765000Y-93265000D01*
X125765000Y-93265000D02*
X125765000Y-95550000D01*
%TO.C,U5*%
X144940000Y-80750000D02*
X144940000Y-82550000D01*
X144940000Y-80750000D02*
X144940000Y-79950000D01*
X148060000Y-80750000D02*
X148060000Y-81550000D01*
X148060000Y-80750000D02*
X148060000Y-79950000D01*
%TO.C,R6*%
X156370000Y-83846359D02*
X156370000Y-84153641D01*
X157130000Y-83846359D02*
X157130000Y-84153641D01*
%TO.C,D9*%
X142985000Y-74985000D02*
X142985000Y-72700000D01*
X141515000Y-74985000D02*
X142985000Y-74985000D01*
X141515000Y-72700000D02*
X141515000Y-74985000D01*
%TO.C,R22*%
X160653641Y-75370000D02*
X160346359Y-75370000D01*
X160653641Y-76130000D02*
X160346359Y-76130000D01*
%TO.C,R32*%
X158370000Y-78086359D02*
X158370000Y-78393641D01*
X159130000Y-78086359D02*
X159130000Y-78393641D01*
%TO.C,D1*%
X128640000Y-92610000D02*
X130925000Y-92610000D01*
X130925000Y-91140000D02*
X128640000Y-91140000D01*
X128640000Y-91140000D02*
X128640000Y-92610000D01*
%TO.C,R24*%
X159130000Y-82846359D02*
X159130000Y-83153641D01*
X158370000Y-82846359D02*
X158370000Y-83153641D01*
%TO.C,R12*%
X143620000Y-79153641D02*
X143620000Y-78846359D01*
X144380000Y-79153641D02*
X144380000Y-78846359D01*
%TO.C,R507*%
X174596359Y-79120000D02*
X174903641Y-79120000D01*
X174596359Y-79880000D02*
X174903641Y-79880000D01*
%TO.C,C6*%
X146359420Y-77365000D02*
X146640580Y-77365000D01*
X146359420Y-78385000D02*
X146640580Y-78385000D01*
%TO.C,C2*%
X152392164Y-74140000D02*
X152607836Y-74140000D01*
X152392164Y-74860000D02*
X152607836Y-74860000D01*
%TO.C,Q1*%
X135762500Y-71940000D02*
X134087500Y-71940000D01*
X135762500Y-71940000D02*
X136412500Y-71940000D01*
X135762500Y-75060000D02*
X135112500Y-75060000D01*
X135762500Y-75060000D02*
X136412500Y-75060000D01*
%TO.C,C1*%
X160392164Y-78110000D02*
X160607836Y-78110000D01*
X160392164Y-77390000D02*
X160607836Y-77390000D01*
%TO.C,R26*%
X160653641Y-76370000D02*
X160346359Y-76370000D01*
X160653641Y-77130000D02*
X160346359Y-77130000D01*
%TO.C,U1*%
X143390000Y-86390000D02*
X160610000Y-86390000D01*
X143390000Y-103610000D02*
X143390000Y-86390000D01*
X159610000Y-103610000D02*
X143390000Y-103610000D01*
X160610000Y-86390000D02*
X160610000Y-102610000D01*
%TO.C,C13*%
X135640580Y-94260000D02*
X135359420Y-94260000D01*
X135640580Y-93240000D02*
X135359420Y-93240000D01*
%TO.C,R33*%
X171995000Y-76153641D02*
X171995000Y-75846359D01*
X172755000Y-76153641D02*
X172755000Y-75846359D01*
%TO.C,L5*%
X146899622Y-83190000D02*
X146100378Y-83190000D01*
X146899622Y-84310000D02*
X146100378Y-84310000D01*
%TO.C,R19*%
X128663641Y-97380000D02*
X128356359Y-97380000D01*
X128663641Y-96620000D02*
X128356359Y-96620000D01*
%TO.C,TP6*%
X144700000Y-76750000D02*
G75*
G03*
X144700000Y-76750000I-950000J0D01*
G01*
%TO.C,R20*%
X140653641Y-73180000D02*
X140346359Y-73180000D01*
X140653641Y-72420000D02*
X140346359Y-72420000D01*
%TO.C,X1*%
X167270000Y-103200000D02*
X167700000Y-103200000D01*
X167700000Y-106800000D02*
X167270000Y-106800000D01*
X167700000Y-103200000D02*
X167700000Y-106800000D01*
X162730000Y-106800000D02*
X162300000Y-106800000D01*
X165270000Y-106800000D02*
X164730000Y-106800000D01*
X164730000Y-103200000D02*
X165270000Y-103200000D01*
X162300000Y-106800000D02*
X162300000Y-103200000D01*
X167270000Y-102950000D02*
X167270000Y-103200000D01*
X165270000Y-103200000D02*
X165270000Y-102950000D01*
X162300000Y-103200000D02*
X162730000Y-103200000D01*
%TO.C,R21*%
X140653641Y-73820000D02*
X140346359Y-73820000D01*
X140653641Y-74580000D02*
X140346359Y-74580000D01*
%TO.C,L3*%
X139399622Y-93190000D02*
X138600378Y-93190000D01*
X139399622Y-94310000D02*
X138600378Y-94310000D01*
%TO.C,R8*%
X136120000Y-89153641D02*
X136120000Y-88846359D01*
X136880000Y-89153641D02*
X136880000Y-88846359D01*
%TO.C,R25*%
X159130000Y-80596359D02*
X159130000Y-80903641D01*
X158370000Y-80596359D02*
X158370000Y-80903641D01*
%TO.C,U502*%
X171750000Y-90065000D02*
X169950000Y-90065000D01*
X171750000Y-90065000D02*
X172550000Y-90065000D01*
X171750000Y-93185000D02*
X170950000Y-93185000D01*
X171750000Y-93185000D02*
X172550000Y-93185000D01*
%TO.C,R23*%
X144153641Y-73180000D02*
X143846359Y-73180000D01*
X144153641Y-72420000D02*
X143846359Y-72420000D01*
%TO.C,C5*%
X138859420Y-77365000D02*
X139140580Y-77365000D01*
X138859420Y-78385000D02*
X139140580Y-78385000D01*
%TO.C,L4*%
X139399622Y-83190000D02*
X138600378Y-83190000D01*
X139399622Y-84310000D02*
X138600378Y-84310000D01*
%TO.C,C504*%
X174642164Y-84265000D02*
X174857836Y-84265000D01*
X174642164Y-84985000D02*
X174857836Y-84985000D01*
%TO.C,R39*%
X130663641Y-96620000D02*
X130356359Y-96620000D01*
X130663641Y-97380000D02*
X130356359Y-97380000D01*
%TD*%
M02*
