%TF.GenerationSoftware,KiCad,Pcbnew,(5.99.0-10579-g11785b08fe)*%
%TF.CreationDate,2021-05-20T20:29:29+02:00*%
%TF.ProjectId,Mainboard,4d61696e-626f-4617-9264-2e6b69636164,1*%
%TF.SameCoordinates,Original*%
%TF.FileFunction,Paste,Top*%
%TF.FilePolarity,Positive*%
%FSLAX46Y46*%
G04 Gerber Fmt 4.6, Leading zero omitted, Abs format (unit mm)*
G04 Created by KiCad (PCBNEW (5.99.0-10579-g11785b08fe)) date 2021-05-20 20:29:29*
%MOMM*%
%LPD*%
G01*
G04 APERTURE LIST*
G04 Aperture macros list*
%AMRoundRect*
0 Rectangle with rounded corners*
0 $1 Rounding radius*
0 $2 $3 $4 $5 $6 $7 $8 $9 X,Y pos of 4 corners*
0 Add a 4 corners polygon primitive as box body*
4,1,4,$2,$3,$4,$5,$6,$7,$8,$9,$2,$3,0*
0 Add four circle primitives for the rounded corners*
1,1,$1+$1,$2,$3*
1,1,$1+$1,$4,$5*
1,1,$1+$1,$6,$7*
1,1,$1+$1,$8,$9*
0 Add four rect primitives between the rounded corners*
20,1,$1+$1,$2,$3,$4,$5,0*
20,1,$1+$1,$4,$5,$6,$7,0*
20,1,$1+$1,$6,$7,$8,$9,0*
20,1,$1+$1,$8,$9,$2,$3,0*%
G04 Aperture macros list end*
%ADD10RoundRect,0.237500X0.237500X-0.287500X0.237500X0.287500X-0.237500X0.287500X-0.237500X-0.287500X0*%
%ADD11RoundRect,0.135000X0.135000X0.185000X-0.135000X0.185000X-0.135000X-0.185000X0.135000X-0.185000X0*%
%ADD12RoundRect,0.237500X-0.287500X-0.237500X0.287500X-0.237500X0.287500X0.237500X-0.287500X0.237500X0*%
%ADD13RoundRect,0.218750X0.218750X0.256250X-0.218750X0.256250X-0.218750X-0.256250X0.218750X-0.256250X0*%
%ADD14RoundRect,0.225000X0.225000X0.250000X-0.225000X0.250000X-0.225000X-0.250000X0.225000X-0.250000X0*%
%ADD15RoundRect,0.140000X0.170000X-0.140000X0.170000X0.140000X-0.170000X0.140000X-0.170000X-0.140000X0*%
%ADD16RoundRect,0.200000X0.200000X0.275000X-0.200000X0.275000X-0.200000X-0.275000X0.200000X-0.275000X0*%
%ADD17RoundRect,0.225000X-0.225000X-0.250000X0.225000X-0.250000X0.225000X0.250000X-0.225000X0.250000X0*%
%ADD18RoundRect,0.140000X-0.170000X0.140000X-0.170000X-0.140000X0.170000X-0.140000X0.170000X0.140000X0*%
%ADD19RoundRect,0.225000X-0.250000X0.225000X-0.250000X-0.225000X0.250000X-0.225000X0.250000X0.225000X0*%
%ADD20RoundRect,0.250000X-0.250000X-0.475000X0.250000X-0.475000X0.250000X0.475000X-0.250000X0.475000X0*%
%ADD21R,1.150000X0.300000*%
%ADD22RoundRect,0.218750X0.218750X0.381250X-0.218750X0.381250X-0.218750X-0.381250X0.218750X-0.381250X0*%
%ADD23RoundRect,0.135000X0.185000X-0.135000X0.185000X0.135000X-0.185000X0.135000X-0.185000X-0.135000X0*%
%ADD24RoundRect,0.135000X-0.135000X-0.185000X0.135000X-0.185000X0.135000X0.185000X-0.135000X0.185000X0*%
%ADD25RoundRect,0.150000X0.150000X-0.512500X0.150000X0.512500X-0.150000X0.512500X-0.150000X-0.512500X0*%
%ADD26RoundRect,0.222500X-0.222500X-0.222500X0.222500X-0.222500X0.222500X0.222500X-0.222500X0.222500X0*%
%ADD27RoundRect,0.062500X-0.375000X-0.062500X0.375000X-0.062500X0.375000X0.062500X-0.375000X0.062500X0*%
%ADD28RoundRect,0.062500X-0.062500X-0.375000X0.062500X-0.375000X0.062500X0.375000X-0.062500X0.375000X0*%
%ADD29RoundRect,0.140000X-0.140000X-0.170000X0.140000X-0.170000X0.140000X0.170000X-0.140000X0.170000X0*%
%ADD30RoundRect,0.140000X0.140000X0.170000X-0.140000X0.170000X-0.140000X-0.170000X0.140000X-0.170000X0*%
%ADD31RoundRect,0.218750X-0.381250X0.218750X-0.381250X-0.218750X0.381250X-0.218750X0.381250X0.218750X0*%
%ADD32R,1.200000X1.400000*%
%ADD33RoundRect,0.250000X0.335000X0.335000X-0.335000X0.335000X-0.335000X-0.335000X0.335000X-0.335000X0*%
%ADD34RoundRect,0.062500X0.337500X0.062500X-0.337500X0.062500X-0.337500X-0.062500X0.337500X-0.062500X0*%
%ADD35RoundRect,0.062500X0.062500X0.337500X-0.062500X0.337500X-0.062500X-0.337500X0.062500X-0.337500X0*%
%ADD36RoundRect,0.218750X-0.256250X0.218750X-0.256250X-0.218750X0.256250X-0.218750X0.256250X0.218750X0*%
%ADD37RoundRect,0.135000X-0.185000X0.135000X-0.185000X-0.135000X0.185000X-0.135000X0.185000X0.135000X0*%
%ADD38RoundRect,0.218750X-0.218750X-0.381250X0.218750X-0.381250X0.218750X0.381250X-0.218750X0.381250X0*%
%ADD39R,0.900000X1.700000*%
%ADD40RoundRect,0.218750X0.256250X-0.218750X0.256250X0.218750X-0.256250X0.218750X-0.256250X-0.218750X0*%
%ADD41RoundRect,0.225000X0.250000X-0.225000X0.250000X0.225000X-0.250000X0.225000X-0.250000X-0.225000X0*%
%ADD42RoundRect,0.250000X0.475000X-0.250000X0.475000X0.250000X-0.475000X0.250000X-0.475000X-0.250000X0*%
%ADD43RoundRect,0.150000X0.150000X-0.825000X0.150000X0.825000X-0.150000X0.825000X-0.150000X-0.825000X0*%
%ADD44RoundRect,0.150000X-0.650000X-0.150000X0.650000X-0.150000X0.650000X0.150000X-0.650000X0.150000X0*%
%ADD45RoundRect,0.218750X-0.218750X-0.256250X0.218750X-0.256250X0.218750X0.256250X-0.218750X0.256250X0*%
%ADD46RoundRect,0.150000X-0.587500X-0.150000X0.587500X-0.150000X0.587500X0.150000X-0.587500X0.150000X0*%
%ADD47C,0.400000*%
%ADD48R,1.600000X1.500000*%
%ADD49RoundRect,0.150000X-0.512500X-0.150000X0.512500X-0.150000X0.512500X0.150000X-0.512500X0.150000X0*%
G04 APERTURE END LIST*
D10*
%TO.C,F2*%
X122750000Y-75625000D03*
X122750000Y-73875000D03*
%TD*%
D11*
%TO.C,R43*%
X133135000Y-90500000D03*
X132115000Y-90500000D03*
%TD*%
D12*
%TO.C,F1*%
X129250000Y-88500000D03*
X131000000Y-88500000D03*
%TD*%
D13*
%TO.C,D12*%
X130912500Y-90250000D03*
X129337500Y-90250000D03*
%TD*%
D14*
%TO.C,C203*%
X171775000Y-109500000D03*
X170225000Y-109500000D03*
%TD*%
D15*
%TO.C,C107*%
X173000000Y-94980000D03*
X173000000Y-94020000D03*
%TD*%
D16*
%TO.C,R205*%
X175825000Y-109500000D03*
X174175000Y-109500000D03*
%TD*%
%TO.C,R105*%
X175825000Y-94500000D03*
X174175000Y-94500000D03*
%TD*%
D17*
%TO.C,C102*%
X166350000Y-98125000D03*
X167900000Y-98125000D03*
%TD*%
D14*
%TO.C,C103*%
X170225000Y-94500000D03*
X171775000Y-94500000D03*
%TD*%
D18*
%TO.C,C105*%
X169500000Y-97520000D03*
X169500000Y-98480000D03*
%TD*%
D19*
%TO.C,C106*%
X174500000Y-102975000D03*
X174500000Y-104525000D03*
%TD*%
D17*
%TO.C,C202*%
X166350000Y-113125000D03*
X167900000Y-113125000D03*
%TD*%
D19*
%TO.C,C204*%
X176250000Y-117975000D03*
X176250000Y-119525000D03*
%TD*%
D18*
%TO.C,C205*%
X169500000Y-112520000D03*
X169500000Y-113480000D03*
%TD*%
D19*
%TO.C,C206*%
X174500000Y-117975000D03*
X174500000Y-119525000D03*
%TD*%
D15*
%TO.C,C207*%
X173000000Y-109980000D03*
X173000000Y-109020000D03*
%TD*%
D20*
%TO.C,C201*%
X170775000Y-118800000D03*
X172675000Y-118800000D03*
%TD*%
D21*
%TO.C,J101*%
X178580000Y-103350000D03*
X178580000Y-102550000D03*
X178580000Y-101250000D03*
X178580000Y-100250000D03*
X178580000Y-99750000D03*
X178580000Y-98750000D03*
X178580000Y-97450000D03*
X178580000Y-96650000D03*
X178580000Y-96950000D03*
X178580000Y-97750000D03*
X178580000Y-98250000D03*
X178580000Y-99250000D03*
X178580000Y-100750000D03*
X178580000Y-101750000D03*
X178580000Y-102250000D03*
X178580000Y-103050000D03*
%TD*%
%TO.C,J201*%
X178580000Y-118350000D03*
X178580000Y-117550000D03*
X178580000Y-116250000D03*
X178580000Y-115250000D03*
X178580000Y-114750000D03*
X178580000Y-113750000D03*
X178580000Y-112450000D03*
X178580000Y-111650000D03*
X178580000Y-111950000D03*
X178580000Y-112750000D03*
X178580000Y-113250000D03*
X178580000Y-114250000D03*
X178580000Y-115750000D03*
X178580000Y-116750000D03*
X178580000Y-117250000D03*
X178580000Y-118050000D03*
%TD*%
D22*
%TO.C,L101*%
X172812500Y-105750000D03*
X170687500Y-105750000D03*
%TD*%
D11*
%TO.C,R102*%
X182510000Y-106000000D03*
X181490000Y-106000000D03*
%TD*%
D23*
%TO.C,R104*%
X177000000Y-95010000D03*
X177000000Y-93990000D03*
%TD*%
D24*
%TO.C,R201*%
X179490000Y-121000000D03*
X180510000Y-121000000D03*
%TD*%
D11*
%TO.C,R202*%
X182510000Y-121000000D03*
X181490000Y-121000000D03*
%TD*%
D23*
%TO.C,R204*%
X177000000Y-110010000D03*
X177000000Y-108990000D03*
%TD*%
D25*
%TO.C,U102*%
X166800000Y-96137500D03*
X167750000Y-96137500D03*
X168700000Y-96137500D03*
X168700000Y-93862500D03*
X166800000Y-93862500D03*
%TD*%
D26*
%TO.C,U101*%
X172400000Y-97900000D03*
X172400000Y-99000000D03*
X172400000Y-100100000D03*
X173500000Y-100100000D03*
X174600000Y-97900000D03*
X174600000Y-100100000D03*
X174600000Y-99000000D03*
X173500000Y-99000000D03*
X173500000Y-97900000D03*
D27*
X171062500Y-97250000D03*
X171062500Y-97750000D03*
X171062500Y-98250000D03*
X171062500Y-98750000D03*
X171062500Y-99250000D03*
X171062500Y-99750000D03*
X171062500Y-100250000D03*
X171062500Y-100750000D03*
D28*
X171750000Y-101437500D03*
X172250000Y-101437500D03*
X172750000Y-101437500D03*
X173250000Y-101437500D03*
X173750000Y-101437500D03*
X174250000Y-101437500D03*
X174750000Y-101437500D03*
X175250000Y-101437500D03*
D27*
X175937500Y-100750000D03*
X175937500Y-100250000D03*
X175937500Y-99750000D03*
X175937500Y-99250000D03*
X175937500Y-98750000D03*
X175937500Y-98250000D03*
X175937500Y-97750000D03*
X175937500Y-97250000D03*
D28*
X175250000Y-96562500D03*
X174750000Y-96562500D03*
X174250000Y-96562500D03*
X173750000Y-96562500D03*
X173250000Y-96562500D03*
X172750000Y-96562500D03*
X172250000Y-96562500D03*
X171750000Y-96562500D03*
%TD*%
D25*
%TO.C,U202*%
X166800000Y-111137500D03*
X167750000Y-111137500D03*
X168700000Y-111137500D03*
X168700000Y-108862500D03*
X166800000Y-108862500D03*
%TD*%
D26*
%TO.C,U201*%
X174600000Y-115100000D03*
X173500000Y-114000000D03*
X173500000Y-112900000D03*
X172400000Y-115100000D03*
X172400000Y-114000000D03*
X173500000Y-115100000D03*
X174600000Y-112900000D03*
X172400000Y-112900000D03*
X174600000Y-114000000D03*
D27*
X171062500Y-112250000D03*
X171062500Y-112750000D03*
X171062500Y-113250000D03*
X171062500Y-113750000D03*
X171062500Y-114250000D03*
X171062500Y-114750000D03*
X171062500Y-115250000D03*
X171062500Y-115750000D03*
D28*
X171750000Y-116437500D03*
X172250000Y-116437500D03*
X172750000Y-116437500D03*
X173250000Y-116437500D03*
X173750000Y-116437500D03*
X174250000Y-116437500D03*
X174750000Y-116437500D03*
X175250000Y-116437500D03*
D27*
X175937500Y-115750000D03*
X175937500Y-115250000D03*
X175937500Y-114750000D03*
X175937500Y-114250000D03*
X175937500Y-113750000D03*
X175937500Y-113250000D03*
X175937500Y-112750000D03*
X175937500Y-112250000D03*
D28*
X175250000Y-111562500D03*
X174750000Y-111562500D03*
X174250000Y-111562500D03*
X173750000Y-111562500D03*
X173250000Y-111562500D03*
X172750000Y-111562500D03*
X172250000Y-111562500D03*
X171750000Y-111562500D03*
%TD*%
D24*
%TO.C,R101*%
X179490000Y-106000000D03*
X180510000Y-106000000D03*
%TD*%
D19*
%TO.C,C104*%
X176250000Y-102975000D03*
X176250000Y-104525000D03*
%TD*%
D20*
%TO.C,C101*%
X170650000Y-103800000D03*
X172550000Y-103800000D03*
%TD*%
D22*
%TO.C,L201*%
X172937500Y-120750000D03*
X170812500Y-120750000D03*
%TD*%
D21*
%TO.C,J501*%
X178580000Y-88350000D03*
X178580000Y-87550000D03*
X178580000Y-86250000D03*
X178580000Y-85250000D03*
X178580000Y-84750000D03*
X178580000Y-83750000D03*
X178580000Y-82450000D03*
X178580000Y-81650000D03*
X178580000Y-81950000D03*
X178580000Y-82750000D03*
X178580000Y-83250000D03*
X178580000Y-84250000D03*
X178580000Y-85750000D03*
X178580000Y-86750000D03*
X178580000Y-87250000D03*
X178580000Y-88050000D03*
%TD*%
D24*
%TO.C,R501*%
X179490000Y-91000000D03*
X180510000Y-91000000D03*
%TD*%
D11*
%TO.C,R502*%
X182510000Y-91000000D03*
X181490000Y-91000000D03*
%TD*%
D18*
%TO.C,C501*%
X173375000Y-88020000D03*
X173375000Y-88980000D03*
%TD*%
D29*
%TO.C,C502*%
X174270000Y-85625000D03*
X175230000Y-85625000D03*
%TD*%
%TO.C,C506*%
X174270000Y-81875000D03*
X175230000Y-81875000D03*
%TD*%
D30*
%TO.C,C507*%
X162730000Y-80500000D03*
X161770000Y-80500000D03*
%TD*%
D29*
%TO.C,C509*%
X174270000Y-80500000D03*
X175230000Y-80500000D03*
%TD*%
D30*
%TO.C,C510*%
X162730000Y-83000000D03*
X161770000Y-83000000D03*
%TD*%
D15*
%TO.C,C511*%
X170750000Y-76480000D03*
X170750000Y-75520000D03*
%TD*%
%TO.C,C512*%
X165250000Y-76480000D03*
X165250000Y-75520000D03*
%TD*%
D29*
%TO.C,C514*%
X164020000Y-88000000D03*
X164980000Y-88000000D03*
%TD*%
D17*
%TO.C,C515*%
X164225000Y-89400000D03*
X165775000Y-89400000D03*
%TD*%
D31*
%TO.C,L1*%
X178125000Y-76812500D03*
X178125000Y-78937500D03*
%TD*%
%TO.C,L501*%
X183875000Y-76812500D03*
X183875000Y-78937500D03*
%TD*%
D23*
%TO.C,R508*%
X170500000Y-89010000D03*
X170500000Y-87990000D03*
%TD*%
D32*
%TO.C,Y501*%
X174775000Y-87150000D03*
X174775000Y-89350000D03*
X176475000Y-89350000D03*
X176475000Y-87150000D03*
%TD*%
D18*
%TO.C,C508*%
X172250000Y-88020000D03*
X172250000Y-88980000D03*
%TD*%
D23*
%TO.C,R601*%
X152200000Y-125110000D03*
X152200000Y-124090000D03*
%TD*%
%TO.C,R602*%
X152200000Y-127710000D03*
X152200000Y-126690000D03*
%TD*%
%TO.C,R611*%
X143200000Y-125110000D03*
X143200000Y-124090000D03*
%TD*%
%TO.C,R612*%
X143200000Y-127710000D03*
X143200000Y-126690000D03*
%TD*%
%TO.C,R621*%
X134400000Y-125110000D03*
X134400000Y-124090000D03*
%TD*%
%TO.C,R622*%
X134400000Y-127710000D03*
X134400000Y-126690000D03*
%TD*%
D33*
%TO.C,U501*%
X168500000Y-80800000D03*
X169950000Y-82250000D03*
X169950000Y-80800000D03*
X167050000Y-82250000D03*
X167050000Y-80800000D03*
X169950000Y-83700000D03*
X167050000Y-83700000D03*
X168500000Y-83700000D03*
X168500000Y-82250000D03*
D34*
X172950000Y-86000000D03*
X172950000Y-85500000D03*
X172950000Y-85000000D03*
X172950000Y-84500000D03*
X172950000Y-84000000D03*
X172950000Y-83500000D03*
X172950000Y-83000000D03*
X172950000Y-82500000D03*
X172950000Y-82000000D03*
X172950000Y-81500000D03*
X172950000Y-81000000D03*
X172950000Y-80500000D03*
X172950000Y-80000000D03*
X172950000Y-79500000D03*
X172950000Y-79000000D03*
X172950000Y-78500000D03*
D35*
X172250000Y-77800000D03*
X171750000Y-77800000D03*
X171250000Y-77800000D03*
X170750000Y-77800000D03*
X170250000Y-77800000D03*
X169750000Y-77800000D03*
X169250000Y-77800000D03*
X168750000Y-77800000D03*
X168250000Y-77800000D03*
X167750000Y-77800000D03*
X167250000Y-77800000D03*
X166750000Y-77800000D03*
X166250000Y-77800000D03*
X165750000Y-77800000D03*
X165250000Y-77800000D03*
X164750000Y-77800000D03*
D34*
X164050000Y-78500000D03*
X164050000Y-79000000D03*
X164050000Y-79500000D03*
X164050000Y-80000000D03*
X164050000Y-80500000D03*
X164050000Y-81000000D03*
X164050000Y-81500000D03*
X164050000Y-82000000D03*
X164050000Y-82500000D03*
X164050000Y-83000000D03*
X164050000Y-83500000D03*
X164050000Y-84000000D03*
X164050000Y-84500000D03*
X164050000Y-85000000D03*
X164050000Y-85500000D03*
X164050000Y-86000000D03*
D35*
X164750000Y-86700000D03*
X165250000Y-86700000D03*
X165750000Y-86700000D03*
X166250000Y-86700000D03*
X166750000Y-86700000D03*
X167250000Y-86700000D03*
X167750000Y-86700000D03*
X168250000Y-86700000D03*
X168750000Y-86700000D03*
X169250000Y-86700000D03*
X169750000Y-86700000D03*
X170250000Y-86700000D03*
X170750000Y-86700000D03*
X171250000Y-86700000D03*
X171750000Y-86700000D03*
X172250000Y-86700000D03*
%TD*%
D36*
%TO.C,D3*%
X128500000Y-93925000D03*
X128500000Y-95500000D03*
%TD*%
%TO.C,D4*%
X130500000Y-93962500D03*
X130500000Y-95537500D03*
%TD*%
%TO.C,D5*%
X124500000Y-93925000D03*
X124500000Y-95500000D03*
%TD*%
D37*
%TO.C,R3*%
X123500000Y-99740000D03*
X123500000Y-100760000D03*
%TD*%
%TO.C,R4*%
X129500000Y-99740000D03*
X129500000Y-100760000D03*
%TD*%
%TO.C,R5*%
X135500000Y-99740000D03*
X135500000Y-100760000D03*
%TD*%
D20*
%TO.C,C3*%
X123800000Y-88750000D03*
X125700000Y-88750000D03*
%TD*%
D22*
%TO.C,L2*%
X125812500Y-90750000D03*
X123687500Y-90750000D03*
%TD*%
D36*
%TO.C,D2*%
X134125000Y-85712500D03*
X134125000Y-87287500D03*
%TD*%
D38*
%TO.C,L6*%
X163062500Y-108125000D03*
X165187500Y-108125000D03*
%TD*%
D23*
%TO.C,R36*%
X169500000Y-76510000D03*
X169500000Y-75490000D03*
%TD*%
D39*
%TO.C,SW4*%
X134200000Y-101480000D03*
X130800000Y-101480000D03*
%TD*%
D24*
%TO.C,R38*%
X155615000Y-107500000D03*
X156635000Y-107500000D03*
%TD*%
D25*
%TO.C,U4*%
X138050000Y-81887500D03*
X139000000Y-81887500D03*
X139950000Y-81887500D03*
X139950000Y-79612500D03*
X138050000Y-79612500D03*
%TD*%
D14*
%TO.C,C14*%
X136275000Y-83750000D03*
X134725000Y-83750000D03*
%TD*%
%TO.C,C16*%
X136275000Y-92250000D03*
X134725000Y-92250000D03*
%TD*%
D29*
%TO.C,C516*%
X174270000Y-78500000D03*
X175230000Y-78500000D03*
%TD*%
D23*
%TO.C,R15*%
X153750000Y-84510000D03*
X153750000Y-83490000D03*
%TD*%
D18*
%TO.C,C52*%
X129500000Y-101750000D03*
X129500000Y-102710000D03*
%TD*%
D24*
%TO.C,R16*%
X151740000Y-76125000D03*
X152760000Y-76125000D03*
%TD*%
D37*
%TO.C,R11*%
X134500000Y-78490000D03*
X134500000Y-79510000D03*
%TD*%
D11*
%TO.C,R40*%
X125010000Y-97000000D03*
X123990000Y-97000000D03*
%TD*%
%TO.C,R503*%
X175260000Y-83625000D03*
X174240000Y-83625000D03*
%TD*%
D17*
%TO.C,C4*%
X138225000Y-87875000D03*
X139775000Y-87875000D03*
%TD*%
D40*
%TO.C,D10*%
X150750000Y-74287500D03*
X150750000Y-72712500D03*
%TD*%
D23*
%TO.C,R34*%
X167250000Y-76510000D03*
X167250000Y-75490000D03*
%TD*%
D11*
%TO.C,R505*%
X175385000Y-92625000D03*
X174365000Y-92625000D03*
%TD*%
D14*
%TO.C,C10*%
X136275000Y-90750000D03*
X134725000Y-90750000D03*
%TD*%
D15*
%TO.C,C9*%
X143000000Y-79480000D03*
X143000000Y-78520000D03*
%TD*%
D25*
%TO.C,U3*%
X138050000Y-91887500D03*
X139000000Y-91887500D03*
X139950000Y-91887500D03*
X139950000Y-89612500D03*
X138050000Y-89612500D03*
%TD*%
D37*
%TO.C,R13*%
X142000000Y-78490000D03*
X142000000Y-79510000D03*
%TD*%
%TO.C,R14*%
X154750000Y-83490000D03*
X154750000Y-84510000D03*
%TD*%
D41*
%TO.C,C503*%
X182125000Y-78900000D03*
X182125000Y-77350000D03*
%TD*%
%TO.C,C505*%
X179875000Y-78900000D03*
X179875000Y-77350000D03*
%TD*%
D37*
%TO.C,R17*%
X152750000Y-83490000D03*
X152750000Y-84510000D03*
%TD*%
D18*
%TO.C,C53*%
X135500000Y-101750000D03*
X135500000Y-102710000D03*
%TD*%
D37*
%TO.C,R9*%
X134500000Y-88490000D03*
X134500000Y-89510000D03*
%TD*%
D14*
%TO.C,C17*%
X136275000Y-82250000D03*
X134725000Y-82250000D03*
%TD*%
D18*
%TO.C,C513*%
X168250000Y-88020000D03*
X168250000Y-88980000D03*
%TD*%
D42*
%TO.C,C19*%
X168875000Y-105575000D03*
X168875000Y-103675000D03*
%TD*%
D14*
%TO.C,C18*%
X143775000Y-82250000D03*
X142225000Y-82250000D03*
%TD*%
D11*
%TO.C,R29*%
X153010000Y-72500000D03*
X151990000Y-72500000D03*
%TD*%
D39*
%TO.C,SW5*%
X140200000Y-101480000D03*
X136800000Y-101480000D03*
%TD*%
%TO.C,SW2*%
X145800000Y-73500000D03*
X149200000Y-73500000D03*
%TD*%
%TO.C,SW1*%
X154300000Y-73500000D03*
X157700000Y-73500000D03*
%TD*%
D40*
%TO.C,D7*%
X138750000Y-74287500D03*
X138750000Y-72712500D03*
%TD*%
D11*
%TO.C,R42*%
X133020000Y-97000000D03*
X132000000Y-97000000D03*
%TD*%
%TO.C,R1*%
X133135000Y-91500000D03*
X132115000Y-91500000D03*
%TD*%
D23*
%TO.C,R10*%
X136500000Y-79510000D03*
X136500000Y-78490000D03*
%TD*%
D39*
%TO.C,SW3*%
X128200000Y-101480000D03*
X124800000Y-101480000D03*
%TD*%
D40*
%TO.C,D8*%
X159250000Y-74287500D03*
X159250000Y-72712500D03*
%TD*%
D11*
%TO.C,R28*%
X150510000Y-76125000D03*
X149490000Y-76125000D03*
%TD*%
D23*
%TO.C,R7*%
X155750000Y-84510000D03*
X155750000Y-83490000D03*
%TD*%
D11*
%TO.C,R27*%
X144510000Y-74200000D03*
X143490000Y-74200000D03*
%TD*%
D43*
%TO.C,U6*%
X154220000Y-114475000D03*
X155490000Y-114475000D03*
X156760000Y-114475000D03*
X158030000Y-114475000D03*
X158030000Y-109525000D03*
X156760000Y-109525000D03*
X155490000Y-109525000D03*
X154220000Y-109525000D03*
%TD*%
D36*
%TO.C,D11*%
X132500000Y-93962500D03*
X132500000Y-95537500D03*
%TD*%
D18*
%TO.C,C51*%
X123500000Y-101770000D03*
X123500000Y-102730000D03*
%TD*%
D11*
%TO.C,R37*%
X158635000Y-107500000D03*
X157615000Y-107500000D03*
%TD*%
%TO.C,R41*%
X127020000Y-96980000D03*
X126000000Y-96980000D03*
%TD*%
D14*
%TO.C,C12*%
X143775000Y-80750000D03*
X142225000Y-80750000D03*
%TD*%
D15*
%TO.C,C8*%
X135500000Y-79480000D03*
X135500000Y-78520000D03*
%TD*%
D23*
%TO.C,R35*%
X168375000Y-76510000D03*
X168375000Y-75490000D03*
%TD*%
D11*
%TO.C,R31*%
X153010000Y-73500000D03*
X151990000Y-73500000D03*
%TD*%
D30*
%TO.C,C50*%
X154605000Y-107500000D03*
X153645000Y-107500000D03*
%TD*%
D14*
%TO.C,C11*%
X136275000Y-80750000D03*
X134725000Y-80750000D03*
%TD*%
D44*
%TO.C,U2*%
X149900000Y-77595000D03*
X149900000Y-78865000D03*
X149900000Y-80135000D03*
X149900000Y-81405000D03*
X157100000Y-81405000D03*
X157100000Y-80135000D03*
X157100000Y-78865000D03*
X157100000Y-77595000D03*
%TD*%
D23*
%TO.C,R2*%
X133500000Y-89510000D03*
X133500000Y-88490000D03*
%TD*%
D14*
%TO.C,C15*%
X143775000Y-83750000D03*
X142225000Y-83750000D03*
%TD*%
D15*
%TO.C,C7*%
X135500000Y-89480000D03*
X135500000Y-88520000D03*
%TD*%
D11*
%TO.C,R504*%
X175385000Y-91500000D03*
X174365000Y-91500000D03*
%TD*%
D29*
%TO.C,C20*%
X168395000Y-107000000D03*
X169355000Y-107000000D03*
%TD*%
D23*
%TO.C,R506*%
X169000000Y-92385000D03*
X169000000Y-91365000D03*
%TD*%
D24*
%TO.C,R30*%
X149490000Y-83000000D03*
X150510000Y-83000000D03*
%TD*%
D23*
%TO.C,R18*%
X151750000Y-84510000D03*
X151750000Y-83490000D03*
%TD*%
D36*
%TO.C,D6*%
X126500000Y-93962500D03*
X126500000Y-95537500D03*
%TD*%
D25*
%TO.C,U5*%
X145550000Y-81887500D03*
X146500000Y-81887500D03*
X147450000Y-81887500D03*
X147450000Y-79612500D03*
X145550000Y-79612500D03*
%TD*%
D37*
%TO.C,R6*%
X156750000Y-83490000D03*
X156750000Y-84510000D03*
%TD*%
D40*
%TO.C,D9*%
X142250000Y-74287500D03*
X142250000Y-72712500D03*
%TD*%
D11*
%TO.C,R22*%
X161010000Y-75750000D03*
X159990000Y-75750000D03*
%TD*%
D37*
%TO.C,R32*%
X158750000Y-77730000D03*
X158750000Y-78750000D03*
%TD*%
D45*
%TO.C,D1*%
X129337500Y-91875000D03*
X130912500Y-91875000D03*
%TD*%
D37*
%TO.C,R24*%
X158750000Y-82490000D03*
X158750000Y-83510000D03*
%TD*%
D23*
%TO.C,R12*%
X144000000Y-79510000D03*
X144000000Y-78490000D03*
%TD*%
D24*
%TO.C,R507*%
X174240000Y-79500000D03*
X175260000Y-79500000D03*
%TD*%
D17*
%TO.C,C6*%
X145725000Y-77875000D03*
X147275000Y-77875000D03*
%TD*%
D29*
%TO.C,C2*%
X152020000Y-74500000D03*
X152980000Y-74500000D03*
%TD*%
D46*
%TO.C,Q1*%
X134825000Y-72550000D03*
X134825000Y-74450000D03*
X136700000Y-73500000D03*
%TD*%
D29*
%TO.C,C1*%
X160020000Y-77750000D03*
X160980000Y-77750000D03*
%TD*%
D11*
%TO.C,R26*%
X161010000Y-76750000D03*
X159990000Y-76750000D03*
%TD*%
D47*
%TO.C,U1*%
X158800000Y-102600000D03*
X158000000Y-102600000D03*
X157200000Y-102600000D03*
X156400000Y-102600000D03*
X155600000Y-102600000D03*
X154800000Y-102600000D03*
X154000000Y-102600000D03*
X153200000Y-102600000D03*
X152400000Y-102600000D03*
X151600000Y-102600000D03*
X150800000Y-102600000D03*
X150000000Y-102600000D03*
X149200000Y-102600000D03*
X148400000Y-102600000D03*
X147600000Y-102600000D03*
X146800000Y-102600000D03*
X146000000Y-102600000D03*
X145200000Y-102600000D03*
X159600000Y-101800000D03*
X158800000Y-101800000D03*
X158000000Y-101800000D03*
X157200000Y-101800000D03*
X156400000Y-101800000D03*
X155600000Y-101800000D03*
X154800000Y-101800000D03*
X154000000Y-101800000D03*
X153200000Y-101800000D03*
X152400000Y-101800000D03*
X151600000Y-101800000D03*
X150800000Y-101800000D03*
X150000000Y-101800000D03*
X149200000Y-101800000D03*
X148400000Y-101800000D03*
X147600000Y-101800000D03*
X146800000Y-101800000D03*
X146000000Y-101800000D03*
X145200000Y-101800000D03*
X144400000Y-101800000D03*
X159600000Y-101000000D03*
X158800000Y-101000000D03*
X158000000Y-101000000D03*
X157200000Y-101000000D03*
X156400000Y-101000000D03*
X155600000Y-101000000D03*
X154800000Y-101000000D03*
X154000000Y-101000000D03*
X153200000Y-101000000D03*
X152400000Y-101000000D03*
X151600000Y-101000000D03*
X150800000Y-101000000D03*
X150000000Y-101000000D03*
X149200000Y-101000000D03*
X148400000Y-101000000D03*
X147600000Y-101000000D03*
X146800000Y-101000000D03*
X146000000Y-101000000D03*
X145200000Y-101000000D03*
X144400000Y-101000000D03*
X159600000Y-100200000D03*
X158800000Y-100200000D03*
X158000000Y-100200000D03*
X157200000Y-100200000D03*
X156400000Y-100200000D03*
X155600000Y-100200000D03*
X154800000Y-100200000D03*
X154000000Y-100200000D03*
X153200000Y-100200000D03*
X152400000Y-100200000D03*
X151600000Y-100200000D03*
X150800000Y-100200000D03*
X150000000Y-100200000D03*
X149200000Y-100200000D03*
X148400000Y-100200000D03*
X147600000Y-100200000D03*
X146800000Y-100200000D03*
X146000000Y-100200000D03*
X145200000Y-100200000D03*
X144400000Y-100200000D03*
X159600000Y-99400000D03*
X158800000Y-99400000D03*
X158000000Y-99400000D03*
X157200000Y-99400000D03*
X156400000Y-99400000D03*
X155600000Y-99400000D03*
X154800000Y-99400000D03*
X154000000Y-99400000D03*
X153200000Y-99400000D03*
X152400000Y-99400000D03*
X151600000Y-99400000D03*
X150800000Y-99400000D03*
X150000000Y-99400000D03*
X149200000Y-99400000D03*
X148400000Y-99400000D03*
X147600000Y-99400000D03*
X146800000Y-99400000D03*
X146000000Y-99400000D03*
X145200000Y-99400000D03*
X144400000Y-99400000D03*
X159600000Y-98600000D03*
X158800000Y-98600000D03*
X158000000Y-98600000D03*
X157200000Y-98600000D03*
X156400000Y-98600000D03*
X155600000Y-98600000D03*
X154800000Y-98600000D03*
X154000000Y-98600000D03*
X153200000Y-98600000D03*
X152400000Y-98600000D03*
X151600000Y-98600000D03*
X150800000Y-98600000D03*
X150000000Y-98600000D03*
X149200000Y-98600000D03*
X148400000Y-98600000D03*
X147600000Y-98600000D03*
X146800000Y-98600000D03*
X146000000Y-98600000D03*
X145200000Y-98600000D03*
X144400000Y-98600000D03*
X159600000Y-97800000D03*
X158800000Y-97800000D03*
X158000000Y-97800000D03*
X157200000Y-97800000D03*
X156400000Y-97800000D03*
X155600000Y-97800000D03*
X154800000Y-97800000D03*
X154000000Y-97800000D03*
X153200000Y-97800000D03*
X152400000Y-97800000D03*
X151600000Y-97800000D03*
X150800000Y-97800000D03*
X150000000Y-97800000D03*
X149200000Y-97800000D03*
X148400000Y-97800000D03*
X147600000Y-97800000D03*
X146800000Y-97800000D03*
X146000000Y-97800000D03*
X145200000Y-97800000D03*
X144400000Y-97800000D03*
X159600000Y-97000000D03*
X158800000Y-97000000D03*
X158000000Y-97000000D03*
X157200000Y-97000000D03*
X156400000Y-97000000D03*
X155600000Y-97000000D03*
X154800000Y-97000000D03*
X154000000Y-97000000D03*
X153200000Y-97000000D03*
X152400000Y-97000000D03*
X151600000Y-97000000D03*
X150800000Y-97000000D03*
X150000000Y-97000000D03*
X149200000Y-97000000D03*
X148400000Y-97000000D03*
X147600000Y-97000000D03*
X146800000Y-97000000D03*
X146000000Y-97000000D03*
X145200000Y-97000000D03*
X144400000Y-97000000D03*
X159600000Y-96200000D03*
X158800000Y-96200000D03*
X158000000Y-96200000D03*
X157200000Y-96200000D03*
X156400000Y-96200000D03*
X155600000Y-96200000D03*
X154800000Y-96200000D03*
X154000000Y-96200000D03*
X153200000Y-96200000D03*
X152400000Y-96200000D03*
X151600000Y-96200000D03*
X150800000Y-96200000D03*
X150000000Y-96200000D03*
X149200000Y-96200000D03*
X148400000Y-96200000D03*
X147600000Y-96200000D03*
X146800000Y-96200000D03*
X146000000Y-96200000D03*
X145200000Y-96200000D03*
X144400000Y-96200000D03*
X159600000Y-95400000D03*
X158800000Y-95400000D03*
X158000000Y-95400000D03*
X157200000Y-95400000D03*
X156400000Y-95400000D03*
X155600000Y-95400000D03*
X154800000Y-95400000D03*
X154000000Y-95400000D03*
X153200000Y-95400000D03*
X152400000Y-95400000D03*
X151600000Y-95400000D03*
X150800000Y-95400000D03*
X150000000Y-95400000D03*
X149200000Y-95400000D03*
X148400000Y-95400000D03*
X147600000Y-95400000D03*
X146800000Y-95400000D03*
X146000000Y-95400000D03*
X145200000Y-95400000D03*
X144400000Y-95400000D03*
X159600000Y-94600000D03*
X158800000Y-94600000D03*
X158000000Y-94600000D03*
X157200000Y-94600000D03*
X156400000Y-94600000D03*
X155600000Y-94600000D03*
X154800000Y-94600000D03*
X154000000Y-94600000D03*
X153200000Y-94600000D03*
X152400000Y-94600000D03*
X151600000Y-94600000D03*
X150800000Y-94600000D03*
X150000000Y-94600000D03*
X149200000Y-94600000D03*
X148400000Y-94600000D03*
X147600000Y-94600000D03*
X146800000Y-94600000D03*
X146000000Y-94600000D03*
X145200000Y-94600000D03*
X144400000Y-94600000D03*
X159600000Y-93800000D03*
X158800000Y-93800000D03*
X158000000Y-93800000D03*
X157200000Y-93800000D03*
X156400000Y-93800000D03*
X155600000Y-93800000D03*
X154800000Y-93800000D03*
X154000000Y-93800000D03*
X153200000Y-93800000D03*
X152400000Y-93800000D03*
X151600000Y-93800000D03*
X150800000Y-93800000D03*
X150000000Y-93800000D03*
X149200000Y-93800000D03*
X148400000Y-93800000D03*
X147600000Y-93800000D03*
X146800000Y-93800000D03*
X146000000Y-93800000D03*
X145200000Y-93800000D03*
X144400000Y-93800000D03*
X159600000Y-93000000D03*
X158800000Y-93000000D03*
X158000000Y-93000000D03*
X157200000Y-93000000D03*
X156400000Y-93000000D03*
X155600000Y-93000000D03*
X154800000Y-93000000D03*
X154000000Y-93000000D03*
X153200000Y-93000000D03*
X152400000Y-93000000D03*
X151600000Y-93000000D03*
X150800000Y-93000000D03*
X150000000Y-93000000D03*
X149200000Y-93000000D03*
X148400000Y-93000000D03*
X147600000Y-93000000D03*
X146800000Y-93000000D03*
X146000000Y-93000000D03*
X145200000Y-93000000D03*
X144400000Y-93000000D03*
X159600000Y-92200000D03*
X158800000Y-92200000D03*
X158000000Y-92200000D03*
X157200000Y-92200000D03*
X156400000Y-92200000D03*
X155600000Y-92200000D03*
X154800000Y-92200000D03*
X154000000Y-92200000D03*
X153200000Y-92200000D03*
X152400000Y-92200000D03*
X151600000Y-92200000D03*
X150800000Y-92200000D03*
X150000000Y-92200000D03*
X149200000Y-92200000D03*
X148400000Y-92200000D03*
X147600000Y-92200000D03*
X146800000Y-92200000D03*
X146000000Y-92200000D03*
X145200000Y-92200000D03*
X144400000Y-92200000D03*
X159600000Y-91400000D03*
X158800000Y-91400000D03*
X158000000Y-91400000D03*
X157200000Y-91400000D03*
X156400000Y-91400000D03*
X147600000Y-91400000D03*
X146800000Y-91400000D03*
X146000000Y-91400000D03*
X145200000Y-91400000D03*
X144400000Y-91400000D03*
X159600000Y-90600000D03*
X158800000Y-90600000D03*
X158000000Y-90600000D03*
X157200000Y-90600000D03*
X156400000Y-90600000D03*
X155600000Y-90600000D03*
X154800000Y-90600000D03*
X154000000Y-90600000D03*
X153200000Y-90600000D03*
X152400000Y-90600000D03*
X151600000Y-90600000D03*
X150800000Y-90600000D03*
X150000000Y-90600000D03*
X149200000Y-90600000D03*
X148400000Y-90600000D03*
X147600000Y-90600000D03*
X146800000Y-90600000D03*
X146000000Y-90600000D03*
X145200000Y-90600000D03*
X144400000Y-90600000D03*
X159600000Y-89800000D03*
X158800000Y-89800000D03*
X158000000Y-89800000D03*
X157200000Y-89800000D03*
X156400000Y-89800000D03*
X155600000Y-89800000D03*
X154800000Y-89800000D03*
X154000000Y-89800000D03*
X153200000Y-89800000D03*
X152400000Y-89800000D03*
X151600000Y-89800000D03*
X150800000Y-89800000D03*
X150000000Y-89800000D03*
X149200000Y-89800000D03*
X148400000Y-89800000D03*
X147600000Y-89800000D03*
X146800000Y-89800000D03*
X146000000Y-89800000D03*
X145200000Y-89800000D03*
X144400000Y-89800000D03*
X159600000Y-89000000D03*
X158800000Y-89000000D03*
X158000000Y-89000000D03*
X157200000Y-89000000D03*
X156400000Y-89000000D03*
X155600000Y-89000000D03*
X154800000Y-89000000D03*
X154000000Y-89000000D03*
X153200000Y-89000000D03*
X152400000Y-89000000D03*
X151600000Y-89000000D03*
X150800000Y-89000000D03*
X150000000Y-89000000D03*
X149200000Y-89000000D03*
X148400000Y-89000000D03*
X147600000Y-89000000D03*
X146800000Y-89000000D03*
X146000000Y-89000000D03*
X145200000Y-89000000D03*
X144400000Y-89000000D03*
X159600000Y-88200000D03*
X158800000Y-88200000D03*
X158000000Y-88200000D03*
X157200000Y-88200000D03*
X156400000Y-88200000D03*
X155600000Y-88200000D03*
X154800000Y-88200000D03*
X154000000Y-88200000D03*
X153200000Y-88200000D03*
X152400000Y-88200000D03*
X151600000Y-88200000D03*
X150800000Y-88200000D03*
X150000000Y-88200000D03*
X149200000Y-88200000D03*
X148400000Y-88200000D03*
X147600000Y-88200000D03*
X146800000Y-88200000D03*
X146000000Y-88200000D03*
X145200000Y-88200000D03*
X144400000Y-88200000D03*
X158800000Y-87400000D03*
X158000000Y-87400000D03*
X156400000Y-87400000D03*
X155600000Y-87400000D03*
X154800000Y-87400000D03*
X154000000Y-87400000D03*
X151600000Y-87400000D03*
X150800000Y-87400000D03*
X149200000Y-87400000D03*
X148400000Y-87400000D03*
X147600000Y-87400000D03*
X146800000Y-87400000D03*
X145200000Y-87400000D03*
%TD*%
D14*
%TO.C,C13*%
X136275000Y-93750000D03*
X134725000Y-93750000D03*
%TD*%
D23*
%TO.C,R33*%
X172375000Y-76510000D03*
X172375000Y-75490000D03*
%TD*%
D22*
%TO.C,L5*%
X147562500Y-83750000D03*
X145437500Y-83750000D03*
%TD*%
D11*
%TO.C,R19*%
X129020000Y-97000000D03*
X128000000Y-97000000D03*
%TD*%
%TO.C,R20*%
X141010000Y-72800000D03*
X139990000Y-72800000D03*
%TD*%
D48*
%TO.C,X1*%
X166270000Y-103900000D03*
X163730000Y-103900000D03*
X163730000Y-106100000D03*
X166270000Y-106100000D03*
%TD*%
D11*
%TO.C,R21*%
X141010000Y-74200000D03*
X139990000Y-74200000D03*
%TD*%
D22*
%TO.C,L3*%
X140062500Y-93750000D03*
X137937500Y-93750000D03*
%TD*%
D23*
%TO.C,R8*%
X136500000Y-89510000D03*
X136500000Y-88490000D03*
%TD*%
D37*
%TO.C,R25*%
X158750000Y-80240000D03*
X158750000Y-81260000D03*
%TD*%
D49*
%TO.C,U502*%
X170612500Y-90675000D03*
X170612500Y-91625000D03*
X170612500Y-92575000D03*
X172887500Y-92575000D03*
X172887500Y-91625000D03*
X172887500Y-90675000D03*
%TD*%
D11*
%TO.C,R23*%
X144510000Y-72800000D03*
X143490000Y-72800000D03*
%TD*%
D17*
%TO.C,C5*%
X138225000Y-77875000D03*
X139775000Y-77875000D03*
%TD*%
D22*
%TO.C,L4*%
X140062500Y-83750000D03*
X137937500Y-83750000D03*
%TD*%
D29*
%TO.C,C504*%
X174270000Y-84625000D03*
X175230000Y-84625000D03*
%TD*%
D11*
%TO.C,R39*%
X131020000Y-97000000D03*
X130000000Y-97000000D03*
%TD*%
M02*
